G04 #@! TF.GenerationSoftware,KiCad,Pcbnew,5.1.6*
G04 #@! TF.CreationDate,2020-06-13T11:17:34+02:00*
G04 #@! TF.ProjectId,RAMPS-FD,52414d50-532d-4464-942e-6b696361645f,3.0*
G04 #@! TF.SameCoordinates,Original*
G04 #@! TF.FileFunction,Legend,Bot*
G04 #@! TF.FilePolarity,Positive*
%FSLAX46Y46*%
G04 Gerber Fmt 4.6, Leading zero omitted, Abs format (unit mm)*
G04 Created by KiCad (PCBNEW 5.1.6) date 2020-06-13 11:17:34*
%MOMM*%
%LPD*%
G01*
G04 APERTURE LIST*
%ADD10C,0.150000*%
%ADD11C,0.153000*%
%ADD12C,0.304800*%
%ADD13C,0.002540*%
%ADD14C,0.100000*%
%ADD15C,0.200000*%
G04 APERTURE END LIST*
D10*
X67703238Y-103393142D02*
X67703238Y-104036000D01*
X67741333Y-104164571D01*
X67817523Y-104250285D01*
X67931809Y-104293142D01*
X68008000Y-104293142D01*
X66941333Y-104293142D02*
X67322285Y-104293142D01*
X67322285Y-103393142D01*
X66217523Y-104207428D02*
X66255619Y-104250285D01*
X66369904Y-104293142D01*
X66446095Y-104293142D01*
X66560380Y-104250285D01*
X66636571Y-104164571D01*
X66674666Y-104078857D01*
X66712761Y-103907428D01*
X66712761Y-103778857D01*
X66674666Y-103607428D01*
X66636571Y-103521714D01*
X66560380Y-103436000D01*
X66446095Y-103393142D01*
X66369904Y-103393142D01*
X66255619Y-103436000D01*
X66217523Y-103478857D01*
X65646095Y-103393142D02*
X65646095Y-104036000D01*
X65684190Y-104164571D01*
X65760380Y-104250285D01*
X65874666Y-104293142D01*
X65950857Y-104293142D01*
X64884190Y-104293142D02*
X65265142Y-104293142D01*
X65265142Y-103393142D01*
X64160380Y-104207428D02*
X64198476Y-104250285D01*
X64312761Y-104293142D01*
X64388952Y-104293142D01*
X64503238Y-104250285D01*
X64579428Y-104164571D01*
X64617523Y-104078857D01*
X64655619Y-103907428D01*
X64655619Y-103778857D01*
X64617523Y-103607428D01*
X64579428Y-103521714D01*
X64503238Y-103436000D01*
X64388952Y-103393142D01*
X64312761Y-103393142D01*
X64198476Y-103436000D01*
X64160380Y-103478857D01*
X63588952Y-103393142D02*
X63588952Y-104036000D01*
X63627047Y-104164571D01*
X63703238Y-104250285D01*
X63817523Y-104293142D01*
X63893714Y-104293142D01*
X62827047Y-104293142D02*
X63208000Y-104293142D01*
X63208000Y-103393142D01*
X62103238Y-104207428D02*
X62141333Y-104250285D01*
X62255619Y-104293142D01*
X62331809Y-104293142D01*
X62446095Y-104250285D01*
X62522285Y-104164571D01*
X62560380Y-104078857D01*
X62598476Y-103907428D01*
X62598476Y-103778857D01*
X62560380Y-103607428D01*
X62522285Y-103521714D01*
X62446095Y-103436000D01*
X62331809Y-103393142D01*
X62255619Y-103393142D01*
X62141333Y-103436000D01*
X62103238Y-103478857D01*
X61531809Y-103393142D02*
X61531809Y-104036000D01*
X61569904Y-104164571D01*
X61646095Y-104250285D01*
X61760380Y-104293142D01*
X61836571Y-104293142D01*
X60769904Y-104293142D02*
X61150857Y-104293142D01*
X61150857Y-103393142D01*
X60046095Y-104207428D02*
X60084190Y-104250285D01*
X60198476Y-104293142D01*
X60274666Y-104293142D01*
X60388952Y-104250285D01*
X60465142Y-104164571D01*
X60503238Y-104078857D01*
X60541333Y-103907428D01*
X60541333Y-103778857D01*
X60503238Y-103607428D01*
X60465142Y-103521714D01*
X60388952Y-103436000D01*
X60274666Y-103393142D01*
X60198476Y-103393142D01*
X60084190Y-103436000D01*
X60046095Y-103478857D01*
X88383666Y-132786428D02*
X87621761Y-132786428D01*
X88002714Y-133167380D02*
X88002714Y-132405476D01*
X86669380Y-132167380D02*
X87145571Y-132167380D01*
X87193190Y-132643571D01*
X87145571Y-132595952D01*
X87050333Y-132548333D01*
X86812238Y-132548333D01*
X86717000Y-132595952D01*
X86669380Y-132643571D01*
X86621761Y-132738809D01*
X86621761Y-132976904D01*
X86669380Y-133072142D01*
X86717000Y-133119761D01*
X86812238Y-133167380D01*
X87050333Y-133167380D01*
X87145571Y-133119761D01*
X87193190Y-133072142D01*
X86336047Y-132167380D02*
X86002714Y-133167380D01*
X85669380Y-132167380D01*
X84574142Y-133167380D02*
X84574142Y-132167380D01*
X84193190Y-132167380D01*
X84097952Y-132215000D01*
X84050333Y-132262619D01*
X84002714Y-132357857D01*
X84002714Y-132500714D01*
X84050333Y-132595952D01*
X84097952Y-132643571D01*
X84193190Y-132691190D01*
X84574142Y-132691190D01*
X83621761Y-133119761D02*
X83478904Y-133167380D01*
X83240809Y-133167380D01*
X83145571Y-133119761D01*
X83097952Y-133072142D01*
X83050333Y-132976904D01*
X83050333Y-132881666D01*
X83097952Y-132786428D01*
X83145571Y-132738809D01*
X83240809Y-132691190D01*
X83431285Y-132643571D01*
X83526523Y-132595952D01*
X83574142Y-132548333D01*
X83621761Y-132453095D01*
X83621761Y-132357857D01*
X83574142Y-132262619D01*
X83526523Y-132215000D01*
X83431285Y-132167380D01*
X83193190Y-132167380D01*
X83050333Y-132215000D01*
X82621761Y-132167380D02*
X82621761Y-132976904D01*
X82574142Y-133072142D01*
X82526523Y-133119761D01*
X82431285Y-133167380D01*
X82240809Y-133167380D01*
X82145571Y-133119761D01*
X82097952Y-133072142D01*
X82050333Y-132976904D01*
X82050333Y-132167380D01*
X85470619Y-124277428D02*
X84708714Y-124277428D01*
X85089666Y-124658380D02*
X85089666Y-123896476D01*
X83756333Y-123658380D02*
X84232523Y-123658380D01*
X84280142Y-124134571D01*
X84232523Y-124086952D01*
X84137285Y-124039333D01*
X83899190Y-124039333D01*
X83803952Y-124086952D01*
X83756333Y-124134571D01*
X83708714Y-124229809D01*
X83708714Y-124467904D01*
X83756333Y-124563142D01*
X83803952Y-124610761D01*
X83899190Y-124658380D01*
X84137285Y-124658380D01*
X84232523Y-124610761D01*
X84280142Y-124563142D01*
X83423000Y-123658380D02*
X83089666Y-124658380D01*
X82756333Y-123658380D01*
X81661095Y-124658380D02*
X81661095Y-123658380D01*
X81423000Y-123658380D01*
X81280142Y-123706000D01*
X81184904Y-123801238D01*
X81137285Y-123896476D01*
X81089666Y-124086952D01*
X81089666Y-124229809D01*
X81137285Y-124420285D01*
X81184904Y-124515523D01*
X81280142Y-124610761D01*
X81423000Y-124658380D01*
X81661095Y-124658380D01*
X80232523Y-123991714D02*
X80232523Y-124658380D01*
X80661095Y-123991714D02*
X80661095Y-124515523D01*
X80613476Y-124610761D01*
X80518238Y-124658380D01*
X80375380Y-124658380D01*
X80280142Y-124610761D01*
X80232523Y-124563142D01*
X79375380Y-124610761D02*
X79470619Y-124658380D01*
X79661095Y-124658380D01*
X79756333Y-124610761D01*
X79803952Y-124515523D01*
X79803952Y-124134571D01*
X79756333Y-124039333D01*
X79661095Y-123991714D01*
X79470619Y-123991714D01*
X79375380Y-124039333D01*
X79327761Y-124134571D01*
X79327761Y-124229809D01*
X79803952Y-124325047D01*
X64444333Y-44140380D02*
X64444333Y-43140380D01*
X64015761Y-43235619D02*
X63968142Y-43188000D01*
X63872904Y-43140380D01*
X63634809Y-43140380D01*
X63539571Y-43188000D01*
X63491952Y-43235619D01*
X63444333Y-43330857D01*
X63444333Y-43426095D01*
X63491952Y-43568952D01*
X64063380Y-44140380D01*
X63444333Y-44140380D01*
X62444333Y-44045142D02*
X62491952Y-44092761D01*
X62634809Y-44140380D01*
X62730047Y-44140380D01*
X62872904Y-44092761D01*
X62968142Y-43997523D01*
X63015761Y-43902285D01*
X63063380Y-43711809D01*
X63063380Y-43568952D01*
X63015761Y-43378476D01*
X62968142Y-43283238D01*
X62872904Y-43188000D01*
X62730047Y-43140380D01*
X62634809Y-43140380D01*
X62491952Y-43188000D01*
X62444333Y-43235619D01*
X61063380Y-43140380D02*
X60968142Y-43140380D01*
X60872904Y-43188000D01*
X60825285Y-43235619D01*
X60777666Y-43330857D01*
X60730047Y-43521333D01*
X60730047Y-43759428D01*
X60777666Y-43949904D01*
X60825285Y-44045142D01*
X60872904Y-44092761D01*
X60968142Y-44140380D01*
X61063380Y-44140380D01*
X61158619Y-44092761D01*
X61206238Y-44045142D01*
X61253857Y-43949904D01*
X61301476Y-43759428D01*
X61301476Y-43521333D01*
X61253857Y-43330857D01*
X61206238Y-43235619D01*
X61158619Y-43188000D01*
X61063380Y-43140380D01*
X64444333Y-41600380D02*
X64444333Y-40600380D01*
X64015761Y-40695619D02*
X63968142Y-40648000D01*
X63872904Y-40600380D01*
X63634809Y-40600380D01*
X63539571Y-40648000D01*
X63491952Y-40695619D01*
X63444333Y-40790857D01*
X63444333Y-40886095D01*
X63491952Y-41028952D01*
X64063380Y-41600380D01*
X63444333Y-41600380D01*
X62444333Y-41505142D02*
X62491952Y-41552761D01*
X62634809Y-41600380D01*
X62730047Y-41600380D01*
X62872904Y-41552761D01*
X62968142Y-41457523D01*
X63015761Y-41362285D01*
X63063380Y-41171809D01*
X63063380Y-41028952D01*
X63015761Y-40838476D01*
X62968142Y-40743238D01*
X62872904Y-40648000D01*
X62730047Y-40600380D01*
X62634809Y-40600380D01*
X62491952Y-40648000D01*
X62444333Y-40695619D01*
X60730047Y-41600380D02*
X61301476Y-41600380D01*
X61015761Y-41600380D02*
X61015761Y-40600380D01*
X61111000Y-40743238D01*
X61206238Y-40838476D01*
X61301476Y-40886095D01*
X117244761Y-40029095D02*
X117292380Y-40171952D01*
X117292380Y-40410047D01*
X117244761Y-40505285D01*
X117197142Y-40552904D01*
X117101904Y-40600523D01*
X117006666Y-40600523D01*
X116911428Y-40552904D01*
X116863809Y-40505285D01*
X116816190Y-40410047D01*
X116768571Y-40219571D01*
X116720952Y-40124333D01*
X116673333Y-40076714D01*
X116578095Y-40029095D01*
X116482857Y-40029095D01*
X116387619Y-40076714D01*
X116340000Y-40124333D01*
X116292380Y-40219571D01*
X116292380Y-40457666D01*
X116340000Y-40600523D01*
X117244761Y-41410047D02*
X117292380Y-41314809D01*
X117292380Y-41124333D01*
X117244761Y-41029095D01*
X117149523Y-40981476D01*
X116768571Y-40981476D01*
X116673333Y-41029095D01*
X116625714Y-41124333D01*
X116625714Y-41314809D01*
X116673333Y-41410047D01*
X116768571Y-41457666D01*
X116863809Y-41457666D01*
X116959047Y-40981476D01*
X117292380Y-41886238D02*
X116625714Y-41886238D01*
X116816190Y-41886238D02*
X116720952Y-41933857D01*
X116673333Y-41981476D01*
X116625714Y-42076714D01*
X116625714Y-42171952D01*
X116625714Y-42410047D02*
X117292380Y-42648142D01*
X116625714Y-42886238D01*
X117292380Y-43410047D02*
X117244761Y-43314809D01*
X117197142Y-43267190D01*
X117101904Y-43219571D01*
X116816190Y-43219571D01*
X116720952Y-43267190D01*
X116673333Y-43314809D01*
X116625714Y-43410047D01*
X116625714Y-43552904D01*
X116673333Y-43648142D01*
X116720952Y-43695761D01*
X116816190Y-43743380D01*
X117101904Y-43743380D01*
X117197142Y-43695761D01*
X117244761Y-43648142D01*
X117292380Y-43552904D01*
X117292380Y-43410047D01*
X117244761Y-44124333D02*
X117292380Y-44219571D01*
X117292380Y-44410047D01*
X117244761Y-44505285D01*
X117149523Y-44552904D01*
X117101904Y-44552904D01*
X117006666Y-44505285D01*
X116959047Y-44410047D01*
X116959047Y-44267190D01*
X116911428Y-44171952D01*
X116816190Y-44124333D01*
X116768571Y-44124333D01*
X116673333Y-44171952D01*
X116625714Y-44267190D01*
X116625714Y-44410047D01*
X116673333Y-44505285D01*
X148033857Y-60317571D02*
X147700523Y-60317571D01*
X147557666Y-60841380D02*
X148033857Y-60841380D01*
X148033857Y-59841380D01*
X147557666Y-59841380D01*
X147129095Y-60841380D02*
X147129095Y-60174714D01*
X147129095Y-60269952D02*
X147081476Y-60222333D01*
X146986238Y-60174714D01*
X146843380Y-60174714D01*
X146748142Y-60222333D01*
X146700523Y-60317571D01*
X146700523Y-60841380D01*
X146700523Y-60317571D02*
X146652904Y-60222333D01*
X146557666Y-60174714D01*
X146414809Y-60174714D01*
X146319571Y-60222333D01*
X146271952Y-60317571D01*
X146271952Y-60841380D01*
X145414809Y-60793761D02*
X145510047Y-60841380D01*
X145700523Y-60841380D01*
X145795761Y-60793761D01*
X145843380Y-60698523D01*
X145843380Y-60317571D01*
X145795761Y-60222333D01*
X145700523Y-60174714D01*
X145510047Y-60174714D01*
X145414809Y-60222333D01*
X145367190Y-60317571D01*
X145367190Y-60412809D01*
X145843380Y-60508047D01*
X144938619Y-60841380D02*
X144938619Y-60174714D01*
X144938619Y-60365190D02*
X144891000Y-60269952D01*
X144843380Y-60222333D01*
X144748142Y-60174714D01*
X144652904Y-60174714D01*
X143891000Y-60174714D02*
X143891000Y-60984238D01*
X143938619Y-61079476D01*
X143986238Y-61127095D01*
X144081476Y-61174714D01*
X144224333Y-61174714D01*
X144319571Y-61127095D01*
X143891000Y-60793761D02*
X143986238Y-60841380D01*
X144176714Y-60841380D01*
X144271952Y-60793761D01*
X144319571Y-60746142D01*
X144367190Y-60650904D01*
X144367190Y-60365190D01*
X144319571Y-60269952D01*
X144271952Y-60222333D01*
X144176714Y-60174714D01*
X143986238Y-60174714D01*
X143891000Y-60222333D01*
X143033857Y-60793761D02*
X143129095Y-60841380D01*
X143319571Y-60841380D01*
X143414809Y-60793761D01*
X143462428Y-60698523D01*
X143462428Y-60317571D01*
X143414809Y-60222333D01*
X143319571Y-60174714D01*
X143129095Y-60174714D01*
X143033857Y-60222333D01*
X142986238Y-60317571D01*
X142986238Y-60412809D01*
X143462428Y-60508047D01*
X142557666Y-60174714D02*
X142557666Y-60841380D01*
X142557666Y-60269952D02*
X142510047Y-60222333D01*
X142414809Y-60174714D01*
X142271952Y-60174714D01*
X142176714Y-60222333D01*
X142129095Y-60317571D01*
X142129095Y-60841380D01*
X141224333Y-60793761D02*
X141319571Y-60841380D01*
X141510047Y-60841380D01*
X141605285Y-60793761D01*
X141652904Y-60746142D01*
X141700523Y-60650904D01*
X141700523Y-60365190D01*
X141652904Y-60269952D01*
X141605285Y-60222333D01*
X141510047Y-60174714D01*
X141319571Y-60174714D01*
X141224333Y-60222333D01*
X140891000Y-60174714D02*
X140652904Y-60841380D01*
X140414809Y-60174714D02*
X140652904Y-60841380D01*
X140748142Y-61079476D01*
X140795761Y-61127095D01*
X140891000Y-61174714D01*
X145367190Y-62443761D02*
X145224333Y-62491380D01*
X144986238Y-62491380D01*
X144891000Y-62443761D01*
X144843380Y-62396142D01*
X144795761Y-62300904D01*
X144795761Y-62205666D01*
X144843380Y-62110428D01*
X144891000Y-62062809D01*
X144986238Y-62015190D01*
X145176714Y-61967571D01*
X145271952Y-61919952D01*
X145319571Y-61872333D01*
X145367190Y-61777095D01*
X145367190Y-61681857D01*
X145319571Y-61586619D01*
X145271952Y-61539000D01*
X145176714Y-61491380D01*
X144938619Y-61491380D01*
X144795761Y-61539000D01*
X144510047Y-61824714D02*
X144129095Y-61824714D01*
X144367190Y-61491380D02*
X144367190Y-62348523D01*
X144319571Y-62443761D01*
X144224333Y-62491380D01*
X144129095Y-62491380D01*
X143652904Y-62491380D02*
X143748142Y-62443761D01*
X143795761Y-62396142D01*
X143843380Y-62300904D01*
X143843380Y-62015190D01*
X143795761Y-61919952D01*
X143748142Y-61872333D01*
X143652904Y-61824714D01*
X143510047Y-61824714D01*
X143414809Y-61872333D01*
X143367190Y-61919952D01*
X143319571Y-62015190D01*
X143319571Y-62300904D01*
X143367190Y-62396142D01*
X143414809Y-62443761D01*
X143510047Y-62491380D01*
X143652904Y-62491380D01*
X142891000Y-61824714D02*
X142891000Y-62824714D01*
X142891000Y-61872333D02*
X142795761Y-61824714D01*
X142605285Y-61824714D01*
X142510047Y-61872333D01*
X142462428Y-61919952D01*
X142414809Y-62015190D01*
X142414809Y-62300904D01*
X142462428Y-62396142D01*
X142510047Y-62443761D01*
X142605285Y-62491380D01*
X142795761Y-62491380D01*
X142891000Y-62443761D01*
X139247571Y-44180809D02*
X139247571Y-44514142D01*
X139771380Y-44657000D02*
X139771380Y-44180809D01*
X138771380Y-44180809D01*
X138771380Y-44657000D01*
X139104714Y-45085571D02*
X139771380Y-45085571D01*
X139199952Y-45085571D02*
X139152333Y-45133190D01*
X139104714Y-45228428D01*
X139104714Y-45371285D01*
X139152333Y-45466523D01*
X139247571Y-45514142D01*
X139771380Y-45514142D01*
X139771380Y-46418904D02*
X138771380Y-46418904D01*
X139723761Y-46418904D02*
X139771380Y-46323666D01*
X139771380Y-46133190D01*
X139723761Y-46037952D01*
X139676142Y-45990333D01*
X139580904Y-45942714D01*
X139295190Y-45942714D01*
X139199952Y-45990333D01*
X139152333Y-46037952D01*
X139104714Y-46133190D01*
X139104714Y-46323666D01*
X139152333Y-46418904D01*
X139723761Y-46847476D02*
X139771380Y-46942714D01*
X139771380Y-47133190D01*
X139723761Y-47228428D01*
X139628523Y-47276047D01*
X139580904Y-47276047D01*
X139485666Y-47228428D01*
X139438047Y-47133190D01*
X139438047Y-46990333D01*
X139390428Y-46895095D01*
X139295190Y-46847476D01*
X139247571Y-46847476D01*
X139152333Y-46895095D01*
X139104714Y-46990333D01*
X139104714Y-47133190D01*
X139152333Y-47228428D01*
X139104714Y-47561761D02*
X139104714Y-47942714D01*
X138771380Y-47704619D02*
X139628523Y-47704619D01*
X139723761Y-47752238D01*
X139771380Y-47847476D01*
X139771380Y-47942714D01*
X139771380Y-48418904D02*
X139723761Y-48323666D01*
X139676142Y-48276047D01*
X139580904Y-48228428D01*
X139295190Y-48228428D01*
X139199952Y-48276047D01*
X139152333Y-48323666D01*
X139104714Y-48418904D01*
X139104714Y-48561761D01*
X139152333Y-48657000D01*
X139199952Y-48704619D01*
X139295190Y-48752238D01*
X139580904Y-48752238D01*
X139676142Y-48704619D01*
X139723761Y-48657000D01*
X139771380Y-48561761D01*
X139771380Y-48418904D01*
X139104714Y-49180809D02*
X140104714Y-49180809D01*
X139152333Y-49180809D02*
X139104714Y-49276047D01*
X139104714Y-49466523D01*
X139152333Y-49561761D01*
X139199952Y-49609380D01*
X139295190Y-49657000D01*
X139580904Y-49657000D01*
X139676142Y-49609380D01*
X139723761Y-49561761D01*
X139771380Y-49466523D01*
X139771380Y-49276047D01*
X139723761Y-49180809D01*
X139771380Y-50847476D02*
X138771380Y-50847476D01*
X138771380Y-51228428D01*
X138819000Y-51323666D01*
X138866619Y-51371285D01*
X138961857Y-51418904D01*
X139104714Y-51418904D01*
X139199952Y-51371285D01*
X139247571Y-51323666D01*
X139295190Y-51228428D01*
X139295190Y-50847476D01*
X139104714Y-52276047D02*
X139771380Y-52276047D01*
X139104714Y-51847476D02*
X139628523Y-51847476D01*
X139723761Y-51895095D01*
X139771380Y-51990333D01*
X139771380Y-52133190D01*
X139723761Y-52228428D01*
X139676142Y-52276047D01*
X139771380Y-52895095D02*
X139723761Y-52799857D01*
X139628523Y-52752238D01*
X138771380Y-52752238D01*
X139771380Y-53418904D02*
X139723761Y-53323666D01*
X139628523Y-53276047D01*
X138771380Y-53276047D01*
X139104714Y-54228428D02*
X139771380Y-54228428D01*
X139104714Y-53799857D02*
X139628523Y-53799857D01*
X139723761Y-53847476D01*
X139771380Y-53942714D01*
X139771380Y-54085571D01*
X139723761Y-54180809D01*
X139676142Y-54228428D01*
X139104714Y-54704619D02*
X140104714Y-54704619D01*
X139152333Y-54704619D02*
X139104714Y-54799857D01*
X139104714Y-54990333D01*
X139152333Y-55085571D01*
X139199952Y-55133190D01*
X139295190Y-55180809D01*
X139580904Y-55180809D01*
X139676142Y-55133190D01*
X139723761Y-55085571D01*
X139771380Y-54990333D01*
X139771380Y-54799857D01*
X139723761Y-54704619D01*
X111607523Y-63304000D02*
X111683714Y-63261142D01*
X111798000Y-63261142D01*
X111912285Y-63304000D01*
X111988476Y-63389714D01*
X112026571Y-63475428D01*
X112064666Y-63646857D01*
X112064666Y-63775428D01*
X112026571Y-63946857D01*
X111988476Y-64032571D01*
X111912285Y-64118285D01*
X111798000Y-64161142D01*
X111721809Y-64161142D01*
X111607523Y-64118285D01*
X111569428Y-64075428D01*
X111569428Y-63775428D01*
X111721809Y-63775428D01*
X111226571Y-64161142D02*
X111226571Y-63261142D01*
X110769428Y-64161142D01*
X110769428Y-63261142D01*
X110388476Y-64161142D02*
X110388476Y-63261142D01*
X110198000Y-63261142D01*
X110083714Y-63304000D01*
X110007523Y-63389714D01*
X109969428Y-63475428D01*
X109931333Y-63646857D01*
X109931333Y-63775428D01*
X109969428Y-63946857D01*
X110007523Y-64032571D01*
X110083714Y-64118285D01*
X110198000Y-64161142D01*
X110388476Y-64161142D01*
X108497666Y-64206380D02*
X108831000Y-63730190D01*
X109069095Y-64206380D02*
X109069095Y-63206380D01*
X108688142Y-63206380D01*
X108592904Y-63254000D01*
X108545285Y-63301619D01*
X108497666Y-63396857D01*
X108497666Y-63539714D01*
X108545285Y-63634952D01*
X108592904Y-63682571D01*
X108688142Y-63730190D01*
X109069095Y-63730190D01*
X108164333Y-63206380D02*
X107497666Y-64206380D01*
X107497666Y-63206380D02*
X108164333Y-64206380D01*
X106552904Y-63206380D02*
X105981476Y-63206380D01*
X106267190Y-64206380D02*
X106267190Y-63206380D01*
X105743380Y-63206380D02*
X105076714Y-64206380D01*
X105076714Y-63206380D02*
X105743380Y-64206380D01*
X103671428Y-64730380D02*
X103671428Y-65539904D01*
X103623809Y-65635142D01*
X103576190Y-65682761D01*
X103480952Y-65730380D01*
X103290476Y-65730380D01*
X103195238Y-65682761D01*
X103147619Y-65635142D01*
X103100000Y-65539904D01*
X103100000Y-64730380D01*
X102671428Y-65444666D02*
X102195238Y-65444666D01*
X102766666Y-65730380D02*
X102433333Y-64730380D01*
X102100000Y-65730380D01*
X101195238Y-65730380D02*
X101528571Y-65254190D01*
X101766666Y-65730380D02*
X101766666Y-64730380D01*
X101385714Y-64730380D01*
X101290476Y-64778000D01*
X101242857Y-64825619D01*
X101195238Y-64920857D01*
X101195238Y-65063714D01*
X101242857Y-65158952D01*
X101290476Y-65206571D01*
X101385714Y-65254190D01*
X101766666Y-65254190D01*
X100909523Y-64730380D02*
X100338095Y-64730380D01*
X100623809Y-65730380D02*
X100623809Y-64730380D01*
X99480952Y-65730380D02*
X100052380Y-65730380D01*
X99766666Y-65730380D02*
X99766666Y-64730380D01*
X99861904Y-64873238D01*
X99957142Y-64968476D01*
X100052380Y-65016095D01*
X103671428Y-67397380D02*
X103671428Y-68206904D01*
X103623809Y-68302142D01*
X103576190Y-68349761D01*
X103480952Y-68397380D01*
X103290476Y-68397380D01*
X103195238Y-68349761D01*
X103147619Y-68302142D01*
X103100000Y-68206904D01*
X103100000Y-67397380D01*
X102671428Y-68111666D02*
X102195238Y-68111666D01*
X102766666Y-68397380D02*
X102433333Y-67397380D01*
X102100000Y-68397380D01*
X101195238Y-68397380D02*
X101528571Y-67921190D01*
X101766666Y-68397380D02*
X101766666Y-67397380D01*
X101385714Y-67397380D01*
X101290476Y-67445000D01*
X101242857Y-67492619D01*
X101195238Y-67587857D01*
X101195238Y-67730714D01*
X101242857Y-67825952D01*
X101290476Y-67873571D01*
X101385714Y-67921190D01*
X101766666Y-67921190D01*
X100909523Y-67397380D02*
X100338095Y-67397380D01*
X100623809Y-68397380D02*
X100623809Y-67397380D01*
X99814285Y-67397380D02*
X99719047Y-67397380D01*
X99623809Y-67445000D01*
X99576190Y-67492619D01*
X99528571Y-67587857D01*
X99480952Y-67778333D01*
X99480952Y-68016428D01*
X99528571Y-68206904D01*
X99576190Y-68302142D01*
X99623809Y-68349761D01*
X99719047Y-68397380D01*
X99814285Y-68397380D01*
X99909523Y-68349761D01*
X99957142Y-68302142D01*
X100004761Y-68206904D01*
X100052380Y-68016428D01*
X100052380Y-67778333D01*
X100004761Y-67587857D01*
X99957142Y-67492619D01*
X99909523Y-67445000D01*
X99814285Y-67397380D01*
X129705047Y-99020380D02*
X129705047Y-99734666D01*
X129752666Y-99877523D01*
X129847904Y-99972761D01*
X129990761Y-100020380D01*
X130086000Y-100020380D01*
X128800285Y-99353714D02*
X128800285Y-100020380D01*
X129228857Y-99353714D02*
X129228857Y-99877523D01*
X129181238Y-99972761D01*
X129086000Y-100020380D01*
X128943142Y-100020380D01*
X128847904Y-99972761D01*
X128800285Y-99925142D01*
X128324095Y-100020380D02*
X128324095Y-99353714D01*
X128324095Y-99448952D02*
X128276476Y-99401333D01*
X128181238Y-99353714D01*
X128038380Y-99353714D01*
X127943142Y-99401333D01*
X127895523Y-99496571D01*
X127895523Y-100020380D01*
X127895523Y-99496571D02*
X127847904Y-99401333D01*
X127752666Y-99353714D01*
X127609809Y-99353714D01*
X127514571Y-99401333D01*
X127466952Y-99496571D01*
X127466952Y-100020380D01*
X126990761Y-99353714D02*
X126990761Y-100353714D01*
X126990761Y-99401333D02*
X126895523Y-99353714D01*
X126705047Y-99353714D01*
X126609809Y-99401333D01*
X126562190Y-99448952D01*
X126514571Y-99544190D01*
X126514571Y-99829904D01*
X126562190Y-99925142D01*
X126609809Y-99972761D01*
X126705047Y-100020380D01*
X126895523Y-100020380D01*
X126990761Y-99972761D01*
X125705047Y-99972761D02*
X125800285Y-100020380D01*
X125990761Y-100020380D01*
X126086000Y-99972761D01*
X126133619Y-99877523D01*
X126133619Y-99496571D01*
X126086000Y-99401333D01*
X125990761Y-99353714D01*
X125800285Y-99353714D01*
X125705047Y-99401333D01*
X125657428Y-99496571D01*
X125657428Y-99591809D01*
X126133619Y-99687047D01*
X125228857Y-100020380D02*
X125228857Y-99353714D01*
X125228857Y-99544190D02*
X125181238Y-99448952D01*
X125133619Y-99401333D01*
X125038380Y-99353714D01*
X124943142Y-99353714D01*
X123895523Y-99972761D02*
X123752666Y-100020380D01*
X123514571Y-100020380D01*
X123419333Y-99972761D01*
X123371714Y-99925142D01*
X123324095Y-99829904D01*
X123324095Y-99734666D01*
X123371714Y-99639428D01*
X123419333Y-99591809D01*
X123514571Y-99544190D01*
X123705047Y-99496571D01*
X123800285Y-99448952D01*
X123847904Y-99401333D01*
X123895523Y-99306095D01*
X123895523Y-99210857D01*
X123847904Y-99115619D01*
X123800285Y-99068000D01*
X123705047Y-99020380D01*
X123466952Y-99020380D01*
X123324095Y-99068000D01*
X122514571Y-99972761D02*
X122609809Y-100020380D01*
X122800285Y-100020380D01*
X122895523Y-99972761D01*
X122943142Y-99877523D01*
X122943142Y-99496571D01*
X122895523Y-99401333D01*
X122800285Y-99353714D01*
X122609809Y-99353714D01*
X122514571Y-99401333D01*
X122466952Y-99496571D01*
X122466952Y-99591809D01*
X122943142Y-99687047D01*
X122181238Y-99353714D02*
X121800285Y-99353714D01*
X122038380Y-99020380D02*
X122038380Y-99877523D01*
X121990761Y-99972761D01*
X121895523Y-100020380D01*
X121800285Y-100020380D01*
X121609809Y-99353714D02*
X121228857Y-99353714D01*
X121466952Y-99020380D02*
X121466952Y-99877523D01*
X121419333Y-99972761D01*
X121324095Y-100020380D01*
X121228857Y-100020380D01*
X120895523Y-100020380D02*
X120895523Y-99353714D01*
X120895523Y-99020380D02*
X120943142Y-99068000D01*
X120895523Y-99115619D01*
X120847904Y-99068000D01*
X120895523Y-99020380D01*
X120895523Y-99115619D01*
X120419333Y-99353714D02*
X120419333Y-100020380D01*
X120419333Y-99448952D02*
X120371714Y-99401333D01*
X120276476Y-99353714D01*
X120133619Y-99353714D01*
X120038380Y-99401333D01*
X119990761Y-99496571D01*
X119990761Y-100020380D01*
X119086000Y-99353714D02*
X119086000Y-100163238D01*
X119133619Y-100258476D01*
X119181238Y-100306095D01*
X119276476Y-100353714D01*
X119419333Y-100353714D01*
X119514571Y-100306095D01*
X119086000Y-99972761D02*
X119181238Y-100020380D01*
X119371714Y-100020380D01*
X119466952Y-99972761D01*
X119514571Y-99925142D01*
X119562190Y-99829904D01*
X119562190Y-99544190D01*
X119514571Y-99448952D01*
X119466952Y-99401333D01*
X119371714Y-99353714D01*
X119181238Y-99353714D01*
X119086000Y-99401333D01*
X118657428Y-99972761D02*
X118562190Y-100020380D01*
X118371714Y-100020380D01*
X118276476Y-99972761D01*
X118228857Y-99877523D01*
X118228857Y-99829904D01*
X118276476Y-99734666D01*
X118371714Y-99687047D01*
X118514571Y-99687047D01*
X118609809Y-99639428D01*
X118657428Y-99544190D01*
X118657428Y-99496571D01*
X118609809Y-99401333D01*
X118514571Y-99353714D01*
X118371714Y-99353714D01*
X118276476Y-99401333D01*
X117181238Y-99353714D02*
X116800285Y-99353714D01*
X117038380Y-100020380D02*
X117038380Y-99163238D01*
X116990761Y-99068000D01*
X116895523Y-99020380D01*
X116800285Y-99020380D01*
X116324095Y-100020380D02*
X116419333Y-99972761D01*
X116466952Y-99925142D01*
X116514571Y-99829904D01*
X116514571Y-99544190D01*
X116466952Y-99448952D01*
X116419333Y-99401333D01*
X116324095Y-99353714D01*
X116181238Y-99353714D01*
X116086000Y-99401333D01*
X116038380Y-99448952D01*
X115990761Y-99544190D01*
X115990761Y-99829904D01*
X116038380Y-99925142D01*
X116086000Y-99972761D01*
X116181238Y-100020380D01*
X116324095Y-100020380D01*
X115562190Y-100020380D02*
X115562190Y-99353714D01*
X115562190Y-99544190D02*
X115514571Y-99448952D01*
X115466952Y-99401333D01*
X115371714Y-99353714D01*
X115276476Y-99353714D01*
X114181238Y-100020380D02*
X114181238Y-99020380D01*
X113847904Y-99734666D01*
X113514571Y-99020380D01*
X113514571Y-100020380D01*
X112895523Y-100020380D02*
X112990761Y-99972761D01*
X113038380Y-99925142D01*
X113086000Y-99829904D01*
X113086000Y-99544190D01*
X113038380Y-99448952D01*
X112990761Y-99401333D01*
X112895523Y-99353714D01*
X112752666Y-99353714D01*
X112657428Y-99401333D01*
X112609809Y-99448952D01*
X112562190Y-99544190D01*
X112562190Y-99829904D01*
X112609809Y-99925142D01*
X112657428Y-99972761D01*
X112752666Y-100020380D01*
X112895523Y-100020380D01*
X111705047Y-100020380D02*
X111705047Y-99020380D01*
X111705047Y-99972761D02*
X111800285Y-100020380D01*
X111990761Y-100020380D01*
X112086000Y-99972761D01*
X112133619Y-99925142D01*
X112181238Y-99829904D01*
X112181238Y-99544190D01*
X112133619Y-99448952D01*
X112086000Y-99401333D01*
X111990761Y-99353714D01*
X111800285Y-99353714D01*
X111705047Y-99401333D01*
X110847904Y-99972761D02*
X110943142Y-100020380D01*
X111133619Y-100020380D01*
X111228857Y-99972761D01*
X111276476Y-99877523D01*
X111276476Y-99496571D01*
X111228857Y-99401333D01*
X111133619Y-99353714D01*
X110943142Y-99353714D01*
X110847904Y-99401333D01*
X110800285Y-99496571D01*
X110800285Y-99591809D01*
X111276476Y-99687047D01*
X109657428Y-99972761D02*
X109514571Y-100020380D01*
X109276476Y-100020380D01*
X109181238Y-99972761D01*
X109133619Y-99925142D01*
X109086000Y-99829904D01*
X109086000Y-99734666D01*
X109133619Y-99639428D01*
X109181238Y-99591809D01*
X109276476Y-99544190D01*
X109466952Y-99496571D01*
X109562190Y-99448952D01*
X109609809Y-99401333D01*
X109657428Y-99306095D01*
X109657428Y-99210857D01*
X109609809Y-99115619D01*
X109562190Y-99068000D01*
X109466952Y-99020380D01*
X109228857Y-99020380D01*
X109086000Y-99068000D01*
X108276476Y-99972761D02*
X108371714Y-100020380D01*
X108562190Y-100020380D01*
X108657428Y-99972761D01*
X108705047Y-99877523D01*
X108705047Y-99496571D01*
X108657428Y-99401333D01*
X108562190Y-99353714D01*
X108371714Y-99353714D01*
X108276476Y-99401333D01*
X108228857Y-99496571D01*
X108228857Y-99591809D01*
X108705047Y-99687047D01*
X107657428Y-100020380D02*
X107752666Y-99972761D01*
X107800285Y-99877523D01*
X107800285Y-99020380D01*
X106895523Y-99972761D02*
X106990761Y-100020380D01*
X107181238Y-100020380D01*
X107276476Y-99972761D01*
X107324095Y-99877523D01*
X107324095Y-99496571D01*
X107276476Y-99401333D01*
X107181238Y-99353714D01*
X106990761Y-99353714D01*
X106895523Y-99401333D01*
X106847904Y-99496571D01*
X106847904Y-99591809D01*
X107324095Y-99687047D01*
X105990761Y-99972761D02*
X106086000Y-100020380D01*
X106276476Y-100020380D01*
X106371714Y-99972761D01*
X106419333Y-99925142D01*
X106466952Y-99829904D01*
X106466952Y-99544190D01*
X106419333Y-99448952D01*
X106371714Y-99401333D01*
X106276476Y-99353714D01*
X106086000Y-99353714D01*
X105990761Y-99401333D01*
X105705047Y-99353714D02*
X105324095Y-99353714D01*
X105562190Y-99020380D02*
X105562190Y-99877523D01*
X105514571Y-99972761D01*
X105419333Y-100020380D01*
X105324095Y-100020380D01*
X104990761Y-100020380D02*
X104990761Y-99353714D01*
X104990761Y-99020380D02*
X105038380Y-99068000D01*
X104990761Y-99115619D01*
X104943142Y-99068000D01*
X104990761Y-99020380D01*
X104990761Y-99115619D01*
X104371714Y-100020380D02*
X104466952Y-99972761D01*
X104514571Y-99925142D01*
X104562190Y-99829904D01*
X104562190Y-99544190D01*
X104514571Y-99448952D01*
X104466952Y-99401333D01*
X104371714Y-99353714D01*
X104228857Y-99353714D01*
X104133619Y-99401333D01*
X104086000Y-99448952D01*
X104038380Y-99544190D01*
X104038380Y-99829904D01*
X104086000Y-99925142D01*
X104133619Y-99972761D01*
X104228857Y-100020380D01*
X104371714Y-100020380D01*
X103609809Y-99353714D02*
X103609809Y-100020380D01*
X103609809Y-99448952D02*
X103562190Y-99401333D01*
X103466952Y-99353714D01*
X103324095Y-99353714D01*
X103228857Y-99401333D01*
X103181238Y-99496571D01*
X103181238Y-100020380D01*
X109267142Y-112292380D02*
X109267142Y-113101904D01*
X109219523Y-113197142D01*
X109171904Y-113244761D01*
X109076666Y-113292380D01*
X108886190Y-113292380D01*
X108790952Y-113244761D01*
X108743333Y-113197142D01*
X108695714Y-113101904D01*
X108695714Y-112292380D01*
X108267142Y-113006666D02*
X107790952Y-113006666D01*
X108362380Y-113292380D02*
X108029047Y-112292380D01*
X107695714Y-113292380D01*
X106790952Y-113292380D02*
X107124285Y-112816190D01*
X107362380Y-113292380D02*
X107362380Y-112292380D01*
X106981428Y-112292380D01*
X106886190Y-112340000D01*
X106838571Y-112387619D01*
X106790952Y-112482857D01*
X106790952Y-112625714D01*
X106838571Y-112720952D01*
X106886190Y-112768571D01*
X106981428Y-112816190D01*
X107362380Y-112816190D01*
X106505238Y-112292380D02*
X105933809Y-112292380D01*
X106219523Y-113292380D02*
X106219523Y-112292380D01*
X104933809Y-112625714D02*
X104743333Y-113292380D01*
X104552857Y-112816190D01*
X104362380Y-113292380D01*
X104171904Y-112625714D01*
X103790952Y-113292380D02*
X103790952Y-112625714D01*
X103790952Y-112292380D02*
X103838571Y-112340000D01*
X103790952Y-112387619D01*
X103743333Y-112340000D01*
X103790952Y-112292380D01*
X103790952Y-112387619D01*
X103457619Y-112625714D02*
X103076666Y-112625714D01*
X103314761Y-112292380D02*
X103314761Y-113149523D01*
X103267142Y-113244761D01*
X103171904Y-113292380D01*
X103076666Y-113292380D01*
X102743333Y-113292380D02*
X102743333Y-112292380D01*
X102314761Y-113292380D02*
X102314761Y-112768571D01*
X102362380Y-112673333D01*
X102457619Y-112625714D01*
X102600476Y-112625714D01*
X102695714Y-112673333D01*
X102743333Y-112720952D01*
X109910000Y-114656666D02*
X109433809Y-114656666D01*
X110005238Y-114942380D02*
X109671904Y-113942380D01*
X109338571Y-114942380D01*
X108576666Y-114942380D02*
X108576666Y-113942380D01*
X108576666Y-114894761D02*
X108671904Y-114942380D01*
X108862380Y-114942380D01*
X108957619Y-114894761D01*
X109005238Y-114847142D01*
X109052857Y-114751904D01*
X109052857Y-114466190D01*
X109005238Y-114370952D01*
X108957619Y-114323333D01*
X108862380Y-114275714D01*
X108671904Y-114275714D01*
X108576666Y-114323333D01*
X107671904Y-114942380D02*
X107671904Y-113942380D01*
X107671904Y-114894761D02*
X107767142Y-114942380D01*
X107957619Y-114942380D01*
X108052857Y-114894761D01*
X108100476Y-114847142D01*
X108148095Y-114751904D01*
X108148095Y-114466190D01*
X108100476Y-114370952D01*
X108052857Y-114323333D01*
X107957619Y-114275714D01*
X107767142Y-114275714D01*
X107671904Y-114323333D01*
X107195714Y-114942380D02*
X107195714Y-114275714D01*
X107195714Y-114466190D02*
X107148095Y-114370952D01*
X107100476Y-114323333D01*
X107005238Y-114275714D01*
X106910000Y-114275714D01*
X106195714Y-114894761D02*
X106290952Y-114942380D01*
X106481428Y-114942380D01*
X106576666Y-114894761D01*
X106624285Y-114799523D01*
X106624285Y-114418571D01*
X106576666Y-114323333D01*
X106481428Y-114275714D01*
X106290952Y-114275714D01*
X106195714Y-114323333D01*
X106148095Y-114418571D01*
X106148095Y-114513809D01*
X106624285Y-114609047D01*
X105767142Y-114894761D02*
X105671904Y-114942380D01*
X105481428Y-114942380D01*
X105386190Y-114894761D01*
X105338571Y-114799523D01*
X105338571Y-114751904D01*
X105386190Y-114656666D01*
X105481428Y-114609047D01*
X105624285Y-114609047D01*
X105719523Y-114561428D01*
X105767142Y-114466190D01*
X105767142Y-114418571D01*
X105719523Y-114323333D01*
X105624285Y-114275714D01*
X105481428Y-114275714D01*
X105386190Y-114323333D01*
X104957619Y-114894761D02*
X104862380Y-114942380D01*
X104671904Y-114942380D01*
X104576666Y-114894761D01*
X104529047Y-114799523D01*
X104529047Y-114751904D01*
X104576666Y-114656666D01*
X104671904Y-114609047D01*
X104814761Y-114609047D01*
X104910000Y-114561428D01*
X104957619Y-114466190D01*
X104957619Y-114418571D01*
X104910000Y-114323333D01*
X104814761Y-114275714D01*
X104671904Y-114275714D01*
X104576666Y-114323333D01*
X103148095Y-113942380D02*
X103052857Y-113942380D01*
X102957619Y-113990000D01*
X102910000Y-114037619D01*
X102862380Y-114132857D01*
X102814761Y-114323333D01*
X102814761Y-114561428D01*
X102862380Y-114751904D01*
X102910000Y-114847142D01*
X102957619Y-114894761D01*
X103052857Y-114942380D01*
X103148095Y-114942380D01*
X103243333Y-114894761D01*
X103290952Y-114847142D01*
X103338571Y-114751904D01*
X103386190Y-114561428D01*
X103386190Y-114323333D01*
X103338571Y-114132857D01*
X103290952Y-114037619D01*
X103243333Y-113990000D01*
X103148095Y-113942380D01*
X102386190Y-114847142D02*
X102338571Y-114894761D01*
X102386190Y-114942380D01*
X102433809Y-114894761D01*
X102386190Y-114847142D01*
X102386190Y-114942380D01*
X101910000Y-114847142D02*
X101862380Y-114894761D01*
X101910000Y-114942380D01*
X101957619Y-114894761D01*
X101910000Y-114847142D01*
X101910000Y-114942380D01*
X101529047Y-113942380D02*
X100910000Y-113942380D01*
X101243333Y-114323333D01*
X101100476Y-114323333D01*
X101005238Y-114370952D01*
X100957619Y-114418571D01*
X100910000Y-114513809D01*
X100910000Y-114751904D01*
X100957619Y-114847142D01*
X101005238Y-114894761D01*
X101100476Y-114942380D01*
X101386190Y-114942380D01*
X101481428Y-114894761D01*
X101529047Y-114847142D01*
X120022809Y-113942761D02*
X119879952Y-113990380D01*
X119641857Y-113990380D01*
X119546619Y-113942761D01*
X119499000Y-113895142D01*
X119451380Y-113799904D01*
X119451380Y-113704666D01*
X119499000Y-113609428D01*
X119546619Y-113561809D01*
X119641857Y-113514190D01*
X119832333Y-113466571D01*
X119927571Y-113418952D01*
X119975190Y-113371333D01*
X120022809Y-113276095D01*
X120022809Y-113180857D01*
X119975190Y-113085619D01*
X119927571Y-113038000D01*
X119832333Y-112990380D01*
X119594238Y-112990380D01*
X119451380Y-113038000D01*
X119022809Y-113990380D02*
X119022809Y-112990380D01*
X118641857Y-112990380D01*
X118546619Y-113038000D01*
X118499000Y-113085619D01*
X118451380Y-113180857D01*
X118451380Y-113323714D01*
X118499000Y-113418952D01*
X118546619Y-113466571D01*
X118641857Y-113514190D01*
X119022809Y-113514190D01*
X118022809Y-113990380D02*
X118022809Y-112990380D01*
X137183095Y-113323714D02*
X137183095Y-113990380D01*
X137611666Y-113323714D02*
X137611666Y-113847523D01*
X137564047Y-113942761D01*
X137468809Y-113990380D01*
X137325952Y-113990380D01*
X137230714Y-113942761D01*
X137183095Y-113895142D01*
X136754523Y-113942761D02*
X136611666Y-113990380D01*
X136373571Y-113990380D01*
X136278333Y-113942761D01*
X136230714Y-113895142D01*
X136183095Y-113799904D01*
X136183095Y-113704666D01*
X136230714Y-113609428D01*
X136278333Y-113561809D01*
X136373571Y-113514190D01*
X136564047Y-113466571D01*
X136659285Y-113418952D01*
X136706904Y-113371333D01*
X136754523Y-113276095D01*
X136754523Y-113180857D01*
X136706904Y-113085619D01*
X136659285Y-113038000D01*
X136564047Y-112990380D01*
X136325952Y-112990380D01*
X136183095Y-113038000D01*
X135897380Y-113323714D02*
X135516428Y-113323714D01*
X135754523Y-112990380D02*
X135754523Y-113847523D01*
X135706904Y-113942761D01*
X135611666Y-113990380D01*
X135516428Y-113990380D01*
X134802142Y-113942761D02*
X134897380Y-113990380D01*
X135087857Y-113990380D01*
X135183095Y-113942761D01*
X135230714Y-113847523D01*
X135230714Y-113466571D01*
X135183095Y-113371333D01*
X135087857Y-113323714D01*
X134897380Y-113323714D01*
X134802142Y-113371333D01*
X134754523Y-113466571D01*
X134754523Y-113561809D01*
X135230714Y-113657047D01*
X134325952Y-113323714D02*
X134325952Y-114323714D01*
X134325952Y-113371333D02*
X134230714Y-113323714D01*
X134040238Y-113323714D01*
X133945000Y-113371333D01*
X133897380Y-113418952D01*
X133849761Y-113514190D01*
X133849761Y-113799904D01*
X133897380Y-113895142D01*
X133945000Y-113942761D01*
X134040238Y-113990380D01*
X134230714Y-113990380D01*
X134325952Y-113942761D01*
X132087857Y-113990380D02*
X132421190Y-113514190D01*
X132659285Y-113990380D02*
X132659285Y-112990380D01*
X132278333Y-112990380D01*
X132183095Y-113038000D01*
X132135476Y-113085619D01*
X132087857Y-113180857D01*
X132087857Y-113323714D01*
X132135476Y-113418952D01*
X132183095Y-113466571D01*
X132278333Y-113514190D01*
X132659285Y-113514190D01*
X131278333Y-113942761D02*
X131373571Y-113990380D01*
X131564047Y-113990380D01*
X131659285Y-113942761D01*
X131706904Y-113847523D01*
X131706904Y-113466571D01*
X131659285Y-113371333D01*
X131564047Y-113323714D01*
X131373571Y-113323714D01*
X131278333Y-113371333D01*
X131230714Y-113466571D01*
X131230714Y-113561809D01*
X131706904Y-113657047D01*
X130849761Y-113942761D02*
X130754523Y-113990380D01*
X130564047Y-113990380D01*
X130468809Y-113942761D01*
X130421190Y-113847523D01*
X130421190Y-113799904D01*
X130468809Y-113704666D01*
X130564047Y-113657047D01*
X130706904Y-113657047D01*
X130802142Y-113609428D01*
X130849761Y-113514190D01*
X130849761Y-113466571D01*
X130802142Y-113371333D01*
X130706904Y-113323714D01*
X130564047Y-113323714D01*
X130468809Y-113371333D01*
X129849761Y-113990380D02*
X129945000Y-113942761D01*
X129992619Y-113895142D01*
X130040238Y-113799904D01*
X130040238Y-113514190D01*
X129992619Y-113418952D01*
X129945000Y-113371333D01*
X129849761Y-113323714D01*
X129706904Y-113323714D01*
X129611666Y-113371333D01*
X129564047Y-113418952D01*
X129516428Y-113514190D01*
X129516428Y-113799904D01*
X129564047Y-113895142D01*
X129611666Y-113942761D01*
X129706904Y-113990380D01*
X129849761Y-113990380D01*
X128945000Y-113990380D02*
X129040238Y-113942761D01*
X129087857Y-113847523D01*
X129087857Y-112990380D01*
X128135476Y-113323714D02*
X128135476Y-113990380D01*
X128564047Y-113323714D02*
X128564047Y-113847523D01*
X128516428Y-113942761D01*
X128421190Y-113990380D01*
X128278333Y-113990380D01*
X128183095Y-113942761D01*
X128135476Y-113895142D01*
X127802142Y-113323714D02*
X127421190Y-113323714D01*
X127659285Y-112990380D02*
X127659285Y-113847523D01*
X127611666Y-113942761D01*
X127516428Y-113990380D01*
X127421190Y-113990380D01*
X127087857Y-113990380D02*
X127087857Y-113323714D01*
X127087857Y-112990380D02*
X127135476Y-113038000D01*
X127087857Y-113085619D01*
X127040238Y-113038000D01*
X127087857Y-112990380D01*
X127087857Y-113085619D01*
X126468809Y-113990380D02*
X126564047Y-113942761D01*
X126611666Y-113895142D01*
X126659285Y-113799904D01*
X126659285Y-113514190D01*
X126611666Y-113418952D01*
X126564047Y-113371333D01*
X126468809Y-113323714D01*
X126325952Y-113323714D01*
X126230714Y-113371333D01*
X126183095Y-113418952D01*
X126135476Y-113514190D01*
X126135476Y-113799904D01*
X126183095Y-113895142D01*
X126230714Y-113942761D01*
X126325952Y-113990380D01*
X126468809Y-113990380D01*
X125706904Y-113323714D02*
X125706904Y-113990380D01*
X125706904Y-113418952D02*
X125659285Y-113371333D01*
X125564047Y-113323714D01*
X125421190Y-113323714D01*
X125325952Y-113371333D01*
X125278333Y-113466571D01*
X125278333Y-113990380D01*
D11*
X126746000Y-112014000D02*
X136906000Y-112014000D01*
X136906000Y-104013000D02*
X126746000Y-104013000D01*
X136906000Y-112014000D02*
X136906000Y-104013000D01*
X126746000Y-104013000D02*
X126746000Y-112014000D01*
X114046000Y-112014000D02*
X124206000Y-112014000D01*
X124206000Y-104013000D02*
X114046000Y-104013000D01*
X124206000Y-112014000D02*
X124206000Y-104013000D01*
X114046000Y-104013000D02*
X114046000Y-112014000D01*
X111379000Y-104013000D02*
X101219000Y-104013000D01*
X111379000Y-112014000D02*
X111379000Y-104013000D01*
X101219000Y-112014000D02*
X111379000Y-112014000D01*
X101219000Y-104013000D02*
X101219000Y-112014000D01*
D12*
X88700428Y-94899238D02*
X89208428Y-93931619D01*
X89571285Y-94899238D02*
X89571285Y-92867238D01*
X88990714Y-92867238D01*
X88845571Y-92964000D01*
X88773000Y-93060761D01*
X88700428Y-93254285D01*
X88700428Y-93544571D01*
X88773000Y-93738095D01*
X88845571Y-93834857D01*
X88990714Y-93931619D01*
X89571285Y-93931619D01*
X88119857Y-94318666D02*
X87394142Y-94318666D01*
X88265000Y-94899238D02*
X87757000Y-92867238D01*
X87249000Y-94899238D01*
X86741000Y-94899238D02*
X86741000Y-92867238D01*
X86233000Y-94318666D01*
X85725000Y-92867238D01*
X85725000Y-94899238D01*
X84999285Y-94899238D02*
X84999285Y-92867238D01*
X84418714Y-92867238D01*
X84273571Y-92964000D01*
X84201000Y-93060761D01*
X84128428Y-93254285D01*
X84128428Y-93544571D01*
X84201000Y-93738095D01*
X84273571Y-93834857D01*
X84418714Y-93931619D01*
X84999285Y-93931619D01*
X83547857Y-94802476D02*
X83330142Y-94899238D01*
X82967285Y-94899238D01*
X82822142Y-94802476D01*
X82749571Y-94705714D01*
X82677000Y-94512190D01*
X82677000Y-94318666D01*
X82749571Y-94125142D01*
X82822142Y-94028380D01*
X82967285Y-93931619D01*
X83257571Y-93834857D01*
X83402714Y-93738095D01*
X83475285Y-93641333D01*
X83547857Y-93447809D01*
X83547857Y-93254285D01*
X83475285Y-93060761D01*
X83402714Y-92964000D01*
X83257571Y-92867238D01*
X82894714Y-92867238D01*
X82677000Y-92964000D01*
X82023857Y-94125142D02*
X80862714Y-94125142D01*
X79629000Y-93834857D02*
X80137000Y-93834857D01*
X80137000Y-94899238D02*
X80137000Y-92867238D01*
X79411285Y-92867238D01*
X78830714Y-94899238D02*
X78830714Y-92867238D01*
X78467857Y-92867238D01*
X78250142Y-92964000D01*
X78105000Y-93157523D01*
X78032428Y-93351047D01*
X77959857Y-93738095D01*
X77959857Y-94028380D01*
X78032428Y-94415428D01*
X78105000Y-94608952D01*
X78250142Y-94802476D01*
X78467857Y-94899238D01*
X78830714Y-94899238D01*
X76290714Y-93544571D02*
X75927857Y-94899238D01*
X75565000Y-93544571D01*
X75129571Y-92867238D02*
X74186142Y-92867238D01*
X74694142Y-93641333D01*
X74476428Y-93641333D01*
X74331285Y-93738095D01*
X74258714Y-93834857D01*
X74186142Y-94028380D01*
X74186142Y-94512190D01*
X74258714Y-94705714D01*
X74331285Y-94802476D01*
X74476428Y-94899238D01*
X74911857Y-94899238D01*
X75057000Y-94802476D01*
X75129571Y-94705714D01*
X73533000Y-94705714D02*
X73460428Y-94802476D01*
X73533000Y-94899238D01*
X73605571Y-94802476D01*
X73533000Y-94705714D01*
X73533000Y-94899238D01*
X72517000Y-92867238D02*
X72371857Y-92867238D01*
X72226714Y-92964000D01*
X72154142Y-93060761D01*
X72081571Y-93254285D01*
X72009000Y-93641333D01*
X72009000Y-94125142D01*
X72081571Y-94512190D01*
X72154142Y-94705714D01*
X72226714Y-94802476D01*
X72371857Y-94899238D01*
X72517000Y-94899238D01*
X72662142Y-94802476D01*
X72734714Y-94705714D01*
X72807285Y-94512190D01*
X72879857Y-94125142D01*
X72879857Y-93641333D01*
X72807285Y-93254285D01*
X72734714Y-93060761D01*
X72662142Y-92964000D01*
X72517000Y-92867238D01*
X69033571Y-94899238D02*
X69033571Y-92867238D01*
X68525571Y-94318666D01*
X68017571Y-92867238D01*
X68017571Y-94899238D01*
X67291857Y-94899238D02*
X67291857Y-92867238D01*
X66421000Y-94899238D02*
X67074142Y-93738095D01*
X66421000Y-92867238D02*
X67291857Y-94028380D01*
X64679285Y-93060761D02*
X64606714Y-92964000D01*
X64461571Y-92867238D01*
X64098714Y-92867238D01*
X63953571Y-92964000D01*
X63881000Y-93060761D01*
X63808428Y-93254285D01*
X63808428Y-93447809D01*
X63881000Y-93738095D01*
X64751857Y-94899238D01*
X63808428Y-94899238D01*
X62865000Y-92867238D02*
X62719857Y-92867238D01*
X62574714Y-92964000D01*
X62502142Y-93060761D01*
X62429571Y-93254285D01*
X62357000Y-93641333D01*
X62357000Y-94125142D01*
X62429571Y-94512190D01*
X62502142Y-94705714D01*
X62574714Y-94802476D01*
X62719857Y-94899238D01*
X62865000Y-94899238D01*
X63010142Y-94802476D01*
X63082714Y-94705714D01*
X63155285Y-94512190D01*
X63227857Y-94125142D01*
X63227857Y-93641333D01*
X63155285Y-93254285D01*
X63082714Y-93060761D01*
X63010142Y-92964000D01*
X62865000Y-92867238D01*
X61776428Y-93060761D02*
X61703857Y-92964000D01*
X61558714Y-92867238D01*
X61195857Y-92867238D01*
X61050714Y-92964000D01*
X60978142Y-93060761D01*
X60905571Y-93254285D01*
X60905571Y-93447809D01*
X60978142Y-93738095D01*
X61849000Y-94899238D01*
X60905571Y-94899238D01*
X59962142Y-92867238D02*
X59817000Y-92867238D01*
X59671857Y-92964000D01*
X59599285Y-93060761D01*
X59526714Y-93254285D01*
X59454142Y-93641333D01*
X59454142Y-94125142D01*
X59526714Y-94512190D01*
X59599285Y-94705714D01*
X59671857Y-94802476D01*
X59817000Y-94899238D01*
X59962142Y-94899238D01*
X60107285Y-94802476D01*
X60179857Y-94705714D01*
X60252428Y-94512190D01*
X60325000Y-94125142D01*
X60325000Y-93641333D01*
X60252428Y-93254285D01*
X60179857Y-93060761D01*
X60107285Y-92964000D01*
X59962142Y-92867238D01*
D13*
G36*
X62031880Y-81615280D02*
G01*
X62090300Y-81645760D01*
X62219840Y-81727040D01*
X62405260Y-81848960D01*
X62626240Y-81996280D01*
X62847220Y-82146140D01*
X63027560Y-82268060D01*
X63154560Y-82349340D01*
X63207900Y-82377280D01*
X63235840Y-82367120D01*
X63339980Y-82316320D01*
X63492380Y-82237580D01*
X63581280Y-82191860D01*
X63720980Y-82133440D01*
X63789560Y-82120740D01*
X63802260Y-82138520D01*
X63853060Y-82245200D01*
X63931800Y-82428080D01*
X64038480Y-82669380D01*
X64157860Y-82951320D01*
X64287400Y-83256120D01*
X64416940Y-83566000D01*
X64538860Y-83863180D01*
X64648080Y-84129880D01*
X64734440Y-84345780D01*
X64792860Y-84495640D01*
X64813180Y-84561680D01*
X64808100Y-84574380D01*
X64736980Y-84642960D01*
X64615060Y-84734400D01*
X64353440Y-84947760D01*
X64091820Y-85272880D01*
X63934340Y-85641180D01*
X63881000Y-86050120D01*
X63926720Y-86431120D01*
X64076580Y-86796880D01*
X64330580Y-87124540D01*
X64637920Y-87368380D01*
X64998600Y-87523320D01*
X65405000Y-87571580D01*
X65793620Y-87528400D01*
X66164460Y-87381080D01*
X66494660Y-87132160D01*
X66631820Y-86972140D01*
X66822320Y-86639400D01*
X66931540Y-86283800D01*
X66944240Y-86192360D01*
X66926460Y-85801200D01*
X66812160Y-85427820D01*
X66606420Y-85092540D01*
X66319400Y-84818220D01*
X66283840Y-84790280D01*
X66149220Y-84691220D01*
X66060320Y-84622640D01*
X65991740Y-84566760D01*
X66489580Y-83367880D01*
X66568320Y-83177380D01*
X66705480Y-82849720D01*
X66824860Y-82567780D01*
X66921380Y-82344260D01*
X66987420Y-82194400D01*
X67017900Y-82133440D01*
X67020440Y-82130900D01*
X67063620Y-82123280D01*
X67155060Y-82156300D01*
X67322700Y-82237580D01*
X67434460Y-82293460D01*
X67561460Y-82354420D01*
X67617340Y-82377280D01*
X67665600Y-82351880D01*
X67787520Y-82273140D01*
X67965320Y-82153760D01*
X68181220Y-82006440D01*
X68384420Y-81869280D01*
X68572380Y-81744820D01*
X68709540Y-81658460D01*
X68775580Y-81622900D01*
X68785740Y-81622900D01*
X68844160Y-81655920D01*
X68950840Y-81744820D01*
X69115940Y-81899760D01*
X69347080Y-82128360D01*
X69382640Y-82161380D01*
X69570600Y-82354420D01*
X69725540Y-82516980D01*
X69829680Y-82631280D01*
X69865240Y-82684620D01*
X69832220Y-82750660D01*
X69745860Y-82885280D01*
X69621400Y-83075780D01*
X69469000Y-83299300D01*
X69072760Y-83875880D01*
X69291200Y-84419440D01*
X69357240Y-84584540D01*
X69443600Y-84787740D01*
X69507100Y-84932520D01*
X69537580Y-84996020D01*
X69598540Y-85016340D01*
X69745860Y-85051900D01*
X69961760Y-85097620D01*
X70220840Y-85145880D01*
X70464680Y-85189060D01*
X70685660Y-85232240D01*
X70848220Y-85262720D01*
X70919340Y-85277960D01*
X70937120Y-85288120D01*
X70949820Y-85321140D01*
X70959980Y-85397340D01*
X70965060Y-85531960D01*
X70967600Y-85745320D01*
X70967600Y-86050120D01*
X70967600Y-86083140D01*
X70965060Y-86377780D01*
X70959980Y-86608920D01*
X70952360Y-86763860D01*
X70942200Y-86822280D01*
X70942200Y-86824820D01*
X70873620Y-86840060D01*
X70716140Y-86873080D01*
X70495160Y-86916260D01*
X70231000Y-86967060D01*
X70213220Y-86969600D01*
X69951600Y-87020400D01*
X69730620Y-87066120D01*
X69575680Y-87101680D01*
X69509640Y-87122000D01*
X69496940Y-87142320D01*
X69443600Y-87243920D01*
X69367400Y-87406480D01*
X69281040Y-87607140D01*
X69194680Y-87812880D01*
X69121020Y-87998300D01*
X69070220Y-88138000D01*
X69054980Y-88201500D01*
X69057520Y-88201500D01*
X69095620Y-88265000D01*
X69187060Y-88402160D01*
X69314060Y-88592660D01*
X69469000Y-88816180D01*
X69479160Y-88831420D01*
X69631560Y-89054940D01*
X69753480Y-89242900D01*
X69834760Y-89377520D01*
X69865240Y-89438480D01*
X69865240Y-89441020D01*
X69814440Y-89507060D01*
X69702680Y-89634060D01*
X69540120Y-89804240D01*
X69344540Y-89999820D01*
X69283580Y-90060780D01*
X69067680Y-90271600D01*
X68915280Y-90411300D01*
X68823840Y-90484960D01*
X68778120Y-90500200D01*
X68775580Y-90500200D01*
X68709540Y-90459560D01*
X68569840Y-90368120D01*
X68379340Y-90238580D01*
X68153280Y-90083640D01*
X68138040Y-90073480D01*
X67914520Y-89923620D01*
X67729100Y-89796620D01*
X67597020Y-89710260D01*
X67541140Y-89674700D01*
X67530980Y-89674700D01*
X67439540Y-89702640D01*
X67282060Y-89758520D01*
X67086480Y-89832180D01*
X66880740Y-89916000D01*
X66695320Y-89994740D01*
X66553080Y-90058240D01*
X66487040Y-90096340D01*
X66487040Y-90098880D01*
X66461640Y-90177620D01*
X66423540Y-90345260D01*
X66377820Y-90573860D01*
X66324480Y-90845640D01*
X66316860Y-90891360D01*
X66266060Y-91155520D01*
X66222880Y-91373960D01*
X66192400Y-91526360D01*
X66177160Y-91587320D01*
X66139060Y-91597480D01*
X66009520Y-91607640D01*
X65811400Y-91612720D01*
X65572640Y-91615260D01*
X65321180Y-91612720D01*
X65074800Y-91607640D01*
X64863980Y-91600020D01*
X64714120Y-91589860D01*
X64653160Y-91577160D01*
X64650620Y-91574620D01*
X64627760Y-91490800D01*
X64589660Y-91325700D01*
X64543940Y-91094560D01*
X64490600Y-90820240D01*
X64480440Y-90771980D01*
X64432180Y-90507820D01*
X64386460Y-90291920D01*
X64355980Y-90142060D01*
X64338200Y-90083640D01*
X64315340Y-90070940D01*
X64206120Y-90022680D01*
X64028320Y-89949020D01*
X63809880Y-89860120D01*
X63299340Y-89654380D01*
X62674500Y-90083640D01*
X62616080Y-90121740D01*
X62392560Y-90274140D01*
X62207140Y-90398600D01*
X62080140Y-90479880D01*
X62026800Y-90510360D01*
X62021720Y-90507820D01*
X61960760Y-90454480D01*
X61836300Y-90337640D01*
X61666120Y-90172540D01*
X61470540Y-89976960D01*
X61325760Y-89832180D01*
X61153040Y-89656920D01*
X61043820Y-89540080D01*
X60985400Y-89463880D01*
X60962540Y-89418160D01*
X60967620Y-89387680D01*
X61008260Y-89324180D01*
X61099700Y-89187020D01*
X61229240Y-88996520D01*
X61381640Y-88775540D01*
X61506100Y-88592660D01*
X61640720Y-88381840D01*
X61729620Y-88231980D01*
X61760100Y-88158320D01*
X61752480Y-88127840D01*
X61709300Y-88005920D01*
X61635640Y-87820500D01*
X61541660Y-87602060D01*
X61323220Y-87106760D01*
X61000640Y-87043260D01*
X60802520Y-87007700D01*
X60528200Y-86954360D01*
X60266580Y-86903560D01*
X59855100Y-86824820D01*
X59839860Y-85316060D01*
X59903360Y-85288120D01*
X59964320Y-85272880D01*
X60116720Y-85237320D01*
X60335160Y-85194140D01*
X60589160Y-85145880D01*
X60807600Y-85105240D01*
X61028580Y-85064600D01*
X61186060Y-85034120D01*
X61257180Y-85018880D01*
X61274960Y-84996020D01*
X61328300Y-84889340D01*
X61407040Y-84719160D01*
X61493400Y-84515960D01*
X61582300Y-84305140D01*
X61658500Y-84109560D01*
X61714380Y-83962240D01*
X61734700Y-83883500D01*
X61704220Y-83827620D01*
X61620400Y-83698080D01*
X61498480Y-83512660D01*
X61351160Y-83294220D01*
X61201300Y-83075780D01*
X61074300Y-82890360D01*
X60987940Y-82755740D01*
X60949840Y-82694780D01*
X60967620Y-82651600D01*
X61056520Y-82547460D01*
X61221620Y-82374740D01*
X61465460Y-82133440D01*
X61506100Y-82095340D01*
X61701680Y-81907380D01*
X61866780Y-81754980D01*
X61981080Y-81653380D01*
X62031880Y-81615280D01*
G37*
X62031880Y-81615280D02*
X62090300Y-81645760D01*
X62219840Y-81727040D01*
X62405260Y-81848960D01*
X62626240Y-81996280D01*
X62847220Y-82146140D01*
X63027560Y-82268060D01*
X63154560Y-82349340D01*
X63207900Y-82377280D01*
X63235840Y-82367120D01*
X63339980Y-82316320D01*
X63492380Y-82237580D01*
X63581280Y-82191860D01*
X63720980Y-82133440D01*
X63789560Y-82120740D01*
X63802260Y-82138520D01*
X63853060Y-82245200D01*
X63931800Y-82428080D01*
X64038480Y-82669380D01*
X64157860Y-82951320D01*
X64287400Y-83256120D01*
X64416940Y-83566000D01*
X64538860Y-83863180D01*
X64648080Y-84129880D01*
X64734440Y-84345780D01*
X64792860Y-84495640D01*
X64813180Y-84561680D01*
X64808100Y-84574380D01*
X64736980Y-84642960D01*
X64615060Y-84734400D01*
X64353440Y-84947760D01*
X64091820Y-85272880D01*
X63934340Y-85641180D01*
X63881000Y-86050120D01*
X63926720Y-86431120D01*
X64076580Y-86796880D01*
X64330580Y-87124540D01*
X64637920Y-87368380D01*
X64998600Y-87523320D01*
X65405000Y-87571580D01*
X65793620Y-87528400D01*
X66164460Y-87381080D01*
X66494660Y-87132160D01*
X66631820Y-86972140D01*
X66822320Y-86639400D01*
X66931540Y-86283800D01*
X66944240Y-86192360D01*
X66926460Y-85801200D01*
X66812160Y-85427820D01*
X66606420Y-85092540D01*
X66319400Y-84818220D01*
X66283840Y-84790280D01*
X66149220Y-84691220D01*
X66060320Y-84622640D01*
X65991740Y-84566760D01*
X66489580Y-83367880D01*
X66568320Y-83177380D01*
X66705480Y-82849720D01*
X66824860Y-82567780D01*
X66921380Y-82344260D01*
X66987420Y-82194400D01*
X67017900Y-82133440D01*
X67020440Y-82130900D01*
X67063620Y-82123280D01*
X67155060Y-82156300D01*
X67322700Y-82237580D01*
X67434460Y-82293460D01*
X67561460Y-82354420D01*
X67617340Y-82377280D01*
X67665600Y-82351880D01*
X67787520Y-82273140D01*
X67965320Y-82153760D01*
X68181220Y-82006440D01*
X68384420Y-81869280D01*
X68572380Y-81744820D01*
X68709540Y-81658460D01*
X68775580Y-81622900D01*
X68785740Y-81622900D01*
X68844160Y-81655920D01*
X68950840Y-81744820D01*
X69115940Y-81899760D01*
X69347080Y-82128360D01*
X69382640Y-82161380D01*
X69570600Y-82354420D01*
X69725540Y-82516980D01*
X69829680Y-82631280D01*
X69865240Y-82684620D01*
X69832220Y-82750660D01*
X69745860Y-82885280D01*
X69621400Y-83075780D01*
X69469000Y-83299300D01*
X69072760Y-83875880D01*
X69291200Y-84419440D01*
X69357240Y-84584540D01*
X69443600Y-84787740D01*
X69507100Y-84932520D01*
X69537580Y-84996020D01*
X69598540Y-85016340D01*
X69745860Y-85051900D01*
X69961760Y-85097620D01*
X70220840Y-85145880D01*
X70464680Y-85189060D01*
X70685660Y-85232240D01*
X70848220Y-85262720D01*
X70919340Y-85277960D01*
X70937120Y-85288120D01*
X70949820Y-85321140D01*
X70959980Y-85397340D01*
X70965060Y-85531960D01*
X70967600Y-85745320D01*
X70967600Y-86050120D01*
X70967600Y-86083140D01*
X70965060Y-86377780D01*
X70959980Y-86608920D01*
X70952360Y-86763860D01*
X70942200Y-86822280D01*
X70942200Y-86824820D01*
X70873620Y-86840060D01*
X70716140Y-86873080D01*
X70495160Y-86916260D01*
X70231000Y-86967060D01*
X70213220Y-86969600D01*
X69951600Y-87020400D01*
X69730620Y-87066120D01*
X69575680Y-87101680D01*
X69509640Y-87122000D01*
X69496940Y-87142320D01*
X69443600Y-87243920D01*
X69367400Y-87406480D01*
X69281040Y-87607140D01*
X69194680Y-87812880D01*
X69121020Y-87998300D01*
X69070220Y-88138000D01*
X69054980Y-88201500D01*
X69057520Y-88201500D01*
X69095620Y-88265000D01*
X69187060Y-88402160D01*
X69314060Y-88592660D01*
X69469000Y-88816180D01*
X69479160Y-88831420D01*
X69631560Y-89054940D01*
X69753480Y-89242900D01*
X69834760Y-89377520D01*
X69865240Y-89438480D01*
X69865240Y-89441020D01*
X69814440Y-89507060D01*
X69702680Y-89634060D01*
X69540120Y-89804240D01*
X69344540Y-89999820D01*
X69283580Y-90060780D01*
X69067680Y-90271600D01*
X68915280Y-90411300D01*
X68823840Y-90484960D01*
X68778120Y-90500200D01*
X68775580Y-90500200D01*
X68709540Y-90459560D01*
X68569840Y-90368120D01*
X68379340Y-90238580D01*
X68153280Y-90083640D01*
X68138040Y-90073480D01*
X67914520Y-89923620D01*
X67729100Y-89796620D01*
X67597020Y-89710260D01*
X67541140Y-89674700D01*
X67530980Y-89674700D01*
X67439540Y-89702640D01*
X67282060Y-89758520D01*
X67086480Y-89832180D01*
X66880740Y-89916000D01*
X66695320Y-89994740D01*
X66553080Y-90058240D01*
X66487040Y-90096340D01*
X66487040Y-90098880D01*
X66461640Y-90177620D01*
X66423540Y-90345260D01*
X66377820Y-90573860D01*
X66324480Y-90845640D01*
X66316860Y-90891360D01*
X66266060Y-91155520D01*
X66222880Y-91373960D01*
X66192400Y-91526360D01*
X66177160Y-91587320D01*
X66139060Y-91597480D01*
X66009520Y-91607640D01*
X65811400Y-91612720D01*
X65572640Y-91615260D01*
X65321180Y-91612720D01*
X65074800Y-91607640D01*
X64863980Y-91600020D01*
X64714120Y-91589860D01*
X64653160Y-91577160D01*
X64650620Y-91574620D01*
X64627760Y-91490800D01*
X64589660Y-91325700D01*
X64543940Y-91094560D01*
X64490600Y-90820240D01*
X64480440Y-90771980D01*
X64432180Y-90507820D01*
X64386460Y-90291920D01*
X64355980Y-90142060D01*
X64338200Y-90083640D01*
X64315340Y-90070940D01*
X64206120Y-90022680D01*
X64028320Y-89949020D01*
X63809880Y-89860120D01*
X63299340Y-89654380D01*
X62674500Y-90083640D01*
X62616080Y-90121740D01*
X62392560Y-90274140D01*
X62207140Y-90398600D01*
X62080140Y-90479880D01*
X62026800Y-90510360D01*
X62021720Y-90507820D01*
X61960760Y-90454480D01*
X61836300Y-90337640D01*
X61666120Y-90172540D01*
X61470540Y-89976960D01*
X61325760Y-89832180D01*
X61153040Y-89656920D01*
X61043820Y-89540080D01*
X60985400Y-89463880D01*
X60962540Y-89418160D01*
X60967620Y-89387680D01*
X61008260Y-89324180D01*
X61099700Y-89187020D01*
X61229240Y-88996520D01*
X61381640Y-88775540D01*
X61506100Y-88592660D01*
X61640720Y-88381840D01*
X61729620Y-88231980D01*
X61760100Y-88158320D01*
X61752480Y-88127840D01*
X61709300Y-88005920D01*
X61635640Y-87820500D01*
X61541660Y-87602060D01*
X61323220Y-87106760D01*
X61000640Y-87043260D01*
X60802520Y-87007700D01*
X60528200Y-86954360D01*
X60266580Y-86903560D01*
X59855100Y-86824820D01*
X59839860Y-85316060D01*
X59903360Y-85288120D01*
X59964320Y-85272880D01*
X60116720Y-85237320D01*
X60335160Y-85194140D01*
X60589160Y-85145880D01*
X60807600Y-85105240D01*
X61028580Y-85064600D01*
X61186060Y-85034120D01*
X61257180Y-85018880D01*
X61274960Y-84996020D01*
X61328300Y-84889340D01*
X61407040Y-84719160D01*
X61493400Y-84515960D01*
X61582300Y-84305140D01*
X61658500Y-84109560D01*
X61714380Y-83962240D01*
X61734700Y-83883500D01*
X61704220Y-83827620D01*
X61620400Y-83698080D01*
X61498480Y-83512660D01*
X61351160Y-83294220D01*
X61201300Y-83075780D01*
X61074300Y-82890360D01*
X60987940Y-82755740D01*
X60949840Y-82694780D01*
X60967620Y-82651600D01*
X61056520Y-82547460D01*
X61221620Y-82374740D01*
X61465460Y-82133440D01*
X61506100Y-82095340D01*
X61701680Y-81907380D01*
X61866780Y-81754980D01*
X61981080Y-81653380D01*
X62031880Y-81615280D01*
D12*
X71801082Y-81103288D02*
X71946225Y-81030717D01*
X72018797Y-80958145D01*
X72091368Y-80813002D01*
X72091368Y-80377574D01*
X72018797Y-80232431D01*
X71946225Y-80159860D01*
X71801082Y-80087288D01*
X71583368Y-80087288D01*
X71438225Y-80159860D01*
X71365654Y-80232431D01*
X71293082Y-80377574D01*
X71293082Y-80813002D01*
X71365654Y-80958145D01*
X71438225Y-81030717D01*
X71583368Y-81103288D01*
X71801082Y-81103288D01*
X70639940Y-80087288D02*
X70639940Y-81611288D01*
X70639940Y-80159860D02*
X70494797Y-80087288D01*
X70204511Y-80087288D01*
X70059368Y-80159860D01*
X69986797Y-80232431D01*
X69914225Y-80377574D01*
X69914225Y-80813002D01*
X69986797Y-80958145D01*
X70059368Y-81030717D01*
X70204511Y-81103288D01*
X70494797Y-81103288D01*
X70639940Y-81030717D01*
X68680511Y-81030717D02*
X68825654Y-81103288D01*
X69115940Y-81103288D01*
X69261082Y-81030717D01*
X69333654Y-80885574D01*
X69333654Y-80305002D01*
X69261082Y-80159860D01*
X69115940Y-80087288D01*
X68825654Y-80087288D01*
X68680511Y-80159860D01*
X68607940Y-80305002D01*
X68607940Y-80450145D01*
X69333654Y-80595288D01*
X67954797Y-80087288D02*
X67954797Y-81103288D01*
X67954797Y-80232431D02*
X67882225Y-80159860D01*
X67737082Y-80087288D01*
X67519368Y-80087288D01*
X67374225Y-80159860D01*
X67301654Y-80305002D01*
X67301654Y-81103288D01*
X65487368Y-81030717D02*
X65342225Y-81103288D01*
X65051940Y-81103288D01*
X64906797Y-81030717D01*
X64834225Y-80885574D01*
X64834225Y-80813002D01*
X64906797Y-80667860D01*
X65051940Y-80595288D01*
X65269654Y-80595288D01*
X65414797Y-80522717D01*
X65487368Y-80377574D01*
X65487368Y-80305002D01*
X65414797Y-80159860D01*
X65269654Y-80087288D01*
X65051940Y-80087288D01*
X64906797Y-80159860D01*
X63963368Y-81103288D02*
X64108511Y-81030717D01*
X64181082Y-80958145D01*
X64253654Y-80813002D01*
X64253654Y-80377574D01*
X64181082Y-80232431D01*
X64108511Y-80159860D01*
X63963368Y-80087288D01*
X63745654Y-80087288D01*
X63600511Y-80159860D01*
X63527940Y-80232431D01*
X63455368Y-80377574D01*
X63455368Y-80813002D01*
X63527940Y-80958145D01*
X63600511Y-81030717D01*
X63745654Y-81103288D01*
X63963368Y-81103288D01*
X62149082Y-80087288D02*
X62149082Y-81103288D01*
X62802225Y-80087288D02*
X62802225Y-80885574D01*
X62729654Y-81030717D01*
X62584511Y-81103288D01*
X62366797Y-81103288D01*
X62221654Y-81030717D01*
X62149082Y-80958145D01*
X61423368Y-81103288D02*
X61423368Y-80087288D01*
X61423368Y-80377574D02*
X61350797Y-80232431D01*
X61278225Y-80159860D01*
X61133082Y-80087288D01*
X60987940Y-80087288D01*
X59826797Y-81030717D02*
X59971940Y-81103288D01*
X60262225Y-81103288D01*
X60407368Y-81030717D01*
X60479940Y-80958145D01*
X60552511Y-80813002D01*
X60552511Y-80377574D01*
X60479940Y-80232431D01*
X60407368Y-80159860D01*
X60262225Y-80087288D01*
X59971940Y-80087288D01*
X59826797Y-80159860D01*
X58593082Y-81030717D02*
X58738225Y-81103288D01*
X59028511Y-81103288D01*
X59173654Y-81030717D01*
X59246225Y-80885574D01*
X59246225Y-80305002D01*
X59173654Y-80159860D01*
X59028511Y-80087288D01*
X58738225Y-80087288D01*
X58593082Y-80159860D01*
X58520511Y-80305002D01*
X58520511Y-80450145D01*
X59246225Y-80595288D01*
X69549554Y-79002708D02*
X69549554Y-77478708D01*
X68896411Y-79002708D02*
X68896411Y-78204422D01*
X68968982Y-78059280D01*
X69114125Y-77986708D01*
X69331840Y-77986708D01*
X69476982Y-78059280D01*
X69549554Y-78131851D01*
X67517554Y-79002708D02*
X67517554Y-78204422D01*
X67590125Y-78059280D01*
X67735268Y-77986708D01*
X68025554Y-77986708D01*
X68170697Y-78059280D01*
X67517554Y-78930137D02*
X67662697Y-79002708D01*
X68025554Y-79002708D01*
X68170697Y-78930137D01*
X68243268Y-78784994D01*
X68243268Y-78639851D01*
X68170697Y-78494708D01*
X68025554Y-78422137D01*
X67662697Y-78422137D01*
X67517554Y-78349565D01*
X66791840Y-79002708D02*
X66791840Y-77986708D01*
X66791840Y-78276994D02*
X66719268Y-78131851D01*
X66646697Y-78059280D01*
X66501554Y-77986708D01*
X66356411Y-77986708D01*
X65195268Y-79002708D02*
X65195268Y-77478708D01*
X65195268Y-78930137D02*
X65340411Y-79002708D01*
X65630697Y-79002708D01*
X65775840Y-78930137D01*
X65848411Y-78857565D01*
X65920982Y-78712422D01*
X65920982Y-78276994D01*
X65848411Y-78131851D01*
X65775840Y-78059280D01*
X65630697Y-77986708D01*
X65340411Y-77986708D01*
X65195268Y-78059280D01*
X64614697Y-77986708D02*
X64324411Y-79002708D01*
X64034125Y-78276994D01*
X63743840Y-79002708D01*
X63453554Y-77986708D01*
X62219840Y-79002708D02*
X62219840Y-78204422D01*
X62292411Y-78059280D01*
X62437554Y-77986708D01*
X62727840Y-77986708D01*
X62872982Y-78059280D01*
X62219840Y-78930137D02*
X62364982Y-79002708D01*
X62727840Y-79002708D01*
X62872982Y-78930137D01*
X62945554Y-78784994D01*
X62945554Y-78639851D01*
X62872982Y-78494708D01*
X62727840Y-78422137D01*
X62364982Y-78422137D01*
X62219840Y-78349565D01*
X61494125Y-79002708D02*
X61494125Y-77986708D01*
X61494125Y-78276994D02*
X61421554Y-78131851D01*
X61348982Y-78059280D01*
X61203840Y-77986708D01*
X61058697Y-77986708D01*
X59970125Y-78930137D02*
X60115268Y-79002708D01*
X60405554Y-79002708D01*
X60550697Y-78930137D01*
X60623268Y-78784994D01*
X60623268Y-78204422D01*
X60550697Y-78059280D01*
X60405554Y-77986708D01*
X60115268Y-77986708D01*
X59970125Y-78059280D01*
X59897554Y-78204422D01*
X59897554Y-78349565D01*
X60623268Y-78494708D01*
D14*
G36*
X136856000Y-111964000D02*
G01*
X126796000Y-111964000D01*
X126796000Y-107111000D01*
X136856000Y-107111000D01*
X136856000Y-111964000D01*
G37*
X136856000Y-111964000D02*
X126796000Y-111964000D01*
X126796000Y-107111000D01*
X136856000Y-107111000D01*
X136856000Y-111964000D01*
G36*
X124156000Y-109297000D02*
G01*
X114096000Y-109297000D01*
X114096000Y-104063000D01*
X124156000Y-104063000D01*
X124156000Y-109297000D01*
G37*
X124156000Y-109297000D02*
X114096000Y-109297000D01*
X114096000Y-104063000D01*
X124156000Y-104063000D01*
X124156000Y-109297000D01*
G36*
X101169000Y-109551000D02*
G01*
X98729000Y-109551000D01*
X98729000Y-104063000D01*
X101169000Y-104063000D01*
X101169000Y-109551000D01*
G37*
X101169000Y-109551000D02*
X98729000Y-109551000D01*
X98729000Y-104063000D01*
X101169000Y-104063000D01*
X101169000Y-109551000D01*
G36*
X111329000Y-111964000D02*
G01*
X106349000Y-111964000D01*
X106349000Y-106857000D01*
X111329000Y-106857000D01*
X111329000Y-111964000D01*
G37*
X111329000Y-111964000D02*
X106349000Y-111964000D01*
X106349000Y-106857000D01*
X111329000Y-106857000D01*
X111329000Y-111964000D01*
D15*
G36*
X85752000Y-135663000D02*
G01*
X83793000Y-135663000D01*
X83793000Y-133450000D01*
X85752000Y-133450000D01*
X85752000Y-135663000D01*
G37*
X85752000Y-135663000D02*
X83793000Y-135663000D01*
X83793000Y-133450000D01*
X85752000Y-133450000D01*
X85752000Y-135663000D01*
G36*
X84990000Y-127154000D02*
G01*
X79348000Y-127154000D01*
X79348000Y-125068000D01*
X84990000Y-125068000D01*
X84990000Y-127154000D01*
G37*
X84990000Y-127154000D02*
X79348000Y-127154000D01*
X79348000Y-125068000D01*
X84990000Y-125068000D01*
X84990000Y-127154000D01*
M02*
