M48
; DRILL file {KiCad 5.1.6} date Sat Jun 13 11:17:40 2020
; FORMAT={-:-/ absolute / inch / decimal}
; #@! TF.CreationDate,2020-06-13T11:17:40+02:00
; #@! TF.GenerationSoftware,Kicad,Pcbnew,5.1.6
; #@! TF.FileFunction,Plated,1,2,PTH
FMAT,2
INCH
T1C0.0118
T2C0.0157
T3C0.0394
T4C0.0400
T5C0.0551
T6C0.0630
T7C0.0701
T8C0.1250
%
G90
G05
T1
X2.722Y-2.005
X2.727Y-2.043
X2.753Y-1.804
X2.8225Y-2.4356
X2.8318Y-3.1154
X2.845Y-1.865
X2.863Y-2.3653
X2.8825Y-1.865
X2.9025Y-2.5275
X2.956Y-3.031
X2.963Y-1.835
X2.97Y-2.3875
X2.985Y-1.715
X2.9875Y-2.52
X3.0375Y-2.5275
X3.04Y-3.57
X3.04Y-3.24
X3.05Y-2.62
X3.0519Y-2.8931
X3.097Y-2.522
X3.11Y-5.0425
X3.1325Y-2.7325
X3.154Y-2.408
X3.158Y-2.8754
X3.1745Y-5.1955
X3.201Y-2.945
X3.202Y-2.984
X3.22Y-4.77
X3.241Y-3.057
X3.2427Y-3.0949
X3.247Y-2.993
X3.273Y-2.6938
X3.341Y-2.407
X3.363Y-3.103
X3.3661Y-2.6697
X3.3773Y-2.7044
X3.416Y-3.2365
X3.426Y-2.687
X3.4531Y-4.8006
X3.466Y-2.6033
X3.485Y-2.395
X3.492Y-4.637
X3.51Y-2.665
X3.511Y-2.565
X3.555Y-2.665
X3.588Y-2.6033
X3.598Y-1.838
X3.605Y-4.82
X3.616Y-3.245
X3.6507Y-2.5306
X3.701Y-3.835
X3.704Y-2.5321
X3.704Y-3.779
X3.705Y-3.643
X3.705Y-3.895
X3.714Y-2.599
X3.735Y-2.388
X3.7735Y-2.3606
X3.823Y-3.237
X3.84Y-3.353
X3.89Y-3.455
X3.89Y-3.9
X3.9599Y-3.954
X3.961Y-3.506
X3.962Y-3.653
X3.965Y-3.805
X3.97Y-4.815
X4.063Y-2.996
X4.066Y-2.315
X4.084Y-4.059
X4.105Y-4.815
X4.112Y-3.2464
X4.115Y-2.61
X4.136Y-4.0795
X4.175Y-3.383
X4.195Y-2.885
X4.206Y-3.588
X4.207Y-3.886
X4.215Y-2.022
X4.2195Y-3.7355
X4.22Y-2.99
X4.2331Y-2.3643
X4.2405Y-4.0755
X4.2574Y-2.05
X4.262Y-3.089
X4.284Y-4.204
X4.3094Y-4.4051
X4.3095Y-3.3455
X4.3312Y-4.0709
X4.3525Y-3.3775
X4.369Y-4.106
X4.371Y-4.002
X4.41Y-3.355
X4.417Y-3.233
X4.445Y-3.3907
X4.482Y-2.777
X4.493Y-4.0019
X4.4933Y-4.1126
X4.52Y-2.665
X4.53Y-3.3421
X4.565Y-2.5725
X4.5726Y-3.39
X4.5874Y-4.82
X4.604Y-1.771
X4.609Y-3.2466
X4.625Y-3.5
X4.6348Y-2.639
X4.64Y-4.0268
X4.648Y-2.595
X4.682Y-2.649
X4.684Y-3.435
X4.6913Y-2.9198
X4.7106Y-4.7644
X4.712Y-3.764
X4.7195Y-3.46
X4.7287Y-2.5137
X4.7395Y-4.0515
X4.7467Y-2.6526
X4.75Y-3.483
X4.76Y-3.406
X4.769Y-3.105
X4.775Y-3.175
X4.7865Y-3.294
X4.789Y-3.9505
X4.792Y-2.882
X4.7967Y-4.437
X4.808Y-2.991
X4.82Y-2.595
X4.8379Y-4.0789
X4.845Y-4.845
X4.873Y-4.773
X4.892Y-2.851
X4.93Y-5.0
X4.965Y-2.6275
X4.97Y-4.773
X4.997Y-4.799
X5.0Y-2.545
X5.0176Y-2.6277
X5.0324Y-4.051
X5.0395Y-3.4365
X5.0625Y-3.4035
X5.065Y-3.345
X5.0665Y-3.491
X5.0775Y-3.231
X5.0895Y-2.171
X5.09Y-2.865
X5.1015Y-3.1777
X5.113Y-2.055
X5.1395Y-3.988
X5.1503Y-2.081
X5.16Y-4.5355
X5.165Y-4.026
X5.178Y-2.889
X5.19Y-4.123
X5.195Y-3.9945
X5.205Y-1.83
X5.2115Y-4.2055
X5.2195Y-2.1825
X5.229Y-2.017
X5.2391Y-4.058
X5.246Y-2.12
X5.2604Y-2.2498
X5.265Y-1.74
X5.265Y-3.036
X5.266Y-2.957
X5.272Y-2.016
X5.273Y-2.166
X5.276Y-2.065
X5.2785Y-4.0776
X5.282Y-3.135
X5.285Y-3.194
X5.287Y-1.9543
X5.291Y-2.9964
X5.299Y-3.254
X5.319Y-2.6782
X5.323Y-2.436
X5.3325Y-4.0745
X5.34Y-2.251
X5.3542Y-3.071
X5.364Y-2.293
X5.399Y-4.207
X5.401Y-2.063
X5.4076Y-4.4274
X5.438Y-4.1781
X5.4423Y-1.976
X5.465Y-1.66
X5.4676Y-3.156
X5.472Y-2.233
X5.474Y-3.483
X5.481Y-2.435
X5.486Y-3.09
X5.489Y-2.195
X5.4933Y-3.7294
X5.495Y-1.7104
X5.507Y-2.471
X5.514Y-2.2242
X5.525Y-2.2845
X5.525Y-2.7497
X5.529Y-1.909
X5.544Y-2.496
X5.561Y-2.1881
X5.5629Y-1.7922
X5.5765Y-2.4355
X5.611Y-2.627
X5.613Y-2.539
X5.634Y-2.7431
X5.636Y-1.85
X5.6381Y-1.7224
X5.642Y-1.923
X5.6438Y-1.658
X5.649Y-1.617
X5.65Y-4.59
X5.663Y-2.687
X5.675Y-1.967
X5.695Y-2.235
X5.735Y-2.196
X5.785Y-5.06
X5.8004Y-2.7821
X5.85Y-5.185
X5.8626Y-2.3854
X5.885Y-5.005
X5.935Y-5.2018
T2
X2.375Y-3.575
X2.585Y-1.995
X2.6691Y-1.815
X2.86Y-3.845
X2.86Y-3.945
X2.91Y-3.795
X2.915Y-2.59
X2.915Y-2.645
X2.94Y-2.985
X2.96Y-3.845
X2.965Y-3.38
X2.965Y-3.435
X2.97Y-2.935
X2.975Y-3.25
X3.0Y-2.985
X3.01Y-3.3
X3.015Y-2.31
X3.03Y-2.2
X3.03Y-2.255
X3.035Y-5.365
X3.035Y-5.425
X3.09Y-2.12
X3.105Y-5.365
X3.105Y-5.425
X3.11Y-2.06
X3.11Y-4.8
X3.15Y-2.12
X3.28Y-4.235
X3.35Y-4.235
X3.39Y-3.425
X3.57Y-2.32
X3.59Y-3.555
X3.59Y-3.635
X3.59Y-3.715
X3.63Y-2.32
X3.645Y-4.99
X3.69Y-2.32
X3.735Y-4.99
X3.785Y-2.125
X3.84Y-2.125
X3.86Y-5.265
X3.895Y-2.125
X3.95Y-5.18
X4.01Y-5.25
X4.345Y-2.335
X4.41Y-2.335
X4.455Y-4.99
X4.475Y-2.335
X4.53Y-4.99
X4.585Y-2.13
X4.645Y-2.13
X4.705Y-2.13
X4.755Y-5.175
X4.755Y-5.235
X4.755Y-5.295
X5.26Y-4.99
X5.313Y-2.353
X5.34Y-4.99
X5.46Y-5.245
X5.495Y-5.135
X5.514Y-2.341
X5.525Y-5.18
T3
X3.698Y-1.9508
X3.698Y-2.4508
X3.798Y-1.9508
X3.798Y-2.4508
X3.898Y-1.9508
X3.898Y-2.4508
X3.998Y-1.9508
X3.998Y-2.4508
X4.098Y-1.9508
X4.098Y-2.4508
X4.198Y-1.9508
X4.198Y-2.4508
X4.298Y-1.9508
X4.298Y-2.4508
X4.398Y-1.9508
X4.398Y-2.4508
X4.2135Y-3.0525
X4.2135Y-3.1525
X2.175Y-1.9
X2.175Y-2.0
X3.934Y-4.1564
X3.934Y-4.2564
X4.17Y-2.565
X4.27Y-2.565
X4.37Y-2.565
X5.2425Y-3.3031
X5.2425Y-3.4031
X5.2425Y-3.5031
X5.2425Y-3.6031
X5.2425Y-3.7031
X5.2425Y-3.8031
X5.3425Y-3.3031
X5.3425Y-3.4031
X5.3425Y-3.5031
X5.3425Y-3.6031
X5.3425Y-3.7031
X5.3425Y-3.8031
X4.9395Y-4.1564
X4.9395Y-4.2564
X2.2Y-2.4011
X2.2Y-2.5389
X2.2Y-3.1511
X2.2Y-3.2889
X3.1395Y-5.2981
X3.2395Y-5.2981
X3.3395Y-5.2981
X3.6939Y-4.4123
X3.7939Y-4.4123
X4.7175Y-3.0525
X4.7175Y-3.1525
X4.0356Y-4.1564
X4.0356Y-4.2564
X4.0356Y-4.3564
X4.1356Y-4.1564
X4.1356Y-4.2564
X4.1356Y-4.3564
X4.2356Y-4.1564
X4.2356Y-4.2564
X4.2356Y-4.3564
X4.3356Y-4.1564
X4.3356Y-4.2564
X4.3356Y-4.3564
X2.2Y-2.7761
X2.2Y-2.9139
X3.2486Y-1.6958
X3.3486Y-1.6958
X3.4486Y-1.6958
X3.5486Y-1.6958
X4.74Y-4.5937
X4.74Y-5.0937
X4.84Y-4.5937
X4.84Y-5.0937
X4.94Y-4.5937
X4.94Y-5.0937
X5.04Y-4.5937
X5.04Y-5.0937
X5.14Y-4.5937
X5.14Y-5.0937
X5.24Y-4.5937
X5.24Y-5.0937
X5.34Y-4.5937
X5.34Y-5.0937
X5.44Y-4.5937
X5.44Y-5.0937
X4.5395Y-4.1564
X4.5395Y-4.2564
X4.5395Y-4.3564
X4.6395Y-4.1564
X4.6395Y-4.2564
X4.6395Y-4.3564
X4.7395Y-4.1564
X4.7395Y-4.2564
X4.7395Y-4.3564
X4.8395Y-4.1564
X4.8395Y-4.2564
X4.8395Y-4.3564
X3.94Y-4.5937
X3.94Y-5.0937
X4.04Y-4.5937
X4.04Y-5.0937
X4.14Y-4.5937
X4.14Y-5.0937
X4.24Y-4.5937
X4.24Y-5.0937
X4.34Y-4.5937
X4.34Y-5.0937
X4.44Y-4.5937
X4.44Y-5.0937
X4.54Y-4.5937
X4.54Y-5.0937
X4.64Y-4.5937
X4.64Y-5.0937
X3.2773Y-4.05
X3.3773Y-4.05
X3.4773Y-4.05
X4.438Y-4.1564
X4.438Y-4.2564
X4.3159Y-2.9525
X4.3159Y-3.0525
X4.3159Y-3.1525
X4.4159Y-2.9525
X4.4159Y-3.0525
X4.4159Y-3.1525
X4.5159Y-2.9525
X4.5159Y-3.0525
X4.5159Y-3.1525
X4.6159Y-2.9525
X4.6159Y-3.0525
X4.6159Y-3.1525
X2.898Y-1.9508
X2.898Y-2.4508
X2.998Y-1.9508
X2.998Y-2.4508
X3.098Y-1.9508
X3.098Y-2.4508
X3.198Y-1.9508
X3.198Y-2.4508
X3.298Y-1.9508
X3.298Y-2.4508
X3.398Y-1.9508
X3.398Y-2.4508
X3.498Y-1.9508
X3.498Y-2.4508
X3.598Y-1.9508
X3.598Y-2.4508
X3.18Y-4.9635
X3.28Y-4.9635
X4.8628Y-3.0041
X4.8628Y-3.1041
X4.9628Y-3.0041
X4.9628Y-3.1041
X5.0628Y-3.0041
X5.0628Y-3.1041
X5.1628Y-3.0041
X5.1628Y-3.1041
X5.81Y-2.295
X5.91Y-2.295
X3.3159Y-2.9525
X3.3159Y-3.0525
X3.3159Y-3.1525
X3.4159Y-2.9525
X3.4159Y-3.0525
X3.4159Y-3.1525
X3.5159Y-2.9525
X3.5159Y-3.0525
X3.5159Y-3.1525
X3.6159Y-2.9525
X3.6159Y-3.0525
X3.6159Y-3.1525
X4.8037Y-1.6958
X4.9037Y-1.6958
X5.0037Y-1.6958
X5.1037Y-1.6958
X3.812Y-2.9525
X3.812Y-3.0525
X3.812Y-3.1525
X3.912Y-2.9525
X3.912Y-3.0525
X3.912Y-3.1525
X4.012Y-2.9525
X4.012Y-3.0525
X4.012Y-3.1525
X4.112Y-2.9525
X4.112Y-3.0525
X4.112Y-3.1525
X2.5825Y-2.8031
X2.6825Y-2.8031
X2.7825Y-2.8031
X2.8825Y-2.8031
X2.9425Y-4.7031
X2.9825Y-2.8031
X3.0425Y-4.7031
X3.0825Y-2.8031
X3.1425Y-4.7031
X3.1825Y-2.8031
X3.2425Y-4.7031
X3.2825Y-2.8031
X3.3425Y-4.7031
X3.3825Y-2.8031
X3.4425Y-4.7031
X3.4825Y-2.8031
X3.5425Y-4.7031
X3.6425Y-2.8031
X3.6425Y-4.7031
X3.7425Y-2.8031
X3.8425Y-2.8031
X3.8425Y-4.7031
X3.9425Y-2.8031
X3.9425Y-4.7031
X4.0425Y-2.8031
X4.0425Y-4.7031
X4.1425Y-2.8031
X4.1425Y-4.7031
X4.2425Y-2.8031
X4.2425Y-4.7031
X4.3425Y-2.8031
X4.3425Y-4.7031
X4.4425Y-4.7031
X4.5425Y-2.8031
X4.5425Y-4.7031
X4.6425Y-2.8031
X4.7425Y-2.8031
X4.7425Y-4.7031
X4.8425Y-2.8031
X4.8425Y-4.7031
X4.9425Y-2.8031
X4.9425Y-4.7031
X5.0425Y-2.8031
X5.0425Y-4.7031
X5.1425Y-2.8031
X5.1425Y-4.7031
X5.2425Y-2.8031
X5.2425Y-4.7031
X5.3425Y-4.7031
X5.4425Y-4.7031
X4.095Y-5.315
X4.195Y-5.315
X4.295Y-5.315
X4.395Y-5.315
X2.175Y-2.125
X2.175Y-2.225
X5.7425Y-2.8031
X5.7425Y-2.9031
X5.7425Y-3.0031
X5.7425Y-3.1031
X5.7425Y-3.2031
X5.7425Y-3.3031
X5.7425Y-3.4031
X5.7425Y-3.5031
X5.7425Y-3.6031
X5.7425Y-3.7031
X5.7425Y-3.8031
X5.7425Y-3.9031
X5.7425Y-4.0031
X5.7425Y-4.1031
X5.7425Y-4.2031
X5.7425Y-4.3031
X5.7425Y-4.4031
X5.7425Y-4.5031
X2.6098Y-1.7223
X2.7098Y-1.7223
X2.8098Y-1.7223
X2.9098Y-1.7223
X4.222Y-1.634
X4.222Y-1.734
X4.222Y-1.834
X4.322Y-1.634
X4.322Y-1.734
X4.322Y-1.834
X4.422Y-1.634
X4.422Y-1.734
X4.422Y-1.834
X4.522Y-1.634
X4.522Y-1.734
X4.522Y-1.834
X4.94Y-5.255
X5.04Y-5.255
X5.14Y-5.255
X5.24Y-5.255
X2.6098Y-1.6223
X2.7098Y-1.6223
X2.8098Y-1.6223
X2.9098Y-1.6223
X4.17Y-2.67
X4.27Y-2.67
X4.37Y-2.67
X5.7214Y-1.6367
X5.7214Y-1.7367
X5.7214Y-1.8367
X5.7214Y-1.9367
X5.7214Y-2.0367
X5.7214Y-2.1367
X5.8214Y-1.6367
X5.8214Y-1.7367
X5.8214Y-1.8367
X5.8214Y-1.9367
X5.8214Y-2.0367
X5.8214Y-2.1367
X5.9214Y-1.6367
X5.9214Y-1.7367
X5.9214Y-1.8367
X5.9214Y-1.9367
X5.9214Y-2.0367
X5.9214Y-2.1367
X4.498Y-1.9508
X4.498Y-2.4508
X4.598Y-1.9508
X4.598Y-2.4508
X4.698Y-1.9508
X4.698Y-2.4508
X4.798Y-1.9508
X4.798Y-2.4508
X4.898Y-1.9508
X4.898Y-2.4508
X4.998Y-1.9508
X4.998Y-2.4508
X5.098Y-1.9508
X5.098Y-2.4508
X5.198Y-1.9508
X5.198Y-2.4508
X2.175Y-1.675
X2.175Y-1.775
X5.0395Y-4.1564
X5.0395Y-4.2564
X5.0395Y-4.3564
X5.1395Y-4.1564
X5.1395Y-4.2564
X5.1395Y-4.3564
X5.2395Y-4.1564
X5.2395Y-4.2564
X5.2395Y-4.3564
X5.3395Y-4.1564
X5.3395Y-4.2564
X5.3395Y-4.3564
X3.475Y-5.315
X3.575Y-5.315
X3.675Y-5.315
X3.775Y-5.315
X4.94Y-5.355
X5.04Y-5.355
X5.14Y-5.355
X5.24Y-5.355
X3.803Y-1.695
X3.903Y-1.695
X4.003Y-1.695
X4.103Y-1.695
X3.14Y-4.5937
X3.14Y-5.0937
X3.24Y-4.5937
X3.24Y-5.0937
X3.34Y-4.5937
X3.34Y-5.0937
X3.44Y-4.5937
X3.44Y-5.0937
X3.54Y-4.5937
X3.54Y-5.0937
X3.64Y-4.5937
X3.64Y-5.0937
X3.74Y-4.5937
X3.74Y-5.0937
X3.84Y-4.5937
X3.84Y-5.0937
X5.5639Y-2.0289
X5.5639Y-2.1289
X3.7135Y-3.0525
X3.7135Y-3.1525
X3.2805Y-4.4123
X3.3805Y-4.4123
X3.4805Y-4.4123
X4.8925Y-3.4031
X4.8925Y-3.5031
X4.8925Y-3.6031
X4.8925Y-3.7031
X4.8925Y-3.8031
X4.9925Y-3.4031
X4.9925Y-3.5031
X4.9925Y-3.6031
X4.9925Y-3.7031
X4.9925Y-3.8031
X5.725Y-5.4118
X5.825Y-5.4118
T4
X4.3475Y-3.6031
X4.3475Y-3.7031
X4.3475Y-3.8031
X4.4475Y-3.6031
X4.4475Y-3.7031
X4.4475Y-3.8031
X5.5425Y-2.8031
X5.5425Y-2.9031
X5.5425Y-3.0031
X5.5425Y-3.1031
X5.5425Y-3.2031
X5.5425Y-3.3031
X5.5425Y-3.4031
X5.5425Y-3.5031
X5.5425Y-3.6031
X5.5425Y-3.7031
X5.5425Y-3.8031
X5.5425Y-3.9031
X5.5425Y-4.0031
X5.5425Y-4.1031
X5.5425Y-4.2031
X5.5425Y-4.3031
X5.5425Y-4.4031
X5.5425Y-4.5031
X5.6425Y-2.8031
X5.6425Y-2.9031
X5.6425Y-3.0031
X5.6425Y-3.1031
X5.6425Y-3.2031
X5.6425Y-3.3031
X5.6425Y-3.4031
X5.6425Y-3.5031
X5.6425Y-3.6031
X5.6425Y-3.7031
X5.6425Y-3.8031
X5.6425Y-3.9031
X5.6425Y-4.0031
X5.6425Y-4.1031
X5.6425Y-4.2031
X5.6425Y-4.3031
X5.6425Y-4.4031
X5.6425Y-4.5031
T5
X2.25Y-3.695
X2.25Y-3.895
T6
X2.24Y-4.255
X2.24Y-4.455
X2.24Y-4.655
X2.24Y-4.855
X2.24Y-5.055
X2.24Y-5.255
T7
X2.5718Y-4.5926
X2.5718Y-4.9832
X2.7057Y-4.5926
X2.7057Y-4.9832
X2.53Y-5.2194
X2.53Y-5.3533
X2.9206Y-5.2194
X2.9206Y-5.3533
X2.5718Y-3.9037
X2.5718Y-4.2942
X2.7057Y-3.9037
X2.7057Y-4.2942
T8
X2.3925Y-4.7031
X2.4425Y-2.8031
X5.3925Y-2.8031
X5.6425Y-4.7031
T0
M30
