M48
; DRILL file {KiCad 5.1.0} date Sa 13 Apr 2019 19:38:01 CEST
; FORMAT={-:-/ absolute / inch / decimal}
; #@! TF.CreationDate,2019-04-13T19:38:01+02:00
; #@! TF.GenerationSoftware,Kicad,Pcbnew,5.1.0
; #@! TF.FileFunction,Plated,1,2,PTH
FMAT,2
INCH
T1C0.0120
T2C0.0200
T3C0.0320
T4C0.0394
T5C0.0400
T6C0.0450
T7C0.0472
T8C0.0492
T9C0.0551
T10C0.0669
T11C0.1220
T12C0.1250
%
G90
G05
T1
X2.8522Y-2.0425
X2.975Y-1.9647
X2.9977Y-3.2101
X3.04Y-2.8825
X3.0475Y-2.3325
X3.0585Y-1.9493
X3.1276Y-2.4057
X3.1367Y-3.3888
X3.203Y-5.137
X3.2586Y-4.7098
X3.2727Y-3.5197
X3.316Y-2.869
X3.3828Y-4.8257
X3.3885Y-4.7389
X3.4225Y-2.4157
X3.4891Y-4.747
X3.505Y-3.512
X3.539Y-2.4695
X3.545Y-2.3925
X3.5632Y-2.6063
X3.5633Y-3.3893
X3.5664Y-3.242
X3.5687Y-3.6771
X3.5975Y-2.77
X3.5977Y-3.4323
X3.634Y-3.3031
X3.6666Y-2.8309
X3.6976Y-3.5627
X3.7025Y-2.76
X3.7084Y-3.5082
X3.7097Y-2.5936
X3.7248Y-2.6956
X3.7293Y-3.8975
X3.7577Y-2.6406
X3.759Y-3.2004
X3.7707Y-3.488
X3.7782Y-3.6144
X3.78Y-3.842
X3.7804Y-2.8352
X3.7833Y-3.4572
X3.7913Y-3.8993
X3.7925Y-3.9846
X3.7925Y-2.7018
X3.7975Y-2.395
X3.7975Y-2.4425
X3.805Y-2.59
X3.8219Y-3.1482
X3.8233Y-3.7083
X3.8249Y-2.1579
X3.8264Y-3.5015
X3.829Y-3.5345
X3.8402Y-3.6163
X3.8525Y-2.4125
X3.8605Y-2.7501
X3.8669Y-3.2506
X3.8703Y-3.8416
X3.8719Y-3.8752
X3.9078Y-4.2472
X3.91Y-1.927
X3.925Y-3.8407
X3.9404Y-3.5874
X3.9412Y-3.5372
X3.9442Y-3.6727
X3.9486Y-3.6258
X3.9654Y-3.2143
X3.9659Y-3.3035
X3.9702Y-4.4435
X3.9946Y-3.0983
X3.9951Y-3.4011
X4.0038Y-4.1363
X4.0093Y-3.3019
X4.0601Y-4.7659
X4.1Y-5.0026
X4.105Y-5.134
X4.1078Y-3.8
X4.1225Y-4.0425
X4.16Y-4.6288
X4.1644Y-4.3814
X4.17Y-2.3775
X4.176Y-4.467
X4.1769Y-5.0795
X4.1875Y-3.6818
X4.191Y-4.35
X4.2002Y-4.57
X4.2125Y-3.495
X4.215Y-3.945
X4.2189Y-3.106
X4.22Y-3.635
X4.22Y-3.785
X4.2243Y-4.0385
X4.2415Y-3.5288
X4.2625Y-3.095
X4.316Y-4.411
X4.3299Y-4.4581
X4.335Y-3.195
X4.3549Y-3.5785
X4.3639Y-3.9971
X4.3703Y-4.838
X4.3848Y-3.7138
X4.3935Y-4.6199
X4.394Y-4.138
X4.405Y-2.8596
X4.4051Y-2.8066
X4.4125Y-3.5175
X4.4201Y-2.3345
X4.425Y-2.765
X4.4343Y-3.4725
X4.4482Y-2.8538
X4.45Y-4.145
X4.4825Y-3.59
X4.4945Y-2.866
X4.5Y-2.17
X4.5114Y-2.5939
X4.525Y-3.46
X4.526Y-3.326
X4.5653Y-3.0072
X4.5666Y-2.7565
X4.5666Y-3.0405
X4.5775Y-3.125
X4.5818Y-2.8475
X4.582Y-2.6837
X4.5825Y-2.9719
X4.5825Y-2.295
X4.6091Y-3.2225
X4.615Y-3.1781
X4.6744Y-3.1603
X4.6759Y-2.6085
X4.68Y-3.505
X4.7125Y-3.505
X4.7255Y-2.2927
X4.727Y-4.8127
X4.739Y-3.3351
X4.7401Y-2.7193
X4.7441Y-3.2568
X4.748Y-1.939
X4.7485Y-2.654
X4.775Y-2.3325
X4.7895Y-3.3991
X4.7985Y-4.2247
X4.865Y-2.304
X4.8666Y-4.1518
X4.8824Y-4.4223
X4.9113Y-4.1858
X4.9172Y-4.0265
X4.9293Y-4.2122
X4.9351Y-4.4152
X4.9475Y-4.335
X4.9564Y-3.5603
X4.9722Y-4.2305
X4.9831Y-3.5425
X4.995Y-3.4725
X5.0478Y-2.916
X5.07Y-2.305
X5.0706Y-4.4173
X5.0845Y-4.1552
X5.098Y-4.56
X5.1004Y-3.2404
X5.11Y-2.38
X5.12Y-2.325
X5.13Y-3.5175
X5.1574Y-2.76
X5.16Y-2.383
X5.2057Y-4.0165
X5.2185Y-3.0844
X5.2213Y-2.8031
X5.2736Y-2.7871
X5.335Y-4.005
X5.3374Y-2.4215
X5.34Y-3.8075
X5.3425Y-2.3745
X5.3494Y-3.2505
X5.3805Y-4.1545
X5.3999Y-3.244
X5.4275Y-2.5552
X5.4488Y-2.9372
X5.45Y-4.025
X5.4575Y-2.64
X5.4956Y-3.4205
X5.5085Y-1.6045
X5.5199Y-4.2465
X5.55Y-3.3835
X5.5535Y-4.4101
X5.5795Y-4.0269
X5.5902Y-4.4414
X5.605Y-3.3495
X5.6119Y-4.242
X5.625Y-3.2475
X5.74Y-5.1268
X5.84Y-5.035
X5.9485Y-3.5465
X5.9564Y-5.0568
T2
X2.2475Y-2.6575
X2.53Y-2.6575
X2.6998Y-4.4242
X2.9769Y-4.9191
X3.015Y-2.1125
X3.0695Y-4.453
X3.0889Y-2.2538
X3.18Y-4.728
X4.665Y-4.775
X5.3Y-4.624
T3
X3.1Y-2.0
X3.1Y-2.5
X3.2Y-2.0
X3.2Y-2.5
X3.3Y-2.0
X3.3Y-2.5
X3.4Y-2.0
X3.4Y-2.5
X3.5Y-2.0
X3.5Y-2.5
X3.6Y-2.0
X3.6Y-2.5
X3.7Y-2.0
X3.7Y-2.5
X3.8Y-2.0
X3.8Y-2.5
X4.85Y-4.525
X4.85Y-5.025
X4.95Y-4.525
X4.95Y-5.025
X5.05Y-4.525
X5.05Y-5.025
X5.15Y-4.525
X5.15Y-5.025
X5.25Y-4.525
X5.25Y-5.025
X5.35Y-4.525
X5.35Y-5.025
X5.45Y-4.525
X5.45Y-5.025
X5.55Y-4.525
X5.55Y-5.025
X3.9Y-2.0
X3.9Y-2.5
X4.0Y-2.0
X4.0Y-2.5
X4.1Y-2.0
X4.1Y-2.5
X4.2Y-2.0
X4.2Y-2.5
X4.3Y-2.0
X4.3Y-2.5
X4.4Y-2.0
X4.4Y-2.5
X4.5Y-2.0
X4.5Y-2.5
X4.6Y-2.0
X4.6Y-2.5
X3.25Y-4.525
X3.25Y-5.025
X3.35Y-4.525
X3.35Y-5.025
X3.45Y-4.525
X3.45Y-5.025
X3.55Y-4.525
X3.55Y-5.025
X3.65Y-4.525
X3.65Y-5.025
X3.75Y-4.525
X3.75Y-5.025
X3.85Y-4.525
X3.85Y-5.025
X3.95Y-4.525
X3.95Y-5.025
X4.05Y-4.525
X4.05Y-5.025
X4.15Y-4.525
X4.15Y-5.025
X4.25Y-4.525
X4.25Y-5.025
X4.35Y-4.525
X4.35Y-5.025
X4.45Y-4.525
X4.45Y-5.025
X4.55Y-4.525
X4.55Y-5.025
X4.65Y-4.525
X4.65Y-5.025
X4.75Y-4.525
X4.75Y-5.025
X4.7Y-2.0
X4.7Y-2.5
X4.8Y-2.0
X4.8Y-2.5
X4.9Y-2.0
X4.9Y-2.5
X5.0Y-2.0
X5.0Y-2.5
X5.1Y-2.0
X5.1Y-2.5
X5.2Y-2.0
X5.2Y-2.5
X5.3Y-2.0
X5.3Y-2.5
X5.4Y-2.0
X5.4Y-2.5
T4
X4.42Y-4.395
X4.52Y-4.395
X4.62Y-4.395
X4.72Y-4.395
X5.725Y-5.4118
X5.825Y-5.4118
X5.795Y-1.62
X5.795Y-1.72
X5.795Y-1.82
X5.795Y-1.92
X5.795Y-2.02
X5.795Y-2.12
X5.895Y-1.62
X5.895Y-1.72
X5.895Y-1.82
X5.895Y-1.92
X5.895Y-2.02
X5.895Y-2.12
X3.9975Y-4.2
X4.0975Y-4.2
X5.9Y-3.0
X5.9Y-3.1
X5.9Y-3.2
X5.9Y-3.3
X5.9Y-3.4
X5.9Y-3.5
X5.9Y-3.6
X5.9Y-3.7
X5.9Y-3.8
X5.9Y-3.9
X5.9Y-4.0
X5.9Y-4.1
X5.9Y-4.2
X5.9Y-4.3
X5.9Y-4.4
X5.9Y-4.5
X5.9Y-4.6
X5.9Y-4.7
X5.696Y-1.62
X5.696Y-1.72
X5.696Y-1.82
X5.696Y-1.92
X5.696Y-2.02
X5.696Y-2.12
X3.3Y-4.05
X3.4Y-4.05
X3.5Y-4.05
X3.755Y-1.62
X3.755Y-1.72
X3.755Y-1.82
X4.8Y-2.5975
X4.9Y-2.5975
X5.0Y-2.5975
X5.1Y-2.5975
X3.1975Y-2.595
X3.2975Y-2.595
X3.3975Y-2.595
X3.4975Y-2.595
X5.152Y-4.195
X5.152Y-4.295
X5.252Y-4.195
X5.252Y-4.295
X5.352Y-4.195
X5.352Y-4.295
X5.452Y-4.195
X5.452Y-4.295
X5.8Y-2.55
X5.8Y-2.65
X5.8Y-2.75
X5.8Y-2.85
X5.9Y-2.55
X5.9Y-2.65
X5.9Y-2.75
X5.9Y-2.85
X4.852Y-3.505
X4.852Y-3.605
X4.852Y-3.705
X4.852Y-3.805
X4.852Y-3.905
X4.852Y-4.005
X4.055Y-1.62
X4.055Y-1.72
X4.055Y-1.82
X4.42Y-4.195
X4.42Y-4.295
X4.52Y-4.195
X4.52Y-4.295
X4.62Y-4.195
X4.62Y-4.295
X4.72Y-4.195
X4.72Y-4.295
X3.955Y-1.62
X3.955Y-1.72
X3.955Y-1.82
X5.1525Y-4.395
X5.2525Y-4.395
X5.3525Y-4.395
X5.4525Y-4.395
X2.6Y-1.75
X2.7Y-1.75
X2.8Y-1.75
X2.9Y-1.75
X3.0Y-1.75
X3.1Y-1.75
X3.217Y-4.288
X3.317Y-4.288
X3.417Y-4.288
X4.0Y-2.595
X4.1Y-2.595
X4.2Y-2.595
X4.3Y-2.595
X3.5575Y-4.395
X3.6575Y-4.395
X3.7575Y-4.395
X3.8575Y-4.395
X3.2Y-2.695
X3.2Y-2.795
X3.3Y-2.695
X3.3Y-2.795
X3.4Y-2.695
X3.4Y-2.795
X3.5Y-2.695
X3.5Y-2.795
X4.0Y-2.695
X4.0Y-2.795
X4.1Y-2.695
X4.1Y-2.795
X4.2Y-2.695
X4.2Y-2.795
X4.3Y-2.695
X4.3Y-2.795
X5.39Y-2.64
X5.39Y-2.74
X3.855Y-1.62
X3.855Y-1.72
X3.855Y-1.82
X4.8Y-2.695
X4.8Y-2.795
X4.9Y-2.695
X4.9Y-2.795
X5.0Y-2.695
X5.0Y-2.795
X5.1Y-2.695
X5.1Y-2.795
X3.5576Y-4.1948
X3.5576Y-4.2948
X3.6576Y-4.1948
X3.6576Y-4.2948
X3.7576Y-4.1948
X3.7576Y-4.2948
X3.8576Y-4.1948
X3.8576Y-4.2948
X2.8Y-1.65
X2.9Y-1.65
X3.0Y-1.65
X3.1Y-1.65
X5.15Y-1.7
X5.25Y-1.7
X5.35Y-1.7
X5.45Y-1.7
X4.24Y-4.105
X4.24Y-4.205
T5
X3.275Y-5.3
X3.375Y-5.3
X3.475Y-5.3
X5.4Y-3.5
X5.4Y-3.6
X5.4Y-3.7
X5.4Y-3.8
X5.4Y-3.9
X5.4Y-4.0
X5.5Y-3.5
X5.5Y-3.6
X5.5Y-3.7
X5.5Y-3.8
X5.5Y-3.9
X5.5Y-4.0
X4.25Y-1.696
X4.35Y-1.696
X4.45Y-1.696
X4.55Y-1.696
X2.225Y-2.125
X2.225Y-2.225
X5.05Y-3.6
X5.05Y-3.7
X5.05Y-3.8
X5.05Y-3.9
X5.05Y-4.0
X5.15Y-3.6
X5.15Y-3.7
X5.15Y-3.8
X5.15Y-3.9
X5.15Y-4.0
X2.225Y-1.9
X2.225Y-2.0
X2.6752Y-3.2706
X2.7752Y-3.2706
X2.8752Y-3.2706
X4.71Y-5.2969
X4.81Y-5.2969
X4.91Y-5.2969
X5.01Y-5.2969
X5.8491Y-2.313
X5.8491Y-2.413
X2.74Y-3.0
X2.84Y-3.0
X2.94Y-3.0
X3.04Y-3.0
X3.1Y-4.9
X3.14Y-3.0
X3.2Y-4.9
X3.24Y-3.0
X3.3Y-4.9
X3.34Y-3.0
X3.4Y-4.9
X3.44Y-3.0
X3.5Y-4.9
X3.54Y-3.0
X3.6Y-4.9
X3.64Y-3.0
X3.7Y-4.9
X3.8Y-3.0
X3.8Y-4.9
X3.9Y-3.0
X4.0Y-3.0
X4.0Y-4.9
X4.1Y-3.0
X4.1Y-4.9
X4.2Y-3.0
X4.2Y-4.9
X4.3Y-3.0
X4.3Y-4.9
X4.4Y-3.0
X4.4Y-4.9
X4.5Y-3.0
X4.5Y-4.9
X4.505Y-3.8
X4.505Y-3.9
X4.505Y-4.0
X4.6Y-4.9
X4.605Y-3.8
X4.605Y-3.9
X4.605Y-4.0
X4.7Y-3.0
X4.7Y-4.9
X4.8Y-3.0
X4.9Y-3.0
X4.9Y-4.9
X5.0Y-3.0
X5.0Y-4.9
X5.1Y-3.0
X5.1Y-4.9
X5.2Y-3.0
X5.2Y-4.9
X5.3Y-3.0
X5.3Y-4.9
X5.4Y-3.0
X5.4Y-4.9
X5.5Y-4.9
X5.6Y-4.9
X5.7Y-3.0
X5.7Y-3.1
X5.7Y-3.2
X5.7Y-3.3
X5.7Y-3.4
X5.7Y-3.5
X5.7Y-3.6
X5.7Y-3.7
X5.7Y-3.8
X5.7Y-3.9
X5.7Y-4.0
X5.7Y-4.1
X5.7Y-4.2
X5.7Y-4.3
X5.7Y-4.4
X5.7Y-4.5
X5.7Y-4.6
X5.7Y-4.7
X5.8Y-3.0
X5.8Y-3.1
X5.8Y-3.2
X5.8Y-3.3
X5.8Y-3.4
X5.8Y-3.5
X5.8Y-3.6
X5.8Y-3.7
X5.8Y-3.8
X5.8Y-3.9
X5.8Y-4.0
X5.8Y-4.1
X5.8Y-4.2
X5.8Y-4.3
X5.8Y-4.4
X5.8Y-4.5
X5.8Y-4.6
X5.8Y-4.7
X5.185Y-5.2969
X5.285Y-5.2969
X5.385Y-5.2969
X5.485Y-5.2969
X2.675Y-2.7
X2.775Y-2.7
X2.875Y-2.7
X4.694Y-1.696
X4.794Y-1.696
X4.894Y-1.696
X4.994Y-1.696
X2.675Y-2.388
X2.775Y-2.388
X2.875Y-2.388
X2.225Y-1.675
X2.225Y-1.775
X4.235Y-5.2969
X4.335Y-5.2969
X4.435Y-5.2969
X4.535Y-5.2969
X2.6748Y-3.6071
X2.7748Y-3.6071
X2.8748Y-3.6071
X3.301Y-1.696
X3.401Y-1.696
X3.501Y-1.696
X3.601Y-1.696
X3.65Y-5.3
X3.75Y-5.3
X3.85Y-5.3
X3.95Y-5.3
T6
X3.175Y-3.6
X3.275Y-3.6
X3.375Y-3.6
X3.175Y-3.275
X3.275Y-3.275
X3.375Y-3.275
T7
X2.2276Y-2.4011
X2.2276Y-2.5389
X2.2276Y-2.7761
X2.2276Y-2.9139
X2.2276Y-3.1511
X2.2276Y-3.2889
T8
X2.25Y-3.55
X2.25Y-3.75
T9
X2.25Y-4.05
X2.25Y-4.25
X2.25Y-4.55
X2.25Y-4.75
X2.25Y-4.95
X2.25Y-5.15
T10
X2.5431Y-3.9049
X2.5431Y-4.2887
X2.6769Y-3.9049
X2.6769Y-4.2887
X2.5931Y-5.1299
X2.5931Y-5.2637
X2.9769Y-5.1299
X2.9769Y-5.2637
X2.5931Y-4.5549
X2.5931Y-4.6887
X2.9769Y-4.5549
X2.9769Y-4.6887
T11
X5.55Y-3.0
T12
X2.55Y-4.9
X2.6Y-3.0
X5.8Y-4.9
T0
M30
