G04 #@! TF.GenerationSoftware,KiCad,Pcbnew,5.1.0*
G04 #@! TF.CreationDate,2019-04-24T19:53:50+02:00*
G04 #@! TF.ProjectId,RAMPS-FD,52414d50-532d-4464-942e-6b696361645f,rev?*
G04 #@! TF.SameCoordinates,Original*
G04 #@! TF.FileFunction,Other,Fab,Top*
%FSLAX46Y46*%
G04 Gerber Fmt 4.6, Leading zero omitted, Abs format (unit mm)*
G04 Created by KiCad (PCBNEW 5.1.0) date 2019-04-24 19:53:50*
%MOMM*%
%LPD*%
G04 APERTURE LIST*
%ADD10C,0.152400*%
%ADD11C,0.100000*%
%ADD12C,0.150000*%
%ADD13C,0.304800*%
%ADD14C,0.129540*%
%ADD15C,0.127000*%
%ADD16C,0.075000*%
%ADD17C,0.203200*%
G04 APERTURE END LIST*
D10*
X52324000Y-39573000D02*
X52324000Y-139573000D01*
X152324000Y-39573000D02*
X52324000Y-39573000D01*
X152324000Y-139573000D02*
X152324000Y-39573000D01*
X52324000Y-139573000D02*
X152324000Y-139573000D01*
D11*
X100330000Y-70993000D02*
X100330000Y-67183000D01*
X100330000Y-67183000D02*
X110490000Y-67183000D01*
X110490000Y-67183000D02*
X110490000Y-72263000D01*
X110490000Y-72263000D02*
X101600000Y-72263000D01*
X101600000Y-72263000D02*
X100330000Y-70993000D01*
X121158000Y-106553000D02*
X121158000Y-110363000D01*
X121158000Y-110363000D02*
X110998000Y-110363000D01*
X110998000Y-110363000D02*
X110998000Y-105283000D01*
X110998000Y-105283000D02*
X119888000Y-105283000D01*
X119888000Y-105283000D02*
X121158000Y-106553000D01*
X80581500Y-67183000D02*
X79946500Y-66548000D01*
X90106500Y-67183000D02*
X80581500Y-67183000D01*
X90106500Y-64643000D02*
X90106500Y-67183000D01*
X79946500Y-64643000D02*
X90106500Y-64643000D01*
X79946500Y-66548000D02*
X79946500Y-64643000D01*
X100965000Y-67183000D02*
X100330000Y-66548000D01*
X110490000Y-67183000D02*
X100965000Y-67183000D01*
X110490000Y-64643000D02*
X110490000Y-67183000D01*
X100330000Y-64643000D02*
X110490000Y-64643000D01*
X100330000Y-66548000D02*
X100330000Y-64643000D01*
X121285000Y-67246500D02*
X120650000Y-66611500D01*
X130810000Y-67246500D02*
X121285000Y-67246500D01*
X130810000Y-64706500D02*
X130810000Y-67246500D01*
X120650000Y-64706500D02*
X130810000Y-64706500D01*
X120650000Y-66611500D02*
X120650000Y-64706500D01*
X139128500Y-110363000D02*
X139763500Y-110998000D01*
X129603500Y-110363000D02*
X139128500Y-110363000D01*
X129603500Y-112903000D02*
X129603500Y-110363000D01*
X139763500Y-112903000D02*
X129603500Y-112903000D01*
X139763500Y-110998000D02*
X139763500Y-112903000D01*
X120523000Y-110363000D02*
X121158000Y-110998000D01*
X110998000Y-110363000D02*
X120523000Y-110363000D01*
X110998000Y-112903000D02*
X110998000Y-110363000D01*
X121158000Y-112903000D02*
X110998000Y-112903000D01*
X121158000Y-110998000D02*
X121158000Y-112903000D01*
X98615500Y-110363000D02*
X99250500Y-110998000D01*
X89090500Y-110363000D02*
X98615500Y-110363000D01*
X89090500Y-112903000D02*
X89090500Y-110363000D01*
X99250500Y-112903000D02*
X89090500Y-112903000D01*
X99250500Y-110998000D02*
X99250500Y-112903000D01*
X99253040Y-106547920D02*
X99253040Y-110357920D01*
X99253040Y-110357920D02*
X89093040Y-110357920D01*
X89093040Y-110357920D02*
X89093040Y-105277920D01*
X89093040Y-105277920D02*
X97983040Y-105277920D01*
X97983040Y-105277920D02*
X99253040Y-106547920D01*
X139750800Y-106553000D02*
X139750800Y-110363000D01*
X139750800Y-110363000D02*
X129590800Y-110363000D01*
X129590800Y-110363000D02*
X129590800Y-105283000D01*
X129590800Y-105283000D02*
X138480800Y-105283000D01*
X138480800Y-105283000D02*
X139750800Y-106553000D01*
X80010000Y-70993000D02*
X80010000Y-67183000D01*
X80010000Y-67183000D02*
X90170000Y-67183000D01*
X90170000Y-67183000D02*
X90170000Y-72263000D01*
X90170000Y-72263000D02*
X81280000Y-72263000D01*
X81280000Y-72263000D02*
X80010000Y-70993000D01*
X120650000Y-70993000D02*
X120650000Y-67183000D01*
X120650000Y-67183000D02*
X130810000Y-67183000D01*
X130810000Y-67183000D02*
X130810000Y-72263000D01*
X130810000Y-72263000D02*
X121920000Y-72263000D01*
X121920000Y-72263000D02*
X120650000Y-70993000D01*
X132607000Y-65278000D02*
X132607000Y-66878000D01*
X131807000Y-65278000D02*
X132607000Y-65278000D01*
X131807000Y-66878000D02*
X131807000Y-65278000D01*
X132607000Y-66878000D02*
X131807000Y-66878000D01*
X112541000Y-65240000D02*
X112541000Y-66840000D01*
X111741000Y-65240000D02*
X112541000Y-65240000D01*
X111741000Y-66840000D02*
X111741000Y-65240000D01*
X112541000Y-66840000D02*
X111741000Y-66840000D01*
X92221000Y-65240000D02*
X92221000Y-66840000D01*
X91421000Y-65240000D02*
X92221000Y-65240000D01*
X91421000Y-66840000D02*
X91421000Y-65240000D01*
X92221000Y-66840000D02*
X91421000Y-66840000D01*
X87824000Y-121973000D02*
X87024000Y-121973000D01*
X87824000Y-120373000D02*
X87824000Y-121973000D01*
X87024000Y-120373000D02*
X87824000Y-120373000D01*
X87024000Y-121973000D02*
X87024000Y-120373000D01*
X107061000Y-102997000D02*
X108966000Y-102997000D01*
X108966000Y-102997000D02*
X108966000Y-108077000D01*
X108966000Y-108077000D02*
X106426000Y-108077000D01*
X106426000Y-108077000D02*
X106426000Y-103632000D01*
X106426000Y-103632000D02*
X107061000Y-102997000D01*
X80441800Y-109550200D02*
X80441800Y-107645200D01*
X80441800Y-107645200D02*
X88061800Y-107645200D01*
X88061800Y-107645200D02*
X88061800Y-110185200D01*
X88061800Y-110185200D02*
X81076800Y-110185200D01*
X81076800Y-110185200D02*
X80441800Y-109550200D01*
X90170000Y-102235000D02*
X90170000Y-104140000D01*
X90170000Y-104140000D02*
X82550000Y-104140000D01*
X82550000Y-104140000D02*
X82550000Y-101600000D01*
X82550000Y-101600000D02*
X89535000Y-101600000D01*
X89535000Y-101600000D02*
X90170000Y-102235000D01*
X105346500Y-106045000D02*
X105346500Y-107950000D01*
X105346500Y-107950000D02*
X100266500Y-107950000D01*
X100266500Y-107950000D02*
X100266500Y-105410000D01*
X100266500Y-105410000D02*
X104711500Y-105410000D01*
X104711500Y-105410000D02*
X105346500Y-106045000D01*
X137541000Y-70866000D02*
X135636000Y-70866000D01*
X135636000Y-70866000D02*
X135636000Y-65786000D01*
X135636000Y-65786000D02*
X138176000Y-65786000D01*
X138176000Y-65786000D02*
X138176000Y-70231000D01*
X138176000Y-70231000D02*
X137541000Y-70866000D01*
X94742000Y-39878000D02*
X96647000Y-39878000D01*
X96647000Y-39878000D02*
X96647000Y-47498000D01*
X96647000Y-47498000D02*
X94107000Y-47498000D01*
X94107000Y-47498000D02*
X94107000Y-40513000D01*
X94107000Y-40513000D02*
X94742000Y-39878000D01*
X97282000Y-39878000D02*
X99187000Y-39878000D01*
X99187000Y-39878000D02*
X99187000Y-47498000D01*
X99187000Y-47498000D02*
X96647000Y-47498000D01*
X96647000Y-47498000D02*
X96647000Y-40513000D01*
X96647000Y-40513000D02*
X97282000Y-39878000D01*
X99822000Y-39878000D02*
X101727000Y-39878000D01*
X101727000Y-39878000D02*
X101727000Y-47498000D01*
X101727000Y-47498000D02*
X99187000Y-47498000D01*
X99187000Y-47498000D02*
X99187000Y-40513000D01*
X99187000Y-40513000D02*
X99822000Y-39878000D01*
X102362000Y-39878000D02*
X104267000Y-39878000D01*
X104267000Y-39878000D02*
X104267000Y-47498000D01*
X104267000Y-47498000D02*
X101727000Y-47498000D01*
X101727000Y-47498000D02*
X101727000Y-40513000D01*
X101727000Y-40513000D02*
X102362000Y-39878000D01*
X122605800Y-87757000D02*
X124510800Y-87757000D01*
X124510800Y-87757000D02*
X124510800Y-102997000D01*
X124510800Y-102997000D02*
X121970800Y-102997000D01*
X121970800Y-102997000D02*
X121970800Y-88392000D01*
X121970800Y-88392000D02*
X122605800Y-87757000D01*
X80010000Y-41275000D02*
X80010000Y-43180000D01*
X80010000Y-43180000D02*
X69850000Y-43180000D01*
X69850000Y-43180000D02*
X69850000Y-40640000D01*
X69850000Y-40640000D02*
X79375000Y-40640000D01*
X79375000Y-40640000D02*
X80010000Y-41275000D01*
X149225000Y-136824720D02*
X149225000Y-138729720D01*
X149225000Y-138729720D02*
X144145000Y-138729720D01*
X144145000Y-138729720D02*
X144145000Y-136189720D01*
X144145000Y-136189720D02*
X148590000Y-136189720D01*
X148590000Y-136189720D02*
X149225000Y-136824720D01*
X129540000Y-43815000D02*
X129540000Y-41910000D01*
X129540000Y-41910000D02*
X139700000Y-41910000D01*
X139700000Y-41910000D02*
X139700000Y-44450000D01*
X139700000Y-44450000D02*
X130175000Y-44450000D01*
X130175000Y-44450000D02*
X129540000Y-43815000D01*
X150495000Y-120650000D02*
X148590000Y-120650000D01*
X148590000Y-120650000D02*
X148590000Y-74930000D01*
X148590000Y-74930000D02*
X151130000Y-74930000D01*
X151130000Y-74930000D02*
X151130000Y-120015000D01*
X151130000Y-120015000D02*
X150495000Y-120650000D01*
X80010000Y-43815000D02*
X80010000Y-45720000D01*
X80010000Y-45720000D02*
X64770000Y-45720000D01*
X64770000Y-45720000D02*
X64770000Y-43180000D01*
X64770000Y-43180000D02*
X79375000Y-43180000D01*
X79375000Y-43180000D02*
X80010000Y-43815000D01*
X149860000Y-73660000D02*
X146050000Y-73660000D01*
X146050000Y-73660000D02*
X146050000Y-63500000D01*
X146050000Y-63500000D02*
X151130000Y-63500000D01*
X151130000Y-63500000D02*
X151130000Y-72390000D01*
X151130000Y-72390000D02*
X149860000Y-73660000D01*
X144043400Y-39878000D02*
X145948400Y-39878000D01*
X145948400Y-39878000D02*
X145948400Y-55118000D01*
X145948400Y-55118000D02*
X143408400Y-55118000D01*
X143408400Y-55118000D02*
X143408400Y-40513000D01*
X143408400Y-40513000D02*
X144043400Y-39878000D01*
X147193000Y-39878000D02*
X151003000Y-39878000D01*
X151003000Y-39878000D02*
X151003000Y-55118000D01*
X151003000Y-55118000D02*
X145923000Y-55118000D01*
X145923000Y-55118000D02*
X145923000Y-41148000D01*
X145923000Y-41148000D02*
X147193000Y-39878000D01*
X78149181Y-108966000D02*
G75*
G03X78149181Y-108966000I-3041381J0D01*
G01*
X71957800Y-105816000D02*
X71957800Y-112116000D01*
X77587800Y-105816000D02*
X71957800Y-105816000D01*
X78257800Y-106486000D02*
X77587800Y-105816000D01*
X78257800Y-111446000D02*
X78257800Y-106486000D01*
X77587800Y-112116000D02*
X78257800Y-111446000D01*
X71957800Y-112116000D02*
X77587800Y-112116000D01*
X102101381Y-119380000D02*
G75*
G03X102101381Y-119380000I-3041381J0D01*
G01*
X95910000Y-116230000D02*
X95910000Y-122530000D01*
X101540000Y-116230000D02*
X95910000Y-116230000D01*
X102210000Y-116900000D02*
X101540000Y-116230000D01*
X102210000Y-121860000D02*
X102210000Y-116900000D01*
X101540000Y-122530000D02*
X102210000Y-121860000D01*
X95910000Y-122530000D02*
X101540000Y-122530000D01*
X124326381Y-119380000D02*
G75*
G03X124326381Y-119380000I-3041381J0D01*
G01*
X118135000Y-116230000D02*
X118135000Y-122530000D01*
X123765000Y-116230000D02*
X118135000Y-116230000D01*
X124435000Y-116900000D02*
X123765000Y-116230000D01*
X124435000Y-121860000D02*
X124435000Y-116900000D01*
X123765000Y-122530000D02*
X124435000Y-121860000D01*
X118135000Y-122530000D02*
X123765000Y-122530000D01*
X84956381Y-55245000D02*
G75*
G03X84956381Y-55245000I-3041381J0D01*
G01*
X85065000Y-58395000D02*
X85065000Y-52095000D01*
X79435000Y-58395000D02*
X85065000Y-58395000D01*
X78765000Y-57725000D02*
X79435000Y-58395000D01*
X78765000Y-52765000D02*
X78765000Y-57725000D01*
X79435000Y-52095000D02*
X78765000Y-52765000D01*
X85065000Y-52095000D02*
X79435000Y-52095000D01*
X140201381Y-119380000D02*
G75*
G03X140201381Y-119380000I-3041381J0D01*
G01*
X134010000Y-116230000D02*
X134010000Y-122530000D01*
X139640000Y-116230000D02*
X134010000Y-116230000D01*
X140310000Y-116900000D02*
X139640000Y-116230000D01*
X140310000Y-121860000D02*
X140310000Y-116900000D01*
X139640000Y-122530000D02*
X140310000Y-121860000D01*
X134010000Y-122530000D02*
X139640000Y-122530000D01*
X105276381Y-55245000D02*
G75*
G03X105276381Y-55245000I-3041381J0D01*
G01*
X105385000Y-58395000D02*
X105385000Y-52095000D01*
X99755000Y-58395000D02*
X105385000Y-58395000D01*
X99085000Y-57725000D02*
X99755000Y-58395000D01*
X99085000Y-52765000D02*
X99085000Y-57725000D01*
X99755000Y-52095000D02*
X99085000Y-52765000D01*
X105385000Y-52095000D02*
X99755000Y-52095000D01*
X125596381Y-55245000D02*
G75*
G03X125596381Y-55245000I-3041381J0D01*
G01*
X125705000Y-58395000D02*
X125705000Y-52095000D01*
X120075000Y-58395000D02*
X125705000Y-58395000D01*
X119405000Y-57725000D02*
X120075000Y-58395000D01*
X119405000Y-52765000D02*
X119405000Y-57725000D01*
X120075000Y-52095000D02*
X119405000Y-52765000D01*
X125705000Y-52095000D02*
X120075000Y-52095000D01*
X109639000Y-116948000D02*
X109639000Y-117748000D01*
X108039000Y-116948000D02*
X109639000Y-116948000D01*
X108039000Y-117748000D02*
X108039000Y-116948000D01*
X109639000Y-117748000D02*
X108039000Y-117748000D01*
X128924000Y-118148000D02*
X128124000Y-118148000D01*
X128924000Y-116548000D02*
X128924000Y-118148000D01*
X128124000Y-116548000D02*
X128924000Y-116548000D01*
X128124000Y-118148000D02*
X128124000Y-116548000D01*
D12*
X104195714Y-70175380D02*
X104195714Y-69175380D01*
X104576666Y-69175380D01*
X104671904Y-69223000D01*
X104719523Y-69270619D01*
X104767142Y-69365857D01*
X104767142Y-69508714D01*
X104719523Y-69603952D01*
X104671904Y-69651571D01*
X104576666Y-69699190D01*
X104195714Y-69699190D01*
X105719523Y-70175380D02*
X105148095Y-70175380D01*
X105433809Y-70175380D02*
X105433809Y-69175380D01*
X105338571Y-69318238D01*
X105243333Y-69413476D01*
X105148095Y-69461095D01*
X106338571Y-69175380D02*
X106433809Y-69175380D01*
X106529047Y-69223000D01*
X106576666Y-69270619D01*
X106624285Y-69365857D01*
X106671904Y-69556333D01*
X106671904Y-69794428D01*
X106624285Y-69984904D01*
X106576666Y-70080142D01*
X106529047Y-70127761D01*
X106433809Y-70175380D01*
X106338571Y-70175380D01*
X106243333Y-70127761D01*
X106195714Y-70080142D01*
X106148095Y-69984904D01*
X106100476Y-69794428D01*
X106100476Y-69556333D01*
X106148095Y-69365857D01*
X106195714Y-69270619D01*
X106243333Y-69223000D01*
X106338571Y-69175380D01*
X115339904Y-108275380D02*
X115339904Y-107275380D01*
X115720857Y-107275380D01*
X115816095Y-107323000D01*
X115863714Y-107370619D01*
X115911333Y-107465857D01*
X115911333Y-107608714D01*
X115863714Y-107703952D01*
X115816095Y-107751571D01*
X115720857Y-107799190D01*
X115339904Y-107799190D01*
X116768476Y-107608714D02*
X116768476Y-108275380D01*
X116530380Y-107227761D02*
X116292285Y-107942047D01*
X116911333Y-107942047D01*
X83812214Y-66365380D02*
X83812214Y-65365380D01*
X84193166Y-65365380D01*
X84288404Y-65413000D01*
X84336023Y-65460619D01*
X84383642Y-65555857D01*
X84383642Y-65698714D01*
X84336023Y-65793952D01*
X84288404Y-65841571D01*
X84193166Y-65889190D01*
X83812214Y-65889190D01*
X85336023Y-66365380D02*
X84764595Y-66365380D01*
X85050309Y-66365380D02*
X85050309Y-65365380D01*
X84955071Y-65508238D01*
X84859833Y-65603476D01*
X84764595Y-65651095D01*
X86240785Y-65365380D02*
X85764595Y-65365380D01*
X85716976Y-65841571D01*
X85764595Y-65793952D01*
X85859833Y-65746333D01*
X86097928Y-65746333D01*
X86193166Y-65793952D01*
X86240785Y-65841571D01*
X86288404Y-65936809D01*
X86288404Y-66174904D01*
X86240785Y-66270142D01*
X86193166Y-66317761D01*
X86097928Y-66365380D01*
X85859833Y-66365380D01*
X85764595Y-66317761D01*
X85716976Y-66270142D01*
X104195714Y-66365380D02*
X104195714Y-65365380D01*
X104576666Y-65365380D01*
X104671904Y-65413000D01*
X104719523Y-65460619D01*
X104767142Y-65555857D01*
X104767142Y-65698714D01*
X104719523Y-65793952D01*
X104671904Y-65841571D01*
X104576666Y-65889190D01*
X104195714Y-65889190D01*
X105719523Y-66365380D02*
X105148095Y-66365380D01*
X105433809Y-66365380D02*
X105433809Y-65365380D01*
X105338571Y-65508238D01*
X105243333Y-65603476D01*
X105148095Y-65651095D01*
X106576666Y-65698714D02*
X106576666Y-66365380D01*
X106338571Y-65317761D02*
X106100476Y-66032047D01*
X106719523Y-66032047D01*
X124515714Y-66428880D02*
X124515714Y-65428880D01*
X124896666Y-65428880D01*
X124991904Y-65476500D01*
X125039523Y-65524119D01*
X125087142Y-65619357D01*
X125087142Y-65762214D01*
X125039523Y-65857452D01*
X124991904Y-65905071D01*
X124896666Y-65952690D01*
X124515714Y-65952690D01*
X126039523Y-66428880D02*
X125468095Y-66428880D01*
X125753809Y-66428880D02*
X125753809Y-65428880D01*
X125658571Y-65571738D01*
X125563333Y-65666976D01*
X125468095Y-65714595D01*
X126372857Y-65428880D02*
X126991904Y-65428880D01*
X126658571Y-65809833D01*
X126801428Y-65809833D01*
X126896666Y-65857452D01*
X126944285Y-65905071D01*
X126991904Y-66000309D01*
X126991904Y-66238404D01*
X126944285Y-66333642D01*
X126896666Y-66381261D01*
X126801428Y-66428880D01*
X126515714Y-66428880D01*
X126420476Y-66381261D01*
X126372857Y-66333642D01*
X133945404Y-112085380D02*
X133945404Y-111085380D01*
X134326357Y-111085380D01*
X134421595Y-111133000D01*
X134469214Y-111180619D01*
X134516833Y-111275857D01*
X134516833Y-111418714D01*
X134469214Y-111513952D01*
X134421595Y-111561571D01*
X134326357Y-111609190D01*
X133945404Y-111609190D01*
X134993023Y-112085380D02*
X135183500Y-112085380D01*
X135278738Y-112037761D01*
X135326357Y-111990142D01*
X135421595Y-111847285D01*
X135469214Y-111656809D01*
X135469214Y-111275857D01*
X135421595Y-111180619D01*
X135373976Y-111133000D01*
X135278738Y-111085380D01*
X135088261Y-111085380D01*
X134993023Y-111133000D01*
X134945404Y-111180619D01*
X134897785Y-111275857D01*
X134897785Y-111513952D01*
X134945404Y-111609190D01*
X134993023Y-111656809D01*
X135088261Y-111704428D01*
X135278738Y-111704428D01*
X135373976Y-111656809D01*
X135421595Y-111609190D01*
X135469214Y-111513952D01*
X115339904Y-112085380D02*
X115339904Y-111085380D01*
X115720857Y-111085380D01*
X115816095Y-111133000D01*
X115863714Y-111180619D01*
X115911333Y-111275857D01*
X115911333Y-111418714D01*
X115863714Y-111513952D01*
X115816095Y-111561571D01*
X115720857Y-111609190D01*
X115339904Y-111609190D01*
X116482761Y-111513952D02*
X116387523Y-111466333D01*
X116339904Y-111418714D01*
X116292285Y-111323476D01*
X116292285Y-111275857D01*
X116339904Y-111180619D01*
X116387523Y-111133000D01*
X116482761Y-111085380D01*
X116673238Y-111085380D01*
X116768476Y-111133000D01*
X116816095Y-111180619D01*
X116863714Y-111275857D01*
X116863714Y-111323476D01*
X116816095Y-111418714D01*
X116768476Y-111466333D01*
X116673238Y-111513952D01*
X116482761Y-111513952D01*
X116387523Y-111561571D01*
X116339904Y-111609190D01*
X116292285Y-111704428D01*
X116292285Y-111894904D01*
X116339904Y-111990142D01*
X116387523Y-112037761D01*
X116482761Y-112085380D01*
X116673238Y-112085380D01*
X116768476Y-112037761D01*
X116816095Y-111990142D01*
X116863714Y-111894904D01*
X116863714Y-111704428D01*
X116816095Y-111609190D01*
X116768476Y-111561571D01*
X116673238Y-111513952D01*
X93432404Y-112085380D02*
X93432404Y-111085380D01*
X93813357Y-111085380D01*
X93908595Y-111133000D01*
X93956214Y-111180619D01*
X94003833Y-111275857D01*
X94003833Y-111418714D01*
X93956214Y-111513952D01*
X93908595Y-111561571D01*
X93813357Y-111609190D01*
X93432404Y-111609190D01*
X94337166Y-111085380D02*
X95003833Y-111085380D01*
X94575261Y-112085380D01*
X93434944Y-108270300D02*
X93434944Y-107270300D01*
X93815897Y-107270300D01*
X93911135Y-107317920D01*
X93958754Y-107365539D01*
X94006373Y-107460777D01*
X94006373Y-107603634D01*
X93958754Y-107698872D01*
X93911135Y-107746491D01*
X93815897Y-107794110D01*
X93434944Y-107794110D01*
X94863516Y-107270300D02*
X94673040Y-107270300D01*
X94577801Y-107317920D01*
X94530182Y-107365539D01*
X94434944Y-107508396D01*
X94387325Y-107698872D01*
X94387325Y-108079824D01*
X94434944Y-108175062D01*
X94482563Y-108222681D01*
X94577801Y-108270300D01*
X94768278Y-108270300D01*
X94863516Y-108222681D01*
X94911135Y-108175062D01*
X94958754Y-108079824D01*
X94958754Y-107841729D01*
X94911135Y-107746491D01*
X94863516Y-107698872D01*
X94768278Y-107651253D01*
X94577801Y-107651253D01*
X94482563Y-107698872D01*
X94434944Y-107746491D01*
X94387325Y-107841729D01*
X133932704Y-108275380D02*
X133932704Y-107275380D01*
X134313657Y-107275380D01*
X134408895Y-107323000D01*
X134456514Y-107370619D01*
X134504133Y-107465857D01*
X134504133Y-107608714D01*
X134456514Y-107703952D01*
X134408895Y-107751571D01*
X134313657Y-107799190D01*
X133932704Y-107799190D01*
X135408895Y-107275380D02*
X134932704Y-107275380D01*
X134885085Y-107751571D01*
X134932704Y-107703952D01*
X135027942Y-107656333D01*
X135266038Y-107656333D01*
X135361276Y-107703952D01*
X135408895Y-107751571D01*
X135456514Y-107846809D01*
X135456514Y-108084904D01*
X135408895Y-108180142D01*
X135361276Y-108227761D01*
X135266038Y-108275380D01*
X135027942Y-108275380D01*
X134932704Y-108227761D01*
X134885085Y-108180142D01*
X83875714Y-70175380D02*
X83875714Y-69175380D01*
X84256666Y-69175380D01*
X84351904Y-69223000D01*
X84399523Y-69270619D01*
X84447142Y-69365857D01*
X84447142Y-69508714D01*
X84399523Y-69603952D01*
X84351904Y-69651571D01*
X84256666Y-69699190D01*
X83875714Y-69699190D01*
X85399523Y-70175380D02*
X84828095Y-70175380D01*
X85113809Y-70175380D02*
X85113809Y-69175380D01*
X85018571Y-69318238D01*
X84923333Y-69413476D01*
X84828095Y-69461095D01*
X85780476Y-69270619D02*
X85828095Y-69223000D01*
X85923333Y-69175380D01*
X86161428Y-69175380D01*
X86256666Y-69223000D01*
X86304285Y-69270619D01*
X86351904Y-69365857D01*
X86351904Y-69461095D01*
X86304285Y-69603952D01*
X85732857Y-70175380D01*
X86351904Y-70175380D01*
X124515714Y-70175380D02*
X124515714Y-69175380D01*
X124896666Y-69175380D01*
X124991904Y-69223000D01*
X125039523Y-69270619D01*
X125087142Y-69365857D01*
X125087142Y-69508714D01*
X125039523Y-69603952D01*
X124991904Y-69651571D01*
X124896666Y-69699190D01*
X124515714Y-69699190D01*
X126039523Y-70175380D02*
X125468095Y-70175380D01*
X125753809Y-70175380D02*
X125753809Y-69175380D01*
X125658571Y-69318238D01*
X125563333Y-69413476D01*
X125468095Y-69461095D01*
X126991904Y-70175380D02*
X126420476Y-70175380D01*
X126706190Y-70175380D02*
X126706190Y-69175380D01*
X126610952Y-69318238D01*
X126515714Y-69413476D01*
X126420476Y-69461095D01*
X132608580Y-66686038D02*
X132608580Y-67257466D01*
X132608580Y-66971752D02*
X131608580Y-66971752D01*
X131751438Y-67066990D01*
X131846676Y-67162228D01*
X131894295Y-67257466D01*
X131608580Y-66066990D02*
X131608580Y-65971752D01*
X131656200Y-65876514D01*
X131703819Y-65828895D01*
X131799057Y-65781276D01*
X131989533Y-65733657D01*
X132227628Y-65733657D01*
X132418104Y-65781276D01*
X132513342Y-65828895D01*
X132560961Y-65876514D01*
X132608580Y-65971752D01*
X132608580Y-66066990D01*
X132560961Y-66162228D01*
X132513342Y-66209847D01*
X132418104Y-66257466D01*
X132227628Y-66305085D01*
X131989533Y-66305085D01*
X131799057Y-66257466D01*
X131703819Y-66209847D01*
X131656200Y-66162228D01*
X131608580Y-66066990D01*
X132608580Y-65305085D02*
X131608580Y-65305085D01*
X132227628Y-65209847D02*
X132608580Y-64924133D01*
X131941914Y-64924133D02*
X132322866Y-65305085D01*
X114023380Y-66635238D02*
X114023380Y-67206666D01*
X114023380Y-66920952D02*
X113023380Y-66920952D01*
X113166238Y-67016190D01*
X113261476Y-67111428D01*
X113309095Y-67206666D01*
X113023380Y-66016190D02*
X113023380Y-65920952D01*
X113071000Y-65825714D01*
X113118619Y-65778095D01*
X113213857Y-65730476D01*
X113404333Y-65682857D01*
X113642428Y-65682857D01*
X113832904Y-65730476D01*
X113928142Y-65778095D01*
X113975761Y-65825714D01*
X114023380Y-65920952D01*
X114023380Y-66016190D01*
X113975761Y-66111428D01*
X113928142Y-66159047D01*
X113832904Y-66206666D01*
X113642428Y-66254285D01*
X113404333Y-66254285D01*
X113213857Y-66206666D01*
X113118619Y-66159047D01*
X113071000Y-66111428D01*
X113023380Y-66016190D01*
X114023380Y-65254285D02*
X113023380Y-65254285D01*
X113642428Y-65159047D02*
X114023380Y-64873333D01*
X113356714Y-64873333D02*
X113737666Y-65254285D01*
X93703380Y-66635238D02*
X93703380Y-67206666D01*
X93703380Y-66920952D02*
X92703380Y-66920952D01*
X92846238Y-67016190D01*
X92941476Y-67111428D01*
X92989095Y-67206666D01*
X92703380Y-66016190D02*
X92703380Y-65920952D01*
X92751000Y-65825714D01*
X92798619Y-65778095D01*
X92893857Y-65730476D01*
X93084333Y-65682857D01*
X93322428Y-65682857D01*
X93512904Y-65730476D01*
X93608142Y-65778095D01*
X93655761Y-65825714D01*
X93703380Y-65920952D01*
X93703380Y-66016190D01*
X93655761Y-66111428D01*
X93608142Y-66159047D01*
X93512904Y-66206666D01*
X93322428Y-66254285D01*
X93084333Y-66254285D01*
X92893857Y-66206666D01*
X92798619Y-66159047D01*
X92751000Y-66111428D01*
X92703380Y-66016190D01*
X93703380Y-65254285D02*
X92703380Y-65254285D01*
X93322428Y-65159047D02*
X93703380Y-64873333D01*
X93036714Y-64873333D02*
X93417666Y-65254285D01*
D13*
X58844542Y-93018428D02*
X58844542Y-91494428D01*
X59207400Y-91494428D01*
X59425114Y-91567000D01*
X59570257Y-91712142D01*
X59642828Y-91857285D01*
X59715400Y-92147571D01*
X59715400Y-92365285D01*
X59642828Y-92655571D01*
X59570257Y-92800714D01*
X59425114Y-92945857D01*
X59207400Y-93018428D01*
X58844542Y-93018428D01*
X60586257Y-92147571D02*
X60441114Y-92075000D01*
X60368542Y-92002428D01*
X60295971Y-91857285D01*
X60295971Y-91784714D01*
X60368542Y-91639571D01*
X60441114Y-91567000D01*
X60586257Y-91494428D01*
X60876542Y-91494428D01*
X61021685Y-91567000D01*
X61094257Y-91639571D01*
X61166828Y-91784714D01*
X61166828Y-91857285D01*
X61094257Y-92002428D01*
X61021685Y-92075000D01*
X60876542Y-92147571D01*
X60586257Y-92147571D01*
X60441114Y-92220142D01*
X60368542Y-92292714D01*
X60295971Y-92437857D01*
X60295971Y-92728142D01*
X60368542Y-92873285D01*
X60441114Y-92945857D01*
X60586257Y-93018428D01*
X60876542Y-93018428D01*
X61021685Y-92945857D01*
X61094257Y-92873285D01*
X61166828Y-92728142D01*
X61166828Y-92437857D01*
X61094257Y-92292714D01*
X61021685Y-92220142D01*
X60876542Y-92147571D01*
D10*
X109452833Y-84306833D02*
X109410500Y-84264500D01*
X109368166Y-84179833D01*
X109368166Y-83968166D01*
X109410500Y-83883500D01*
X109452833Y-83841166D01*
X109537500Y-83798833D01*
X109622166Y-83798833D01*
X109749166Y-83841166D01*
X110257166Y-84349166D01*
X110257166Y-83798833D01*
X109664500Y-83036833D02*
X110257166Y-83036833D01*
X109325833Y-83248500D02*
X109960833Y-83460166D01*
X109960833Y-82909833D01*
X110172500Y-82063166D02*
X110214833Y-82105500D01*
X110257166Y-82232500D01*
X110257166Y-82317166D01*
X110214833Y-82444166D01*
X110130166Y-82528833D01*
X110045500Y-82571166D01*
X109876166Y-82613500D01*
X109749166Y-82613500D01*
X109579833Y-82571166D01*
X109495166Y-82528833D01*
X109410500Y-82444166D01*
X109368166Y-82317166D01*
X109368166Y-82232500D01*
X109410500Y-82105500D01*
X109452833Y-82063166D01*
X109368166Y-81258833D02*
X109368166Y-81682166D01*
X109791500Y-81724500D01*
X109749166Y-81682166D01*
X109706833Y-81597500D01*
X109706833Y-81385833D01*
X109749166Y-81301166D01*
X109791500Y-81258833D01*
X109876166Y-81216500D01*
X110087833Y-81216500D01*
X110172500Y-81258833D01*
X110214833Y-81301166D01*
X110257166Y-81385833D01*
X110257166Y-81597500D01*
X110214833Y-81682166D01*
X110172500Y-81724500D01*
X110257166Y-80369833D02*
X110257166Y-80877833D01*
X110257166Y-80623833D02*
X109368166Y-80623833D01*
X109495166Y-80708500D01*
X109579833Y-80793166D01*
X109622166Y-80877833D01*
X109452833Y-80031166D02*
X109410500Y-79988833D01*
X109368166Y-79904166D01*
X109368166Y-79692500D01*
X109410500Y-79607833D01*
X109452833Y-79565500D01*
X109537500Y-79523166D01*
X109622166Y-79523166D01*
X109749166Y-79565500D01*
X110257166Y-80073500D01*
X110257166Y-79523166D01*
D14*
X68289714Y-50587141D02*
X67527714Y-50491891D01*
X67527714Y-50310462D01*
X67564000Y-50206141D01*
X67636571Y-50142641D01*
X67709142Y-50115426D01*
X67854285Y-50097284D01*
X67963142Y-50110891D01*
X68108285Y-50165319D01*
X68180857Y-50210676D01*
X68253428Y-50292319D01*
X68289714Y-50405712D01*
X68289714Y-50587141D01*
X68289714Y-49825141D02*
X67527714Y-49729891D01*
X68072000Y-49543926D01*
X67527714Y-49221891D01*
X68289714Y-49317141D01*
X68289714Y-48954284D02*
X67527714Y-48859034D01*
X68289714Y-48518855D01*
X67527714Y-48423605D01*
X67600285Y-48106105D02*
X67564000Y-48065284D01*
X67527714Y-47988176D01*
X67527714Y-47806748D01*
X67564000Y-47738712D01*
X67600285Y-47706962D01*
X67672857Y-47679748D01*
X67745428Y-47688819D01*
X67854285Y-47738712D01*
X68289714Y-48228569D01*
X68289714Y-47756855D01*
X67527714Y-47189891D02*
X67527714Y-47117319D01*
X67564000Y-47049284D01*
X67600285Y-47017534D01*
X67672857Y-46990319D01*
X67818000Y-46972176D01*
X67999428Y-46994855D01*
X68144571Y-47049284D01*
X68217142Y-47094641D01*
X68253428Y-47135462D01*
X68289714Y-47212569D01*
X68289714Y-47285141D01*
X68253428Y-47353176D01*
X68217142Y-47384926D01*
X68144571Y-47412141D01*
X67999428Y-47430284D01*
X67818000Y-47407605D01*
X67672857Y-47353176D01*
X67600285Y-47307819D01*
X67564000Y-47266998D01*
X67527714Y-47189891D01*
X67527714Y-46681891D02*
X67527714Y-46173891D01*
X68289714Y-46595712D01*
X67527714Y-45520748D02*
X67527714Y-45883605D01*
X67890571Y-45965248D01*
X67854285Y-45924426D01*
X67818000Y-45847319D01*
X67818000Y-45665891D01*
X67854285Y-45597855D01*
X67890571Y-45566105D01*
X67963142Y-45538891D01*
X68144571Y-45561569D01*
X68217142Y-45606926D01*
X68253428Y-45647748D01*
X68289714Y-45724855D01*
X68289714Y-45906284D01*
X68253428Y-45974319D01*
X68217142Y-46006069D01*
X67527714Y-45157891D02*
X68144571Y-45234998D01*
X68217142Y-45207784D01*
X68253428Y-45176034D01*
X68289714Y-45107998D01*
X68289714Y-44962855D01*
X68253428Y-44885748D01*
X68217142Y-44844926D01*
X68144571Y-44799569D01*
X67527714Y-44722462D01*
X68289714Y-56859714D02*
X67527714Y-56859714D01*
X67527714Y-56678285D01*
X67564000Y-56569428D01*
X67636571Y-56496857D01*
X67709142Y-56460571D01*
X67854285Y-56424285D01*
X67963142Y-56424285D01*
X68108285Y-56460571D01*
X68180857Y-56496857D01*
X68253428Y-56569428D01*
X68289714Y-56678285D01*
X68289714Y-56859714D01*
X68289714Y-56097714D02*
X67527714Y-56097714D01*
X68072000Y-55843714D01*
X67527714Y-55589714D01*
X68289714Y-55589714D01*
X68289714Y-55226857D02*
X67527714Y-55226857D01*
X68289714Y-54791428D01*
X67527714Y-54791428D01*
X67600285Y-54464857D02*
X67564000Y-54428571D01*
X67527714Y-54356000D01*
X67527714Y-54174571D01*
X67564000Y-54102000D01*
X67600285Y-54065714D01*
X67672857Y-54029428D01*
X67745428Y-54029428D01*
X67854285Y-54065714D01*
X68289714Y-54501142D01*
X68289714Y-54029428D01*
X67527714Y-53557714D02*
X67527714Y-53485142D01*
X67564000Y-53412571D01*
X67600285Y-53376285D01*
X67672857Y-53340000D01*
X67818000Y-53303714D01*
X67999428Y-53303714D01*
X68144571Y-53340000D01*
X68217142Y-53376285D01*
X68253428Y-53412571D01*
X68289714Y-53485142D01*
X68289714Y-53557714D01*
X68253428Y-53630285D01*
X68217142Y-53666571D01*
X68144571Y-53702857D01*
X67999428Y-53739142D01*
X67818000Y-53739142D01*
X67672857Y-53702857D01*
X67600285Y-53666571D01*
X67564000Y-53630285D01*
X67527714Y-53557714D01*
X67527714Y-53049714D02*
X67527714Y-52541714D01*
X68289714Y-52868285D01*
X67527714Y-51888571D02*
X67527714Y-52251428D01*
X67890571Y-52287714D01*
X67854285Y-52251428D01*
X67818000Y-52178857D01*
X67818000Y-51997428D01*
X67854285Y-51924857D01*
X67890571Y-51888571D01*
X67963142Y-51852285D01*
X68144571Y-51852285D01*
X68217142Y-51888571D01*
X68253428Y-51924857D01*
X68289714Y-51997428D01*
X68289714Y-52178857D01*
X68253428Y-52251428D01*
X68217142Y-52287714D01*
X67527714Y-51525714D02*
X68144571Y-51525714D01*
X68217142Y-51489428D01*
X68253428Y-51453142D01*
X68289714Y-51380571D01*
X68289714Y-51235428D01*
X68253428Y-51162857D01*
X68217142Y-51126571D01*
X68144571Y-51090285D01*
X67527714Y-51090285D01*
D15*
X82695142Y-96244228D02*
X82804000Y-96280514D01*
X82985428Y-96280514D01*
X83058000Y-96244228D01*
X83094285Y-96207942D01*
X83130571Y-96135371D01*
X83130571Y-96062800D01*
X83094285Y-95990228D01*
X83058000Y-95953942D01*
X82985428Y-95917657D01*
X82840285Y-95881371D01*
X82767714Y-95845085D01*
X82731428Y-95808800D01*
X82695142Y-95736228D01*
X82695142Y-95663657D01*
X82731428Y-95591085D01*
X82767714Y-95554800D01*
X82840285Y-95518514D01*
X83021714Y-95518514D01*
X83130571Y-95554800D01*
X83348285Y-95518514D02*
X83783714Y-95518514D01*
X83566000Y-96280514D02*
X83566000Y-95518514D01*
X84001428Y-96062800D02*
X84364285Y-96062800D01*
X83928857Y-96280514D02*
X84182857Y-95518514D01*
X84436857Y-96280514D01*
X84582000Y-95518514D02*
X85017428Y-95518514D01*
X84799714Y-96280514D02*
X84799714Y-95518514D01*
X85271428Y-95518514D02*
X85271428Y-96135371D01*
X85307714Y-96207942D01*
X85344000Y-96244228D01*
X85416571Y-96280514D01*
X85561714Y-96280514D01*
X85634285Y-96244228D01*
X85670571Y-96207942D01*
X85706857Y-96135371D01*
X85706857Y-95518514D01*
X86033428Y-96244228D02*
X86142285Y-96280514D01*
X86323714Y-96280514D01*
X86396285Y-96244228D01*
X86432571Y-96207942D01*
X86468857Y-96135371D01*
X86468857Y-96062800D01*
X86432571Y-95990228D01*
X86396285Y-95953942D01*
X86323714Y-95917657D01*
X86178571Y-95881371D01*
X86106000Y-95845085D01*
X86069714Y-95808800D01*
X86033428Y-95736228D01*
X86033428Y-95663657D01*
X86069714Y-95591085D01*
X86106000Y-95554800D01*
X86178571Y-95518514D01*
X86360000Y-95518514D01*
X86468857Y-95554800D01*
X64581314Y-89135857D02*
X64581314Y-89498714D01*
X63819314Y-89498714D01*
X64182171Y-88881857D02*
X64182171Y-88627857D01*
X64581314Y-88519000D02*
X64581314Y-88881857D01*
X63819314Y-88881857D01*
X63819314Y-88519000D01*
X64581314Y-88192428D02*
X63819314Y-88192428D01*
X63819314Y-88011000D01*
X63855600Y-87902142D01*
X63928171Y-87829571D01*
X64000742Y-87793285D01*
X64145885Y-87757000D01*
X64254742Y-87757000D01*
X64399885Y-87793285D01*
X64472457Y-87829571D01*
X64545028Y-87902142D01*
X64581314Y-88011000D01*
X64581314Y-88192428D01*
X64581314Y-86414428D02*
X64218457Y-86668428D01*
X64581314Y-86849857D02*
X63819314Y-86849857D01*
X63819314Y-86559571D01*
X63855600Y-86487000D01*
X63891885Y-86450714D01*
X63964457Y-86414428D01*
X64073314Y-86414428D01*
X64145885Y-86450714D01*
X64182171Y-86487000D01*
X64218457Y-86559571D01*
X64218457Y-86849857D01*
X64182171Y-86087857D02*
X64182171Y-85833857D01*
X64581314Y-85725000D02*
X64581314Y-86087857D01*
X63819314Y-86087857D01*
X63819314Y-85725000D01*
X64581314Y-85398428D02*
X63819314Y-85398428D01*
X63819314Y-85217000D01*
X63855600Y-85108142D01*
X63928171Y-85035571D01*
X64000742Y-84999285D01*
X64145885Y-84963000D01*
X64254742Y-84963000D01*
X64399885Y-84999285D01*
X64472457Y-85035571D01*
X64545028Y-85108142D01*
X64581314Y-85217000D01*
X64581314Y-85398428D01*
X64733714Y-84106657D02*
X64733714Y-84469514D01*
X63971714Y-84469514D01*
X64334571Y-83852657D02*
X64334571Y-83598657D01*
X64733714Y-83489800D02*
X64733714Y-83852657D01*
X63971714Y-83852657D01*
X63971714Y-83489800D01*
X64733714Y-83163228D02*
X63971714Y-83163228D01*
X63971714Y-82981800D01*
X64008000Y-82872942D01*
X64080571Y-82800371D01*
X64153142Y-82764085D01*
X64298285Y-82727800D01*
X64407142Y-82727800D01*
X64552285Y-82764085D01*
X64624857Y-82800371D01*
X64697428Y-82872942D01*
X64733714Y-82981800D01*
X64733714Y-83163228D01*
X64733714Y-81385228D02*
X64370857Y-81639228D01*
X64733714Y-81820657D02*
X63971714Y-81820657D01*
X63971714Y-81530371D01*
X64008000Y-81457800D01*
X64044285Y-81421514D01*
X64116857Y-81385228D01*
X64225714Y-81385228D01*
X64298285Y-81421514D01*
X64334571Y-81457800D01*
X64370857Y-81530371D01*
X64370857Y-81820657D01*
X64334571Y-81058657D02*
X64334571Y-80804657D01*
X64733714Y-80695800D02*
X64733714Y-81058657D01*
X63971714Y-81058657D01*
X63971714Y-80695800D01*
X64733714Y-80369228D02*
X63971714Y-80369228D01*
X63971714Y-80187800D01*
X64008000Y-80078942D01*
X64080571Y-80006371D01*
X64153142Y-79970085D01*
X64298285Y-79933800D01*
X64407142Y-79933800D01*
X64552285Y-79970085D01*
X64624857Y-80006371D01*
X64697428Y-80078942D01*
X64733714Y-80187800D01*
X64733714Y-80369228D01*
X64784514Y-65310657D02*
X64784514Y-65673514D01*
X64022514Y-65673514D01*
X64385371Y-65056657D02*
X64385371Y-64802657D01*
X64784514Y-64693800D02*
X64784514Y-65056657D01*
X64022514Y-65056657D01*
X64022514Y-64693800D01*
X64784514Y-64367228D02*
X64022514Y-64367228D01*
X64022514Y-64185800D01*
X64058800Y-64076942D01*
X64131371Y-64004371D01*
X64203942Y-63968085D01*
X64349085Y-63931800D01*
X64457942Y-63931800D01*
X64603085Y-63968085D01*
X64675657Y-64004371D01*
X64748228Y-64076942D01*
X64784514Y-64185800D01*
X64784514Y-64367228D01*
X64784514Y-62589228D02*
X64421657Y-62843228D01*
X64784514Y-63024657D02*
X64022514Y-63024657D01*
X64022514Y-62734371D01*
X64058800Y-62661800D01*
X64095085Y-62625514D01*
X64167657Y-62589228D01*
X64276514Y-62589228D01*
X64349085Y-62625514D01*
X64385371Y-62661800D01*
X64421657Y-62734371D01*
X64421657Y-63024657D01*
X64385371Y-62262657D02*
X64385371Y-62008657D01*
X64784514Y-61899800D02*
X64784514Y-62262657D01*
X64022514Y-62262657D01*
X64022514Y-61899800D01*
X64784514Y-61573228D02*
X64022514Y-61573228D01*
X64022514Y-61391800D01*
X64058800Y-61282942D01*
X64131371Y-61210371D01*
X64203942Y-61174085D01*
X64349085Y-61137800D01*
X64457942Y-61137800D01*
X64603085Y-61174085D01*
X64675657Y-61210371D01*
X64748228Y-61282942D01*
X64784514Y-61391800D01*
X64784514Y-61573228D01*
X64276514Y-58020857D02*
X64276514Y-58383714D01*
X63514514Y-58383714D01*
X63877371Y-57766857D02*
X63877371Y-57512857D01*
X64276514Y-57404000D02*
X64276514Y-57766857D01*
X63514514Y-57766857D01*
X63514514Y-57404000D01*
X64276514Y-57077428D02*
X63514514Y-57077428D01*
X63514514Y-56896000D01*
X63550800Y-56787142D01*
X63623371Y-56714571D01*
X63695942Y-56678285D01*
X63841085Y-56642000D01*
X63949942Y-56642000D01*
X64095085Y-56678285D01*
X64167657Y-56714571D01*
X64240228Y-56787142D01*
X64276514Y-56896000D01*
X64276514Y-57077428D01*
X64276514Y-55299428D02*
X63913657Y-55553428D01*
X64276514Y-55734857D02*
X63514514Y-55734857D01*
X63514514Y-55444571D01*
X63550800Y-55372000D01*
X63587085Y-55335714D01*
X63659657Y-55299428D01*
X63768514Y-55299428D01*
X63841085Y-55335714D01*
X63877371Y-55372000D01*
X63913657Y-55444571D01*
X63913657Y-55734857D01*
X63877371Y-54972857D02*
X63877371Y-54718857D01*
X64276514Y-54610000D02*
X64276514Y-54972857D01*
X63514514Y-54972857D01*
X63514514Y-54610000D01*
X64276514Y-54283428D02*
X63514514Y-54283428D01*
X63514514Y-54102000D01*
X63550800Y-53993142D01*
X63623371Y-53920571D01*
X63695942Y-53884285D01*
X63841085Y-53848000D01*
X63949942Y-53848000D01*
X64095085Y-53884285D01*
X64167657Y-53920571D01*
X64240228Y-53993142D01*
X64276514Y-54102000D01*
X64276514Y-54283428D01*
X64276514Y-51594657D02*
X64276514Y-51957514D01*
X63514514Y-51957514D01*
X63877371Y-51340657D02*
X63877371Y-51086657D01*
X64276514Y-50977800D02*
X64276514Y-51340657D01*
X63514514Y-51340657D01*
X63514514Y-50977800D01*
X64276514Y-50651228D02*
X63514514Y-50651228D01*
X63514514Y-50469800D01*
X63550800Y-50360942D01*
X63623371Y-50288371D01*
X63695942Y-50252085D01*
X63841085Y-50215800D01*
X63949942Y-50215800D01*
X64095085Y-50252085D01*
X64167657Y-50288371D01*
X64240228Y-50360942D01*
X64276514Y-50469800D01*
X64276514Y-50651228D01*
X64276514Y-48873228D02*
X63913657Y-49127228D01*
X64276514Y-49308657D02*
X63514514Y-49308657D01*
X63514514Y-49018371D01*
X63550800Y-48945800D01*
X63587085Y-48909514D01*
X63659657Y-48873228D01*
X63768514Y-48873228D01*
X63841085Y-48909514D01*
X63877371Y-48945800D01*
X63913657Y-49018371D01*
X63913657Y-49308657D01*
X63877371Y-48546657D02*
X63877371Y-48292657D01*
X64276514Y-48183800D02*
X64276514Y-48546657D01*
X63514514Y-48546657D01*
X63514514Y-48183800D01*
X64276514Y-47857228D02*
X63514514Y-47857228D01*
X63514514Y-47675800D01*
X63550800Y-47566942D01*
X63623371Y-47494371D01*
X63695942Y-47458085D01*
X63841085Y-47421800D01*
X63949942Y-47421800D01*
X64095085Y-47458085D01*
X64167657Y-47494371D01*
X64240228Y-47566942D01*
X64276514Y-47675800D01*
X64276514Y-47857228D01*
D13*
X71151142Y-99685928D02*
X71659142Y-101209928D01*
X72167142Y-99685928D01*
X73473428Y-101209928D02*
X72602571Y-101209928D01*
X73038000Y-101209928D02*
X73038000Y-99685928D01*
X72892857Y-99903642D01*
X72747714Y-100048785D01*
X72602571Y-100121357D01*
X74416857Y-99685928D02*
X74562000Y-99685928D01*
X74707142Y-99758500D01*
X74779714Y-99831071D01*
X74852285Y-99976214D01*
X74924857Y-100266500D01*
X74924857Y-100629357D01*
X74852285Y-100919642D01*
X74779714Y-101064785D01*
X74707142Y-101137357D01*
X74562000Y-101209928D01*
X74416857Y-101209928D01*
X74271714Y-101137357D01*
X74199142Y-101064785D01*
X74126571Y-100919642D01*
X74054000Y-100629357D01*
X74054000Y-100266500D01*
X74126571Y-99976214D01*
X74199142Y-99831071D01*
X74271714Y-99758500D01*
X74416857Y-99685928D01*
X75578000Y-101209928D02*
X75578000Y-99685928D01*
X76158571Y-99685928D01*
X76303714Y-99758500D01*
X76376285Y-99831071D01*
X76448857Y-99976214D01*
X76448857Y-100193928D01*
X76376285Y-100339071D01*
X76303714Y-100411642D01*
X76158571Y-100484214D01*
X75578000Y-100484214D01*
X77900285Y-101209928D02*
X77029428Y-101209928D01*
X77464857Y-101209928D02*
X77464857Y-99685928D01*
X77319714Y-99903642D01*
X77174571Y-100048785D01*
X77029428Y-100121357D01*
X78843714Y-99685928D02*
X78988857Y-99685928D01*
X79134000Y-99758500D01*
X79206571Y-99831071D01*
X79279142Y-99976214D01*
X79351714Y-100266500D01*
X79351714Y-100629357D01*
X79279142Y-100919642D01*
X79206571Y-101064785D01*
X79134000Y-101137357D01*
X78988857Y-101209928D01*
X78843714Y-101209928D01*
X78698571Y-101137357D01*
X78626000Y-101064785D01*
X78553428Y-100919642D01*
X78480857Y-100629357D01*
X78480857Y-100266500D01*
X78553428Y-99976214D01*
X78626000Y-99831071D01*
X78698571Y-99758500D01*
X78843714Y-99685928D01*
D12*
X87780952Y-85542380D02*
X87209523Y-85542380D01*
X87495238Y-85542380D02*
X87495238Y-84542380D01*
X87400000Y-84685238D01*
X87304761Y-84780476D01*
X87209523Y-84828095D01*
X88400000Y-84542380D02*
X88495238Y-84542380D01*
X88590476Y-84590000D01*
X88638095Y-84637619D01*
X88685714Y-84732857D01*
X88733333Y-84923333D01*
X88733333Y-85161428D01*
X88685714Y-85351904D01*
X88638095Y-85447142D01*
X88590476Y-85494761D01*
X88495238Y-85542380D01*
X88400000Y-85542380D01*
X88304761Y-85494761D01*
X88257142Y-85447142D01*
X88209523Y-85351904D01*
X88161904Y-85161428D01*
X88161904Y-84923333D01*
X88209523Y-84732857D01*
X88257142Y-84637619D01*
X88304761Y-84590000D01*
X88400000Y-84542380D01*
X89352380Y-84542380D02*
X89447619Y-84542380D01*
X89542857Y-84590000D01*
X89590476Y-84637619D01*
X89638095Y-84732857D01*
X89685714Y-84923333D01*
X89685714Y-85161428D01*
X89638095Y-85351904D01*
X89590476Y-85447142D01*
X89542857Y-85494761D01*
X89447619Y-85542380D01*
X89352380Y-85542380D01*
X89257142Y-85494761D01*
X89209523Y-85447142D01*
X89161904Y-85351904D01*
X89114285Y-85161428D01*
X89114285Y-84923333D01*
X89161904Y-84732857D01*
X89209523Y-84637619D01*
X89257142Y-84590000D01*
X89352380Y-84542380D01*
X90114285Y-84875714D02*
X90114285Y-85542380D01*
X90114285Y-84970952D02*
X90161904Y-84923333D01*
X90257142Y-84875714D01*
X90400000Y-84875714D01*
X90495238Y-84923333D01*
X90542857Y-85018571D01*
X90542857Y-85542380D01*
X88415952Y-88082380D02*
X87844523Y-88082380D01*
X88130238Y-88082380D02*
X88130238Y-87082380D01*
X88035000Y-87225238D01*
X87939761Y-87320476D01*
X87844523Y-87368095D01*
X89035000Y-87082380D02*
X89130238Y-87082380D01*
X89225476Y-87130000D01*
X89273095Y-87177619D01*
X89320714Y-87272857D01*
X89368333Y-87463333D01*
X89368333Y-87701428D01*
X89320714Y-87891904D01*
X89273095Y-87987142D01*
X89225476Y-88034761D01*
X89130238Y-88082380D01*
X89035000Y-88082380D01*
X88939761Y-88034761D01*
X88892142Y-87987142D01*
X88844523Y-87891904D01*
X88796904Y-87701428D01*
X88796904Y-87463333D01*
X88844523Y-87272857D01*
X88892142Y-87177619D01*
X88939761Y-87130000D01*
X89035000Y-87082380D01*
X89987380Y-87082380D02*
X90082619Y-87082380D01*
X90177857Y-87130000D01*
X90225476Y-87177619D01*
X90273095Y-87272857D01*
X90320714Y-87463333D01*
X90320714Y-87701428D01*
X90273095Y-87891904D01*
X90225476Y-87987142D01*
X90177857Y-88034761D01*
X90082619Y-88082380D01*
X89987380Y-88082380D01*
X89892142Y-88034761D01*
X89844523Y-87987142D01*
X89796904Y-87891904D01*
X89749285Y-87701428D01*
X89749285Y-87463333D01*
X89796904Y-87272857D01*
X89844523Y-87177619D01*
X89892142Y-87130000D01*
X89987380Y-87082380D01*
X90749285Y-87415714D02*
X90749285Y-88082380D01*
X90749285Y-87510952D02*
X90796904Y-87463333D01*
X90892142Y-87415714D01*
X91035000Y-87415714D01*
X91130238Y-87463333D01*
X91177857Y-87558571D01*
X91177857Y-88082380D01*
X78890952Y-87447380D02*
X78319523Y-87447380D01*
X78605238Y-87447380D02*
X78605238Y-86447380D01*
X78510000Y-86590238D01*
X78414761Y-86685476D01*
X78319523Y-86733095D01*
X79510000Y-86447380D02*
X79605238Y-86447380D01*
X79700476Y-86495000D01*
X79748095Y-86542619D01*
X79795714Y-86637857D01*
X79843333Y-86828333D01*
X79843333Y-87066428D01*
X79795714Y-87256904D01*
X79748095Y-87352142D01*
X79700476Y-87399761D01*
X79605238Y-87447380D01*
X79510000Y-87447380D01*
X79414761Y-87399761D01*
X79367142Y-87352142D01*
X79319523Y-87256904D01*
X79271904Y-87066428D01*
X79271904Y-86828333D01*
X79319523Y-86637857D01*
X79367142Y-86542619D01*
X79414761Y-86495000D01*
X79510000Y-86447380D01*
X80462380Y-86447380D02*
X80557619Y-86447380D01*
X80652857Y-86495000D01*
X80700476Y-86542619D01*
X80748095Y-86637857D01*
X80795714Y-86828333D01*
X80795714Y-87066428D01*
X80748095Y-87256904D01*
X80700476Y-87352142D01*
X80652857Y-87399761D01*
X80557619Y-87447380D01*
X80462380Y-87447380D01*
X80367142Y-87399761D01*
X80319523Y-87352142D01*
X80271904Y-87256904D01*
X80224285Y-87066428D01*
X80224285Y-86828333D01*
X80271904Y-86637857D01*
X80319523Y-86542619D01*
X80367142Y-86495000D01*
X80462380Y-86447380D01*
X81224285Y-86780714D02*
X81224285Y-87447380D01*
X81224285Y-86875952D02*
X81271904Y-86828333D01*
X81367142Y-86780714D01*
X81510000Y-86780714D01*
X81605238Y-86828333D01*
X81652857Y-86923571D01*
X81652857Y-87447380D01*
X94765952Y-86177380D02*
X94194523Y-86177380D01*
X94480238Y-86177380D02*
X94480238Y-85177380D01*
X94385000Y-85320238D01*
X94289761Y-85415476D01*
X94194523Y-85463095D01*
X95385000Y-85177380D02*
X95480238Y-85177380D01*
X95575476Y-85225000D01*
X95623095Y-85272619D01*
X95670714Y-85367857D01*
X95718333Y-85558333D01*
X95718333Y-85796428D01*
X95670714Y-85986904D01*
X95623095Y-86082142D01*
X95575476Y-86129761D01*
X95480238Y-86177380D01*
X95385000Y-86177380D01*
X95289761Y-86129761D01*
X95242142Y-86082142D01*
X95194523Y-85986904D01*
X95146904Y-85796428D01*
X95146904Y-85558333D01*
X95194523Y-85367857D01*
X95242142Y-85272619D01*
X95289761Y-85225000D01*
X95385000Y-85177380D01*
X96337380Y-85177380D02*
X96432619Y-85177380D01*
X96527857Y-85225000D01*
X96575476Y-85272619D01*
X96623095Y-85367857D01*
X96670714Y-85558333D01*
X96670714Y-85796428D01*
X96623095Y-85986904D01*
X96575476Y-86082142D01*
X96527857Y-86129761D01*
X96432619Y-86177380D01*
X96337380Y-86177380D01*
X96242142Y-86129761D01*
X96194523Y-86082142D01*
X96146904Y-85986904D01*
X96099285Y-85796428D01*
X96099285Y-85558333D01*
X96146904Y-85367857D01*
X96194523Y-85272619D01*
X96242142Y-85225000D01*
X96337380Y-85177380D01*
X97099285Y-85510714D02*
X97099285Y-86177380D01*
X97099285Y-85605952D02*
X97146904Y-85558333D01*
X97242142Y-85510714D01*
X97385000Y-85510714D01*
X97480238Y-85558333D01*
X97527857Y-85653571D01*
X97527857Y-86177380D01*
X80026380Y-102754752D02*
X80026380Y-103326180D01*
X80026380Y-103040466D02*
X79026380Y-103040466D01*
X79169238Y-103135704D01*
X79264476Y-103230942D01*
X79312095Y-103326180D01*
X79026380Y-102135704D02*
X79026380Y-102040466D01*
X79074000Y-101945228D01*
X79121619Y-101897609D01*
X79216857Y-101849990D01*
X79407333Y-101802371D01*
X79645428Y-101802371D01*
X79835904Y-101849990D01*
X79931142Y-101897609D01*
X79978761Y-101945228D01*
X80026380Y-102040466D01*
X80026380Y-102135704D01*
X79978761Y-102230942D01*
X79931142Y-102278561D01*
X79835904Y-102326180D01*
X79645428Y-102373800D01*
X79407333Y-102373800D01*
X79216857Y-102326180D01*
X79121619Y-102278561D01*
X79074000Y-102230942D01*
X79026380Y-102135704D01*
X79026380Y-101183323D02*
X79026380Y-101088085D01*
X79074000Y-100992847D01*
X79121619Y-100945228D01*
X79216857Y-100897609D01*
X79407333Y-100849990D01*
X79645428Y-100849990D01*
X79835904Y-100897609D01*
X79931142Y-100945228D01*
X79978761Y-100992847D01*
X80026380Y-101088085D01*
X80026380Y-101183323D01*
X79978761Y-101278561D01*
X79931142Y-101326180D01*
X79835904Y-101373800D01*
X79645428Y-101421419D01*
X79407333Y-101421419D01*
X79216857Y-101373800D01*
X79121619Y-101326180D01*
X79074000Y-101278561D01*
X79026380Y-101183323D01*
X79359714Y-100421419D02*
X80026380Y-100421419D01*
X79454952Y-100421419D02*
X79407333Y-100373800D01*
X79359714Y-100278561D01*
X79359714Y-100135704D01*
X79407333Y-100040466D01*
X79502571Y-99992847D01*
X80026380Y-99992847D01*
X79026380Y-98278561D02*
X79026380Y-98754752D01*
X79502571Y-98802371D01*
X79454952Y-98754752D01*
X79407333Y-98659514D01*
X79407333Y-98421419D01*
X79454952Y-98326180D01*
X79502571Y-98278561D01*
X79597809Y-98230942D01*
X79835904Y-98230942D01*
X79931142Y-98278561D01*
X79978761Y-98326180D01*
X80026380Y-98421419D01*
X80026380Y-98659514D01*
X79978761Y-98754752D01*
X79931142Y-98802371D01*
X79026380Y-97611895D02*
X79026380Y-97516657D01*
X79074000Y-97421419D01*
X79121619Y-97373800D01*
X79216857Y-97326180D01*
X79407333Y-97278561D01*
X79645428Y-97278561D01*
X79835904Y-97326180D01*
X79931142Y-97373800D01*
X79978761Y-97421419D01*
X80026380Y-97516657D01*
X80026380Y-97611895D01*
X79978761Y-97707133D01*
X79931142Y-97754752D01*
X79835904Y-97802371D01*
X79645428Y-97849990D01*
X79407333Y-97849990D01*
X79216857Y-97802371D01*
X79121619Y-97754752D01*
X79074000Y-97707133D01*
X79026380Y-97611895D01*
X79026380Y-96992847D02*
X80026380Y-96659514D01*
X79026380Y-96326180D01*
X81732380Y-100433047D02*
X81732380Y-101004476D01*
X81732380Y-100718761D02*
X80732380Y-100718761D01*
X80875238Y-100814000D01*
X80970476Y-100909238D01*
X81018095Y-101004476D01*
X80732380Y-99814000D02*
X80732380Y-99718761D01*
X80780000Y-99623523D01*
X80827619Y-99575904D01*
X80922857Y-99528285D01*
X81113333Y-99480666D01*
X81351428Y-99480666D01*
X81541904Y-99528285D01*
X81637142Y-99575904D01*
X81684761Y-99623523D01*
X81732380Y-99718761D01*
X81732380Y-99814000D01*
X81684761Y-99909238D01*
X81637142Y-99956857D01*
X81541904Y-100004476D01*
X81351428Y-100052095D01*
X81113333Y-100052095D01*
X80922857Y-100004476D01*
X80827619Y-99956857D01*
X80780000Y-99909238D01*
X80732380Y-99814000D01*
X80732380Y-98861619D02*
X80732380Y-98766380D01*
X80780000Y-98671142D01*
X80827619Y-98623523D01*
X80922857Y-98575904D01*
X81113333Y-98528285D01*
X81351428Y-98528285D01*
X81541904Y-98575904D01*
X81637142Y-98623523D01*
X81684761Y-98671142D01*
X81732380Y-98766380D01*
X81732380Y-98861619D01*
X81684761Y-98956857D01*
X81637142Y-99004476D01*
X81541904Y-99052095D01*
X81351428Y-99099714D01*
X81113333Y-99099714D01*
X80922857Y-99052095D01*
X80827619Y-99004476D01*
X80780000Y-98956857D01*
X80732380Y-98861619D01*
X81065714Y-98099714D02*
X81732380Y-98099714D01*
X81160952Y-98099714D02*
X81113333Y-98052095D01*
X81065714Y-97956857D01*
X81065714Y-97814000D01*
X81113333Y-97718761D01*
X81208571Y-97671142D01*
X81732380Y-97671142D01*
X102306380Y-100210857D02*
X102306380Y-100782285D01*
X102306380Y-100496571D02*
X101306380Y-100496571D01*
X101449238Y-100591809D01*
X101544476Y-100687047D01*
X101592095Y-100782285D01*
X101306380Y-99591809D02*
X101306380Y-99496571D01*
X101354000Y-99401333D01*
X101401619Y-99353714D01*
X101496857Y-99306095D01*
X101687333Y-99258476D01*
X101925428Y-99258476D01*
X102115904Y-99306095D01*
X102211142Y-99353714D01*
X102258761Y-99401333D01*
X102306380Y-99496571D01*
X102306380Y-99591809D01*
X102258761Y-99687047D01*
X102211142Y-99734666D01*
X102115904Y-99782285D01*
X101925428Y-99829904D01*
X101687333Y-99829904D01*
X101496857Y-99782285D01*
X101401619Y-99734666D01*
X101354000Y-99687047D01*
X101306380Y-99591809D01*
X101639714Y-98401333D02*
X102306380Y-98401333D01*
X101639714Y-98829904D02*
X102163523Y-98829904D01*
X102258761Y-98782285D01*
X102306380Y-98687047D01*
X102306380Y-98544190D01*
X102258761Y-98448952D01*
X102211142Y-98401333D01*
X102306380Y-96400857D02*
X102306380Y-96972285D01*
X102306380Y-96686571D02*
X101306380Y-96686571D01*
X101449238Y-96781809D01*
X101544476Y-96877047D01*
X101592095Y-96972285D01*
X101306380Y-95781809D02*
X101306380Y-95686571D01*
X101354000Y-95591333D01*
X101401619Y-95543714D01*
X101496857Y-95496095D01*
X101687333Y-95448476D01*
X101925428Y-95448476D01*
X102115904Y-95496095D01*
X102211142Y-95543714D01*
X102258761Y-95591333D01*
X102306380Y-95686571D01*
X102306380Y-95781809D01*
X102258761Y-95877047D01*
X102211142Y-95924666D01*
X102115904Y-95972285D01*
X101925428Y-96019904D01*
X101687333Y-96019904D01*
X101496857Y-95972285D01*
X101401619Y-95924666D01*
X101354000Y-95877047D01*
X101306380Y-95781809D01*
X101639714Y-94591333D02*
X102306380Y-94591333D01*
X101639714Y-95019904D02*
X102163523Y-95019904D01*
X102258761Y-94972285D01*
X102306380Y-94877047D01*
X102306380Y-94734190D01*
X102258761Y-94638952D01*
X102211142Y-94591333D01*
X102306380Y-92590857D02*
X102306380Y-93162285D01*
X102306380Y-92876571D02*
X101306380Y-92876571D01*
X101449238Y-92971809D01*
X101544476Y-93067047D01*
X101592095Y-93162285D01*
X101306380Y-91971809D02*
X101306380Y-91876571D01*
X101354000Y-91781333D01*
X101401619Y-91733714D01*
X101496857Y-91686095D01*
X101687333Y-91638476D01*
X101925428Y-91638476D01*
X102115904Y-91686095D01*
X102211142Y-91733714D01*
X102258761Y-91781333D01*
X102306380Y-91876571D01*
X102306380Y-91971809D01*
X102258761Y-92067047D01*
X102211142Y-92114666D01*
X102115904Y-92162285D01*
X101925428Y-92209904D01*
X101687333Y-92209904D01*
X101496857Y-92162285D01*
X101401619Y-92114666D01*
X101354000Y-92067047D01*
X101306380Y-91971809D01*
X101639714Y-90781333D02*
X102306380Y-90781333D01*
X101639714Y-91209904D02*
X102163523Y-91209904D01*
X102258761Y-91162285D01*
X102306380Y-91067047D01*
X102306380Y-90924190D01*
X102258761Y-90828952D01*
X102211142Y-90781333D01*
X117625952Y-79827380D02*
X117054523Y-79827380D01*
X117340238Y-79827380D02*
X117340238Y-78827380D01*
X117245000Y-78970238D01*
X117149761Y-79065476D01*
X117054523Y-79113095D01*
X118245000Y-78827380D02*
X118340238Y-78827380D01*
X118435476Y-78875000D01*
X118483095Y-78922619D01*
X118530714Y-79017857D01*
X118578333Y-79208333D01*
X118578333Y-79446428D01*
X118530714Y-79636904D01*
X118483095Y-79732142D01*
X118435476Y-79779761D01*
X118340238Y-79827380D01*
X118245000Y-79827380D01*
X118149761Y-79779761D01*
X118102142Y-79732142D01*
X118054523Y-79636904D01*
X118006904Y-79446428D01*
X118006904Y-79208333D01*
X118054523Y-79017857D01*
X118102142Y-78922619D01*
X118149761Y-78875000D01*
X118245000Y-78827380D01*
X119197380Y-78827380D02*
X119292619Y-78827380D01*
X119387857Y-78875000D01*
X119435476Y-78922619D01*
X119483095Y-79017857D01*
X119530714Y-79208333D01*
X119530714Y-79446428D01*
X119483095Y-79636904D01*
X119435476Y-79732142D01*
X119387857Y-79779761D01*
X119292619Y-79827380D01*
X119197380Y-79827380D01*
X119102142Y-79779761D01*
X119054523Y-79732142D01*
X119006904Y-79636904D01*
X118959285Y-79446428D01*
X118959285Y-79208333D01*
X119006904Y-79017857D01*
X119054523Y-78922619D01*
X119102142Y-78875000D01*
X119197380Y-78827380D01*
X119959285Y-79160714D02*
X119959285Y-79827380D01*
X119959285Y-79255952D02*
X120006904Y-79208333D01*
X120102142Y-79160714D01*
X120245000Y-79160714D01*
X120340238Y-79208333D01*
X120387857Y-79303571D01*
X120387857Y-79827380D01*
X102306380Y-88780857D02*
X102306380Y-89352285D01*
X102306380Y-89066571D02*
X101306380Y-89066571D01*
X101449238Y-89161809D01*
X101544476Y-89257047D01*
X101592095Y-89352285D01*
X101306380Y-88161809D02*
X101306380Y-88066571D01*
X101354000Y-87971333D01*
X101401619Y-87923714D01*
X101496857Y-87876095D01*
X101687333Y-87828476D01*
X101925428Y-87828476D01*
X102115904Y-87876095D01*
X102211142Y-87923714D01*
X102258761Y-87971333D01*
X102306380Y-88066571D01*
X102306380Y-88161809D01*
X102258761Y-88257047D01*
X102211142Y-88304666D01*
X102115904Y-88352285D01*
X101925428Y-88399904D01*
X101687333Y-88399904D01*
X101496857Y-88352285D01*
X101401619Y-88304666D01*
X101354000Y-88257047D01*
X101306380Y-88161809D01*
X101639714Y-86971333D02*
X102306380Y-86971333D01*
X101639714Y-87399904D02*
X102163523Y-87399904D01*
X102258761Y-87352285D01*
X102306380Y-87257047D01*
X102306380Y-87114190D01*
X102258761Y-87018952D01*
X102211142Y-86971333D01*
X104211380Y-89257047D02*
X104211380Y-89828476D01*
X104211380Y-89542761D02*
X103211380Y-89542761D01*
X103354238Y-89638000D01*
X103449476Y-89733238D01*
X103497095Y-89828476D01*
X103211380Y-88638000D02*
X103211380Y-88542761D01*
X103259000Y-88447523D01*
X103306619Y-88399904D01*
X103401857Y-88352285D01*
X103592333Y-88304666D01*
X103830428Y-88304666D01*
X104020904Y-88352285D01*
X104116142Y-88399904D01*
X104163761Y-88447523D01*
X104211380Y-88542761D01*
X104211380Y-88638000D01*
X104163761Y-88733238D01*
X104116142Y-88780857D01*
X104020904Y-88828476D01*
X103830428Y-88876095D01*
X103592333Y-88876095D01*
X103401857Y-88828476D01*
X103306619Y-88780857D01*
X103259000Y-88733238D01*
X103211380Y-88638000D01*
X103211380Y-87685619D02*
X103211380Y-87590380D01*
X103259000Y-87495142D01*
X103306619Y-87447523D01*
X103401857Y-87399904D01*
X103592333Y-87352285D01*
X103830428Y-87352285D01*
X104020904Y-87399904D01*
X104116142Y-87447523D01*
X104163761Y-87495142D01*
X104211380Y-87590380D01*
X104211380Y-87685619D01*
X104163761Y-87780857D01*
X104116142Y-87828476D01*
X104020904Y-87876095D01*
X103830428Y-87923714D01*
X103592333Y-87923714D01*
X103401857Y-87876095D01*
X103306619Y-87828476D01*
X103259000Y-87780857D01*
X103211380Y-87685619D01*
X103544714Y-86923714D02*
X104211380Y-86923714D01*
X103639952Y-86923714D02*
X103592333Y-86876095D01*
X103544714Y-86780857D01*
X103544714Y-86638000D01*
X103592333Y-86542761D01*
X103687571Y-86495142D01*
X104211380Y-86495142D01*
X104211380Y-93067047D02*
X104211380Y-93638476D01*
X104211380Y-93352761D02*
X103211380Y-93352761D01*
X103354238Y-93448000D01*
X103449476Y-93543238D01*
X103497095Y-93638476D01*
X103211380Y-92448000D02*
X103211380Y-92352761D01*
X103259000Y-92257523D01*
X103306619Y-92209904D01*
X103401857Y-92162285D01*
X103592333Y-92114666D01*
X103830428Y-92114666D01*
X104020904Y-92162285D01*
X104116142Y-92209904D01*
X104163761Y-92257523D01*
X104211380Y-92352761D01*
X104211380Y-92448000D01*
X104163761Y-92543238D01*
X104116142Y-92590857D01*
X104020904Y-92638476D01*
X103830428Y-92686095D01*
X103592333Y-92686095D01*
X103401857Y-92638476D01*
X103306619Y-92590857D01*
X103259000Y-92543238D01*
X103211380Y-92448000D01*
X103211380Y-91495619D02*
X103211380Y-91400380D01*
X103259000Y-91305142D01*
X103306619Y-91257523D01*
X103401857Y-91209904D01*
X103592333Y-91162285D01*
X103830428Y-91162285D01*
X104020904Y-91209904D01*
X104116142Y-91257523D01*
X104163761Y-91305142D01*
X104211380Y-91400380D01*
X104211380Y-91495619D01*
X104163761Y-91590857D01*
X104116142Y-91638476D01*
X104020904Y-91686095D01*
X103830428Y-91733714D01*
X103592333Y-91733714D01*
X103401857Y-91686095D01*
X103306619Y-91638476D01*
X103259000Y-91590857D01*
X103211380Y-91495619D01*
X103544714Y-90733714D02*
X104211380Y-90733714D01*
X103639952Y-90733714D02*
X103592333Y-90686095D01*
X103544714Y-90590857D01*
X103544714Y-90448000D01*
X103592333Y-90352761D01*
X103687571Y-90305142D01*
X104211380Y-90305142D01*
X104211380Y-100687047D02*
X104211380Y-101258476D01*
X104211380Y-100972761D02*
X103211380Y-100972761D01*
X103354238Y-101068000D01*
X103449476Y-101163238D01*
X103497095Y-101258476D01*
X103211380Y-100068000D02*
X103211380Y-99972761D01*
X103259000Y-99877523D01*
X103306619Y-99829904D01*
X103401857Y-99782285D01*
X103592333Y-99734666D01*
X103830428Y-99734666D01*
X104020904Y-99782285D01*
X104116142Y-99829904D01*
X104163761Y-99877523D01*
X104211380Y-99972761D01*
X104211380Y-100068000D01*
X104163761Y-100163238D01*
X104116142Y-100210857D01*
X104020904Y-100258476D01*
X103830428Y-100306095D01*
X103592333Y-100306095D01*
X103401857Y-100258476D01*
X103306619Y-100210857D01*
X103259000Y-100163238D01*
X103211380Y-100068000D01*
X103211380Y-99115619D02*
X103211380Y-99020380D01*
X103259000Y-98925142D01*
X103306619Y-98877523D01*
X103401857Y-98829904D01*
X103592333Y-98782285D01*
X103830428Y-98782285D01*
X104020904Y-98829904D01*
X104116142Y-98877523D01*
X104163761Y-98925142D01*
X104211380Y-99020380D01*
X104211380Y-99115619D01*
X104163761Y-99210857D01*
X104116142Y-99258476D01*
X104020904Y-99306095D01*
X103830428Y-99353714D01*
X103592333Y-99353714D01*
X103401857Y-99306095D01*
X103306619Y-99258476D01*
X103259000Y-99210857D01*
X103211380Y-99115619D01*
X103544714Y-98353714D02*
X104211380Y-98353714D01*
X103639952Y-98353714D02*
X103592333Y-98306095D01*
X103544714Y-98210857D01*
X103544714Y-98068000D01*
X103592333Y-97972761D01*
X103687571Y-97925142D01*
X104211380Y-97925142D01*
X104211380Y-96877047D02*
X104211380Y-97448476D01*
X104211380Y-97162761D02*
X103211380Y-97162761D01*
X103354238Y-97258000D01*
X103449476Y-97353238D01*
X103497095Y-97448476D01*
X103211380Y-96258000D02*
X103211380Y-96162761D01*
X103259000Y-96067523D01*
X103306619Y-96019904D01*
X103401857Y-95972285D01*
X103592333Y-95924666D01*
X103830428Y-95924666D01*
X104020904Y-95972285D01*
X104116142Y-96019904D01*
X104163761Y-96067523D01*
X104211380Y-96162761D01*
X104211380Y-96258000D01*
X104163761Y-96353238D01*
X104116142Y-96400857D01*
X104020904Y-96448476D01*
X103830428Y-96496095D01*
X103592333Y-96496095D01*
X103401857Y-96448476D01*
X103306619Y-96400857D01*
X103259000Y-96353238D01*
X103211380Y-96258000D01*
X103211380Y-95305619D02*
X103211380Y-95210380D01*
X103259000Y-95115142D01*
X103306619Y-95067523D01*
X103401857Y-95019904D01*
X103592333Y-94972285D01*
X103830428Y-94972285D01*
X104020904Y-95019904D01*
X104116142Y-95067523D01*
X104163761Y-95115142D01*
X104211380Y-95210380D01*
X104211380Y-95305619D01*
X104163761Y-95400857D01*
X104116142Y-95448476D01*
X104020904Y-95496095D01*
X103830428Y-95543714D01*
X103592333Y-95543714D01*
X103401857Y-95496095D01*
X103306619Y-95448476D01*
X103259000Y-95400857D01*
X103211380Y-95305619D01*
X103544714Y-94543714D02*
X104211380Y-94543714D01*
X103639952Y-94543714D02*
X103592333Y-94496095D01*
X103544714Y-94400857D01*
X103544714Y-94258000D01*
X103592333Y-94162761D01*
X103687571Y-94115142D01*
X104211380Y-94115142D01*
X115387380Y-82399047D02*
X115387380Y-82970476D01*
X115387380Y-82684761D02*
X114387380Y-82684761D01*
X114530238Y-82780000D01*
X114625476Y-82875238D01*
X114673095Y-82970476D01*
X114387380Y-81780000D02*
X114387380Y-81684761D01*
X114435000Y-81589523D01*
X114482619Y-81541904D01*
X114577857Y-81494285D01*
X114768333Y-81446666D01*
X115006428Y-81446666D01*
X115196904Y-81494285D01*
X115292142Y-81541904D01*
X115339761Y-81589523D01*
X115387380Y-81684761D01*
X115387380Y-81780000D01*
X115339761Y-81875238D01*
X115292142Y-81922857D01*
X115196904Y-81970476D01*
X115006428Y-82018095D01*
X114768333Y-82018095D01*
X114577857Y-81970476D01*
X114482619Y-81922857D01*
X114435000Y-81875238D01*
X114387380Y-81780000D01*
X114387380Y-80827619D02*
X114387380Y-80732380D01*
X114435000Y-80637142D01*
X114482619Y-80589523D01*
X114577857Y-80541904D01*
X114768333Y-80494285D01*
X115006428Y-80494285D01*
X115196904Y-80541904D01*
X115292142Y-80589523D01*
X115339761Y-80637142D01*
X115387380Y-80732380D01*
X115387380Y-80827619D01*
X115339761Y-80922857D01*
X115292142Y-80970476D01*
X115196904Y-81018095D01*
X115006428Y-81065714D01*
X114768333Y-81065714D01*
X114577857Y-81018095D01*
X114482619Y-80970476D01*
X114435000Y-80922857D01*
X114387380Y-80827619D01*
X114720714Y-80065714D02*
X115387380Y-80065714D01*
X114815952Y-80065714D02*
X114768333Y-80018095D01*
X114720714Y-79922857D01*
X114720714Y-79780000D01*
X114768333Y-79684761D01*
X114863571Y-79637142D01*
X115387380Y-79637142D01*
X74850714Y-49982380D02*
X74850714Y-48982380D01*
X75422142Y-49982380D01*
X75422142Y-48982380D01*
X76231666Y-49458571D02*
X75898333Y-49458571D01*
X75898333Y-49982380D02*
X75898333Y-48982380D01*
X76374523Y-48982380D01*
X74850714Y-51887380D02*
X74850714Y-50887380D01*
X75422142Y-51887380D01*
X75422142Y-50887380D01*
X76231666Y-51363571D02*
X75898333Y-51363571D01*
X75898333Y-51887380D02*
X75898333Y-50887380D01*
X76374523Y-50887380D01*
X82288285Y-79386180D02*
X82907333Y-79386180D01*
X82574000Y-79767133D01*
X82716857Y-79767133D01*
X82812095Y-79814752D01*
X82859714Y-79862371D01*
X82907333Y-79957609D01*
X82907333Y-80195704D01*
X82859714Y-80290942D01*
X82812095Y-80338561D01*
X82716857Y-80386180D01*
X82431142Y-80386180D01*
X82335904Y-80338561D01*
X82288285Y-80290942D01*
X83240666Y-79386180D02*
X83859714Y-79386180D01*
X83526380Y-79767133D01*
X83669238Y-79767133D01*
X83764476Y-79814752D01*
X83812095Y-79862371D01*
X83859714Y-79957609D01*
X83859714Y-80195704D01*
X83812095Y-80290942D01*
X83764476Y-80338561D01*
X83669238Y-80386180D01*
X83383523Y-80386180D01*
X83288285Y-80338561D01*
X83240666Y-80290942D01*
X84478761Y-79386180D02*
X84574000Y-79386180D01*
X84669238Y-79433800D01*
X84716857Y-79481419D01*
X84764476Y-79576657D01*
X84812095Y-79767133D01*
X84812095Y-80005228D01*
X84764476Y-80195704D01*
X84716857Y-80290942D01*
X84669238Y-80338561D01*
X84574000Y-80386180D01*
X84478761Y-80386180D01*
X84383523Y-80338561D01*
X84335904Y-80290942D01*
X84288285Y-80195704D01*
X84240666Y-80005228D01*
X84240666Y-79767133D01*
X84288285Y-79576657D01*
X84335904Y-79481419D01*
X84383523Y-79433800D01*
X84478761Y-79386180D01*
X85812095Y-80386180D02*
X85478761Y-79909990D01*
X85240666Y-80386180D02*
X85240666Y-79386180D01*
X85621619Y-79386180D01*
X85716857Y-79433800D01*
X85764476Y-79481419D01*
X85812095Y-79576657D01*
X85812095Y-79719514D01*
X85764476Y-79814752D01*
X85716857Y-79862371D01*
X85621619Y-79909990D01*
X85240666Y-79909990D01*
X142438380Y-110418428D02*
X142438380Y-110989857D01*
X142438380Y-110704142D02*
X141438380Y-110704142D01*
X141581238Y-110799380D01*
X141676476Y-110894619D01*
X141724095Y-110989857D01*
X141438380Y-109799380D02*
X141438380Y-109704142D01*
X141486000Y-109608904D01*
X141533619Y-109561285D01*
X141628857Y-109513666D01*
X141819333Y-109466047D01*
X142057428Y-109466047D01*
X142247904Y-109513666D01*
X142343142Y-109561285D01*
X142390761Y-109608904D01*
X142438380Y-109704142D01*
X142438380Y-109799380D01*
X142390761Y-109894619D01*
X142343142Y-109942238D01*
X142247904Y-109989857D01*
X142057428Y-110037476D01*
X141819333Y-110037476D01*
X141628857Y-109989857D01*
X141533619Y-109942238D01*
X141486000Y-109894619D01*
X141438380Y-109799380D01*
X141438380Y-108847000D02*
X141438380Y-108751761D01*
X141486000Y-108656523D01*
X141533619Y-108608904D01*
X141628857Y-108561285D01*
X141819333Y-108513666D01*
X142057428Y-108513666D01*
X142247904Y-108561285D01*
X142343142Y-108608904D01*
X142390761Y-108656523D01*
X142438380Y-108751761D01*
X142438380Y-108847000D01*
X142390761Y-108942238D01*
X142343142Y-108989857D01*
X142247904Y-109037476D01*
X142057428Y-109085095D01*
X141819333Y-109085095D01*
X141628857Y-109037476D01*
X141533619Y-108989857D01*
X141486000Y-108942238D01*
X141438380Y-108847000D01*
X142438380Y-108085095D02*
X141438380Y-108085095D01*
X142057428Y-107989857D02*
X142438380Y-107704142D01*
X141771714Y-107704142D02*
X142152666Y-108085095D01*
X122981980Y-110672428D02*
X122981980Y-111243857D01*
X122981980Y-110958142D02*
X121981980Y-110958142D01*
X122124838Y-111053380D01*
X122220076Y-111148619D01*
X122267695Y-111243857D01*
X121981980Y-110053380D02*
X121981980Y-109958142D01*
X122029600Y-109862904D01*
X122077219Y-109815285D01*
X122172457Y-109767666D01*
X122362933Y-109720047D01*
X122601028Y-109720047D01*
X122791504Y-109767666D01*
X122886742Y-109815285D01*
X122934361Y-109862904D01*
X122981980Y-109958142D01*
X122981980Y-110053380D01*
X122934361Y-110148619D01*
X122886742Y-110196238D01*
X122791504Y-110243857D01*
X122601028Y-110291476D01*
X122362933Y-110291476D01*
X122172457Y-110243857D01*
X122077219Y-110196238D01*
X122029600Y-110148619D01*
X121981980Y-110053380D01*
X121981980Y-109101000D02*
X121981980Y-109005761D01*
X122029600Y-108910523D01*
X122077219Y-108862904D01*
X122172457Y-108815285D01*
X122362933Y-108767666D01*
X122601028Y-108767666D01*
X122791504Y-108815285D01*
X122886742Y-108862904D01*
X122934361Y-108910523D01*
X122981980Y-109005761D01*
X122981980Y-109101000D01*
X122934361Y-109196238D01*
X122886742Y-109243857D01*
X122791504Y-109291476D01*
X122601028Y-109339095D01*
X122362933Y-109339095D01*
X122172457Y-109291476D01*
X122077219Y-109243857D01*
X122029600Y-109196238D01*
X121981980Y-109101000D01*
X122981980Y-108339095D02*
X121981980Y-108339095D01*
X122601028Y-108243857D02*
X122981980Y-107958142D01*
X122315314Y-107958142D02*
X122696266Y-108339095D01*
X78493880Y-70222928D02*
X78493880Y-70794357D01*
X78493880Y-70508642D02*
X77493880Y-70508642D01*
X77636738Y-70603880D01*
X77731976Y-70699119D01*
X77779595Y-70794357D01*
X77493880Y-69603880D02*
X77493880Y-69508642D01*
X77541500Y-69413404D01*
X77589119Y-69365785D01*
X77684357Y-69318166D01*
X77874833Y-69270547D01*
X78112928Y-69270547D01*
X78303404Y-69318166D01*
X78398642Y-69365785D01*
X78446261Y-69413404D01*
X78493880Y-69508642D01*
X78493880Y-69603880D01*
X78446261Y-69699119D01*
X78398642Y-69746738D01*
X78303404Y-69794357D01*
X78112928Y-69841976D01*
X77874833Y-69841976D01*
X77684357Y-69794357D01*
X77589119Y-69746738D01*
X77541500Y-69699119D01*
X77493880Y-69603880D01*
X77493880Y-68651500D02*
X77493880Y-68556261D01*
X77541500Y-68461023D01*
X77589119Y-68413404D01*
X77684357Y-68365785D01*
X77874833Y-68318166D01*
X78112928Y-68318166D01*
X78303404Y-68365785D01*
X78398642Y-68413404D01*
X78446261Y-68461023D01*
X78493880Y-68556261D01*
X78493880Y-68651500D01*
X78446261Y-68746738D01*
X78398642Y-68794357D01*
X78303404Y-68841976D01*
X78112928Y-68889595D01*
X77874833Y-68889595D01*
X77684357Y-68841976D01*
X77589119Y-68794357D01*
X77541500Y-68746738D01*
X77493880Y-68651500D01*
X78493880Y-67889595D02*
X77493880Y-67889595D01*
X78112928Y-67794357D02*
X78493880Y-67508642D01*
X77827214Y-67508642D02*
X78208166Y-67889595D01*
X97099571Y-66555880D02*
X96528142Y-66555880D01*
X96813857Y-66555880D02*
X96813857Y-65555880D01*
X96718619Y-65698738D01*
X96623380Y-65793976D01*
X96528142Y-65841595D01*
X97718619Y-65555880D02*
X97813857Y-65555880D01*
X97909095Y-65603500D01*
X97956714Y-65651119D01*
X98004333Y-65746357D01*
X98051952Y-65936833D01*
X98051952Y-66174928D01*
X98004333Y-66365404D01*
X97956714Y-66460642D01*
X97909095Y-66508261D01*
X97813857Y-66555880D01*
X97718619Y-66555880D01*
X97623380Y-66508261D01*
X97575761Y-66460642D01*
X97528142Y-66365404D01*
X97480523Y-66174928D01*
X97480523Y-65936833D01*
X97528142Y-65746357D01*
X97575761Y-65651119D01*
X97623380Y-65603500D01*
X97718619Y-65555880D01*
X98671000Y-65555880D02*
X98766238Y-65555880D01*
X98861476Y-65603500D01*
X98909095Y-65651119D01*
X98956714Y-65746357D01*
X99004333Y-65936833D01*
X99004333Y-66174928D01*
X98956714Y-66365404D01*
X98909095Y-66460642D01*
X98861476Y-66508261D01*
X98766238Y-66555880D01*
X98671000Y-66555880D01*
X98575761Y-66508261D01*
X98528142Y-66460642D01*
X98480523Y-66365404D01*
X98432904Y-66174928D01*
X98432904Y-65936833D01*
X98480523Y-65746357D01*
X98528142Y-65651119D01*
X98575761Y-65603500D01*
X98671000Y-65555880D01*
X99432904Y-66555880D02*
X99432904Y-65555880D01*
X99528142Y-66174928D02*
X99813857Y-66555880D01*
X99813857Y-65889214D02*
X99432904Y-66270166D01*
X137612380Y-81359285D02*
X136612380Y-81359285D01*
X137612380Y-80787857D01*
X136612380Y-80787857D01*
X137088571Y-79978333D02*
X137088571Y-80311666D01*
X137612380Y-80311666D02*
X136612380Y-80311666D01*
X136612380Y-79835476D01*
X135707380Y-81359285D02*
X134707380Y-81359285D01*
X135707380Y-80787857D01*
X134707380Y-80787857D01*
X135183571Y-79978333D02*
X135183571Y-80311666D01*
X135707380Y-80311666D02*
X134707380Y-80311666D01*
X134707380Y-79835476D01*
X71572380Y-96639047D02*
X71572380Y-97210476D01*
X71572380Y-96924761D02*
X70572380Y-96924761D01*
X70715238Y-97020000D01*
X70810476Y-97115238D01*
X70858095Y-97210476D01*
X71572380Y-96210476D02*
X70572380Y-96210476D01*
X71191428Y-96115238D02*
X71572380Y-95829523D01*
X70905714Y-95829523D02*
X71286666Y-96210476D01*
X61380952Y-76702380D02*
X60809523Y-76702380D01*
X61095238Y-76702380D02*
X61095238Y-75702380D01*
X61000000Y-75845238D01*
X60904761Y-75940476D01*
X60809523Y-75988095D01*
X61809523Y-76702380D02*
X61809523Y-75702380D01*
X61904761Y-76321428D02*
X62190476Y-76702380D01*
X62190476Y-76035714D02*
X61809523Y-76416666D01*
X70937380Y-86479047D02*
X70937380Y-87050476D01*
X70937380Y-86764761D02*
X69937380Y-86764761D01*
X70080238Y-86860000D01*
X70175476Y-86955238D01*
X70223095Y-87050476D01*
X70937380Y-86050476D02*
X69937380Y-86050476D01*
X70556428Y-85955238D02*
X70937380Y-85669523D01*
X70270714Y-85669523D02*
X70651666Y-86050476D01*
X66780967Y-65952380D02*
X66209538Y-65952380D01*
X66495252Y-65952380D02*
X66620252Y-64952380D01*
X66507157Y-65095238D01*
X66400014Y-65190476D01*
X66298824Y-65238095D01*
X67209538Y-65952380D02*
X67334538Y-64952380D01*
X67352395Y-65571428D02*
X67590491Y-65952380D01*
X67673824Y-65285714D02*
X67245252Y-65666666D01*
X106116380Y-99687047D02*
X106116380Y-100258476D01*
X106116380Y-99972761D02*
X105116380Y-99972761D01*
X105259238Y-100068000D01*
X105354476Y-100163238D01*
X105402095Y-100258476D01*
X106116380Y-99258476D02*
X105116380Y-99258476D01*
X105735428Y-99163238D02*
X106116380Y-98877523D01*
X105449714Y-98877523D02*
X105830666Y-99258476D01*
X106116380Y-95877047D02*
X106116380Y-96448476D01*
X106116380Y-96162761D02*
X105116380Y-96162761D01*
X105259238Y-96258000D01*
X105354476Y-96353238D01*
X105402095Y-96448476D01*
X106116380Y-95448476D02*
X105116380Y-95448476D01*
X105735428Y-95353238D02*
X106116380Y-95067523D01*
X105449714Y-95067523D02*
X105830666Y-95448476D01*
X106116380Y-92067047D02*
X106116380Y-92638476D01*
X106116380Y-92352761D02*
X105116380Y-92352761D01*
X105259238Y-92448000D01*
X105354476Y-92543238D01*
X105402095Y-92638476D01*
X106116380Y-91638476D02*
X105116380Y-91638476D01*
X105735428Y-91543238D02*
X106116380Y-91257523D01*
X105449714Y-91257523D02*
X105830666Y-91638476D01*
X122245571Y-107513380D02*
X121674142Y-107513380D01*
X121959857Y-107513380D02*
X121959857Y-106513380D01*
X121864619Y-106656238D01*
X121769380Y-106751476D01*
X121674142Y-106799095D01*
X122864619Y-106513380D02*
X122959857Y-106513380D01*
X123055095Y-106561000D01*
X123102714Y-106608619D01*
X123150333Y-106703857D01*
X123197952Y-106894333D01*
X123197952Y-107132428D01*
X123150333Y-107322904D01*
X123102714Y-107418142D01*
X123055095Y-107465761D01*
X122959857Y-107513380D01*
X122864619Y-107513380D01*
X122769380Y-107465761D01*
X122721761Y-107418142D01*
X122674142Y-107322904D01*
X122626523Y-107132428D01*
X122626523Y-106894333D01*
X122674142Y-106703857D01*
X122721761Y-106608619D01*
X122769380Y-106561000D01*
X122864619Y-106513380D01*
X123817000Y-106513380D02*
X123912238Y-106513380D01*
X124007476Y-106561000D01*
X124055095Y-106608619D01*
X124102714Y-106703857D01*
X124150333Y-106894333D01*
X124150333Y-107132428D01*
X124102714Y-107322904D01*
X124055095Y-107418142D01*
X124007476Y-107465761D01*
X123912238Y-107513380D01*
X123817000Y-107513380D01*
X123721761Y-107465761D01*
X123674142Y-107418142D01*
X123626523Y-107322904D01*
X123578904Y-107132428D01*
X123578904Y-106894333D01*
X123626523Y-106703857D01*
X123674142Y-106608619D01*
X123721761Y-106561000D01*
X123817000Y-106513380D01*
X124578904Y-107513380D02*
X124578904Y-106513380D01*
X124674142Y-107132428D02*
X124959857Y-107513380D01*
X124959857Y-106846714D02*
X124578904Y-107227666D01*
X123966314Y-110240676D02*
X124632980Y-110240676D01*
X123585361Y-110478771D02*
X124299647Y-110716866D01*
X124299647Y-110097819D01*
X124632980Y-109716866D02*
X123632980Y-109716866D01*
X124252028Y-109621628D02*
X124632980Y-109335914D01*
X123966314Y-109335914D02*
X124347266Y-109716866D01*
X123632980Y-109002580D02*
X123632980Y-108335914D01*
X124632980Y-108764485D01*
X94241880Y-74064738D02*
X94241880Y-74636166D01*
X94241880Y-74350452D02*
X93241880Y-74350452D01*
X93384738Y-74445690D01*
X93479976Y-74540928D01*
X93527595Y-74636166D01*
X93241880Y-73445690D02*
X93241880Y-73350452D01*
X93289500Y-73255214D01*
X93337119Y-73207595D01*
X93432357Y-73159976D01*
X93622833Y-73112357D01*
X93860928Y-73112357D01*
X94051404Y-73159976D01*
X94146642Y-73207595D01*
X94194261Y-73255214D01*
X94241880Y-73350452D01*
X94241880Y-73445690D01*
X94194261Y-73540928D01*
X94146642Y-73588547D01*
X94051404Y-73636166D01*
X93860928Y-73683785D01*
X93622833Y-73683785D01*
X93432357Y-73636166D01*
X93337119Y-73588547D01*
X93289500Y-73540928D01*
X93241880Y-73445690D01*
X94241880Y-72683785D02*
X93241880Y-72683785D01*
X93860928Y-72588547D02*
X94241880Y-72302833D01*
X93575214Y-72302833D02*
X93956166Y-72683785D01*
X92400380Y-72604238D02*
X92400380Y-73175666D01*
X92400380Y-72889952D02*
X91400380Y-72889952D01*
X91543238Y-72985190D01*
X91638476Y-73080428D01*
X91686095Y-73175666D01*
X91400380Y-71985190D02*
X91400380Y-71889952D01*
X91448000Y-71794714D01*
X91495619Y-71747095D01*
X91590857Y-71699476D01*
X91781333Y-71651857D01*
X92019428Y-71651857D01*
X92209904Y-71699476D01*
X92305142Y-71747095D01*
X92352761Y-71794714D01*
X92400380Y-71889952D01*
X92400380Y-71985190D01*
X92352761Y-72080428D01*
X92305142Y-72128047D01*
X92209904Y-72175666D01*
X92019428Y-72223285D01*
X91781333Y-72223285D01*
X91590857Y-72175666D01*
X91495619Y-72128047D01*
X91448000Y-72080428D01*
X91400380Y-71985190D01*
X92400380Y-71223285D02*
X91400380Y-71223285D01*
X92019428Y-71128047D02*
X92400380Y-70842333D01*
X91733714Y-70842333D02*
X92114666Y-71223285D01*
X106116380Y-88257047D02*
X106116380Y-88828476D01*
X106116380Y-88542761D02*
X105116380Y-88542761D01*
X105259238Y-88638000D01*
X105354476Y-88733238D01*
X105402095Y-88828476D01*
X106116380Y-87828476D02*
X105116380Y-87828476D01*
X105735428Y-87733238D02*
X106116380Y-87447523D01*
X105449714Y-87447523D02*
X105830666Y-87828476D01*
X71921904Y-88447619D02*
X71969523Y-88400000D01*
X72064761Y-88352380D01*
X72302857Y-88352380D01*
X72398095Y-88400000D01*
X72445714Y-88447619D01*
X72493333Y-88542857D01*
X72493333Y-88638095D01*
X72445714Y-88780952D01*
X71874285Y-89352380D01*
X72493333Y-89352380D01*
X72874285Y-88447619D02*
X72921904Y-88400000D01*
X73017142Y-88352380D01*
X73255238Y-88352380D01*
X73350476Y-88400000D01*
X73398095Y-88447619D01*
X73445714Y-88542857D01*
X73445714Y-88638095D01*
X73398095Y-88780952D01*
X72826666Y-89352380D01*
X73445714Y-89352380D01*
X74064761Y-88352380D02*
X74160000Y-88352380D01*
X74255238Y-88400000D01*
X74302857Y-88447619D01*
X74350476Y-88542857D01*
X74398095Y-88733333D01*
X74398095Y-88971428D01*
X74350476Y-89161904D01*
X74302857Y-89257142D01*
X74255238Y-89304761D01*
X74160000Y-89352380D01*
X74064761Y-89352380D01*
X73969523Y-89304761D01*
X73921904Y-89257142D01*
X73874285Y-89161904D01*
X73826666Y-88971428D01*
X73826666Y-88733333D01*
X73874285Y-88542857D01*
X73921904Y-88447619D01*
X73969523Y-88400000D01*
X74064761Y-88352380D01*
X75398095Y-89352380D02*
X75064761Y-88876190D01*
X74826666Y-89352380D02*
X74826666Y-88352380D01*
X75207619Y-88352380D01*
X75302857Y-88400000D01*
X75350476Y-88447619D01*
X75398095Y-88542857D01*
X75398095Y-88685714D01*
X75350476Y-88780952D01*
X75302857Y-88828571D01*
X75207619Y-88876190D01*
X74826666Y-88876190D01*
X71921904Y-79557619D02*
X71969523Y-79510000D01*
X72064761Y-79462380D01*
X72302857Y-79462380D01*
X72398095Y-79510000D01*
X72445714Y-79557619D01*
X72493333Y-79652857D01*
X72493333Y-79748095D01*
X72445714Y-79890952D01*
X71874285Y-80462380D01*
X72493333Y-80462380D01*
X72874285Y-79557619D02*
X72921904Y-79510000D01*
X73017142Y-79462380D01*
X73255238Y-79462380D01*
X73350476Y-79510000D01*
X73398095Y-79557619D01*
X73445714Y-79652857D01*
X73445714Y-79748095D01*
X73398095Y-79890952D01*
X72826666Y-80462380D01*
X73445714Y-80462380D01*
X74064761Y-79462380D02*
X74160000Y-79462380D01*
X74255238Y-79510000D01*
X74302857Y-79557619D01*
X74350476Y-79652857D01*
X74398095Y-79843333D01*
X74398095Y-80081428D01*
X74350476Y-80271904D01*
X74302857Y-80367142D01*
X74255238Y-80414761D01*
X74160000Y-80462380D01*
X74064761Y-80462380D01*
X73969523Y-80414761D01*
X73921904Y-80367142D01*
X73874285Y-80271904D01*
X73826666Y-80081428D01*
X73826666Y-79843333D01*
X73874285Y-79652857D01*
X73921904Y-79557619D01*
X73969523Y-79510000D01*
X74064761Y-79462380D01*
X75398095Y-80462380D02*
X75064761Y-79986190D01*
X74826666Y-80462380D02*
X74826666Y-79462380D01*
X75207619Y-79462380D01*
X75302857Y-79510000D01*
X75350476Y-79557619D01*
X75398095Y-79652857D01*
X75398095Y-79795714D01*
X75350476Y-79890952D01*
X75302857Y-79938571D01*
X75207619Y-79986190D01*
X74826666Y-79986190D01*
X72937904Y-63733419D02*
X72985523Y-63685800D01*
X73080761Y-63638180D01*
X73318857Y-63638180D01*
X73414095Y-63685800D01*
X73461714Y-63733419D01*
X73509333Y-63828657D01*
X73509333Y-63923895D01*
X73461714Y-64066752D01*
X72890285Y-64638180D01*
X73509333Y-64638180D01*
X73890285Y-63733419D02*
X73937904Y-63685800D01*
X74033142Y-63638180D01*
X74271238Y-63638180D01*
X74366476Y-63685800D01*
X74414095Y-63733419D01*
X74461714Y-63828657D01*
X74461714Y-63923895D01*
X74414095Y-64066752D01*
X73842666Y-64638180D01*
X74461714Y-64638180D01*
X75080761Y-63638180D02*
X75176000Y-63638180D01*
X75271238Y-63685800D01*
X75318857Y-63733419D01*
X75366476Y-63828657D01*
X75414095Y-64019133D01*
X75414095Y-64257228D01*
X75366476Y-64447704D01*
X75318857Y-64542942D01*
X75271238Y-64590561D01*
X75176000Y-64638180D01*
X75080761Y-64638180D01*
X74985523Y-64590561D01*
X74937904Y-64542942D01*
X74890285Y-64447704D01*
X74842666Y-64257228D01*
X74842666Y-64019133D01*
X74890285Y-63828657D01*
X74937904Y-63733419D01*
X74985523Y-63685800D01*
X75080761Y-63638180D01*
X76414095Y-64638180D02*
X76080761Y-64161990D01*
X75842666Y-64638180D02*
X75842666Y-63638180D01*
X76223619Y-63638180D01*
X76318857Y-63685800D01*
X76366476Y-63733419D01*
X76414095Y-63828657D01*
X76414095Y-63971514D01*
X76366476Y-64066752D01*
X76318857Y-64114371D01*
X76223619Y-64161990D01*
X75842666Y-64161990D01*
X72937904Y-71861419D02*
X72985523Y-71813800D01*
X73080761Y-71766180D01*
X73318857Y-71766180D01*
X73414095Y-71813800D01*
X73461714Y-71861419D01*
X73509333Y-71956657D01*
X73509333Y-72051895D01*
X73461714Y-72194752D01*
X72890285Y-72766180D01*
X73509333Y-72766180D01*
X73890285Y-71861419D02*
X73937904Y-71813800D01*
X74033142Y-71766180D01*
X74271238Y-71766180D01*
X74366476Y-71813800D01*
X74414095Y-71861419D01*
X74461714Y-71956657D01*
X74461714Y-72051895D01*
X74414095Y-72194752D01*
X73842666Y-72766180D01*
X74461714Y-72766180D01*
X75080761Y-71766180D02*
X75176000Y-71766180D01*
X75271238Y-71813800D01*
X75318857Y-71861419D01*
X75366476Y-71956657D01*
X75414095Y-72147133D01*
X75414095Y-72385228D01*
X75366476Y-72575704D01*
X75318857Y-72670942D01*
X75271238Y-72718561D01*
X75176000Y-72766180D01*
X75080761Y-72766180D01*
X74985523Y-72718561D01*
X74937904Y-72670942D01*
X74890285Y-72575704D01*
X74842666Y-72385228D01*
X74842666Y-72147133D01*
X74890285Y-71956657D01*
X74937904Y-71861419D01*
X74985523Y-71813800D01*
X75080761Y-71766180D01*
X76414095Y-72766180D02*
X76080761Y-72289990D01*
X75842666Y-72766180D02*
X75842666Y-71766180D01*
X76223619Y-71766180D01*
X76318857Y-71813800D01*
X76366476Y-71861419D01*
X76414095Y-71956657D01*
X76414095Y-72099514D01*
X76366476Y-72194752D01*
X76318857Y-72242371D01*
X76223619Y-72289990D01*
X75842666Y-72289990D01*
X68111904Y-49712619D02*
X68159523Y-49665000D01*
X68254761Y-49617380D01*
X68492857Y-49617380D01*
X68588095Y-49665000D01*
X68635714Y-49712619D01*
X68683333Y-49807857D01*
X68683333Y-49903095D01*
X68635714Y-50045952D01*
X68064285Y-50617380D01*
X68683333Y-50617380D01*
X69064285Y-49712619D02*
X69111904Y-49665000D01*
X69207142Y-49617380D01*
X69445238Y-49617380D01*
X69540476Y-49665000D01*
X69588095Y-49712619D01*
X69635714Y-49807857D01*
X69635714Y-49903095D01*
X69588095Y-50045952D01*
X69016666Y-50617380D01*
X69635714Y-50617380D01*
X70254761Y-49617380D02*
X70350000Y-49617380D01*
X70445238Y-49665000D01*
X70492857Y-49712619D01*
X70540476Y-49807857D01*
X70588095Y-49998333D01*
X70588095Y-50236428D01*
X70540476Y-50426904D01*
X70492857Y-50522142D01*
X70445238Y-50569761D01*
X70350000Y-50617380D01*
X70254761Y-50617380D01*
X70159523Y-50569761D01*
X70111904Y-50522142D01*
X70064285Y-50426904D01*
X70016666Y-50236428D01*
X70016666Y-49998333D01*
X70064285Y-49807857D01*
X70111904Y-49712619D01*
X70159523Y-49665000D01*
X70254761Y-49617380D01*
X71588095Y-50617380D02*
X71254761Y-50141190D01*
X71016666Y-50617380D02*
X71016666Y-49617380D01*
X71397619Y-49617380D01*
X71492857Y-49665000D01*
X71540476Y-49712619D01*
X71588095Y-49807857D01*
X71588095Y-49950714D01*
X71540476Y-50045952D01*
X71492857Y-50093571D01*
X71397619Y-50141190D01*
X71016666Y-50141190D01*
X70667619Y-55713095D02*
X70620000Y-55665476D01*
X70572380Y-55570238D01*
X70572380Y-55332142D01*
X70620000Y-55236904D01*
X70667619Y-55189285D01*
X70762857Y-55141666D01*
X70858095Y-55141666D01*
X71000952Y-55189285D01*
X71572380Y-55760714D01*
X71572380Y-55141666D01*
X70667619Y-54760714D02*
X70620000Y-54713095D01*
X70572380Y-54617857D01*
X70572380Y-54379761D01*
X70620000Y-54284523D01*
X70667619Y-54236904D01*
X70762857Y-54189285D01*
X70858095Y-54189285D01*
X71000952Y-54236904D01*
X71572380Y-54808333D01*
X71572380Y-54189285D01*
X70572380Y-53570238D02*
X70572380Y-53475000D01*
X70620000Y-53379761D01*
X70667619Y-53332142D01*
X70762857Y-53284523D01*
X70953333Y-53236904D01*
X71191428Y-53236904D01*
X71381904Y-53284523D01*
X71477142Y-53332142D01*
X71524761Y-53379761D01*
X71572380Y-53475000D01*
X71572380Y-53570238D01*
X71524761Y-53665476D01*
X71477142Y-53713095D01*
X71381904Y-53760714D01*
X71191428Y-53808333D01*
X70953333Y-53808333D01*
X70762857Y-53760714D01*
X70667619Y-53713095D01*
X70620000Y-53665476D01*
X70572380Y-53570238D01*
X71572380Y-52236904D02*
X71096190Y-52570238D01*
X71572380Y-52808333D02*
X70572380Y-52808333D01*
X70572380Y-52427380D01*
X70620000Y-52332142D01*
X70667619Y-52284523D01*
X70762857Y-52236904D01*
X70905714Y-52236904D01*
X71000952Y-52284523D01*
X71048571Y-52332142D01*
X71096190Y-52427380D01*
X71096190Y-52808333D01*
X67127380Y-57269047D02*
X67127380Y-57840476D01*
X67127380Y-57554761D02*
X66127380Y-57554761D01*
X66270238Y-57650000D01*
X66365476Y-57745238D01*
X66413095Y-57840476D01*
X67127380Y-56840476D02*
X66127380Y-56840476D01*
X66746428Y-56745238D02*
X67127380Y-56459523D01*
X66460714Y-56459523D02*
X66841666Y-56840476D01*
X67127380Y-50919047D02*
X67127380Y-51490476D01*
X67127380Y-51204761D02*
X66127380Y-51204761D01*
X66270238Y-51300000D01*
X66365476Y-51395238D01*
X66413095Y-51490476D01*
X67127380Y-50490476D02*
X66127380Y-50490476D01*
X66746428Y-50395238D02*
X67127380Y-50109523D01*
X66460714Y-50109523D02*
X66841666Y-50490476D01*
X102274761Y-82367380D02*
X101703333Y-82367380D01*
X101989047Y-82367380D02*
X101989047Y-81367380D01*
X101893809Y-81510238D01*
X101798571Y-81605476D01*
X101703333Y-81653095D01*
X102893809Y-81367380D02*
X102989047Y-81367380D01*
X103084285Y-81415000D01*
X103131904Y-81462619D01*
X103179523Y-81557857D01*
X103227142Y-81748333D01*
X103227142Y-81986428D01*
X103179523Y-82176904D01*
X103131904Y-82272142D01*
X103084285Y-82319761D01*
X102989047Y-82367380D01*
X102893809Y-82367380D01*
X102798571Y-82319761D01*
X102750952Y-82272142D01*
X102703333Y-82176904D01*
X102655714Y-81986428D01*
X102655714Y-81748333D01*
X102703333Y-81557857D01*
X102750952Y-81462619D01*
X102798571Y-81415000D01*
X102893809Y-81367380D01*
X103655714Y-82367380D02*
X103655714Y-81367380D01*
X103750952Y-81986428D02*
X104036666Y-82367380D01*
X104036666Y-81700714D02*
X103655714Y-82081666D01*
X118149761Y-83637380D02*
X117578333Y-83637380D01*
X117864047Y-83637380D02*
X117864047Y-82637380D01*
X117768809Y-82780238D01*
X117673571Y-82875476D01*
X117578333Y-82923095D01*
X118768809Y-82637380D02*
X118864047Y-82637380D01*
X118959285Y-82685000D01*
X119006904Y-82732619D01*
X119054523Y-82827857D01*
X119102142Y-83018333D01*
X119102142Y-83256428D01*
X119054523Y-83446904D01*
X119006904Y-83542142D01*
X118959285Y-83589761D01*
X118864047Y-83637380D01*
X118768809Y-83637380D01*
X118673571Y-83589761D01*
X118625952Y-83542142D01*
X118578333Y-83446904D01*
X118530714Y-83256428D01*
X118530714Y-83018333D01*
X118578333Y-82827857D01*
X118625952Y-82732619D01*
X118673571Y-82685000D01*
X118768809Y-82637380D01*
X119530714Y-83637380D02*
X119530714Y-82637380D01*
X119625952Y-83256428D02*
X119911666Y-83637380D01*
X119911666Y-82970714D02*
X119530714Y-83351666D01*
X131484761Y-82367380D02*
X130913333Y-82367380D01*
X131199047Y-82367380D02*
X131199047Y-81367380D01*
X131103809Y-81510238D01*
X131008571Y-81605476D01*
X130913333Y-81653095D01*
X132103809Y-81367380D02*
X132199047Y-81367380D01*
X132294285Y-81415000D01*
X132341904Y-81462619D01*
X132389523Y-81557857D01*
X132437142Y-81748333D01*
X132437142Y-81986428D01*
X132389523Y-82176904D01*
X132341904Y-82272142D01*
X132294285Y-82319761D01*
X132199047Y-82367380D01*
X132103809Y-82367380D01*
X132008571Y-82319761D01*
X131960952Y-82272142D01*
X131913333Y-82176904D01*
X131865714Y-81986428D01*
X131865714Y-81748333D01*
X131913333Y-81557857D01*
X131960952Y-81462619D01*
X132008571Y-81415000D01*
X132103809Y-81367380D01*
X132865714Y-82367380D02*
X132865714Y-81367380D01*
X132960952Y-81986428D02*
X133246666Y-82367380D01*
X133246666Y-81700714D02*
X132865714Y-82081666D01*
X92877142Y-81367380D02*
X93543809Y-81367380D01*
X93115238Y-82367380D01*
X94353333Y-81700714D02*
X94353333Y-82367380D01*
X94115238Y-81319761D02*
X93877142Y-82034047D01*
X94496190Y-82034047D01*
X94877142Y-82367380D02*
X94877142Y-81367380D01*
X94877142Y-81843571D02*
X95448571Y-81843571D01*
X95448571Y-82367380D02*
X95448571Y-81367380D01*
X96496190Y-82272142D02*
X96448571Y-82319761D01*
X96305714Y-82367380D01*
X96210476Y-82367380D01*
X96067619Y-82319761D01*
X95972380Y-82224523D01*
X95924761Y-82129285D01*
X95877142Y-81938809D01*
X95877142Y-81795952D01*
X95924761Y-81605476D01*
X95972380Y-81510238D01*
X96067619Y-81415000D01*
X96210476Y-81367380D01*
X96305714Y-81367380D01*
X96448571Y-81415000D01*
X96496190Y-81462619D01*
X96781904Y-81367380D02*
X97353333Y-81367380D01*
X97067619Y-82367380D02*
X97067619Y-81367380D01*
X98210476Y-82367380D02*
X97639047Y-82367380D01*
X97924761Y-82367380D02*
X97924761Y-81367380D01*
X97829523Y-81510238D01*
X97734285Y-81605476D01*
X97639047Y-81653095D01*
X98591428Y-81462619D02*
X98639047Y-81415000D01*
X98734285Y-81367380D01*
X98972380Y-81367380D01*
X99067619Y-81415000D01*
X99115238Y-81462619D01*
X99162857Y-81557857D01*
X99162857Y-81653095D01*
X99115238Y-81795952D01*
X98543809Y-82367380D01*
X99162857Y-82367380D01*
X100067619Y-81367380D02*
X99591428Y-81367380D01*
X99543809Y-81843571D01*
X99591428Y-81795952D01*
X99686666Y-81748333D01*
X99924761Y-81748333D01*
X100020000Y-81795952D01*
X100067619Y-81843571D01*
X100115238Y-81938809D01*
X100115238Y-82176904D01*
X100067619Y-82272142D01*
X100020000Y-82319761D01*
X99924761Y-82367380D01*
X99686666Y-82367380D01*
X99591428Y-82319761D01*
X99543809Y-82272142D01*
X95337380Y-93812857D02*
X95337380Y-93146190D01*
X96337380Y-93574761D01*
X95670714Y-92336666D02*
X96337380Y-92336666D01*
X95289761Y-92574761D02*
X96004047Y-92812857D01*
X96004047Y-92193809D01*
X96337380Y-91812857D02*
X95337380Y-91812857D01*
X95813571Y-91812857D02*
X95813571Y-91241428D01*
X96337380Y-91241428D02*
X95337380Y-91241428D01*
X96242142Y-90193809D02*
X96289761Y-90241428D01*
X96337380Y-90384285D01*
X96337380Y-90479523D01*
X96289761Y-90622380D01*
X96194523Y-90717619D01*
X96099285Y-90765238D01*
X95908809Y-90812857D01*
X95765952Y-90812857D01*
X95575476Y-90765238D01*
X95480238Y-90717619D01*
X95385000Y-90622380D01*
X95337380Y-90479523D01*
X95337380Y-90384285D01*
X95385000Y-90241428D01*
X95432619Y-90193809D01*
X95337380Y-89908095D02*
X95337380Y-89336666D01*
X96337380Y-89622380D02*
X95337380Y-89622380D01*
X95432619Y-89050952D02*
X95385000Y-89003333D01*
X95337380Y-88908095D01*
X95337380Y-88670000D01*
X95385000Y-88574761D01*
X95432619Y-88527142D01*
X95527857Y-88479523D01*
X95623095Y-88479523D01*
X95765952Y-88527142D01*
X96337380Y-89098571D01*
X96337380Y-88479523D01*
X95670714Y-87622380D02*
X96337380Y-87622380D01*
X95289761Y-87860476D02*
X96004047Y-88098571D01*
X96004047Y-87479523D01*
X95670714Y-86670000D02*
X96337380Y-86670000D01*
X95289761Y-86908095D02*
X96004047Y-87146190D01*
X96004047Y-86527142D01*
X121356904Y-81367380D02*
X122023571Y-81367380D01*
X121595000Y-82367380D01*
X122833095Y-81700714D02*
X122833095Y-82367380D01*
X122595000Y-81319761D02*
X122356904Y-82034047D01*
X122975952Y-82034047D01*
X123356904Y-82367380D02*
X123356904Y-81367380D01*
X123356904Y-81843571D02*
X123928333Y-81843571D01*
X123928333Y-82367380D02*
X123928333Y-81367380D01*
X124975952Y-82272142D02*
X124928333Y-82319761D01*
X124785476Y-82367380D01*
X124690238Y-82367380D01*
X124547380Y-82319761D01*
X124452142Y-82224523D01*
X124404523Y-82129285D01*
X124356904Y-81938809D01*
X124356904Y-81795952D01*
X124404523Y-81605476D01*
X124452142Y-81510238D01*
X124547380Y-81415000D01*
X124690238Y-81367380D01*
X124785476Y-81367380D01*
X124928333Y-81415000D01*
X124975952Y-81462619D01*
X125833095Y-81700714D02*
X125833095Y-82367380D01*
X125595000Y-81319761D02*
X125356904Y-82034047D01*
X125975952Y-82034047D01*
X126547380Y-81367380D02*
X126642619Y-81367380D01*
X126737857Y-81415000D01*
X126785476Y-81462619D01*
X126833095Y-81557857D01*
X126880714Y-81748333D01*
X126880714Y-81986428D01*
X126833095Y-82176904D01*
X126785476Y-82272142D01*
X126737857Y-82319761D01*
X126642619Y-82367380D01*
X126547380Y-82367380D01*
X126452142Y-82319761D01*
X126404523Y-82272142D01*
X126356904Y-82176904D01*
X126309285Y-81986428D01*
X126309285Y-81748333D01*
X126356904Y-81557857D01*
X126404523Y-81462619D01*
X126452142Y-81415000D01*
X126547380Y-81367380D01*
X127785476Y-81367380D02*
X127309285Y-81367380D01*
X127261666Y-81843571D01*
X127309285Y-81795952D01*
X127404523Y-81748333D01*
X127642619Y-81748333D01*
X127737857Y-81795952D01*
X127785476Y-81843571D01*
X127833095Y-81938809D01*
X127833095Y-82176904D01*
X127785476Y-82272142D01*
X127737857Y-82319761D01*
X127642619Y-82367380D01*
X127404523Y-82367380D01*
X127309285Y-82319761D01*
X127261666Y-82272142D01*
X128452142Y-81367380D02*
X128547380Y-81367380D01*
X128642619Y-81415000D01*
X128690238Y-81462619D01*
X128737857Y-81557857D01*
X128785476Y-81748333D01*
X128785476Y-81986428D01*
X128737857Y-82176904D01*
X128690238Y-82272142D01*
X128642619Y-82319761D01*
X128547380Y-82367380D01*
X128452142Y-82367380D01*
X128356904Y-82319761D01*
X128309285Y-82272142D01*
X128261666Y-82176904D01*
X128214047Y-81986428D01*
X128214047Y-81748333D01*
X128261666Y-81557857D01*
X128309285Y-81462619D01*
X128356904Y-81415000D01*
X128452142Y-81367380D01*
X108481857Y-87431571D02*
X108148523Y-87431571D01*
X108148523Y-87955380D02*
X108148523Y-86955380D01*
X108624714Y-86955380D01*
X109339000Y-87431571D02*
X109481857Y-87479190D01*
X109529476Y-87526809D01*
X109577095Y-87622047D01*
X109577095Y-87764904D01*
X109529476Y-87860142D01*
X109481857Y-87907761D01*
X109386619Y-87955380D01*
X109005666Y-87955380D01*
X109005666Y-86955380D01*
X109339000Y-86955380D01*
X109434238Y-87003000D01*
X109481857Y-87050619D01*
X109529476Y-87145857D01*
X109529476Y-87241095D01*
X109481857Y-87336333D01*
X109434238Y-87383952D01*
X109339000Y-87431571D01*
X109005666Y-87431571D01*
X142219371Y-61759838D02*
X142219371Y-61426504D01*
X142743180Y-61283647D02*
X142743180Y-61759838D01*
X141743180Y-61759838D01*
X141743180Y-61283647D01*
X142695561Y-60902695D02*
X142743180Y-60759838D01*
X142743180Y-60521742D01*
X142695561Y-60426504D01*
X142647942Y-60378885D01*
X142552704Y-60331266D01*
X142457466Y-60331266D01*
X142362228Y-60378885D01*
X142314609Y-60426504D01*
X142266990Y-60521742D01*
X142219371Y-60712219D01*
X142171752Y-60807457D01*
X142124133Y-60855076D01*
X142028895Y-60902695D01*
X141933657Y-60902695D01*
X141838419Y-60855076D01*
X141790800Y-60807457D01*
X141743180Y-60712219D01*
X141743180Y-60474123D01*
X141790800Y-60331266D01*
X141743180Y-60045552D02*
X141743180Y-59474123D01*
X142743180Y-59759838D02*
X141743180Y-59759838D01*
X141743180Y-58950314D02*
X141743180Y-58759838D01*
X141790800Y-58664600D01*
X141886038Y-58569361D01*
X142076514Y-58521742D01*
X142409847Y-58521742D01*
X142600323Y-58569361D01*
X142695561Y-58664600D01*
X142743180Y-58759838D01*
X142743180Y-58950314D01*
X142695561Y-59045552D01*
X142600323Y-59140790D01*
X142409847Y-59188409D01*
X142076514Y-59188409D01*
X141886038Y-59140790D01*
X141790800Y-59045552D01*
X141743180Y-58950314D01*
X142743180Y-58093171D02*
X141743180Y-58093171D01*
X141743180Y-57712219D01*
X141790800Y-57616980D01*
X141838419Y-57569361D01*
X141933657Y-57521742D01*
X142076514Y-57521742D01*
X142171752Y-57569361D01*
X142219371Y-57616980D01*
X142266990Y-57712219D01*
X142266990Y-58093171D01*
D14*
X138103428Y-64276514D02*
X138103428Y-63514514D01*
X138284857Y-63514514D01*
X138393714Y-63550800D01*
X138466285Y-63623371D01*
X138502571Y-63695942D01*
X138538857Y-63841085D01*
X138538857Y-63949942D01*
X138502571Y-64095085D01*
X138466285Y-64167657D01*
X138393714Y-64240228D01*
X138284857Y-64276514D01*
X138103428Y-64276514D01*
X138865428Y-64276514D02*
X138865428Y-63514514D01*
X139119428Y-64058800D01*
X139373428Y-63514514D01*
X139373428Y-64276514D01*
X139736285Y-64276514D02*
X139736285Y-63514514D01*
X140171714Y-64276514D01*
X140171714Y-63514514D01*
X140498285Y-63587085D02*
X140534571Y-63550800D01*
X140607142Y-63514514D01*
X140788571Y-63514514D01*
X140861142Y-63550800D01*
X140897428Y-63587085D01*
X140933714Y-63659657D01*
X140933714Y-63732228D01*
X140897428Y-63841085D01*
X140462000Y-64276514D01*
X140933714Y-64276514D01*
X141405428Y-63514514D02*
X141478000Y-63514514D01*
X141550571Y-63550800D01*
X141586857Y-63587085D01*
X141623142Y-63659657D01*
X141659428Y-63804800D01*
X141659428Y-63986228D01*
X141623142Y-64131371D01*
X141586857Y-64203942D01*
X141550571Y-64240228D01*
X141478000Y-64276514D01*
X141405428Y-64276514D01*
X141332857Y-64240228D01*
X141296571Y-64203942D01*
X141260285Y-64131371D01*
X141224000Y-63986228D01*
X141224000Y-63804800D01*
X141260285Y-63659657D01*
X141296571Y-63587085D01*
X141332857Y-63550800D01*
X141405428Y-63514514D01*
X141913428Y-63514514D02*
X142421428Y-63514514D01*
X142094857Y-64276514D01*
X143074571Y-63514514D02*
X142711714Y-63514514D01*
X142675428Y-63877371D01*
X142711714Y-63841085D01*
X142784285Y-63804800D01*
X142965714Y-63804800D01*
X143038285Y-63841085D01*
X143074571Y-63877371D01*
X143110857Y-63949942D01*
X143110857Y-64131371D01*
X143074571Y-64203942D01*
X143038285Y-64240228D01*
X142965714Y-64276514D01*
X142784285Y-64276514D01*
X142711714Y-64240228D01*
X142675428Y-64203942D01*
D12*
X139152380Y-62110714D02*
X139152380Y-61491666D01*
X139533333Y-61825000D01*
X139533333Y-61682142D01*
X139580952Y-61586904D01*
X139628571Y-61539285D01*
X139723809Y-61491666D01*
X139961904Y-61491666D01*
X140057142Y-61539285D01*
X140104761Y-61586904D01*
X140152380Y-61682142D01*
X140152380Y-61967857D01*
X140104761Y-62063095D01*
X140057142Y-62110714D01*
X139152380Y-61158333D02*
X139152380Y-60539285D01*
X139533333Y-60872619D01*
X139533333Y-60729761D01*
X139580952Y-60634523D01*
X139628571Y-60586904D01*
X139723809Y-60539285D01*
X139961904Y-60539285D01*
X140057142Y-60586904D01*
X140104761Y-60634523D01*
X140152380Y-60729761D01*
X140152380Y-61015476D01*
X140104761Y-61110714D01*
X140057142Y-61158333D01*
X139152380Y-59920238D02*
X139152380Y-59825000D01*
X139200000Y-59729761D01*
X139247619Y-59682142D01*
X139342857Y-59634523D01*
X139533333Y-59586904D01*
X139771428Y-59586904D01*
X139961904Y-59634523D01*
X140057142Y-59682142D01*
X140104761Y-59729761D01*
X140152380Y-59825000D01*
X140152380Y-59920238D01*
X140104761Y-60015476D01*
X140057142Y-60063095D01*
X139961904Y-60110714D01*
X139771428Y-60158333D01*
X139533333Y-60158333D01*
X139342857Y-60110714D01*
X139247619Y-60063095D01*
X139200000Y-60015476D01*
X139152380Y-59920238D01*
X140152380Y-58586904D02*
X139676190Y-58920238D01*
X140152380Y-59158333D02*
X139152380Y-59158333D01*
X139152380Y-58777380D01*
X139200000Y-58682142D01*
X139247619Y-58634523D01*
X139342857Y-58586904D01*
X139485714Y-58586904D01*
X139580952Y-58634523D01*
X139628571Y-58682142D01*
X139676190Y-58777380D01*
X139676190Y-59158333D01*
X127896880Y-111172357D02*
X127896880Y-111743785D01*
X127896880Y-111458071D02*
X126896880Y-111458071D01*
X127039738Y-111553309D01*
X127134976Y-111648547D01*
X127182595Y-111743785D01*
X127896880Y-110743785D02*
X126896880Y-110743785D01*
X127896880Y-110172357D01*
X126896880Y-110172357D01*
X127230214Y-109267595D02*
X127896880Y-109267595D01*
X126849261Y-109505690D02*
X127563547Y-109743785D01*
X127563547Y-109124738D01*
X127896880Y-108219976D02*
X127896880Y-108791404D01*
X127896880Y-108505690D02*
X126896880Y-108505690D01*
X127039738Y-108600928D01*
X127134976Y-108696166D01*
X127182595Y-108791404D01*
X127230214Y-107362833D02*
X127896880Y-107362833D01*
X126849261Y-107600928D02*
X127563547Y-107839023D01*
X127563547Y-107219976D01*
X127325452Y-106696166D02*
X127277833Y-106791404D01*
X127230214Y-106839023D01*
X127134976Y-106886642D01*
X127087357Y-106886642D01*
X126992119Y-106839023D01*
X126944500Y-106791404D01*
X126896880Y-106696166D01*
X126896880Y-106505690D01*
X126944500Y-106410452D01*
X126992119Y-106362833D01*
X127087357Y-106315214D01*
X127134976Y-106315214D01*
X127230214Y-106362833D01*
X127277833Y-106410452D01*
X127325452Y-106505690D01*
X127325452Y-106696166D01*
X127373071Y-106791404D01*
X127420690Y-106839023D01*
X127515928Y-106886642D01*
X127706404Y-106886642D01*
X127801642Y-106839023D01*
X127849261Y-106791404D01*
X127896880Y-106696166D01*
X127896880Y-106505690D01*
X127849261Y-106410452D01*
X127801642Y-106362833D01*
X127706404Y-106315214D01*
X127515928Y-106315214D01*
X127420690Y-106362833D01*
X127373071Y-106410452D01*
X127325452Y-106505690D01*
D13*
X92742657Y-102811942D02*
X93250657Y-102811942D01*
X93468371Y-103610228D02*
X92742657Y-103610228D01*
X92742657Y-102086228D01*
X93468371Y-102086228D01*
X94048942Y-103537657D02*
X94266657Y-103610228D01*
X94629514Y-103610228D01*
X94774657Y-103537657D01*
X94847228Y-103465085D01*
X94919800Y-103319942D01*
X94919800Y-103174800D01*
X94847228Y-103029657D01*
X94774657Y-102957085D01*
X94629514Y-102884514D01*
X94339228Y-102811942D01*
X94194085Y-102739371D01*
X94121514Y-102666800D01*
X94048942Y-102521657D01*
X94048942Y-102376514D01*
X94121514Y-102231371D01*
X94194085Y-102158800D01*
X94339228Y-102086228D01*
X94702085Y-102086228D01*
X94919800Y-102158800D01*
X96371228Y-103610228D02*
X95500371Y-103610228D01*
X95935800Y-103610228D02*
X95935800Y-102086228D01*
X95790657Y-102303942D01*
X95645514Y-102449085D01*
X95500371Y-102521657D01*
X97532371Y-102811942D02*
X97024371Y-102811942D01*
X97024371Y-103610228D02*
X97024371Y-102086228D01*
X97750085Y-102086228D01*
X61486142Y-84727142D02*
X61486142Y-84219142D01*
X62284428Y-84001428D02*
X62284428Y-84727142D01*
X60760428Y-84727142D01*
X60760428Y-84001428D01*
X62211857Y-83420857D02*
X62284428Y-83203142D01*
X62284428Y-82840285D01*
X62211857Y-82695142D01*
X62139285Y-82622571D01*
X61994142Y-82550000D01*
X61849000Y-82550000D01*
X61703857Y-82622571D01*
X61631285Y-82695142D01*
X61558714Y-82840285D01*
X61486142Y-83130571D01*
X61413571Y-83275714D01*
X61341000Y-83348285D01*
X61195857Y-83420857D01*
X61050714Y-83420857D01*
X60905571Y-83348285D01*
X60833000Y-83275714D01*
X60760428Y-83130571D01*
X60760428Y-82767714D01*
X60833000Y-82550000D01*
X62284428Y-81098571D02*
X62284428Y-81969428D01*
X62284428Y-81534000D02*
X60760428Y-81534000D01*
X60978142Y-81679142D01*
X61123285Y-81824285D01*
X61195857Y-81969428D01*
X61486142Y-79937428D02*
X61486142Y-80445428D01*
X62284428Y-80445428D02*
X60760428Y-80445428D01*
X60760428Y-79719714D01*
X61486142Y-66312142D02*
X61486142Y-65804142D01*
X62284428Y-65586428D02*
X62284428Y-66312142D01*
X60760428Y-66312142D01*
X60760428Y-65586428D01*
X62211857Y-65005857D02*
X62284428Y-64788142D01*
X62284428Y-64425285D01*
X62211857Y-64280142D01*
X62139285Y-64207571D01*
X61994142Y-64135000D01*
X61849000Y-64135000D01*
X61703857Y-64207571D01*
X61631285Y-64280142D01*
X61558714Y-64425285D01*
X61486142Y-64715571D01*
X61413571Y-64860714D01*
X61341000Y-64933285D01*
X61195857Y-65005857D01*
X61050714Y-65005857D01*
X60905571Y-64933285D01*
X60833000Y-64860714D01*
X60760428Y-64715571D01*
X60760428Y-64352714D01*
X60833000Y-64135000D01*
X62284428Y-62683571D02*
X62284428Y-63554428D01*
X62284428Y-63119000D02*
X60760428Y-63119000D01*
X60978142Y-63264142D01*
X61123285Y-63409285D01*
X61195857Y-63554428D01*
X61486142Y-61522428D02*
X61486142Y-62030428D01*
X62284428Y-62030428D02*
X60760428Y-62030428D01*
X60760428Y-61304714D01*
X63518142Y-94760142D02*
X63518142Y-94252142D01*
X64316428Y-94034428D02*
X64316428Y-94760142D01*
X62792428Y-94760142D01*
X62792428Y-94034428D01*
X64243857Y-93453857D02*
X64316428Y-93236142D01*
X64316428Y-92873285D01*
X64243857Y-92728142D01*
X64171285Y-92655571D01*
X64026142Y-92583000D01*
X63881000Y-92583000D01*
X63735857Y-92655571D01*
X63663285Y-92728142D01*
X63590714Y-92873285D01*
X63518142Y-93163571D01*
X63445571Y-93308714D01*
X63373000Y-93381285D01*
X63227857Y-93453857D01*
X63082714Y-93453857D01*
X62937571Y-93381285D01*
X62865000Y-93308714D01*
X62792428Y-93163571D01*
X62792428Y-92800714D01*
X62865000Y-92583000D01*
X64316428Y-91131571D02*
X64316428Y-92002428D01*
X64316428Y-91567000D02*
X62792428Y-91567000D01*
X63010142Y-91712142D01*
X63155285Y-91857285D01*
X63227857Y-92002428D01*
X63518142Y-89970428D02*
X63518142Y-90478428D01*
X64316428Y-90478428D02*
X62792428Y-90478428D01*
X62792428Y-89752714D01*
X61486142Y-58057142D02*
X61486142Y-57549142D01*
X62284428Y-57331428D02*
X62284428Y-58057142D01*
X60760428Y-58057142D01*
X60760428Y-57331428D01*
X62211857Y-56750857D02*
X62284428Y-56533142D01*
X62284428Y-56170285D01*
X62211857Y-56025142D01*
X62139285Y-55952571D01*
X61994142Y-55880000D01*
X61849000Y-55880000D01*
X61703857Y-55952571D01*
X61631285Y-56025142D01*
X61558714Y-56170285D01*
X61486142Y-56460571D01*
X61413571Y-56605714D01*
X61341000Y-56678285D01*
X61195857Y-56750857D01*
X61050714Y-56750857D01*
X60905571Y-56678285D01*
X60833000Y-56605714D01*
X60760428Y-56460571D01*
X60760428Y-56097714D01*
X60833000Y-55880000D01*
X62284428Y-54428571D02*
X62284428Y-55299428D01*
X62284428Y-54864000D02*
X60760428Y-54864000D01*
X60978142Y-55009142D01*
X61123285Y-55154285D01*
X61195857Y-55299428D01*
X61486142Y-53267428D02*
X61486142Y-53775428D01*
X62284428Y-53775428D02*
X60760428Y-53775428D01*
X60760428Y-53049714D01*
X61613142Y-51834142D02*
X61613142Y-51326142D01*
X62411428Y-51108428D02*
X62411428Y-51834142D01*
X60887428Y-51834142D01*
X60887428Y-51108428D01*
X62338857Y-50527857D02*
X62411428Y-50310142D01*
X62411428Y-49947285D01*
X62338857Y-49802142D01*
X62266285Y-49729571D01*
X62121142Y-49657000D01*
X61976000Y-49657000D01*
X61830857Y-49729571D01*
X61758285Y-49802142D01*
X61685714Y-49947285D01*
X61613142Y-50237571D01*
X61540571Y-50382714D01*
X61468000Y-50455285D01*
X61322857Y-50527857D01*
X61177714Y-50527857D01*
X61032571Y-50455285D01*
X60960000Y-50382714D01*
X60887428Y-50237571D01*
X60887428Y-49874714D01*
X60960000Y-49657000D01*
X62411428Y-48205571D02*
X62411428Y-49076428D01*
X62411428Y-48641000D02*
X60887428Y-48641000D01*
X61105142Y-48786142D01*
X61250285Y-48931285D01*
X61322857Y-49076428D01*
X61613142Y-47044428D02*
X61613142Y-47552428D01*
X62411428Y-47552428D02*
X60887428Y-47552428D01*
X60887428Y-46826714D01*
D16*
X87604952Y-121239666D02*
X87414476Y-121373000D01*
X87604952Y-121468238D02*
X87204952Y-121468238D01*
X87204952Y-121315857D01*
X87224000Y-121277761D01*
X87243047Y-121258714D01*
X87281142Y-121239666D01*
X87338285Y-121239666D01*
X87376380Y-121258714D01*
X87395428Y-121277761D01*
X87414476Y-121315857D01*
X87414476Y-121468238D01*
X87338285Y-120896809D02*
X87604952Y-120896809D01*
X87185904Y-120992047D02*
X87471619Y-121087285D01*
X87471619Y-120839666D01*
D12*
X109505380Y-106625238D02*
X110505380Y-106291904D01*
X109505380Y-105958571D01*
X110505380Y-105625238D02*
X109505380Y-105625238D01*
X110505380Y-105149047D02*
X109505380Y-105149047D01*
X110505380Y-104577619D01*
X109505380Y-104577619D01*
X107148380Y-106370333D02*
X107862666Y-106370333D01*
X108005523Y-106417952D01*
X108100761Y-106513190D01*
X108148380Y-106656047D01*
X108148380Y-106751285D01*
X108148380Y-105894142D02*
X107148380Y-105894142D01*
X107148380Y-105513190D01*
X107196000Y-105417952D01*
X107243619Y-105370333D01*
X107338857Y-105322714D01*
X107481714Y-105322714D01*
X107576952Y-105370333D01*
X107624571Y-105417952D01*
X107672190Y-105513190D01*
X107672190Y-105894142D01*
X108148380Y-104370333D02*
X108148380Y-104941761D01*
X108148380Y-104656047D02*
X107148380Y-104656047D01*
X107291238Y-104751285D01*
X107386476Y-104846523D01*
X107434095Y-104941761D01*
X81931095Y-106005380D02*
X82264428Y-107005380D01*
X82597761Y-106005380D01*
X83407285Y-107005380D02*
X82931095Y-107005380D01*
X82931095Y-106005380D01*
X83931095Y-106005380D02*
X84121571Y-106005380D01*
X84216809Y-106053000D01*
X84312047Y-106148238D01*
X84359666Y-106338714D01*
X84359666Y-106672047D01*
X84312047Y-106862523D01*
X84216809Y-106957761D01*
X84121571Y-107005380D01*
X83931095Y-107005380D01*
X83835857Y-106957761D01*
X83740619Y-106862523D01*
X83693000Y-106672047D01*
X83693000Y-106338714D01*
X83740619Y-106148238D01*
X83835857Y-106053000D01*
X83931095Y-106005380D01*
X85312047Y-106053000D02*
X85216809Y-106005380D01*
X85073952Y-106005380D01*
X84931095Y-106053000D01*
X84835857Y-106148238D01*
X84788238Y-106243476D01*
X84740619Y-106433952D01*
X84740619Y-106576809D01*
X84788238Y-106767285D01*
X84835857Y-106862523D01*
X84931095Y-106957761D01*
X85073952Y-107005380D01*
X85169190Y-107005380D01*
X85312047Y-106957761D01*
X85359666Y-106910142D01*
X85359666Y-106576809D01*
X85169190Y-106576809D01*
X82466085Y-108367580D02*
X82466085Y-109081866D01*
X82418466Y-109224723D01*
X82323228Y-109319961D01*
X82180371Y-109367580D01*
X82085133Y-109367580D01*
X82942276Y-109367580D02*
X82942276Y-108367580D01*
X83323228Y-108367580D01*
X83418466Y-108415200D01*
X83466085Y-108462819D01*
X83513704Y-108558057D01*
X83513704Y-108700914D01*
X83466085Y-108796152D01*
X83418466Y-108843771D01*
X83323228Y-108891390D01*
X82942276Y-108891390D01*
X84466085Y-109367580D02*
X83894657Y-109367580D01*
X84180371Y-109367580D02*
X84180371Y-108367580D01*
X84085133Y-108510438D01*
X83989895Y-108605676D01*
X83894657Y-108653295D01*
X85085133Y-108367580D02*
X85180371Y-108367580D01*
X85275609Y-108415200D01*
X85323228Y-108462819D01*
X85370847Y-108558057D01*
X85418466Y-108748533D01*
X85418466Y-108986628D01*
X85370847Y-109177104D01*
X85323228Y-109272342D01*
X85275609Y-109319961D01*
X85180371Y-109367580D01*
X85085133Y-109367580D01*
X84989895Y-109319961D01*
X84942276Y-109272342D01*
X84894657Y-109177104D01*
X84847038Y-108986628D01*
X84847038Y-108748533D01*
X84894657Y-108558057D01*
X84942276Y-108462819D01*
X84989895Y-108415200D01*
X85085133Y-108367580D01*
X86370847Y-109367580D02*
X85799419Y-109367580D01*
X86085133Y-109367580D02*
X86085133Y-108367580D01*
X85989895Y-108510438D01*
X85894657Y-108605676D01*
X85799419Y-108653295D01*
X83407333Y-97775380D02*
X83740666Y-98775380D01*
X84074000Y-97775380D01*
X84359714Y-98727761D02*
X84502571Y-98775380D01*
X84740666Y-98775380D01*
X84835904Y-98727761D01*
X84883523Y-98680142D01*
X84931142Y-98584904D01*
X84931142Y-98489666D01*
X84883523Y-98394428D01*
X84835904Y-98346809D01*
X84740666Y-98299190D01*
X84550190Y-98251571D01*
X84454952Y-98203952D01*
X84407333Y-98156333D01*
X84359714Y-98061095D01*
X84359714Y-97965857D01*
X84407333Y-97870619D01*
X84454952Y-97823000D01*
X84550190Y-97775380D01*
X84788285Y-97775380D01*
X84931142Y-97823000D01*
X85359714Y-98251571D02*
X85693047Y-98251571D01*
X85835904Y-98775380D02*
X85359714Y-98775380D01*
X85359714Y-97775380D01*
X85835904Y-97775380D01*
X86740666Y-98775380D02*
X86264476Y-98775380D01*
X86264476Y-97775380D01*
X84574285Y-102322380D02*
X84574285Y-103036666D01*
X84526666Y-103179523D01*
X84431428Y-103274761D01*
X84288571Y-103322380D01*
X84193333Y-103322380D01*
X85050476Y-103322380D02*
X85050476Y-102322380D01*
X85431428Y-102322380D01*
X85526666Y-102370000D01*
X85574285Y-102417619D01*
X85621904Y-102512857D01*
X85621904Y-102655714D01*
X85574285Y-102750952D01*
X85526666Y-102798571D01*
X85431428Y-102846190D01*
X85050476Y-102846190D01*
X86574285Y-103322380D02*
X86002857Y-103322380D01*
X86288571Y-103322380D02*
X86288571Y-102322380D01*
X86193333Y-102465238D01*
X86098095Y-102560476D01*
X86002857Y-102608095D01*
X87193333Y-102322380D02*
X87288571Y-102322380D01*
X87383809Y-102370000D01*
X87431428Y-102417619D01*
X87479047Y-102512857D01*
X87526666Y-102703333D01*
X87526666Y-102941428D01*
X87479047Y-103131904D01*
X87431428Y-103227142D01*
X87383809Y-103274761D01*
X87288571Y-103322380D01*
X87193333Y-103322380D01*
X87098095Y-103274761D01*
X87050476Y-103227142D01*
X87002857Y-103131904D01*
X86955238Y-102941428D01*
X86955238Y-102703333D01*
X87002857Y-102512857D01*
X87050476Y-102417619D01*
X87098095Y-102370000D01*
X87193333Y-102322380D01*
X87907619Y-102417619D02*
X87955238Y-102370000D01*
X88050476Y-102322380D01*
X88288571Y-102322380D01*
X88383809Y-102370000D01*
X88431428Y-102417619D01*
X88479047Y-102512857D01*
X88479047Y-102608095D01*
X88431428Y-102750952D01*
X87860000Y-103322380D01*
X88479047Y-103322380D01*
X100990738Y-103775380D02*
X100514547Y-103775380D01*
X100466928Y-104251571D01*
X100514547Y-104203952D01*
X100609785Y-104156333D01*
X100847880Y-104156333D01*
X100943119Y-104203952D01*
X100990738Y-104251571D01*
X101038357Y-104346809D01*
X101038357Y-104584904D01*
X100990738Y-104680142D01*
X100943119Y-104727761D01*
X100847880Y-104775380D01*
X100609785Y-104775380D01*
X100514547Y-104727761D01*
X100466928Y-104680142D01*
X101324071Y-103775380D02*
X101657404Y-104775380D01*
X101990738Y-103775380D01*
X102085976Y-104870619D02*
X102847880Y-104870619D01*
X103038357Y-104727761D02*
X103181214Y-104775380D01*
X103419309Y-104775380D01*
X103514547Y-104727761D01*
X103562166Y-104680142D01*
X103609785Y-104584904D01*
X103609785Y-104489666D01*
X103562166Y-104394428D01*
X103514547Y-104346809D01*
X103419309Y-104299190D01*
X103228833Y-104251571D01*
X103133595Y-104203952D01*
X103085976Y-104156333D01*
X103038357Y-104061095D01*
X103038357Y-103965857D01*
X103085976Y-103870619D01*
X103133595Y-103823000D01*
X103228833Y-103775380D01*
X103466928Y-103775380D01*
X103609785Y-103823000D01*
X104038357Y-104251571D02*
X104371690Y-104251571D01*
X104514547Y-104775380D02*
X104038357Y-104775380D01*
X104038357Y-103775380D01*
X104514547Y-103775380D01*
X105419309Y-104775380D02*
X104943119Y-104775380D01*
X104943119Y-103775380D01*
X101020785Y-106132380D02*
X101020785Y-106846666D01*
X100973166Y-106989523D01*
X100877928Y-107084761D01*
X100735071Y-107132380D01*
X100639833Y-107132380D01*
X101496976Y-107132380D02*
X101496976Y-106132380D01*
X101877928Y-106132380D01*
X101973166Y-106180000D01*
X102020785Y-106227619D01*
X102068404Y-106322857D01*
X102068404Y-106465714D01*
X102020785Y-106560952D01*
X101973166Y-106608571D01*
X101877928Y-106656190D01*
X101496976Y-106656190D01*
X102449357Y-106227619D02*
X102496976Y-106180000D01*
X102592214Y-106132380D01*
X102830309Y-106132380D01*
X102925547Y-106180000D01*
X102973166Y-106227619D01*
X103020785Y-106322857D01*
X103020785Y-106418095D01*
X102973166Y-106560952D01*
X102401738Y-107132380D01*
X103020785Y-107132380D01*
X103639833Y-106132380D02*
X103735071Y-106132380D01*
X103830309Y-106180000D01*
X103877928Y-106227619D01*
X103925547Y-106322857D01*
X103973166Y-106513333D01*
X103973166Y-106751428D01*
X103925547Y-106941904D01*
X103877928Y-107037142D01*
X103830309Y-107084761D01*
X103735071Y-107132380D01*
X103639833Y-107132380D01*
X103544595Y-107084761D01*
X103496976Y-107037142D01*
X103449357Y-106941904D01*
X103401738Y-106751428D01*
X103401738Y-106513333D01*
X103449357Y-106322857D01*
X103496976Y-106227619D01*
X103544595Y-106180000D01*
X103639833Y-106132380D01*
X104925547Y-107132380D02*
X104354119Y-107132380D01*
X104639833Y-107132380D02*
X104639833Y-106132380D01*
X104544595Y-106275238D01*
X104449357Y-106370476D01*
X104354119Y-106418095D01*
X134691380Y-71802238D02*
X133691380Y-71802238D01*
X133691380Y-71421285D01*
X133739000Y-71326047D01*
X133786619Y-71278428D01*
X133881857Y-71230809D01*
X134024714Y-71230809D01*
X134119952Y-71278428D01*
X134167571Y-71326047D01*
X134215190Y-71421285D01*
X134215190Y-71802238D01*
X133691380Y-70802238D02*
X134500904Y-70802238D01*
X134596142Y-70754619D01*
X134643761Y-70707000D01*
X134691380Y-70611761D01*
X134691380Y-70421285D01*
X134643761Y-70326047D01*
X134596142Y-70278428D01*
X134500904Y-70230809D01*
X133691380Y-70230809D01*
X134691380Y-69278428D02*
X134691380Y-69754619D01*
X133691380Y-69754619D01*
X134691380Y-68468904D02*
X134691380Y-68945095D01*
X133691380Y-68945095D01*
X133691380Y-68135571D02*
X134500904Y-68135571D01*
X134596142Y-68087952D01*
X134643761Y-68040333D01*
X134691380Y-67945095D01*
X134691380Y-67754619D01*
X134643761Y-67659380D01*
X134596142Y-67611761D01*
X134500904Y-67564142D01*
X133691380Y-67564142D01*
X134691380Y-67087952D02*
X133691380Y-67087952D01*
X133691380Y-66707000D01*
X133739000Y-66611761D01*
X133786619Y-66564142D01*
X133881857Y-66516523D01*
X134024714Y-66516523D01*
X134119952Y-66564142D01*
X134167571Y-66611761D01*
X134215190Y-66707000D01*
X134215190Y-67087952D01*
X134643761Y-66135571D02*
X134691380Y-65992714D01*
X134691380Y-65754619D01*
X134643761Y-65659380D01*
X134596142Y-65611761D01*
X134500904Y-65564142D01*
X134405666Y-65564142D01*
X134310428Y-65611761D01*
X134262809Y-65659380D01*
X134215190Y-65754619D01*
X134167571Y-65945095D01*
X134119952Y-66040333D01*
X134072333Y-66087952D01*
X133977095Y-66135571D01*
X133881857Y-66135571D01*
X133786619Y-66087952D01*
X133739000Y-66040333D01*
X133691380Y-65945095D01*
X133691380Y-65707000D01*
X133739000Y-65564142D01*
X136358380Y-70111714D02*
X137072666Y-70111714D01*
X137215523Y-70159333D01*
X137310761Y-70254571D01*
X137358380Y-70397428D01*
X137358380Y-70492666D01*
X137358380Y-69635523D02*
X136358380Y-69635523D01*
X136358380Y-69254571D01*
X136406000Y-69159333D01*
X136453619Y-69111714D01*
X136548857Y-69064095D01*
X136691714Y-69064095D01*
X136786952Y-69111714D01*
X136834571Y-69159333D01*
X136882190Y-69254571D01*
X136882190Y-69635523D01*
X136786952Y-68492666D02*
X136739333Y-68587904D01*
X136691714Y-68635523D01*
X136596476Y-68683142D01*
X136548857Y-68683142D01*
X136453619Y-68635523D01*
X136406000Y-68587904D01*
X136358380Y-68492666D01*
X136358380Y-68302190D01*
X136406000Y-68206952D01*
X136453619Y-68159333D01*
X136548857Y-68111714D01*
X136596476Y-68111714D01*
X136691714Y-68159333D01*
X136739333Y-68206952D01*
X136786952Y-68302190D01*
X136786952Y-68492666D01*
X136834571Y-68587904D01*
X136882190Y-68635523D01*
X136977428Y-68683142D01*
X137167904Y-68683142D01*
X137263142Y-68635523D01*
X137310761Y-68587904D01*
X137358380Y-68492666D01*
X137358380Y-68302190D01*
X137310761Y-68206952D01*
X137263142Y-68159333D01*
X137167904Y-68111714D01*
X136977428Y-68111714D01*
X136882190Y-68159333D01*
X136834571Y-68206952D01*
X136786952Y-68302190D01*
X136358380Y-67492666D02*
X136358380Y-67397428D01*
X136406000Y-67302190D01*
X136453619Y-67254571D01*
X136548857Y-67206952D01*
X136739333Y-67159333D01*
X136977428Y-67159333D01*
X137167904Y-67206952D01*
X137263142Y-67254571D01*
X137310761Y-67302190D01*
X137358380Y-67397428D01*
X137358380Y-67492666D01*
X137310761Y-67587904D01*
X137263142Y-67635523D01*
X137167904Y-67683142D01*
X136977428Y-67730761D01*
X136739333Y-67730761D01*
X136548857Y-67683142D01*
X136453619Y-67635523D01*
X136406000Y-67587904D01*
X136358380Y-67492666D01*
X137358380Y-66206952D02*
X137358380Y-66778380D01*
X137358380Y-66492666D02*
X136358380Y-66492666D01*
X136501238Y-66587904D01*
X136596476Y-66683142D01*
X136644095Y-66778380D01*
X94615095Y-48962761D02*
X94757952Y-49010380D01*
X94996047Y-49010380D01*
X95091285Y-48962761D01*
X95138904Y-48915142D01*
X95186523Y-48819904D01*
X95186523Y-48724666D01*
X95138904Y-48629428D01*
X95091285Y-48581809D01*
X94996047Y-48534190D01*
X94805571Y-48486571D01*
X94710333Y-48438952D01*
X94662714Y-48391333D01*
X94615095Y-48296095D01*
X94615095Y-48200857D01*
X94662714Y-48105619D01*
X94710333Y-48058000D01*
X94805571Y-48010380D01*
X95043666Y-48010380D01*
X95186523Y-48058000D01*
X96138904Y-49010380D02*
X95567476Y-49010380D01*
X95853190Y-49010380D02*
X95853190Y-48010380D01*
X95757952Y-48153238D01*
X95662714Y-48248476D01*
X95567476Y-48296095D01*
X95829380Y-45378476D02*
X94829380Y-45378476D01*
X95829380Y-44807047D02*
X95257952Y-45235619D01*
X94829380Y-44807047D02*
X95400809Y-45378476D01*
X94924619Y-44426095D02*
X94877000Y-44378476D01*
X94829380Y-44283238D01*
X94829380Y-44045142D01*
X94877000Y-43949904D01*
X94924619Y-43902285D01*
X95019857Y-43854666D01*
X95115095Y-43854666D01*
X95257952Y-43902285D01*
X95829380Y-44473714D01*
X95829380Y-43854666D01*
X94829380Y-43235619D02*
X94829380Y-43140380D01*
X94877000Y-43045142D01*
X94924619Y-42997523D01*
X95019857Y-42949904D01*
X95210333Y-42902285D01*
X95448428Y-42902285D01*
X95638904Y-42949904D01*
X95734142Y-42997523D01*
X95781761Y-43045142D01*
X95829380Y-43140380D01*
X95829380Y-43235619D01*
X95781761Y-43330857D01*
X95734142Y-43378476D01*
X95638904Y-43426095D01*
X95448428Y-43473714D01*
X95210333Y-43473714D01*
X95019857Y-43426095D01*
X94924619Y-43378476D01*
X94877000Y-43330857D01*
X94829380Y-43235619D01*
X95829380Y-41949904D02*
X95829380Y-42521333D01*
X95829380Y-42235619D02*
X94829380Y-42235619D01*
X94972238Y-42330857D01*
X95067476Y-42426095D01*
X95115095Y-42521333D01*
X97155095Y-48962761D02*
X97297952Y-49010380D01*
X97536047Y-49010380D01*
X97631285Y-48962761D01*
X97678904Y-48915142D01*
X97726523Y-48819904D01*
X97726523Y-48724666D01*
X97678904Y-48629428D01*
X97631285Y-48581809D01*
X97536047Y-48534190D01*
X97345571Y-48486571D01*
X97250333Y-48438952D01*
X97202714Y-48391333D01*
X97155095Y-48296095D01*
X97155095Y-48200857D01*
X97202714Y-48105619D01*
X97250333Y-48058000D01*
X97345571Y-48010380D01*
X97583666Y-48010380D01*
X97726523Y-48058000D01*
X98107476Y-48105619D02*
X98155095Y-48058000D01*
X98250333Y-48010380D01*
X98488428Y-48010380D01*
X98583666Y-48058000D01*
X98631285Y-48105619D01*
X98678904Y-48200857D01*
X98678904Y-48296095D01*
X98631285Y-48438952D01*
X98059857Y-49010380D01*
X98678904Y-49010380D01*
X98369380Y-45378476D02*
X97369380Y-45378476D01*
X98369380Y-44807047D02*
X97797952Y-45235619D01*
X97369380Y-44807047D02*
X97940809Y-45378476D01*
X97464619Y-44426095D02*
X97417000Y-44378476D01*
X97369380Y-44283238D01*
X97369380Y-44045142D01*
X97417000Y-43949904D01*
X97464619Y-43902285D01*
X97559857Y-43854666D01*
X97655095Y-43854666D01*
X97797952Y-43902285D01*
X98369380Y-44473714D01*
X98369380Y-43854666D01*
X97369380Y-43235619D02*
X97369380Y-43140380D01*
X97417000Y-43045142D01*
X97464619Y-42997523D01*
X97559857Y-42949904D01*
X97750333Y-42902285D01*
X97988428Y-42902285D01*
X98178904Y-42949904D01*
X98274142Y-42997523D01*
X98321761Y-43045142D01*
X98369380Y-43140380D01*
X98369380Y-43235619D01*
X98321761Y-43330857D01*
X98274142Y-43378476D01*
X98178904Y-43426095D01*
X97988428Y-43473714D01*
X97750333Y-43473714D01*
X97559857Y-43426095D01*
X97464619Y-43378476D01*
X97417000Y-43330857D01*
X97369380Y-43235619D01*
X97464619Y-42521333D02*
X97417000Y-42473714D01*
X97369380Y-42378476D01*
X97369380Y-42140380D01*
X97417000Y-42045142D01*
X97464619Y-41997523D01*
X97559857Y-41949904D01*
X97655095Y-41949904D01*
X97797952Y-41997523D01*
X98369380Y-42568952D01*
X98369380Y-41949904D01*
X99695095Y-48962761D02*
X99837952Y-49010380D01*
X100076047Y-49010380D01*
X100171285Y-48962761D01*
X100218904Y-48915142D01*
X100266523Y-48819904D01*
X100266523Y-48724666D01*
X100218904Y-48629428D01*
X100171285Y-48581809D01*
X100076047Y-48534190D01*
X99885571Y-48486571D01*
X99790333Y-48438952D01*
X99742714Y-48391333D01*
X99695095Y-48296095D01*
X99695095Y-48200857D01*
X99742714Y-48105619D01*
X99790333Y-48058000D01*
X99885571Y-48010380D01*
X100123666Y-48010380D01*
X100266523Y-48058000D01*
X100599857Y-48010380D02*
X101218904Y-48010380D01*
X100885571Y-48391333D01*
X101028428Y-48391333D01*
X101123666Y-48438952D01*
X101171285Y-48486571D01*
X101218904Y-48581809D01*
X101218904Y-48819904D01*
X101171285Y-48915142D01*
X101123666Y-48962761D01*
X101028428Y-49010380D01*
X100742714Y-49010380D01*
X100647476Y-48962761D01*
X100599857Y-48915142D01*
X100909380Y-45378476D02*
X99909380Y-45378476D01*
X100909380Y-44807047D02*
X100337952Y-45235619D01*
X99909380Y-44807047D02*
X100480809Y-45378476D01*
X100004619Y-44426095D02*
X99957000Y-44378476D01*
X99909380Y-44283238D01*
X99909380Y-44045142D01*
X99957000Y-43949904D01*
X100004619Y-43902285D01*
X100099857Y-43854666D01*
X100195095Y-43854666D01*
X100337952Y-43902285D01*
X100909380Y-44473714D01*
X100909380Y-43854666D01*
X99909380Y-43235619D02*
X99909380Y-43140380D01*
X99957000Y-43045142D01*
X100004619Y-42997523D01*
X100099857Y-42949904D01*
X100290333Y-42902285D01*
X100528428Y-42902285D01*
X100718904Y-42949904D01*
X100814142Y-42997523D01*
X100861761Y-43045142D01*
X100909380Y-43140380D01*
X100909380Y-43235619D01*
X100861761Y-43330857D01*
X100814142Y-43378476D01*
X100718904Y-43426095D01*
X100528428Y-43473714D01*
X100290333Y-43473714D01*
X100099857Y-43426095D01*
X100004619Y-43378476D01*
X99957000Y-43330857D01*
X99909380Y-43235619D01*
X99909380Y-42568952D02*
X99909380Y-41949904D01*
X100290333Y-42283238D01*
X100290333Y-42140380D01*
X100337952Y-42045142D01*
X100385571Y-41997523D01*
X100480809Y-41949904D01*
X100718904Y-41949904D01*
X100814142Y-41997523D01*
X100861761Y-42045142D01*
X100909380Y-42140380D01*
X100909380Y-42426095D01*
X100861761Y-42521333D01*
X100814142Y-42568952D01*
X102235095Y-48962761D02*
X102377952Y-49010380D01*
X102616047Y-49010380D01*
X102711285Y-48962761D01*
X102758904Y-48915142D01*
X102806523Y-48819904D01*
X102806523Y-48724666D01*
X102758904Y-48629428D01*
X102711285Y-48581809D01*
X102616047Y-48534190D01*
X102425571Y-48486571D01*
X102330333Y-48438952D01*
X102282714Y-48391333D01*
X102235095Y-48296095D01*
X102235095Y-48200857D01*
X102282714Y-48105619D01*
X102330333Y-48058000D01*
X102425571Y-48010380D01*
X102663666Y-48010380D01*
X102806523Y-48058000D01*
X103663666Y-48343714D02*
X103663666Y-49010380D01*
X103425571Y-47962761D02*
X103187476Y-48677047D01*
X103806523Y-48677047D01*
X103449380Y-45378476D02*
X102449380Y-45378476D01*
X103449380Y-44807047D02*
X102877952Y-45235619D01*
X102449380Y-44807047D02*
X103020809Y-45378476D01*
X102544619Y-44426095D02*
X102497000Y-44378476D01*
X102449380Y-44283238D01*
X102449380Y-44045142D01*
X102497000Y-43949904D01*
X102544619Y-43902285D01*
X102639857Y-43854666D01*
X102735095Y-43854666D01*
X102877952Y-43902285D01*
X103449380Y-44473714D01*
X103449380Y-43854666D01*
X102449380Y-43235619D02*
X102449380Y-43140380D01*
X102497000Y-43045142D01*
X102544619Y-42997523D01*
X102639857Y-42949904D01*
X102830333Y-42902285D01*
X103068428Y-42902285D01*
X103258904Y-42949904D01*
X103354142Y-42997523D01*
X103401761Y-43045142D01*
X103449380Y-43140380D01*
X103449380Y-43235619D01*
X103401761Y-43330857D01*
X103354142Y-43378476D01*
X103258904Y-43426095D01*
X103068428Y-43473714D01*
X102830333Y-43473714D01*
X102639857Y-43426095D01*
X102544619Y-43378476D01*
X102497000Y-43330857D01*
X102449380Y-43235619D01*
X102782714Y-42045142D02*
X103449380Y-42045142D01*
X102401761Y-42283238D02*
X103116047Y-42521333D01*
X103116047Y-41902285D01*
X121529561Y-98445714D02*
X121577180Y-98302857D01*
X121577180Y-98064761D01*
X121529561Y-97969523D01*
X121481942Y-97921904D01*
X121386704Y-97874285D01*
X121291466Y-97874285D01*
X121196228Y-97921904D01*
X121148609Y-97969523D01*
X121100990Y-98064761D01*
X121053371Y-98255238D01*
X121005752Y-98350476D01*
X120958133Y-98398095D01*
X120862895Y-98445714D01*
X120767657Y-98445714D01*
X120672419Y-98398095D01*
X120624800Y-98350476D01*
X120577180Y-98255238D01*
X120577180Y-98017142D01*
X120624800Y-97874285D01*
X121053371Y-97445714D02*
X121053371Y-97112380D01*
X121577180Y-96969523D02*
X121577180Y-97445714D01*
X120577180Y-97445714D01*
X120577180Y-96969523D01*
X121577180Y-95969523D02*
X121100990Y-96302857D01*
X121577180Y-96540952D02*
X120577180Y-96540952D01*
X120577180Y-96160000D01*
X120624800Y-96064761D01*
X120672419Y-96017142D01*
X120767657Y-95969523D01*
X120910514Y-95969523D01*
X121005752Y-96017142D01*
X121053371Y-96064761D01*
X121100990Y-96160000D01*
X121100990Y-96540952D01*
X121577180Y-95540952D02*
X120577180Y-95540952D01*
X121291466Y-95112380D02*
X121291466Y-94636190D01*
X121577180Y-95207619D02*
X120577180Y-94874285D01*
X121577180Y-94540952D01*
X121577180Y-93731428D02*
X121577180Y-94207619D01*
X120577180Y-94207619D01*
X121577180Y-92874285D02*
X121577180Y-93445714D01*
X121577180Y-93160000D02*
X120577180Y-93160000D01*
X120720038Y-93255238D01*
X120815276Y-93350476D01*
X120862895Y-93445714D01*
X123693180Y-96115095D02*
X122693180Y-96115095D01*
X122693180Y-95734142D01*
X122740800Y-95638904D01*
X122788419Y-95591285D01*
X122883657Y-95543666D01*
X123026514Y-95543666D01*
X123121752Y-95591285D01*
X123169371Y-95638904D01*
X123216990Y-95734142D01*
X123216990Y-96115095D01*
X123693180Y-94591285D02*
X123693180Y-95162714D01*
X123693180Y-94877000D02*
X122693180Y-94877000D01*
X122836038Y-94972238D01*
X122931276Y-95067476D01*
X122978895Y-95162714D01*
X65252571Y-42275380D02*
X65252571Y-41275380D01*
X65681142Y-41370619D02*
X65728761Y-41323000D01*
X65824000Y-41275380D01*
X66062095Y-41275380D01*
X66157333Y-41323000D01*
X66204952Y-41370619D01*
X66252571Y-41465857D01*
X66252571Y-41561095D01*
X66204952Y-41703952D01*
X65633523Y-42275380D01*
X66252571Y-42275380D01*
X67252571Y-42180142D02*
X67204952Y-42227761D01*
X67062095Y-42275380D01*
X66966857Y-42275380D01*
X66824000Y-42227761D01*
X66728761Y-42132523D01*
X66681142Y-42037285D01*
X66633523Y-41846809D01*
X66633523Y-41703952D01*
X66681142Y-41513476D01*
X66728761Y-41418238D01*
X66824000Y-41323000D01*
X66966857Y-41275380D01*
X67062095Y-41275380D01*
X67204952Y-41323000D01*
X67252571Y-41370619D01*
X67681142Y-41894428D02*
X68443047Y-41894428D01*
X69443047Y-42275380D02*
X68871619Y-42275380D01*
X69157333Y-42275380D02*
X69157333Y-41275380D01*
X69062095Y-41418238D01*
X68966857Y-41513476D01*
X68871619Y-41561095D01*
X74191904Y-42362380D02*
X74191904Y-41362380D01*
X74572857Y-41362380D01*
X74668095Y-41410000D01*
X74715714Y-41457619D01*
X74763333Y-41552857D01*
X74763333Y-41695714D01*
X74715714Y-41790952D01*
X74668095Y-41838571D01*
X74572857Y-41886190D01*
X74191904Y-41886190D01*
X75144285Y-41457619D02*
X75191904Y-41410000D01*
X75287142Y-41362380D01*
X75525238Y-41362380D01*
X75620476Y-41410000D01*
X75668095Y-41457619D01*
X75715714Y-41552857D01*
X75715714Y-41648095D01*
X75668095Y-41790952D01*
X75096666Y-42362380D01*
X75715714Y-42362380D01*
X145121619Y-135775380D02*
X144788285Y-135299190D01*
X144550190Y-135775380D02*
X144550190Y-134775380D01*
X144931142Y-134775380D01*
X145026380Y-134823000D01*
X145074000Y-134870619D01*
X145121619Y-134965857D01*
X145121619Y-135108714D01*
X145074000Y-135203952D01*
X145026380Y-135251571D01*
X144931142Y-135299190D01*
X144550190Y-135299190D01*
X145550190Y-135251571D02*
X145883523Y-135251571D01*
X146026380Y-135775380D02*
X145550190Y-135775380D01*
X145550190Y-134775380D01*
X146026380Y-134775380D01*
X146407333Y-135727761D02*
X146550190Y-135775380D01*
X146788285Y-135775380D01*
X146883523Y-135727761D01*
X146931142Y-135680142D01*
X146978761Y-135584904D01*
X146978761Y-135489666D01*
X146931142Y-135394428D01*
X146883523Y-135346809D01*
X146788285Y-135299190D01*
X146597809Y-135251571D01*
X146502571Y-135203952D01*
X146454952Y-135156333D01*
X146407333Y-135061095D01*
X146407333Y-134965857D01*
X146454952Y-134870619D01*
X146502571Y-134823000D01*
X146597809Y-134775380D01*
X146835904Y-134775380D01*
X146978761Y-134823000D01*
X147407333Y-135251571D02*
X147740666Y-135251571D01*
X147883523Y-135775380D02*
X147407333Y-135775380D01*
X147407333Y-134775380D01*
X147883523Y-134775380D01*
X148169238Y-134775380D02*
X148740666Y-134775380D01*
X148454952Y-135775380D02*
X148454952Y-134775380D01*
X144994523Y-137912100D02*
X144994523Y-136912100D01*
X145375476Y-136912100D01*
X145470714Y-136959720D01*
X145518333Y-137007339D01*
X145565952Y-137102577D01*
X145565952Y-137245434D01*
X145518333Y-137340672D01*
X145470714Y-137388291D01*
X145375476Y-137435910D01*
X144994523Y-137435910D01*
X146518333Y-137912100D02*
X145946904Y-137912100D01*
X146232619Y-137912100D02*
X146232619Y-136912100D01*
X146137380Y-137054958D01*
X146042142Y-137150196D01*
X145946904Y-137197815D01*
X147137380Y-136912100D02*
X147232619Y-136912100D01*
X147327857Y-136959720D01*
X147375476Y-137007339D01*
X147423095Y-137102577D01*
X147470714Y-137293053D01*
X147470714Y-137531148D01*
X147423095Y-137721624D01*
X147375476Y-137816862D01*
X147327857Y-137864481D01*
X147232619Y-137912100D01*
X147137380Y-137912100D01*
X147042142Y-137864481D01*
X146994523Y-137816862D01*
X146946904Y-137721624D01*
X146899285Y-137531148D01*
X146899285Y-137293053D01*
X146946904Y-137102577D01*
X146994523Y-137007339D01*
X147042142Y-136959720D01*
X147137380Y-136912100D01*
X147851666Y-137007339D02*
X147899285Y-136959720D01*
X147994523Y-136912100D01*
X148232619Y-136912100D01*
X148327857Y-136959720D01*
X148375476Y-137007339D01*
X148423095Y-137102577D01*
X148423095Y-137197815D01*
X148375476Y-137340672D01*
X147804047Y-137912100D01*
X148423095Y-137912100D01*
X132752571Y-41275380D02*
X132752571Y-40275380D01*
X133181142Y-40370619D02*
X133228761Y-40323000D01*
X133324000Y-40275380D01*
X133562095Y-40275380D01*
X133657333Y-40323000D01*
X133704952Y-40370619D01*
X133752571Y-40465857D01*
X133752571Y-40561095D01*
X133704952Y-40703952D01*
X133133523Y-41275380D01*
X133752571Y-41275380D01*
X134752571Y-41180142D02*
X134704952Y-41227761D01*
X134562095Y-41275380D01*
X134466857Y-41275380D01*
X134324000Y-41227761D01*
X134228761Y-41132523D01*
X134181142Y-41037285D01*
X134133523Y-40846809D01*
X134133523Y-40703952D01*
X134181142Y-40513476D01*
X134228761Y-40418238D01*
X134324000Y-40323000D01*
X134466857Y-40275380D01*
X134562095Y-40275380D01*
X134704952Y-40323000D01*
X134752571Y-40370619D01*
X135181142Y-40894428D02*
X135943047Y-40894428D01*
X136609714Y-40275380D02*
X136704952Y-40275380D01*
X136800190Y-40323000D01*
X136847809Y-40370619D01*
X136895428Y-40465857D01*
X136943047Y-40656333D01*
X136943047Y-40894428D01*
X136895428Y-41084904D01*
X136847809Y-41180142D01*
X136800190Y-41227761D01*
X136704952Y-41275380D01*
X136609714Y-41275380D01*
X136514476Y-41227761D01*
X136466857Y-41180142D01*
X136419238Y-41084904D01*
X136371619Y-40894428D01*
X136371619Y-40656333D01*
X136419238Y-40465857D01*
X136466857Y-40370619D01*
X136514476Y-40323000D01*
X136609714Y-40275380D01*
X132929523Y-43632380D02*
X132929523Y-42632380D01*
X133310476Y-42632380D01*
X133405714Y-42680000D01*
X133453333Y-42727619D01*
X133500952Y-42822857D01*
X133500952Y-42965714D01*
X133453333Y-43060952D01*
X133405714Y-43108571D01*
X133310476Y-43156190D01*
X132929523Y-43156190D01*
X133881904Y-42727619D02*
X133929523Y-42680000D01*
X134024761Y-42632380D01*
X134262857Y-42632380D01*
X134358095Y-42680000D01*
X134405714Y-42727619D01*
X134453333Y-42822857D01*
X134453333Y-42918095D01*
X134405714Y-43060952D01*
X133834285Y-43632380D01*
X134453333Y-43632380D01*
X135405714Y-43632380D02*
X134834285Y-43632380D01*
X135120000Y-43632380D02*
X135120000Y-42632380D01*
X135024761Y-42775238D01*
X134929523Y-42870476D01*
X134834285Y-42918095D01*
X136358095Y-43632380D02*
X135786666Y-43632380D01*
X136072380Y-43632380D02*
X136072380Y-42632380D01*
X135977142Y-42775238D01*
X135881904Y-42870476D01*
X135786666Y-42918095D01*
X151740666Y-99906333D02*
X151740666Y-99430142D01*
X152026380Y-100001571D02*
X151026380Y-99668238D01*
X152026380Y-99334904D01*
X151026380Y-99001571D02*
X151835904Y-99001571D01*
X151931142Y-98953952D01*
X151978761Y-98906333D01*
X152026380Y-98811095D01*
X152026380Y-98620619D01*
X151978761Y-98525380D01*
X151931142Y-98477761D01*
X151835904Y-98430142D01*
X151026380Y-98430142D01*
X151026380Y-98049190D02*
X152026380Y-97382523D01*
X151026380Y-97382523D02*
X152026380Y-98049190D01*
X151645428Y-97001571D02*
X151645428Y-96239666D01*
X151359714Y-95334904D02*
X152026380Y-95334904D01*
X150978761Y-95573000D02*
X151693047Y-95811095D01*
X151693047Y-95192047D01*
X150312380Y-99480476D02*
X149312380Y-99480476D01*
X149312380Y-99099523D01*
X149360000Y-99004285D01*
X149407619Y-98956666D01*
X149502857Y-98909047D01*
X149645714Y-98909047D01*
X149740952Y-98956666D01*
X149788571Y-99004285D01*
X149836190Y-99099523D01*
X149836190Y-99480476D01*
X149407619Y-98528095D02*
X149360000Y-98480476D01*
X149312380Y-98385238D01*
X149312380Y-98147142D01*
X149360000Y-98051904D01*
X149407619Y-98004285D01*
X149502857Y-97956666D01*
X149598095Y-97956666D01*
X149740952Y-98004285D01*
X150312380Y-98575714D01*
X150312380Y-97956666D01*
X150312380Y-97004285D02*
X150312380Y-97575714D01*
X150312380Y-97290000D02*
X149312380Y-97290000D01*
X149455238Y-97385238D01*
X149550476Y-97480476D01*
X149598095Y-97575714D01*
X149312380Y-96670952D02*
X149312380Y-96051904D01*
X149693333Y-96385238D01*
X149693333Y-96242380D01*
X149740952Y-96147142D01*
X149788571Y-96099523D01*
X149883809Y-96051904D01*
X150121904Y-96051904D01*
X150217142Y-96099523D01*
X150264761Y-96147142D01*
X150312380Y-96242380D01*
X150312380Y-96528095D01*
X150264761Y-96623333D01*
X150217142Y-96670952D01*
X71538285Y-47227761D02*
X71681142Y-47275380D01*
X71919238Y-47275380D01*
X72014476Y-47227761D01*
X72062095Y-47180142D01*
X72109714Y-47084904D01*
X72109714Y-46989666D01*
X72062095Y-46894428D01*
X72014476Y-46846809D01*
X71919238Y-46799190D01*
X71728761Y-46751571D01*
X71633523Y-46703952D01*
X71585904Y-46656333D01*
X71538285Y-46561095D01*
X71538285Y-46465857D01*
X71585904Y-46370619D01*
X71633523Y-46323000D01*
X71728761Y-46275380D01*
X71966857Y-46275380D01*
X72109714Y-46323000D01*
X72538285Y-46751571D02*
X72871619Y-46751571D01*
X73014476Y-47275380D02*
X72538285Y-47275380D01*
X72538285Y-46275380D01*
X73014476Y-46275380D01*
X74014476Y-47275380D02*
X73681142Y-46799190D01*
X73443047Y-47275380D02*
X73443047Y-46275380D01*
X73824000Y-46275380D01*
X73919238Y-46323000D01*
X73966857Y-46370619D01*
X74014476Y-46465857D01*
X74014476Y-46608714D01*
X73966857Y-46703952D01*
X73919238Y-46751571D01*
X73824000Y-46799190D01*
X73443047Y-46799190D01*
X74443047Y-47275380D02*
X74443047Y-46275380D01*
X74871619Y-46989666D02*
X75347809Y-46989666D01*
X74776380Y-47275380D02*
X75109714Y-46275380D01*
X75443047Y-47275380D01*
X76252571Y-47275380D02*
X75776380Y-47275380D01*
X75776380Y-46275380D01*
X76776380Y-46275380D02*
X76871619Y-46275380D01*
X76966857Y-46323000D01*
X77014476Y-46370619D01*
X77062095Y-46465857D01*
X77109714Y-46656333D01*
X77109714Y-46894428D01*
X77062095Y-47084904D01*
X77014476Y-47180142D01*
X76966857Y-47227761D01*
X76871619Y-47275380D01*
X76776380Y-47275380D01*
X76681142Y-47227761D01*
X76633523Y-47180142D01*
X76585904Y-47084904D01*
X76538285Y-46894428D01*
X76538285Y-46656333D01*
X76585904Y-46465857D01*
X76633523Y-46370619D01*
X76681142Y-46323000D01*
X76776380Y-46275380D01*
X70699523Y-44902380D02*
X70699523Y-43902380D01*
X71080476Y-43902380D01*
X71175714Y-43950000D01*
X71223333Y-43997619D01*
X71270952Y-44092857D01*
X71270952Y-44235714D01*
X71223333Y-44330952D01*
X71175714Y-44378571D01*
X71080476Y-44426190D01*
X70699523Y-44426190D01*
X71651904Y-43997619D02*
X71699523Y-43950000D01*
X71794761Y-43902380D01*
X72032857Y-43902380D01*
X72128095Y-43950000D01*
X72175714Y-43997619D01*
X72223333Y-44092857D01*
X72223333Y-44188095D01*
X72175714Y-44330952D01*
X71604285Y-44902380D01*
X72223333Y-44902380D01*
X73175714Y-44902380D02*
X72604285Y-44902380D01*
X72890000Y-44902380D02*
X72890000Y-43902380D01*
X72794761Y-44045238D01*
X72699523Y-44140476D01*
X72604285Y-44188095D01*
X74032857Y-43902380D02*
X73842380Y-43902380D01*
X73747142Y-43950000D01*
X73699523Y-43997619D01*
X73604285Y-44140476D01*
X73556666Y-44330952D01*
X73556666Y-44711904D01*
X73604285Y-44807142D01*
X73651904Y-44854761D01*
X73747142Y-44902380D01*
X73937619Y-44902380D01*
X74032857Y-44854761D01*
X74080476Y-44807142D01*
X74128095Y-44711904D01*
X74128095Y-44473809D01*
X74080476Y-44378571D01*
X74032857Y-44330952D01*
X73937619Y-44283333D01*
X73747142Y-44283333D01*
X73651904Y-44330952D01*
X73604285Y-44378571D01*
X73556666Y-44473809D01*
X142776380Y-73501571D02*
X142776380Y-72930142D01*
X143776380Y-73215857D02*
X142776380Y-73215857D01*
X143776380Y-72596809D02*
X142776380Y-72596809D01*
X143252571Y-72596809D02*
X143252571Y-72025380D01*
X143776380Y-72025380D02*
X142776380Y-72025380D01*
X143252571Y-71549190D02*
X143252571Y-71215857D01*
X143776380Y-71073000D02*
X143776380Y-71549190D01*
X142776380Y-71549190D01*
X142776380Y-71073000D01*
X143776380Y-70073000D02*
X143300190Y-70406333D01*
X143776380Y-70644428D02*
X142776380Y-70644428D01*
X142776380Y-70263476D01*
X142824000Y-70168238D01*
X142871619Y-70120619D01*
X142966857Y-70073000D01*
X143109714Y-70073000D01*
X143204952Y-70120619D01*
X143252571Y-70168238D01*
X143300190Y-70263476D01*
X143300190Y-70644428D01*
X143776380Y-69644428D02*
X142776380Y-69644428D01*
X143490666Y-69311095D01*
X142776380Y-68977761D01*
X143776380Y-68977761D01*
X143776380Y-68501571D02*
X142776380Y-68501571D01*
X143728761Y-68073000D02*
X143776380Y-67930142D01*
X143776380Y-67692047D01*
X143728761Y-67596809D01*
X143681142Y-67549190D01*
X143585904Y-67501571D01*
X143490666Y-67501571D01*
X143395428Y-67549190D01*
X143347809Y-67596809D01*
X143300190Y-67692047D01*
X143252571Y-67882523D01*
X143204952Y-67977761D01*
X143157333Y-68025380D01*
X143062095Y-68073000D01*
X142966857Y-68073000D01*
X142871619Y-68025380D01*
X142824000Y-67977761D01*
X142776380Y-67882523D01*
X142776380Y-67644428D01*
X142824000Y-67501571D01*
X142776380Y-67215857D02*
X142776380Y-66644428D01*
X143776380Y-66930142D02*
X142776380Y-66930142D01*
X142776380Y-66120619D02*
X142776380Y-65930142D01*
X142824000Y-65834904D01*
X142919238Y-65739666D01*
X143109714Y-65692047D01*
X143443047Y-65692047D01*
X143633523Y-65739666D01*
X143728761Y-65834904D01*
X143776380Y-65930142D01*
X143776380Y-66120619D01*
X143728761Y-66215857D01*
X143633523Y-66311095D01*
X143443047Y-66358714D01*
X143109714Y-66358714D01*
X142919238Y-66311095D01*
X142824000Y-66215857D01*
X142776380Y-66120619D01*
X143776380Y-64692047D02*
X143300190Y-65025380D01*
X143776380Y-65263476D02*
X142776380Y-65263476D01*
X142776380Y-64882523D01*
X142824000Y-64787285D01*
X142871619Y-64739666D01*
X142966857Y-64692047D01*
X143109714Y-64692047D01*
X143204952Y-64739666D01*
X143252571Y-64787285D01*
X143300190Y-64882523D01*
X143300190Y-65263476D01*
X143728761Y-64311095D02*
X143776380Y-64168238D01*
X143776380Y-63930142D01*
X143728761Y-63834904D01*
X143681142Y-63787285D01*
X143585904Y-63739666D01*
X143490666Y-63739666D01*
X143395428Y-63787285D01*
X143347809Y-63834904D01*
X143300190Y-63930142D01*
X143252571Y-64120619D01*
X143204952Y-64215857D01*
X143157333Y-64263476D01*
X143062095Y-64311095D01*
X142966857Y-64311095D01*
X142871619Y-64263476D01*
X142824000Y-64215857D01*
X142776380Y-64120619D01*
X142776380Y-63882523D01*
X142824000Y-63739666D01*
X149042380Y-70270476D02*
X148042380Y-70270476D01*
X148042380Y-69889523D01*
X148090000Y-69794285D01*
X148137619Y-69746666D01*
X148232857Y-69699047D01*
X148375714Y-69699047D01*
X148470952Y-69746666D01*
X148518571Y-69794285D01*
X148566190Y-69889523D01*
X148566190Y-70270476D01*
X148042380Y-69365714D02*
X148042380Y-68746666D01*
X148423333Y-69080000D01*
X148423333Y-68937142D01*
X148470952Y-68841904D01*
X148518571Y-68794285D01*
X148613809Y-68746666D01*
X148851904Y-68746666D01*
X148947142Y-68794285D01*
X148994761Y-68841904D01*
X149042380Y-68937142D01*
X149042380Y-69222857D01*
X148994761Y-69318095D01*
X148947142Y-69365714D01*
X148042380Y-68127619D02*
X148042380Y-68032380D01*
X148090000Y-67937142D01*
X148137619Y-67889523D01*
X148232857Y-67841904D01*
X148423333Y-67794285D01*
X148661428Y-67794285D01*
X148851904Y-67841904D01*
X148947142Y-67889523D01*
X148994761Y-67937142D01*
X149042380Y-68032380D01*
X149042380Y-68127619D01*
X148994761Y-68222857D01*
X148947142Y-68270476D01*
X148851904Y-68318095D01*
X148661428Y-68365714D01*
X148423333Y-68365714D01*
X148232857Y-68318095D01*
X148137619Y-68270476D01*
X148090000Y-68222857D01*
X148042380Y-68127619D01*
X149042380Y-66841904D02*
X149042380Y-67413333D01*
X149042380Y-67127619D02*
X148042380Y-67127619D01*
X148185238Y-67222857D01*
X148280476Y-67318095D01*
X148328095Y-67413333D01*
X142317971Y-54918238D02*
X142317971Y-54584904D01*
X142841780Y-54442047D02*
X142841780Y-54918238D01*
X141841780Y-54918238D01*
X141841780Y-54442047D01*
X142841780Y-54013476D02*
X141841780Y-54013476D01*
X142841780Y-53442047D01*
X141841780Y-53442047D01*
X142841780Y-52965857D02*
X141841780Y-52965857D01*
X141841780Y-52727761D01*
X141889400Y-52584904D01*
X141984638Y-52489666D01*
X142079876Y-52442047D01*
X142270352Y-52394428D01*
X142413209Y-52394428D01*
X142603685Y-52442047D01*
X142698923Y-52489666D01*
X142794161Y-52584904D01*
X142841780Y-52727761D01*
X142841780Y-52965857D01*
X142794161Y-52013476D02*
X142841780Y-51870619D01*
X142841780Y-51632523D01*
X142794161Y-51537285D01*
X142746542Y-51489666D01*
X142651304Y-51442047D01*
X142556066Y-51442047D01*
X142460828Y-51489666D01*
X142413209Y-51537285D01*
X142365590Y-51632523D01*
X142317971Y-51823000D01*
X142270352Y-51918238D01*
X142222733Y-51965857D01*
X142127495Y-52013476D01*
X142032257Y-52013476D01*
X141937019Y-51965857D01*
X141889400Y-51918238D01*
X141841780Y-51823000D01*
X141841780Y-51584904D01*
X141889400Y-51442047D01*
X141841780Y-51156333D02*
X141841780Y-50584904D01*
X142841780Y-50870619D02*
X141841780Y-50870619D01*
X141841780Y-50061095D02*
X141841780Y-49870619D01*
X141889400Y-49775380D01*
X141984638Y-49680142D01*
X142175114Y-49632523D01*
X142508447Y-49632523D01*
X142698923Y-49680142D01*
X142794161Y-49775380D01*
X142841780Y-49870619D01*
X142841780Y-50061095D01*
X142794161Y-50156333D01*
X142698923Y-50251571D01*
X142508447Y-50299190D01*
X142175114Y-50299190D01*
X141984638Y-50251571D01*
X141889400Y-50156333D01*
X141841780Y-50061095D01*
X142841780Y-49203952D02*
X141841780Y-49203952D01*
X141841780Y-48823000D01*
X141889400Y-48727761D01*
X141937019Y-48680142D01*
X142032257Y-48632523D01*
X142175114Y-48632523D01*
X142270352Y-48680142D01*
X142317971Y-48727761D01*
X142365590Y-48823000D01*
X142365590Y-49203952D01*
X142794161Y-48251571D02*
X142841780Y-48108714D01*
X142841780Y-47870619D01*
X142794161Y-47775380D01*
X142746542Y-47727761D01*
X142651304Y-47680142D01*
X142556066Y-47680142D01*
X142460828Y-47727761D01*
X142413209Y-47775380D01*
X142365590Y-47870619D01*
X142317971Y-48061095D01*
X142270352Y-48156333D01*
X142222733Y-48203952D01*
X142127495Y-48251571D01*
X142032257Y-48251571D01*
X141937019Y-48203952D01*
X141889400Y-48156333D01*
X141841780Y-48061095D01*
X141841780Y-47823000D01*
X141889400Y-47680142D01*
X145130780Y-49188476D02*
X144130780Y-49188476D01*
X144130780Y-48807523D01*
X144178400Y-48712285D01*
X144226019Y-48664666D01*
X144321257Y-48617047D01*
X144464114Y-48617047D01*
X144559352Y-48664666D01*
X144606971Y-48712285D01*
X144654590Y-48807523D01*
X144654590Y-49188476D01*
X144559352Y-48045619D02*
X144511733Y-48140857D01*
X144464114Y-48188476D01*
X144368876Y-48236095D01*
X144321257Y-48236095D01*
X144226019Y-48188476D01*
X144178400Y-48140857D01*
X144130780Y-48045619D01*
X144130780Y-47855142D01*
X144178400Y-47759904D01*
X144226019Y-47712285D01*
X144321257Y-47664666D01*
X144368876Y-47664666D01*
X144464114Y-47712285D01*
X144511733Y-47759904D01*
X144559352Y-47855142D01*
X144559352Y-48045619D01*
X144606971Y-48140857D01*
X144654590Y-48188476D01*
X144749828Y-48236095D01*
X144940304Y-48236095D01*
X145035542Y-48188476D01*
X145083161Y-48140857D01*
X145130780Y-48045619D01*
X145130780Y-47855142D01*
X145083161Y-47759904D01*
X145035542Y-47712285D01*
X144940304Y-47664666D01*
X144749828Y-47664666D01*
X144654590Y-47712285D01*
X144606971Y-47759904D01*
X144559352Y-47855142D01*
X144130780Y-47045619D02*
X144130780Y-46950380D01*
X144178400Y-46855142D01*
X144226019Y-46807523D01*
X144321257Y-46759904D01*
X144511733Y-46712285D01*
X144749828Y-46712285D01*
X144940304Y-46759904D01*
X145035542Y-46807523D01*
X145083161Y-46855142D01*
X145130780Y-46950380D01*
X145130780Y-47045619D01*
X145083161Y-47140857D01*
X145035542Y-47188476D01*
X144940304Y-47236095D01*
X144749828Y-47283714D01*
X144511733Y-47283714D01*
X144321257Y-47236095D01*
X144226019Y-47188476D01*
X144178400Y-47140857D01*
X144130780Y-47045619D01*
X145130780Y-45759904D02*
X145130780Y-46331333D01*
X145130780Y-46045619D02*
X144130780Y-46045619D01*
X144273638Y-46140857D01*
X144368876Y-46236095D01*
X144416495Y-46331333D01*
X141316857Y-55437761D02*
X141316857Y-54447285D01*
X140512095Y-53952047D02*
X141812095Y-53085380D01*
X140512095Y-53085380D02*
X141812095Y-53952047D01*
X141316857Y-52590142D02*
X141316857Y-51599666D01*
X141812095Y-52094904D02*
X140821619Y-52094904D01*
X141316857Y-49990142D02*
X141316857Y-48999666D01*
X141193047Y-48133000D02*
X141812095Y-48133000D01*
X140512095Y-48566333D02*
X141193047Y-48133000D01*
X140512095Y-47699666D01*
X141316857Y-47266333D02*
X141316857Y-46275857D01*
X141812095Y-46771095D02*
X140821619Y-46771095D01*
X141316857Y-44666333D02*
X141316857Y-43675857D01*
X140512095Y-43180619D02*
X140512095Y-42313952D01*
X141812095Y-43180619D01*
X141812095Y-42313952D01*
X141316857Y-41818714D02*
X141316857Y-40828238D01*
X141812095Y-41323476D02*
X140821619Y-41323476D01*
X148915380Y-49188476D02*
X147915380Y-49188476D01*
X147915380Y-48807523D01*
X147963000Y-48712285D01*
X148010619Y-48664666D01*
X148105857Y-48617047D01*
X148248714Y-48617047D01*
X148343952Y-48664666D01*
X148391571Y-48712285D01*
X148439190Y-48807523D01*
X148439190Y-49188476D01*
X148343952Y-48045619D02*
X148296333Y-48140857D01*
X148248714Y-48188476D01*
X148153476Y-48236095D01*
X148105857Y-48236095D01*
X148010619Y-48188476D01*
X147963000Y-48140857D01*
X147915380Y-48045619D01*
X147915380Y-47855142D01*
X147963000Y-47759904D01*
X148010619Y-47712285D01*
X148105857Y-47664666D01*
X148153476Y-47664666D01*
X148248714Y-47712285D01*
X148296333Y-47759904D01*
X148343952Y-47855142D01*
X148343952Y-48045619D01*
X148391571Y-48140857D01*
X148439190Y-48188476D01*
X148534428Y-48236095D01*
X148724904Y-48236095D01*
X148820142Y-48188476D01*
X148867761Y-48140857D01*
X148915380Y-48045619D01*
X148915380Y-47855142D01*
X148867761Y-47759904D01*
X148820142Y-47712285D01*
X148724904Y-47664666D01*
X148534428Y-47664666D01*
X148439190Y-47712285D01*
X148391571Y-47759904D01*
X148343952Y-47855142D01*
X147915380Y-47045619D02*
X147915380Y-46950380D01*
X147963000Y-46855142D01*
X148010619Y-46807523D01*
X148105857Y-46759904D01*
X148296333Y-46712285D01*
X148534428Y-46712285D01*
X148724904Y-46759904D01*
X148820142Y-46807523D01*
X148867761Y-46855142D01*
X148915380Y-46950380D01*
X148915380Y-47045619D01*
X148867761Y-47140857D01*
X148820142Y-47188476D01*
X148724904Y-47236095D01*
X148534428Y-47283714D01*
X148296333Y-47283714D01*
X148105857Y-47236095D01*
X148010619Y-47188476D01*
X147963000Y-47140857D01*
X147915380Y-47045619D01*
X148010619Y-46331333D02*
X147963000Y-46283714D01*
X147915380Y-46188476D01*
X147915380Y-45950380D01*
X147963000Y-45855142D01*
X148010619Y-45807523D01*
X148105857Y-45759904D01*
X148201095Y-45759904D01*
X148343952Y-45807523D01*
X148915380Y-46378952D01*
X148915380Y-45759904D01*
D17*
X65925095Y-61522428D02*
X65925095Y-59998428D01*
X66989476Y-61522428D02*
X66650809Y-60796714D01*
X66408904Y-61522428D02*
X66408904Y-59998428D01*
X66795952Y-59998428D01*
X66892714Y-60071000D01*
X66941095Y-60143571D01*
X66989476Y-60288714D01*
X66989476Y-60506428D01*
X66941095Y-60651571D01*
X66892714Y-60724142D01*
X66795952Y-60796714D01*
X66408904Y-60796714D01*
X67908714Y-61522428D02*
X67424904Y-61522428D01*
X67424904Y-59998428D01*
X68586047Y-60724142D02*
X68731190Y-60796714D01*
X68779571Y-60869285D01*
X68827952Y-61014428D01*
X68827952Y-61232142D01*
X68779571Y-61377285D01*
X68731190Y-61449857D01*
X68634428Y-61522428D01*
X68247380Y-61522428D01*
X68247380Y-59998428D01*
X68586047Y-59998428D01*
X68682809Y-60071000D01*
X68731190Y-60143571D01*
X68779571Y-60288714D01*
X68779571Y-60433857D01*
X68731190Y-60579000D01*
X68682809Y-60651571D01*
X68586047Y-60724142D01*
X68247380Y-60724142D01*
X69408523Y-60651571D02*
X69311761Y-60579000D01*
X69263380Y-60506428D01*
X69215000Y-60361285D01*
X69215000Y-60288714D01*
X69263380Y-60143571D01*
X69311761Y-60071000D01*
X69408523Y-59998428D01*
X69602047Y-59998428D01*
X69698809Y-60071000D01*
X69747190Y-60143571D01*
X69795571Y-60288714D01*
X69795571Y-60361285D01*
X69747190Y-60506428D01*
X69698809Y-60579000D01*
X69602047Y-60651571D01*
X69408523Y-60651571D01*
X69311761Y-60724142D01*
X69263380Y-60796714D01*
X69215000Y-60941857D01*
X69215000Y-61232142D01*
X69263380Y-61377285D01*
X69311761Y-61449857D01*
X69408523Y-61522428D01*
X69602047Y-61522428D01*
X69698809Y-61449857D01*
X69747190Y-61377285D01*
X69795571Y-61232142D01*
X69795571Y-60941857D01*
X69747190Y-60796714D01*
X69698809Y-60724142D01*
X69602047Y-60651571D01*
X70134238Y-59998428D02*
X70811571Y-59998428D01*
X70376142Y-61522428D01*
X71634047Y-60506428D02*
X71634047Y-61522428D01*
X71392142Y-59925857D02*
X71150238Y-61014428D01*
X71779190Y-61014428D01*
X72069476Y-59998428D02*
X72698428Y-59998428D01*
X72359761Y-60579000D01*
X72504904Y-60579000D01*
X72601666Y-60651571D01*
X72650047Y-60724142D01*
X72698428Y-60869285D01*
X72698428Y-61232142D01*
X72650047Y-61377285D01*
X72601666Y-61449857D01*
X72504904Y-61522428D01*
X72214619Y-61522428D01*
X72117857Y-61449857D01*
X72069476Y-61377285D01*
X73133857Y-61522428D02*
X73133857Y-59998428D01*
X73520904Y-59998428D01*
X73617666Y-60071000D01*
X73666047Y-60143571D01*
X73714428Y-60288714D01*
X73714428Y-60506428D01*
X73666047Y-60651571D01*
X73617666Y-60724142D01*
X73520904Y-60796714D01*
X73133857Y-60796714D01*
X74488523Y-60724142D02*
X74633666Y-60796714D01*
X74682047Y-60869285D01*
X74730428Y-61014428D01*
X74730428Y-61232142D01*
X74682047Y-61377285D01*
X74633666Y-61449857D01*
X74536904Y-61522428D01*
X74149857Y-61522428D01*
X74149857Y-59998428D01*
X74488523Y-59998428D01*
X74585285Y-60071000D01*
X74633666Y-60143571D01*
X74682047Y-60288714D01*
X74682047Y-60433857D01*
X74633666Y-60579000D01*
X74585285Y-60651571D01*
X74488523Y-60724142D01*
X74149857Y-60724142D01*
X75504523Y-60724142D02*
X75165857Y-60724142D01*
X75165857Y-61522428D02*
X75165857Y-59998428D01*
X75649666Y-59998428D01*
X65925095Y-83747428D02*
X65925095Y-82223428D01*
X66989476Y-83747428D02*
X66650809Y-83021714D01*
X66408904Y-83747428D02*
X66408904Y-82223428D01*
X66795952Y-82223428D01*
X66892714Y-82296000D01*
X66941095Y-82368571D01*
X66989476Y-82513714D01*
X66989476Y-82731428D01*
X66941095Y-82876571D01*
X66892714Y-82949142D01*
X66795952Y-83021714D01*
X66408904Y-83021714D01*
X67908714Y-83747428D02*
X67424904Y-83747428D01*
X67424904Y-82223428D01*
X68586047Y-82949142D02*
X68731190Y-83021714D01*
X68779571Y-83094285D01*
X68827952Y-83239428D01*
X68827952Y-83457142D01*
X68779571Y-83602285D01*
X68731190Y-83674857D01*
X68634428Y-83747428D01*
X68247380Y-83747428D01*
X68247380Y-82223428D01*
X68586047Y-82223428D01*
X68682809Y-82296000D01*
X68731190Y-82368571D01*
X68779571Y-82513714D01*
X68779571Y-82658857D01*
X68731190Y-82804000D01*
X68682809Y-82876571D01*
X68586047Y-82949142D01*
X68247380Y-82949142D01*
X69408523Y-82876571D02*
X69311761Y-82804000D01*
X69263380Y-82731428D01*
X69215000Y-82586285D01*
X69215000Y-82513714D01*
X69263380Y-82368571D01*
X69311761Y-82296000D01*
X69408523Y-82223428D01*
X69602047Y-82223428D01*
X69698809Y-82296000D01*
X69747190Y-82368571D01*
X69795571Y-82513714D01*
X69795571Y-82586285D01*
X69747190Y-82731428D01*
X69698809Y-82804000D01*
X69602047Y-82876571D01*
X69408523Y-82876571D01*
X69311761Y-82949142D01*
X69263380Y-83021714D01*
X69215000Y-83166857D01*
X69215000Y-83457142D01*
X69263380Y-83602285D01*
X69311761Y-83674857D01*
X69408523Y-83747428D01*
X69602047Y-83747428D01*
X69698809Y-83674857D01*
X69747190Y-83602285D01*
X69795571Y-83457142D01*
X69795571Y-83166857D01*
X69747190Y-83021714D01*
X69698809Y-82949142D01*
X69602047Y-82876571D01*
X70134238Y-82223428D02*
X70811571Y-82223428D01*
X70376142Y-83747428D01*
X71634047Y-82731428D02*
X71634047Y-83747428D01*
X71392142Y-82150857D02*
X71150238Y-83239428D01*
X71779190Y-83239428D01*
X72069476Y-82223428D02*
X72698428Y-82223428D01*
X72359761Y-82804000D01*
X72504904Y-82804000D01*
X72601666Y-82876571D01*
X72650047Y-82949142D01*
X72698428Y-83094285D01*
X72698428Y-83457142D01*
X72650047Y-83602285D01*
X72601666Y-83674857D01*
X72504904Y-83747428D01*
X72214619Y-83747428D01*
X72117857Y-83674857D01*
X72069476Y-83602285D01*
X73133857Y-83747428D02*
X73133857Y-82223428D01*
X73520904Y-82223428D01*
X73617666Y-82296000D01*
X73666047Y-82368571D01*
X73714428Y-82513714D01*
X73714428Y-82731428D01*
X73666047Y-82876571D01*
X73617666Y-82949142D01*
X73520904Y-83021714D01*
X73133857Y-83021714D01*
X74488523Y-82949142D02*
X74633666Y-83021714D01*
X74682047Y-83094285D01*
X74730428Y-83239428D01*
X74730428Y-83457142D01*
X74682047Y-83602285D01*
X74633666Y-83674857D01*
X74536904Y-83747428D01*
X74149857Y-83747428D01*
X74149857Y-82223428D01*
X74488523Y-82223428D01*
X74585285Y-82296000D01*
X74633666Y-82368571D01*
X74682047Y-82513714D01*
X74682047Y-82658857D01*
X74633666Y-82804000D01*
X74585285Y-82876571D01*
X74488523Y-82949142D01*
X74149857Y-82949142D01*
X75504523Y-82949142D02*
X75165857Y-82949142D01*
X75165857Y-83747428D02*
X75165857Y-82223428D01*
X75649666Y-82223428D01*
X65925095Y-69142428D02*
X65925095Y-67618428D01*
X66989476Y-69142428D02*
X66650809Y-68416714D01*
X66408904Y-69142428D02*
X66408904Y-67618428D01*
X66795952Y-67618428D01*
X66892714Y-67691000D01*
X66941095Y-67763571D01*
X66989476Y-67908714D01*
X66989476Y-68126428D01*
X66941095Y-68271571D01*
X66892714Y-68344142D01*
X66795952Y-68416714D01*
X66408904Y-68416714D01*
X67908714Y-69142428D02*
X67424904Y-69142428D01*
X67424904Y-67618428D01*
X68586047Y-68344142D02*
X68731190Y-68416714D01*
X68779571Y-68489285D01*
X68827952Y-68634428D01*
X68827952Y-68852142D01*
X68779571Y-68997285D01*
X68731190Y-69069857D01*
X68634428Y-69142428D01*
X68247380Y-69142428D01*
X68247380Y-67618428D01*
X68586047Y-67618428D01*
X68682809Y-67691000D01*
X68731190Y-67763571D01*
X68779571Y-67908714D01*
X68779571Y-68053857D01*
X68731190Y-68199000D01*
X68682809Y-68271571D01*
X68586047Y-68344142D01*
X68247380Y-68344142D01*
X69408523Y-68271571D02*
X69311761Y-68199000D01*
X69263380Y-68126428D01*
X69215000Y-67981285D01*
X69215000Y-67908714D01*
X69263380Y-67763571D01*
X69311761Y-67691000D01*
X69408523Y-67618428D01*
X69602047Y-67618428D01*
X69698809Y-67691000D01*
X69747190Y-67763571D01*
X69795571Y-67908714D01*
X69795571Y-67981285D01*
X69747190Y-68126428D01*
X69698809Y-68199000D01*
X69602047Y-68271571D01*
X69408523Y-68271571D01*
X69311761Y-68344142D01*
X69263380Y-68416714D01*
X69215000Y-68561857D01*
X69215000Y-68852142D01*
X69263380Y-68997285D01*
X69311761Y-69069857D01*
X69408523Y-69142428D01*
X69602047Y-69142428D01*
X69698809Y-69069857D01*
X69747190Y-68997285D01*
X69795571Y-68852142D01*
X69795571Y-68561857D01*
X69747190Y-68416714D01*
X69698809Y-68344142D01*
X69602047Y-68271571D01*
X70134238Y-67618428D02*
X70811571Y-67618428D01*
X70376142Y-69142428D01*
X71634047Y-68126428D02*
X71634047Y-69142428D01*
X71392142Y-67545857D02*
X71150238Y-68634428D01*
X71779190Y-68634428D01*
X72069476Y-67618428D02*
X72698428Y-67618428D01*
X72359761Y-68199000D01*
X72504904Y-68199000D01*
X72601666Y-68271571D01*
X72650047Y-68344142D01*
X72698428Y-68489285D01*
X72698428Y-68852142D01*
X72650047Y-68997285D01*
X72601666Y-69069857D01*
X72504904Y-69142428D01*
X72214619Y-69142428D01*
X72117857Y-69069857D01*
X72069476Y-68997285D01*
X73133857Y-69142428D02*
X73133857Y-67618428D01*
X73520904Y-67618428D01*
X73617666Y-67691000D01*
X73666047Y-67763571D01*
X73714428Y-67908714D01*
X73714428Y-68126428D01*
X73666047Y-68271571D01*
X73617666Y-68344142D01*
X73520904Y-68416714D01*
X73133857Y-68416714D01*
X74488523Y-68344142D02*
X74633666Y-68416714D01*
X74682047Y-68489285D01*
X74730428Y-68634428D01*
X74730428Y-68852142D01*
X74682047Y-68997285D01*
X74633666Y-69069857D01*
X74536904Y-69142428D01*
X74149857Y-69142428D01*
X74149857Y-67618428D01*
X74488523Y-67618428D01*
X74585285Y-67691000D01*
X74633666Y-67763571D01*
X74682047Y-67908714D01*
X74682047Y-68053857D01*
X74633666Y-68199000D01*
X74585285Y-68271571D01*
X74488523Y-68344142D01*
X74149857Y-68344142D01*
X75504523Y-68344142D02*
X75165857Y-68344142D01*
X75165857Y-69142428D02*
X75165857Y-67618428D01*
X75649666Y-67618428D01*
X65925095Y-92637428D02*
X65925095Y-91113428D01*
X66989476Y-92637428D02*
X66650809Y-91911714D01*
X66408904Y-92637428D02*
X66408904Y-91113428D01*
X66795952Y-91113428D01*
X66892714Y-91186000D01*
X66941095Y-91258571D01*
X66989476Y-91403714D01*
X66989476Y-91621428D01*
X66941095Y-91766571D01*
X66892714Y-91839142D01*
X66795952Y-91911714D01*
X66408904Y-91911714D01*
X67908714Y-92637428D02*
X67424904Y-92637428D01*
X67424904Y-91113428D01*
X68586047Y-91839142D02*
X68731190Y-91911714D01*
X68779571Y-91984285D01*
X68827952Y-92129428D01*
X68827952Y-92347142D01*
X68779571Y-92492285D01*
X68731190Y-92564857D01*
X68634428Y-92637428D01*
X68247380Y-92637428D01*
X68247380Y-91113428D01*
X68586047Y-91113428D01*
X68682809Y-91186000D01*
X68731190Y-91258571D01*
X68779571Y-91403714D01*
X68779571Y-91548857D01*
X68731190Y-91694000D01*
X68682809Y-91766571D01*
X68586047Y-91839142D01*
X68247380Y-91839142D01*
X69408523Y-91766571D02*
X69311761Y-91694000D01*
X69263380Y-91621428D01*
X69215000Y-91476285D01*
X69215000Y-91403714D01*
X69263380Y-91258571D01*
X69311761Y-91186000D01*
X69408523Y-91113428D01*
X69602047Y-91113428D01*
X69698809Y-91186000D01*
X69747190Y-91258571D01*
X69795571Y-91403714D01*
X69795571Y-91476285D01*
X69747190Y-91621428D01*
X69698809Y-91694000D01*
X69602047Y-91766571D01*
X69408523Y-91766571D01*
X69311761Y-91839142D01*
X69263380Y-91911714D01*
X69215000Y-92056857D01*
X69215000Y-92347142D01*
X69263380Y-92492285D01*
X69311761Y-92564857D01*
X69408523Y-92637428D01*
X69602047Y-92637428D01*
X69698809Y-92564857D01*
X69747190Y-92492285D01*
X69795571Y-92347142D01*
X69795571Y-92056857D01*
X69747190Y-91911714D01*
X69698809Y-91839142D01*
X69602047Y-91766571D01*
X70134238Y-91113428D02*
X70811571Y-91113428D01*
X70376142Y-92637428D01*
X71634047Y-91621428D02*
X71634047Y-92637428D01*
X71392142Y-91040857D02*
X71150238Y-92129428D01*
X71779190Y-92129428D01*
X72069476Y-91113428D02*
X72698428Y-91113428D01*
X72359761Y-91694000D01*
X72504904Y-91694000D01*
X72601666Y-91766571D01*
X72650047Y-91839142D01*
X72698428Y-91984285D01*
X72698428Y-92347142D01*
X72650047Y-92492285D01*
X72601666Y-92564857D01*
X72504904Y-92637428D01*
X72214619Y-92637428D01*
X72117857Y-92564857D01*
X72069476Y-92492285D01*
X73133857Y-92637428D02*
X73133857Y-91113428D01*
X73520904Y-91113428D01*
X73617666Y-91186000D01*
X73666047Y-91258571D01*
X73714428Y-91403714D01*
X73714428Y-91621428D01*
X73666047Y-91766571D01*
X73617666Y-91839142D01*
X73520904Y-91911714D01*
X73133857Y-91911714D01*
X74488523Y-91839142D02*
X74633666Y-91911714D01*
X74682047Y-91984285D01*
X74730428Y-92129428D01*
X74730428Y-92347142D01*
X74682047Y-92492285D01*
X74633666Y-92564857D01*
X74536904Y-92637428D01*
X74149857Y-92637428D01*
X74149857Y-91113428D01*
X74488523Y-91113428D01*
X74585285Y-91186000D01*
X74633666Y-91258571D01*
X74682047Y-91403714D01*
X74682047Y-91548857D01*
X74633666Y-91694000D01*
X74585285Y-91766571D01*
X74488523Y-91839142D01*
X74149857Y-91839142D01*
X75504523Y-91839142D02*
X75165857Y-91839142D01*
X75165857Y-92637428D02*
X75165857Y-91113428D01*
X75649666Y-91113428D01*
X78256190Y-92002428D02*
X77917523Y-91276714D01*
X77675619Y-92002428D02*
X77675619Y-90478428D01*
X78062666Y-90478428D01*
X78159428Y-90551000D01*
X78207809Y-90623571D01*
X78256190Y-90768714D01*
X78256190Y-90986428D01*
X78207809Y-91131571D01*
X78159428Y-91204142D01*
X78062666Y-91276714D01*
X77675619Y-91276714D01*
X78691619Y-91421857D02*
X79465714Y-91421857D01*
X79852761Y-90478428D02*
X80530095Y-90478428D01*
X80094666Y-92002428D01*
X81062285Y-91131571D02*
X80965523Y-91059000D01*
X80917142Y-90986428D01*
X80868761Y-90841285D01*
X80868761Y-90768714D01*
X80917142Y-90623571D01*
X80965523Y-90551000D01*
X81062285Y-90478428D01*
X81255809Y-90478428D01*
X81352571Y-90551000D01*
X81400952Y-90623571D01*
X81449333Y-90768714D01*
X81449333Y-90841285D01*
X81400952Y-90986428D01*
X81352571Y-91059000D01*
X81255809Y-91131571D01*
X81062285Y-91131571D01*
X80965523Y-91204142D01*
X80917142Y-91276714D01*
X80868761Y-91421857D01*
X80868761Y-91712142D01*
X80917142Y-91857285D01*
X80965523Y-91929857D01*
X81062285Y-92002428D01*
X81255809Y-92002428D01*
X81352571Y-91929857D01*
X81400952Y-91857285D01*
X81449333Y-91712142D01*
X81449333Y-91421857D01*
X81400952Y-91276714D01*
X81352571Y-91204142D01*
X81255809Y-91131571D01*
X81884761Y-91204142D02*
X82223428Y-91204142D01*
X82368571Y-92002428D02*
X81884761Y-92002428D01*
X81884761Y-90478428D01*
X82368571Y-90478428D01*
X83336190Y-92002428D02*
X82755619Y-92002428D01*
X83045904Y-92002428D02*
X83045904Y-90478428D01*
X82949142Y-90696142D01*
X82852380Y-90841285D01*
X82755619Y-90913857D01*
X83723238Y-90623571D02*
X83771619Y-90551000D01*
X83868380Y-90478428D01*
X84110285Y-90478428D01*
X84207047Y-90551000D01*
X84255428Y-90623571D01*
X84303809Y-90768714D01*
X84303809Y-90913857D01*
X84255428Y-91131571D01*
X83674857Y-92002428D01*
X84303809Y-92002428D01*
X84739238Y-91421857D02*
X85513333Y-91421857D01*
X86190666Y-90478428D02*
X86287428Y-90478428D01*
X86384190Y-90551000D01*
X86432571Y-90623571D01*
X86480952Y-90768714D01*
X86529333Y-91059000D01*
X86529333Y-91421857D01*
X86480952Y-91712142D01*
X86432571Y-91857285D01*
X86384190Y-91929857D01*
X86287428Y-92002428D01*
X86190666Y-92002428D01*
X86093904Y-91929857D01*
X86045523Y-91857285D01*
X85997142Y-91712142D01*
X85948761Y-91421857D01*
X85948761Y-91059000D01*
X85997142Y-90768714D01*
X86045523Y-90623571D01*
X86093904Y-90551000D01*
X86190666Y-90478428D01*
X86964761Y-91857285D02*
X87013142Y-91929857D01*
X86964761Y-92002428D01*
X86916380Y-91929857D01*
X86964761Y-91857285D01*
X86964761Y-92002428D01*
X87932380Y-90478428D02*
X87448571Y-90478428D01*
X87400190Y-91204142D01*
X87448571Y-91131571D01*
X87545333Y-91059000D01*
X87787238Y-91059000D01*
X87884000Y-91131571D01*
X87932380Y-91204142D01*
X87980761Y-91349285D01*
X87980761Y-91712142D01*
X87932380Y-91857285D01*
X87884000Y-91929857D01*
X87787238Y-92002428D01*
X87545333Y-92002428D01*
X87448571Y-91929857D01*
X87400190Y-91857285D01*
X78594857Y-83747428D02*
X78111047Y-83747428D01*
X78111047Y-82223428D01*
X78836761Y-82223428D02*
X79514095Y-82223428D01*
X79078666Y-83747428D01*
X80046285Y-82876571D02*
X79949523Y-82804000D01*
X79901142Y-82731428D01*
X79852761Y-82586285D01*
X79852761Y-82513714D01*
X79901142Y-82368571D01*
X79949523Y-82296000D01*
X80046285Y-82223428D01*
X80239809Y-82223428D01*
X80336571Y-82296000D01*
X80384952Y-82368571D01*
X80433333Y-82513714D01*
X80433333Y-82586285D01*
X80384952Y-82731428D01*
X80336571Y-82804000D01*
X80239809Y-82876571D01*
X80046285Y-82876571D01*
X79949523Y-82949142D01*
X79901142Y-83021714D01*
X79852761Y-83166857D01*
X79852761Y-83457142D01*
X79901142Y-83602285D01*
X79949523Y-83674857D01*
X80046285Y-83747428D01*
X80239809Y-83747428D01*
X80336571Y-83674857D01*
X80384952Y-83602285D01*
X80433333Y-83457142D01*
X80433333Y-83166857D01*
X80384952Y-83021714D01*
X80336571Y-82949142D01*
X80239809Y-82876571D01*
X81062285Y-82223428D02*
X81159047Y-82223428D01*
X81255809Y-82296000D01*
X81304190Y-82368571D01*
X81352571Y-82513714D01*
X81400952Y-82804000D01*
X81400952Y-83166857D01*
X81352571Y-83457142D01*
X81304190Y-83602285D01*
X81255809Y-83674857D01*
X81159047Y-83747428D01*
X81062285Y-83747428D01*
X80965523Y-83674857D01*
X80917142Y-83602285D01*
X80868761Y-83457142D01*
X80820380Y-83166857D01*
X80820380Y-82804000D01*
X80868761Y-82513714D01*
X80917142Y-82368571D01*
X80965523Y-82296000D01*
X81062285Y-82223428D01*
X82320190Y-82223428D02*
X81836380Y-82223428D01*
X81788000Y-82949142D01*
X81836380Y-82876571D01*
X81933142Y-82804000D01*
X82175047Y-82804000D01*
X82271809Y-82876571D01*
X82320190Y-82949142D01*
X82368571Y-83094285D01*
X82368571Y-83457142D01*
X82320190Y-83602285D01*
X82271809Y-83674857D01*
X82175047Y-83747428D01*
X81933142Y-83747428D01*
X81836380Y-83674857D01*
X81788000Y-83602285D01*
X83384571Y-83602285D02*
X83336190Y-83674857D01*
X83191047Y-83747428D01*
X83094285Y-83747428D01*
X82949142Y-83674857D01*
X82852380Y-83529714D01*
X82804000Y-83384571D01*
X82755619Y-83094285D01*
X82755619Y-82876571D01*
X82804000Y-82586285D01*
X82852380Y-82441142D01*
X82949142Y-82296000D01*
X83094285Y-82223428D01*
X83191047Y-82223428D01*
X83336190Y-82296000D01*
X83384571Y-82368571D01*
X83674857Y-82223428D02*
X84013523Y-83747428D01*
X84352190Y-82223428D01*
X84690857Y-83166857D02*
X85464952Y-83166857D01*
X85948761Y-83747428D02*
X85948761Y-82223428D01*
X86190666Y-82223428D01*
X86335809Y-82296000D01*
X86432571Y-82441142D01*
X86480952Y-82586285D01*
X86529333Y-82876571D01*
X86529333Y-83094285D01*
X86480952Y-83384571D01*
X86432571Y-83529714D01*
X86335809Y-83674857D01*
X86190666Y-83747428D01*
X85948761Y-83747428D01*
X87496952Y-82296000D02*
X87400190Y-82223428D01*
X87255047Y-82223428D01*
X87109904Y-82296000D01*
X87013142Y-82441142D01*
X86964761Y-82586285D01*
X86916380Y-82876571D01*
X86916380Y-83094285D01*
X86964761Y-83384571D01*
X87013142Y-83529714D01*
X87109904Y-83674857D01*
X87255047Y-83747428D01*
X87351809Y-83747428D01*
X87496952Y-83674857D01*
X87545333Y-83602285D01*
X87545333Y-83094285D01*
X87351809Y-83094285D01*
D12*
X72226847Y-111831380D02*
X71655419Y-111831380D01*
X71941133Y-111831380D02*
X71941133Y-110831380D01*
X71845895Y-110974238D01*
X71750657Y-111069476D01*
X71655419Y-111117095D01*
X72845895Y-110831380D02*
X72941133Y-110831380D01*
X73036371Y-110879000D01*
X73083990Y-110926619D01*
X73131609Y-111021857D01*
X73179228Y-111212333D01*
X73179228Y-111450428D01*
X73131609Y-111640904D01*
X73083990Y-111736142D01*
X73036371Y-111783761D01*
X72941133Y-111831380D01*
X72845895Y-111831380D01*
X72750657Y-111783761D01*
X72703038Y-111736142D01*
X72655419Y-111640904D01*
X72607800Y-111450428D01*
X72607800Y-111212333D01*
X72655419Y-111021857D01*
X72703038Y-110926619D01*
X72750657Y-110879000D01*
X72845895Y-110831380D01*
X73798276Y-110831380D02*
X73893514Y-110831380D01*
X73988752Y-110879000D01*
X74036371Y-110926619D01*
X74083990Y-111021857D01*
X74131609Y-111212333D01*
X74131609Y-111450428D01*
X74083990Y-111640904D01*
X74036371Y-111736142D01*
X73988752Y-111783761D01*
X73893514Y-111831380D01*
X73798276Y-111831380D01*
X73703038Y-111783761D01*
X73655419Y-111736142D01*
X73607800Y-111640904D01*
X73560180Y-111450428D01*
X73560180Y-111212333D01*
X73607800Y-111021857D01*
X73655419Y-110926619D01*
X73703038Y-110879000D01*
X73798276Y-110831380D01*
X74988752Y-111164714D02*
X74988752Y-111831380D01*
X74560180Y-111164714D02*
X74560180Y-111688523D01*
X74607800Y-111783761D01*
X74703038Y-111831380D01*
X74845895Y-111831380D01*
X74941133Y-111783761D01*
X74988752Y-111736142D01*
X76131609Y-110831380D02*
X76750657Y-110831380D01*
X76417323Y-111212333D01*
X76560180Y-111212333D01*
X76655419Y-111259952D01*
X76703038Y-111307571D01*
X76750657Y-111402809D01*
X76750657Y-111640904D01*
X76703038Y-111736142D01*
X76655419Y-111783761D01*
X76560180Y-111831380D01*
X76274466Y-111831380D01*
X76179228Y-111783761D01*
X76131609Y-111736142D01*
X77655419Y-110831380D02*
X77179228Y-110831380D01*
X77131609Y-111307571D01*
X77179228Y-111259952D01*
X77274466Y-111212333D01*
X77512561Y-111212333D01*
X77607800Y-111259952D01*
X77655419Y-111307571D01*
X77703038Y-111402809D01*
X77703038Y-111640904D01*
X77655419Y-111736142D01*
X77607800Y-111783761D01*
X77512561Y-111831380D01*
X77274466Y-111831380D01*
X77179228Y-111783761D01*
X77131609Y-111736142D01*
X77988752Y-110831380D02*
X78322085Y-111831380D01*
X78655419Y-110831380D01*
X76456847Y-109117428D02*
X77218752Y-109117428D01*
X76837800Y-109498380D02*
X76837800Y-108736476D01*
X73988752Y-104893142D02*
X73941133Y-104940761D01*
X73798276Y-104988380D01*
X73703038Y-104988380D01*
X73560180Y-104940761D01*
X73464942Y-104845523D01*
X73417323Y-104750285D01*
X73369704Y-104559809D01*
X73369704Y-104416952D01*
X73417323Y-104226476D01*
X73464942Y-104131238D01*
X73560180Y-104036000D01*
X73703038Y-103988380D01*
X73798276Y-103988380D01*
X73941133Y-104036000D01*
X73988752Y-104083619D01*
X74941133Y-104988380D02*
X74369704Y-104988380D01*
X74655419Y-104988380D02*
X74655419Y-103988380D01*
X74560180Y-104131238D01*
X74464942Y-104226476D01*
X74369704Y-104274095D01*
X75560180Y-103988380D02*
X75655419Y-103988380D01*
X75750657Y-104036000D01*
X75798276Y-104083619D01*
X75845895Y-104178857D01*
X75893514Y-104369333D01*
X75893514Y-104607428D01*
X75845895Y-104797904D01*
X75798276Y-104893142D01*
X75750657Y-104940761D01*
X75655419Y-104988380D01*
X75560180Y-104988380D01*
X75464942Y-104940761D01*
X75417323Y-104893142D01*
X75369704Y-104797904D01*
X75322085Y-104607428D01*
X75322085Y-104369333D01*
X75369704Y-104178857D01*
X75417323Y-104083619D01*
X75464942Y-104036000D01*
X75560180Y-103988380D01*
X76845895Y-104988380D02*
X76274466Y-104988380D01*
X76560180Y-104988380D02*
X76560180Y-103988380D01*
X76464942Y-104131238D01*
X76369704Y-104226476D01*
X76274466Y-104274095D01*
X96433047Y-121610380D02*
X95861619Y-121610380D01*
X96147333Y-121610380D02*
X96147333Y-120610380D01*
X96052095Y-120753238D01*
X95956857Y-120848476D01*
X95861619Y-120896095D01*
X97052095Y-120610380D02*
X97147333Y-120610380D01*
X97242571Y-120658000D01*
X97290190Y-120705619D01*
X97337809Y-120800857D01*
X97385428Y-120991333D01*
X97385428Y-121229428D01*
X97337809Y-121419904D01*
X97290190Y-121515142D01*
X97242571Y-121562761D01*
X97147333Y-121610380D01*
X97052095Y-121610380D01*
X96956857Y-121562761D01*
X96909238Y-121515142D01*
X96861619Y-121419904D01*
X96814000Y-121229428D01*
X96814000Y-120991333D01*
X96861619Y-120800857D01*
X96909238Y-120705619D01*
X96956857Y-120658000D01*
X97052095Y-120610380D01*
X98004476Y-120610380D02*
X98099714Y-120610380D01*
X98194952Y-120658000D01*
X98242571Y-120705619D01*
X98290190Y-120800857D01*
X98337809Y-120991333D01*
X98337809Y-121229428D01*
X98290190Y-121419904D01*
X98242571Y-121515142D01*
X98194952Y-121562761D01*
X98099714Y-121610380D01*
X98004476Y-121610380D01*
X97909238Y-121562761D01*
X97861619Y-121515142D01*
X97814000Y-121419904D01*
X97766380Y-121229428D01*
X97766380Y-120991333D01*
X97814000Y-120800857D01*
X97861619Y-120705619D01*
X97909238Y-120658000D01*
X98004476Y-120610380D01*
X99194952Y-120943714D02*
X99194952Y-121610380D01*
X98766380Y-120943714D02*
X98766380Y-121467523D01*
X98814000Y-121562761D01*
X98909238Y-121610380D01*
X99052095Y-121610380D01*
X99147333Y-121562761D01*
X99194952Y-121515142D01*
X100337809Y-120610380D02*
X100956857Y-120610380D01*
X100623523Y-120991333D01*
X100766380Y-120991333D01*
X100861619Y-121038952D01*
X100909238Y-121086571D01*
X100956857Y-121181809D01*
X100956857Y-121419904D01*
X100909238Y-121515142D01*
X100861619Y-121562761D01*
X100766380Y-121610380D01*
X100480666Y-121610380D01*
X100385428Y-121562761D01*
X100337809Y-121515142D01*
X101861619Y-120610380D02*
X101385428Y-120610380D01*
X101337809Y-121086571D01*
X101385428Y-121038952D01*
X101480666Y-120991333D01*
X101718761Y-120991333D01*
X101814000Y-121038952D01*
X101861619Y-121086571D01*
X101909238Y-121181809D01*
X101909238Y-121419904D01*
X101861619Y-121515142D01*
X101814000Y-121562761D01*
X101718761Y-121610380D01*
X101480666Y-121610380D01*
X101385428Y-121562761D01*
X101337809Y-121515142D01*
X102194952Y-120610380D02*
X102528285Y-121610380D01*
X102861619Y-120610380D01*
X100409047Y-119531428D02*
X101170952Y-119531428D01*
X100790000Y-119912380D02*
X100790000Y-119150476D01*
X97940952Y-115307142D02*
X97893333Y-115354761D01*
X97750476Y-115402380D01*
X97655238Y-115402380D01*
X97512380Y-115354761D01*
X97417142Y-115259523D01*
X97369523Y-115164285D01*
X97321904Y-114973809D01*
X97321904Y-114830952D01*
X97369523Y-114640476D01*
X97417142Y-114545238D01*
X97512380Y-114450000D01*
X97655238Y-114402380D01*
X97750476Y-114402380D01*
X97893333Y-114450000D01*
X97940952Y-114497619D01*
X98321904Y-114497619D02*
X98369523Y-114450000D01*
X98464761Y-114402380D01*
X98702857Y-114402380D01*
X98798095Y-114450000D01*
X98845714Y-114497619D01*
X98893333Y-114592857D01*
X98893333Y-114688095D01*
X98845714Y-114830952D01*
X98274285Y-115402380D01*
X98893333Y-115402380D01*
X99512380Y-114402380D02*
X99607619Y-114402380D01*
X99702857Y-114450000D01*
X99750476Y-114497619D01*
X99798095Y-114592857D01*
X99845714Y-114783333D01*
X99845714Y-115021428D01*
X99798095Y-115211904D01*
X99750476Y-115307142D01*
X99702857Y-115354761D01*
X99607619Y-115402380D01*
X99512380Y-115402380D01*
X99417142Y-115354761D01*
X99369523Y-115307142D01*
X99321904Y-115211904D01*
X99274285Y-115021428D01*
X99274285Y-114783333D01*
X99321904Y-114592857D01*
X99369523Y-114497619D01*
X99417142Y-114450000D01*
X99512380Y-114402380D01*
X100798095Y-115402380D02*
X100226666Y-115402380D01*
X100512380Y-115402380D02*
X100512380Y-114402380D01*
X100417142Y-114545238D01*
X100321904Y-114640476D01*
X100226666Y-114688095D01*
X118023047Y-121610380D02*
X117451619Y-121610380D01*
X117737333Y-121610380D02*
X117737333Y-120610380D01*
X117642095Y-120753238D01*
X117546857Y-120848476D01*
X117451619Y-120896095D01*
X118642095Y-120610380D02*
X118737333Y-120610380D01*
X118832571Y-120658000D01*
X118880190Y-120705619D01*
X118927809Y-120800857D01*
X118975428Y-120991333D01*
X118975428Y-121229428D01*
X118927809Y-121419904D01*
X118880190Y-121515142D01*
X118832571Y-121562761D01*
X118737333Y-121610380D01*
X118642095Y-121610380D01*
X118546857Y-121562761D01*
X118499238Y-121515142D01*
X118451619Y-121419904D01*
X118404000Y-121229428D01*
X118404000Y-120991333D01*
X118451619Y-120800857D01*
X118499238Y-120705619D01*
X118546857Y-120658000D01*
X118642095Y-120610380D01*
X119594476Y-120610380D02*
X119689714Y-120610380D01*
X119784952Y-120658000D01*
X119832571Y-120705619D01*
X119880190Y-120800857D01*
X119927809Y-120991333D01*
X119927809Y-121229428D01*
X119880190Y-121419904D01*
X119832571Y-121515142D01*
X119784952Y-121562761D01*
X119689714Y-121610380D01*
X119594476Y-121610380D01*
X119499238Y-121562761D01*
X119451619Y-121515142D01*
X119404000Y-121419904D01*
X119356380Y-121229428D01*
X119356380Y-120991333D01*
X119404000Y-120800857D01*
X119451619Y-120705619D01*
X119499238Y-120658000D01*
X119594476Y-120610380D01*
X120784952Y-120943714D02*
X120784952Y-121610380D01*
X120356380Y-120943714D02*
X120356380Y-121467523D01*
X120404000Y-121562761D01*
X120499238Y-121610380D01*
X120642095Y-121610380D01*
X120737333Y-121562761D01*
X120784952Y-121515142D01*
X121927809Y-120610380D02*
X122546857Y-120610380D01*
X122213523Y-120991333D01*
X122356380Y-120991333D01*
X122451619Y-121038952D01*
X122499238Y-121086571D01*
X122546857Y-121181809D01*
X122546857Y-121419904D01*
X122499238Y-121515142D01*
X122451619Y-121562761D01*
X122356380Y-121610380D01*
X122070666Y-121610380D01*
X121975428Y-121562761D01*
X121927809Y-121515142D01*
X123451619Y-120610380D02*
X122975428Y-120610380D01*
X122927809Y-121086571D01*
X122975428Y-121038952D01*
X123070666Y-120991333D01*
X123308761Y-120991333D01*
X123404000Y-121038952D01*
X123451619Y-121086571D01*
X123499238Y-121181809D01*
X123499238Y-121419904D01*
X123451619Y-121515142D01*
X123404000Y-121562761D01*
X123308761Y-121610380D01*
X123070666Y-121610380D01*
X122975428Y-121562761D01*
X122927809Y-121515142D01*
X123784952Y-120610380D02*
X124118285Y-121610380D01*
X124451619Y-120610380D01*
X122634047Y-119531428D02*
X123395952Y-119531428D01*
X123015000Y-119912380D02*
X123015000Y-119150476D01*
X120165952Y-115307142D02*
X120118333Y-115354761D01*
X119975476Y-115402380D01*
X119880238Y-115402380D01*
X119737380Y-115354761D01*
X119642142Y-115259523D01*
X119594523Y-115164285D01*
X119546904Y-114973809D01*
X119546904Y-114830952D01*
X119594523Y-114640476D01*
X119642142Y-114545238D01*
X119737380Y-114450000D01*
X119880238Y-114402380D01*
X119975476Y-114402380D01*
X120118333Y-114450000D01*
X120165952Y-114497619D01*
X120546904Y-114497619D02*
X120594523Y-114450000D01*
X120689761Y-114402380D01*
X120927857Y-114402380D01*
X121023095Y-114450000D01*
X121070714Y-114497619D01*
X121118333Y-114592857D01*
X121118333Y-114688095D01*
X121070714Y-114830952D01*
X120499285Y-115402380D01*
X121118333Y-115402380D01*
X121737380Y-114402380D02*
X121832619Y-114402380D01*
X121927857Y-114450000D01*
X121975476Y-114497619D01*
X122023095Y-114592857D01*
X122070714Y-114783333D01*
X122070714Y-115021428D01*
X122023095Y-115211904D01*
X121975476Y-115307142D01*
X121927857Y-115354761D01*
X121832619Y-115402380D01*
X121737380Y-115402380D01*
X121642142Y-115354761D01*
X121594523Y-115307142D01*
X121546904Y-115211904D01*
X121499285Y-115021428D01*
X121499285Y-114783333D01*
X121546904Y-114592857D01*
X121594523Y-114497619D01*
X121642142Y-114450000D01*
X121737380Y-114402380D01*
X122451666Y-114497619D02*
X122499285Y-114450000D01*
X122594523Y-114402380D01*
X122832619Y-114402380D01*
X122927857Y-114450000D01*
X122975476Y-114497619D01*
X123023095Y-114592857D01*
X123023095Y-114688095D01*
X122975476Y-114830952D01*
X122404047Y-115402380D01*
X123023095Y-115402380D01*
X79288047Y-53665380D02*
X78716619Y-53665380D01*
X79002333Y-53665380D02*
X79002333Y-52665380D01*
X78907095Y-52808238D01*
X78811857Y-52903476D01*
X78716619Y-52951095D01*
X79907095Y-52665380D02*
X80002333Y-52665380D01*
X80097571Y-52713000D01*
X80145190Y-52760619D01*
X80192809Y-52855857D01*
X80240428Y-53046333D01*
X80240428Y-53284428D01*
X80192809Y-53474904D01*
X80145190Y-53570142D01*
X80097571Y-53617761D01*
X80002333Y-53665380D01*
X79907095Y-53665380D01*
X79811857Y-53617761D01*
X79764238Y-53570142D01*
X79716619Y-53474904D01*
X79669000Y-53284428D01*
X79669000Y-53046333D01*
X79716619Y-52855857D01*
X79764238Y-52760619D01*
X79811857Y-52713000D01*
X79907095Y-52665380D01*
X80859476Y-52665380D02*
X80954714Y-52665380D01*
X81049952Y-52713000D01*
X81097571Y-52760619D01*
X81145190Y-52855857D01*
X81192809Y-53046333D01*
X81192809Y-53284428D01*
X81145190Y-53474904D01*
X81097571Y-53570142D01*
X81049952Y-53617761D01*
X80954714Y-53665380D01*
X80859476Y-53665380D01*
X80764238Y-53617761D01*
X80716619Y-53570142D01*
X80669000Y-53474904D01*
X80621380Y-53284428D01*
X80621380Y-53046333D01*
X80669000Y-52855857D01*
X80716619Y-52760619D01*
X80764238Y-52713000D01*
X80859476Y-52665380D01*
X82049952Y-52998714D02*
X82049952Y-53665380D01*
X81621380Y-52998714D02*
X81621380Y-53522523D01*
X81669000Y-53617761D01*
X81764238Y-53665380D01*
X81907095Y-53665380D01*
X82002333Y-53617761D01*
X82049952Y-53570142D01*
X83192809Y-52665380D02*
X83811857Y-52665380D01*
X83478523Y-53046333D01*
X83621380Y-53046333D01*
X83716619Y-53093952D01*
X83764238Y-53141571D01*
X83811857Y-53236809D01*
X83811857Y-53474904D01*
X83764238Y-53570142D01*
X83716619Y-53617761D01*
X83621380Y-53665380D01*
X83335666Y-53665380D01*
X83240428Y-53617761D01*
X83192809Y-53570142D01*
X84716619Y-52665380D02*
X84240428Y-52665380D01*
X84192809Y-53141571D01*
X84240428Y-53093952D01*
X84335666Y-53046333D01*
X84573761Y-53046333D01*
X84669000Y-53093952D01*
X84716619Y-53141571D01*
X84764238Y-53236809D01*
X84764238Y-53474904D01*
X84716619Y-53570142D01*
X84669000Y-53617761D01*
X84573761Y-53665380D01*
X84335666Y-53665380D01*
X84240428Y-53617761D01*
X84192809Y-53570142D01*
X85049952Y-52665380D02*
X85383285Y-53665380D01*
X85716619Y-52665380D01*
X79804047Y-55236428D02*
X80565952Y-55236428D01*
X80185000Y-55617380D02*
X80185000Y-54855476D01*
X80795952Y-60032142D02*
X80748333Y-60079761D01*
X80605476Y-60127380D01*
X80510238Y-60127380D01*
X80367380Y-60079761D01*
X80272142Y-59984523D01*
X80224523Y-59889285D01*
X80176904Y-59698809D01*
X80176904Y-59555952D01*
X80224523Y-59365476D01*
X80272142Y-59270238D01*
X80367380Y-59175000D01*
X80510238Y-59127380D01*
X80605476Y-59127380D01*
X80748333Y-59175000D01*
X80795952Y-59222619D01*
X81176904Y-59222619D02*
X81224523Y-59175000D01*
X81319761Y-59127380D01*
X81557857Y-59127380D01*
X81653095Y-59175000D01*
X81700714Y-59222619D01*
X81748333Y-59317857D01*
X81748333Y-59413095D01*
X81700714Y-59555952D01*
X81129285Y-60127380D01*
X81748333Y-60127380D01*
X82367380Y-59127380D02*
X82462619Y-59127380D01*
X82557857Y-59175000D01*
X82605476Y-59222619D01*
X82653095Y-59317857D01*
X82700714Y-59508333D01*
X82700714Y-59746428D01*
X82653095Y-59936904D01*
X82605476Y-60032142D01*
X82557857Y-60079761D01*
X82462619Y-60127380D01*
X82367380Y-60127380D01*
X82272142Y-60079761D01*
X82224523Y-60032142D01*
X82176904Y-59936904D01*
X82129285Y-59746428D01*
X82129285Y-59508333D01*
X82176904Y-59317857D01*
X82224523Y-59222619D01*
X82272142Y-59175000D01*
X82367380Y-59127380D01*
X83034047Y-59127380D02*
X83653095Y-59127380D01*
X83319761Y-59508333D01*
X83462619Y-59508333D01*
X83557857Y-59555952D01*
X83605476Y-59603571D01*
X83653095Y-59698809D01*
X83653095Y-59936904D01*
X83605476Y-60032142D01*
X83557857Y-60079761D01*
X83462619Y-60127380D01*
X83176904Y-60127380D01*
X83081666Y-60079761D01*
X83034047Y-60032142D01*
X134533047Y-121610380D02*
X133961619Y-121610380D01*
X134247333Y-121610380D02*
X134247333Y-120610380D01*
X134152095Y-120753238D01*
X134056857Y-120848476D01*
X133961619Y-120896095D01*
X135152095Y-120610380D02*
X135247333Y-120610380D01*
X135342571Y-120658000D01*
X135390190Y-120705619D01*
X135437809Y-120800857D01*
X135485428Y-120991333D01*
X135485428Y-121229428D01*
X135437809Y-121419904D01*
X135390190Y-121515142D01*
X135342571Y-121562761D01*
X135247333Y-121610380D01*
X135152095Y-121610380D01*
X135056857Y-121562761D01*
X135009238Y-121515142D01*
X134961619Y-121419904D01*
X134914000Y-121229428D01*
X134914000Y-120991333D01*
X134961619Y-120800857D01*
X135009238Y-120705619D01*
X135056857Y-120658000D01*
X135152095Y-120610380D01*
X136104476Y-120610380D02*
X136199714Y-120610380D01*
X136294952Y-120658000D01*
X136342571Y-120705619D01*
X136390190Y-120800857D01*
X136437809Y-120991333D01*
X136437809Y-121229428D01*
X136390190Y-121419904D01*
X136342571Y-121515142D01*
X136294952Y-121562761D01*
X136199714Y-121610380D01*
X136104476Y-121610380D01*
X136009238Y-121562761D01*
X135961619Y-121515142D01*
X135914000Y-121419904D01*
X135866380Y-121229428D01*
X135866380Y-120991333D01*
X135914000Y-120800857D01*
X135961619Y-120705619D01*
X136009238Y-120658000D01*
X136104476Y-120610380D01*
X137294952Y-120943714D02*
X137294952Y-121610380D01*
X136866380Y-120943714D02*
X136866380Y-121467523D01*
X136914000Y-121562761D01*
X137009238Y-121610380D01*
X137152095Y-121610380D01*
X137247333Y-121562761D01*
X137294952Y-121515142D01*
X138437809Y-120610380D02*
X139056857Y-120610380D01*
X138723523Y-120991333D01*
X138866380Y-120991333D01*
X138961619Y-121038952D01*
X139009238Y-121086571D01*
X139056857Y-121181809D01*
X139056857Y-121419904D01*
X139009238Y-121515142D01*
X138961619Y-121562761D01*
X138866380Y-121610380D01*
X138580666Y-121610380D01*
X138485428Y-121562761D01*
X138437809Y-121515142D01*
X139961619Y-120610380D02*
X139485428Y-120610380D01*
X139437809Y-121086571D01*
X139485428Y-121038952D01*
X139580666Y-120991333D01*
X139818761Y-120991333D01*
X139914000Y-121038952D01*
X139961619Y-121086571D01*
X140009238Y-121181809D01*
X140009238Y-121419904D01*
X139961619Y-121515142D01*
X139914000Y-121562761D01*
X139818761Y-121610380D01*
X139580666Y-121610380D01*
X139485428Y-121562761D01*
X139437809Y-121515142D01*
X140294952Y-120610380D02*
X140628285Y-121610380D01*
X140961619Y-120610380D01*
X138509047Y-119531428D02*
X139270952Y-119531428D01*
X138890000Y-119912380D02*
X138890000Y-119150476D01*
X136040952Y-115307142D02*
X135993333Y-115354761D01*
X135850476Y-115402380D01*
X135755238Y-115402380D01*
X135612380Y-115354761D01*
X135517142Y-115259523D01*
X135469523Y-115164285D01*
X135421904Y-114973809D01*
X135421904Y-114830952D01*
X135469523Y-114640476D01*
X135517142Y-114545238D01*
X135612380Y-114450000D01*
X135755238Y-114402380D01*
X135850476Y-114402380D01*
X135993333Y-114450000D01*
X136040952Y-114497619D01*
X136421904Y-114497619D02*
X136469523Y-114450000D01*
X136564761Y-114402380D01*
X136802857Y-114402380D01*
X136898095Y-114450000D01*
X136945714Y-114497619D01*
X136993333Y-114592857D01*
X136993333Y-114688095D01*
X136945714Y-114830952D01*
X136374285Y-115402380D01*
X136993333Y-115402380D01*
X137612380Y-114402380D02*
X137707619Y-114402380D01*
X137802857Y-114450000D01*
X137850476Y-114497619D01*
X137898095Y-114592857D01*
X137945714Y-114783333D01*
X137945714Y-115021428D01*
X137898095Y-115211904D01*
X137850476Y-115307142D01*
X137802857Y-115354761D01*
X137707619Y-115402380D01*
X137612380Y-115402380D01*
X137517142Y-115354761D01*
X137469523Y-115307142D01*
X137421904Y-115211904D01*
X137374285Y-115021428D01*
X137374285Y-114783333D01*
X137421904Y-114592857D01*
X137469523Y-114497619D01*
X137517142Y-114450000D01*
X137612380Y-114402380D01*
X138802857Y-114735714D02*
X138802857Y-115402380D01*
X138564761Y-114354761D02*
X138326666Y-115069047D01*
X138945714Y-115069047D01*
X99608047Y-53665380D02*
X99036619Y-53665380D01*
X99322333Y-53665380D02*
X99322333Y-52665380D01*
X99227095Y-52808238D01*
X99131857Y-52903476D01*
X99036619Y-52951095D01*
X100227095Y-52665380D02*
X100322333Y-52665380D01*
X100417571Y-52713000D01*
X100465190Y-52760619D01*
X100512809Y-52855857D01*
X100560428Y-53046333D01*
X100560428Y-53284428D01*
X100512809Y-53474904D01*
X100465190Y-53570142D01*
X100417571Y-53617761D01*
X100322333Y-53665380D01*
X100227095Y-53665380D01*
X100131857Y-53617761D01*
X100084238Y-53570142D01*
X100036619Y-53474904D01*
X99989000Y-53284428D01*
X99989000Y-53046333D01*
X100036619Y-52855857D01*
X100084238Y-52760619D01*
X100131857Y-52713000D01*
X100227095Y-52665380D01*
X101179476Y-52665380D02*
X101274714Y-52665380D01*
X101369952Y-52713000D01*
X101417571Y-52760619D01*
X101465190Y-52855857D01*
X101512809Y-53046333D01*
X101512809Y-53284428D01*
X101465190Y-53474904D01*
X101417571Y-53570142D01*
X101369952Y-53617761D01*
X101274714Y-53665380D01*
X101179476Y-53665380D01*
X101084238Y-53617761D01*
X101036619Y-53570142D01*
X100989000Y-53474904D01*
X100941380Y-53284428D01*
X100941380Y-53046333D01*
X100989000Y-52855857D01*
X101036619Y-52760619D01*
X101084238Y-52713000D01*
X101179476Y-52665380D01*
X102369952Y-52998714D02*
X102369952Y-53665380D01*
X101941380Y-52998714D02*
X101941380Y-53522523D01*
X101989000Y-53617761D01*
X102084238Y-53665380D01*
X102227095Y-53665380D01*
X102322333Y-53617761D01*
X102369952Y-53570142D01*
X103512809Y-52665380D02*
X104131857Y-52665380D01*
X103798523Y-53046333D01*
X103941380Y-53046333D01*
X104036619Y-53093952D01*
X104084238Y-53141571D01*
X104131857Y-53236809D01*
X104131857Y-53474904D01*
X104084238Y-53570142D01*
X104036619Y-53617761D01*
X103941380Y-53665380D01*
X103655666Y-53665380D01*
X103560428Y-53617761D01*
X103512809Y-53570142D01*
X105036619Y-52665380D02*
X104560428Y-52665380D01*
X104512809Y-53141571D01*
X104560428Y-53093952D01*
X104655666Y-53046333D01*
X104893761Y-53046333D01*
X104989000Y-53093952D01*
X105036619Y-53141571D01*
X105084238Y-53236809D01*
X105084238Y-53474904D01*
X105036619Y-53570142D01*
X104989000Y-53617761D01*
X104893761Y-53665380D01*
X104655666Y-53665380D01*
X104560428Y-53617761D01*
X104512809Y-53570142D01*
X105369952Y-52665380D02*
X105703285Y-53665380D01*
X106036619Y-52665380D01*
X100124047Y-55236428D02*
X100885952Y-55236428D01*
X100505000Y-55617380D02*
X100505000Y-54855476D01*
X101115952Y-60032142D02*
X101068333Y-60079761D01*
X100925476Y-60127380D01*
X100830238Y-60127380D01*
X100687380Y-60079761D01*
X100592142Y-59984523D01*
X100544523Y-59889285D01*
X100496904Y-59698809D01*
X100496904Y-59555952D01*
X100544523Y-59365476D01*
X100592142Y-59270238D01*
X100687380Y-59175000D01*
X100830238Y-59127380D01*
X100925476Y-59127380D01*
X101068333Y-59175000D01*
X101115952Y-59222619D01*
X101496904Y-59222619D02*
X101544523Y-59175000D01*
X101639761Y-59127380D01*
X101877857Y-59127380D01*
X101973095Y-59175000D01*
X102020714Y-59222619D01*
X102068333Y-59317857D01*
X102068333Y-59413095D01*
X102020714Y-59555952D01*
X101449285Y-60127380D01*
X102068333Y-60127380D01*
X102687380Y-59127380D02*
X102782619Y-59127380D01*
X102877857Y-59175000D01*
X102925476Y-59222619D01*
X102973095Y-59317857D01*
X103020714Y-59508333D01*
X103020714Y-59746428D01*
X102973095Y-59936904D01*
X102925476Y-60032142D01*
X102877857Y-60079761D01*
X102782619Y-60127380D01*
X102687380Y-60127380D01*
X102592142Y-60079761D01*
X102544523Y-60032142D01*
X102496904Y-59936904D01*
X102449285Y-59746428D01*
X102449285Y-59508333D01*
X102496904Y-59317857D01*
X102544523Y-59222619D01*
X102592142Y-59175000D01*
X102687380Y-59127380D01*
X103925476Y-59127380D02*
X103449285Y-59127380D01*
X103401666Y-59603571D01*
X103449285Y-59555952D01*
X103544523Y-59508333D01*
X103782619Y-59508333D01*
X103877857Y-59555952D01*
X103925476Y-59603571D01*
X103973095Y-59698809D01*
X103973095Y-59936904D01*
X103925476Y-60032142D01*
X103877857Y-60079761D01*
X103782619Y-60127380D01*
X103544523Y-60127380D01*
X103449285Y-60079761D01*
X103401666Y-60032142D01*
X119928047Y-53665380D02*
X119356619Y-53665380D01*
X119642333Y-53665380D02*
X119642333Y-52665380D01*
X119547095Y-52808238D01*
X119451857Y-52903476D01*
X119356619Y-52951095D01*
X120547095Y-52665380D02*
X120642333Y-52665380D01*
X120737571Y-52713000D01*
X120785190Y-52760619D01*
X120832809Y-52855857D01*
X120880428Y-53046333D01*
X120880428Y-53284428D01*
X120832809Y-53474904D01*
X120785190Y-53570142D01*
X120737571Y-53617761D01*
X120642333Y-53665380D01*
X120547095Y-53665380D01*
X120451857Y-53617761D01*
X120404238Y-53570142D01*
X120356619Y-53474904D01*
X120309000Y-53284428D01*
X120309000Y-53046333D01*
X120356619Y-52855857D01*
X120404238Y-52760619D01*
X120451857Y-52713000D01*
X120547095Y-52665380D01*
X121499476Y-52665380D02*
X121594714Y-52665380D01*
X121689952Y-52713000D01*
X121737571Y-52760619D01*
X121785190Y-52855857D01*
X121832809Y-53046333D01*
X121832809Y-53284428D01*
X121785190Y-53474904D01*
X121737571Y-53570142D01*
X121689952Y-53617761D01*
X121594714Y-53665380D01*
X121499476Y-53665380D01*
X121404238Y-53617761D01*
X121356619Y-53570142D01*
X121309000Y-53474904D01*
X121261380Y-53284428D01*
X121261380Y-53046333D01*
X121309000Y-52855857D01*
X121356619Y-52760619D01*
X121404238Y-52713000D01*
X121499476Y-52665380D01*
X122689952Y-52998714D02*
X122689952Y-53665380D01*
X122261380Y-52998714D02*
X122261380Y-53522523D01*
X122309000Y-53617761D01*
X122404238Y-53665380D01*
X122547095Y-53665380D01*
X122642333Y-53617761D01*
X122689952Y-53570142D01*
X123832809Y-52665380D02*
X124451857Y-52665380D01*
X124118523Y-53046333D01*
X124261380Y-53046333D01*
X124356619Y-53093952D01*
X124404238Y-53141571D01*
X124451857Y-53236809D01*
X124451857Y-53474904D01*
X124404238Y-53570142D01*
X124356619Y-53617761D01*
X124261380Y-53665380D01*
X123975666Y-53665380D01*
X123880428Y-53617761D01*
X123832809Y-53570142D01*
X125356619Y-52665380D02*
X124880428Y-52665380D01*
X124832809Y-53141571D01*
X124880428Y-53093952D01*
X124975666Y-53046333D01*
X125213761Y-53046333D01*
X125309000Y-53093952D01*
X125356619Y-53141571D01*
X125404238Y-53236809D01*
X125404238Y-53474904D01*
X125356619Y-53570142D01*
X125309000Y-53617761D01*
X125213761Y-53665380D01*
X124975666Y-53665380D01*
X124880428Y-53617761D01*
X124832809Y-53570142D01*
X125689952Y-52665380D02*
X126023285Y-53665380D01*
X126356619Y-52665380D01*
X120444047Y-55236428D02*
X121205952Y-55236428D01*
X120825000Y-55617380D02*
X120825000Y-54855476D01*
X121435952Y-60032142D02*
X121388333Y-60079761D01*
X121245476Y-60127380D01*
X121150238Y-60127380D01*
X121007380Y-60079761D01*
X120912142Y-59984523D01*
X120864523Y-59889285D01*
X120816904Y-59698809D01*
X120816904Y-59555952D01*
X120864523Y-59365476D01*
X120912142Y-59270238D01*
X121007380Y-59175000D01*
X121150238Y-59127380D01*
X121245476Y-59127380D01*
X121388333Y-59175000D01*
X121435952Y-59222619D01*
X121816904Y-59222619D02*
X121864523Y-59175000D01*
X121959761Y-59127380D01*
X122197857Y-59127380D01*
X122293095Y-59175000D01*
X122340714Y-59222619D01*
X122388333Y-59317857D01*
X122388333Y-59413095D01*
X122340714Y-59555952D01*
X121769285Y-60127380D01*
X122388333Y-60127380D01*
X123007380Y-59127380D02*
X123102619Y-59127380D01*
X123197857Y-59175000D01*
X123245476Y-59222619D01*
X123293095Y-59317857D01*
X123340714Y-59508333D01*
X123340714Y-59746428D01*
X123293095Y-59936904D01*
X123245476Y-60032142D01*
X123197857Y-60079761D01*
X123102619Y-60127380D01*
X123007380Y-60127380D01*
X122912142Y-60079761D01*
X122864523Y-60032142D01*
X122816904Y-59936904D01*
X122769285Y-59746428D01*
X122769285Y-59508333D01*
X122816904Y-59317857D01*
X122864523Y-59222619D01*
X122912142Y-59175000D01*
X123007380Y-59127380D01*
X124197857Y-59127380D02*
X124007380Y-59127380D01*
X123912142Y-59175000D01*
X123864523Y-59222619D01*
X123769285Y-59365476D01*
X123721666Y-59555952D01*
X123721666Y-59936904D01*
X123769285Y-60032142D01*
X123816904Y-60079761D01*
X123912142Y-60127380D01*
X124102619Y-60127380D01*
X124197857Y-60079761D01*
X124245476Y-60032142D01*
X124293095Y-59936904D01*
X124293095Y-59698809D01*
X124245476Y-59603571D01*
X124197857Y-59555952D01*
X124102619Y-59508333D01*
X123912142Y-59508333D01*
X123816904Y-59555952D01*
X123769285Y-59603571D01*
X123721666Y-59698809D01*
X108243761Y-117800380D02*
X107672333Y-117800380D01*
X107958047Y-117800380D02*
X107958047Y-116800380D01*
X107862809Y-116943238D01*
X107767571Y-117038476D01*
X107672333Y-117086095D01*
X108862809Y-116800380D02*
X108958047Y-116800380D01*
X109053285Y-116848000D01*
X109100904Y-116895619D01*
X109148523Y-116990857D01*
X109196142Y-117181333D01*
X109196142Y-117419428D01*
X109148523Y-117609904D01*
X109100904Y-117705142D01*
X109053285Y-117752761D01*
X108958047Y-117800380D01*
X108862809Y-117800380D01*
X108767571Y-117752761D01*
X108719952Y-117705142D01*
X108672333Y-117609904D01*
X108624714Y-117419428D01*
X108624714Y-117181333D01*
X108672333Y-116990857D01*
X108719952Y-116895619D01*
X108767571Y-116848000D01*
X108862809Y-116800380D01*
X109624714Y-117800380D02*
X109624714Y-116800380D01*
X109719952Y-117419428D02*
X110005666Y-117800380D01*
X110005666Y-117133714D02*
X109624714Y-117514666D01*
D16*
X108772333Y-117528952D02*
X108639000Y-117338476D01*
X108543761Y-117528952D02*
X108543761Y-117128952D01*
X108696142Y-117128952D01*
X108734238Y-117148000D01*
X108753285Y-117167047D01*
X108772333Y-117205142D01*
X108772333Y-117262285D01*
X108753285Y-117300380D01*
X108734238Y-117319428D01*
X108696142Y-117338476D01*
X108543761Y-117338476D01*
X109115190Y-117128952D02*
X109039000Y-117128952D01*
X109000904Y-117148000D01*
X108981857Y-117167047D01*
X108943761Y-117224190D01*
X108924714Y-117300380D01*
X108924714Y-117452761D01*
X108943761Y-117490857D01*
X108962809Y-117509904D01*
X109000904Y-117528952D01*
X109077095Y-117528952D01*
X109115190Y-117509904D01*
X109134238Y-117490857D01*
X109153285Y-117452761D01*
X109153285Y-117357523D01*
X109134238Y-117319428D01*
X109115190Y-117300380D01*
X109077095Y-117281333D01*
X109000904Y-117281333D01*
X108962809Y-117300380D01*
X108943761Y-117319428D01*
X108924714Y-117357523D01*
D12*
X128976380Y-117943238D02*
X128976380Y-118514666D01*
X128976380Y-118228952D02*
X127976380Y-118228952D01*
X128119238Y-118324190D01*
X128214476Y-118419428D01*
X128262095Y-118514666D01*
X127976380Y-117324190D02*
X127976380Y-117228952D01*
X128024000Y-117133714D01*
X128071619Y-117086095D01*
X128166857Y-117038476D01*
X128357333Y-116990857D01*
X128595428Y-116990857D01*
X128785904Y-117038476D01*
X128881142Y-117086095D01*
X128928761Y-117133714D01*
X128976380Y-117228952D01*
X128976380Y-117324190D01*
X128928761Y-117419428D01*
X128881142Y-117467047D01*
X128785904Y-117514666D01*
X128595428Y-117562285D01*
X128357333Y-117562285D01*
X128166857Y-117514666D01*
X128071619Y-117467047D01*
X128024000Y-117419428D01*
X127976380Y-117324190D01*
X128976380Y-116562285D02*
X127976380Y-116562285D01*
X128595428Y-116467047D02*
X128976380Y-116181333D01*
X128309714Y-116181333D02*
X128690666Y-116562285D01*
D16*
X128704952Y-117414666D02*
X128514476Y-117548000D01*
X128704952Y-117643238D02*
X128304952Y-117643238D01*
X128304952Y-117490857D01*
X128324000Y-117452761D01*
X128343047Y-117433714D01*
X128381142Y-117414666D01*
X128438285Y-117414666D01*
X128476380Y-117433714D01*
X128495428Y-117452761D01*
X128514476Y-117490857D01*
X128514476Y-117643238D01*
X128304952Y-117281333D02*
X128304952Y-117014666D01*
X128704952Y-117186095D01*
M02*
