G04 #@! TF.GenerationSoftware,KiCad,Pcbnew,5.1.0*
G04 #@! TF.CreationDate,2019-04-13T19:37:17+02:00*
G04 #@! TF.ProjectId,RAMPS-FD,52414d50-532d-4464-942e-6b696361645f,rev?*
G04 #@! TF.SameCoordinates,Original*
G04 #@! TF.FileFunction,Legend,Top*
G04 #@! TF.FilePolarity,Positive*
%FSLAX46Y46*%
G04 Gerber Fmt 4.6, Leading zero omitted, Abs format (unit mm)*
G04 Created by KiCad (PCBNEW 5.1.0) date 2019-04-13 19:37:17*
%MOMM*%
%LPD*%
G04 APERTURE LIST*
%ADD10C,0.152400*%
%ADD11C,0.304800*%
%ADD12C,0.150000*%
%ADD13C,0.300000*%
%ADD14C,0.381000*%
%ADD15C,0.254000*%
%ADD16C,0.203200*%
%ADD17C,0.120000*%
%ADD18C,0.127000*%
%ADD19C,0.119380*%
%ADD20C,0.101600*%
%ADD21C,0.078740*%
%ADD22C,0.066040*%
%ADD23C,0.050800*%
%ADD24C,0.200660*%
%ADD25R,1.924000X1.924000*%
%ADD26C,1.924000*%
%ADD27O,1.924000X1.924000*%
%ADD28C,1.275000*%
%ADD29R,3.399740X3.399740*%
%ADD30C,3.399740*%
%ADD31R,1.799540X0.999440*%
%ADD32R,1.314400X1.314400*%
%ADD33R,1.598880X1.598880*%
%ADD34R,1.799540X1.900000*%
%ADD35R,5.300000X5.200000*%
%ADD36C,2.800000*%
%ADD37R,2.800000X2.800000*%
%ADD38R,1.200000X1.150000*%
%ADD39R,1.150000X1.200000*%
%ADD40R,0.900000X1.300000*%
%ADD41R,1.300000X0.900000*%
%ADD42R,1.162000X0.831800*%
%ADD43R,0.831800X1.162000*%
%ADD44R,1.850000X0.850000*%
%ADD45R,1.900000X0.850000*%
%ADD46O,1.924000X2.940000*%
%ADD47C,3.575000*%
%ADD48C,3.500000*%
%ADD49C,2.540000*%
%ADD50R,1.620000X1.310000*%
%ADD51R,1.949400X2.068780*%
%ADD52R,2.068780X1.949400*%
%ADD53C,3.400000*%
%ADD54R,2.899360X1.797000*%
%ADD55R,2.100000X2.100000*%
%ADD56O,2.100000X2.100000*%
%ADD57C,2.178000*%
%ADD58R,2.178000X2.178000*%
%ADD59R,3.900000X2.000000*%
G04 APERTURE END LIST*
D10*
X52324000Y-39573000D02*
X52324000Y-139573000D01*
X152324000Y-39573000D02*
X52324000Y-39573000D01*
X152324000Y-139573000D02*
X152324000Y-39573000D01*
X52324000Y-139573000D02*
X152324000Y-139573000D01*
D11*
X54653571Y-121681428D02*
X53153571Y-121681428D01*
X54225000Y-121181428D01*
X53153571Y-120681428D01*
X54653571Y-120681428D01*
X53153571Y-119681428D02*
X53153571Y-119395714D01*
X53225000Y-119252857D01*
X53367857Y-119110000D01*
X53653571Y-119038571D01*
X54153571Y-119038571D01*
X54439285Y-119110000D01*
X54582142Y-119252857D01*
X54653571Y-119395714D01*
X54653571Y-119681428D01*
X54582142Y-119824285D01*
X54439285Y-119967142D01*
X54153571Y-120038571D01*
X53653571Y-120038571D01*
X53367857Y-119967142D01*
X53225000Y-119824285D01*
X53153571Y-119681428D01*
X53153571Y-118610000D02*
X53153571Y-117752857D01*
X54653571Y-118181428D02*
X53153571Y-118181428D01*
X54796428Y-117610000D02*
X54796428Y-116467142D01*
X54653571Y-116110000D02*
X53153571Y-116110000D01*
X54653571Y-115395714D02*
X53153571Y-115395714D01*
X54653571Y-114538571D01*
X53153571Y-114538571D01*
D12*
X135509000Y-72313800D02*
X135509000Y-71678800D01*
X132969000Y-72313800D02*
X135509000Y-72313800D01*
X132969000Y-65328800D02*
X132969000Y-72313800D01*
X135509000Y-65328800D02*
X132969000Y-65328800D01*
X135509000Y-65963800D02*
X135509000Y-65328800D01*
D11*
X110998000Y-103301800D02*
X110998000Y-105333800D01*
X105664000Y-105333800D02*
X105664000Y-103301800D01*
X104902000Y-103301800D02*
X104902000Y-105333800D01*
X99568000Y-103301800D02*
X104902000Y-103301800D01*
X99568000Y-105333800D02*
X99568000Y-103301800D01*
X90170000Y-97205800D02*
X90170000Y-99237800D01*
X82550000Y-97205800D02*
X90170000Y-97205800D01*
X82550000Y-97459800D02*
X82550000Y-97205800D01*
X82550000Y-99237800D02*
X82550000Y-97459800D01*
X88328500Y-110286800D02*
X80200500Y-110286800D01*
X80200500Y-112572800D02*
X80708500Y-112572800D01*
X80187800Y-107518200D02*
X80200500Y-112572800D01*
X88315800Y-107518200D02*
X80187800Y-107518200D01*
X88315800Y-112903000D02*
X88303100Y-107518200D01*
X88868285Y-129404371D02*
X88154000Y-129404371D01*
X88082571Y-130118657D01*
X88154000Y-130047228D01*
X88296857Y-129975800D01*
X88654000Y-129975800D01*
X88796857Y-130047228D01*
X88868285Y-130118657D01*
X88939714Y-130261514D01*
X88939714Y-130618657D01*
X88868285Y-130761514D01*
X88796857Y-130832942D01*
X88654000Y-130904371D01*
X88296857Y-130904371D01*
X88154000Y-130832942D01*
X88082571Y-130761514D01*
X89368285Y-129404371D02*
X89868285Y-130904371D01*
X90368285Y-129404371D01*
X82434857Y-129475800D02*
X82292000Y-129404371D01*
X82077714Y-129404371D01*
X81863428Y-129475800D01*
X81720571Y-129618657D01*
X81649142Y-129761514D01*
X81577714Y-130047228D01*
X81577714Y-130261514D01*
X81649142Y-130547228D01*
X81720571Y-130690085D01*
X81863428Y-130832942D01*
X82077714Y-130904371D01*
X82220571Y-130904371D01*
X82434857Y-130832942D01*
X82506285Y-130761514D01*
X82506285Y-130261514D01*
X82220571Y-130261514D01*
X81280000Y-45339000D02*
X80391000Y-44450000D01*
X81280000Y-43561000D02*
X81280000Y-45339000D01*
X80391000Y-44450000D02*
X81280000Y-43561000D01*
X80518000Y-42037000D02*
X80391000Y-41910000D01*
X81280000Y-42799000D02*
X80518000Y-42037000D01*
X81280000Y-41021000D02*
X81280000Y-42799000D01*
X80391000Y-41910000D02*
X81280000Y-41021000D01*
D13*
X104838571Y-47291523D02*
X105124285Y-47386761D01*
X105600476Y-47386761D01*
X105790952Y-47291523D01*
X105886190Y-47196285D01*
X105981428Y-47005809D01*
X105981428Y-46815333D01*
X105886190Y-46624857D01*
X105790952Y-46529619D01*
X105600476Y-46434380D01*
X105219523Y-46339142D01*
X105029047Y-46243904D01*
X104933809Y-46148666D01*
X104838571Y-45958190D01*
X104838571Y-45767714D01*
X104933809Y-45577238D01*
X105029047Y-45482000D01*
X105219523Y-45386761D01*
X105695714Y-45386761D01*
X105981428Y-45482000D01*
X104521095Y-43703857D02*
X106044904Y-43703857D01*
X105283000Y-44465761D02*
X105283000Y-42941952D01*
X105806809Y-40148000D02*
X105616333Y-40052761D01*
X105330619Y-40052761D01*
X105044904Y-40148000D01*
X104854428Y-40338476D01*
X104759190Y-40528952D01*
X104663952Y-40909904D01*
X104663952Y-41195619D01*
X104759190Y-41576571D01*
X104854428Y-41767047D01*
X105044904Y-41957523D01*
X105330619Y-42052761D01*
X105521095Y-42052761D01*
X105806809Y-41957523D01*
X105902047Y-41862285D01*
X105902047Y-41195619D01*
X105521095Y-41195619D01*
D11*
X84236857Y-130904371D02*
X84236857Y-129404371D01*
X84808285Y-129404371D01*
X84951142Y-129475800D01*
X85022571Y-129547228D01*
X85094000Y-129690085D01*
X85094000Y-129904371D01*
X85022571Y-130047228D01*
X84951142Y-130118657D01*
X84808285Y-130190085D01*
X84236857Y-130190085D01*
X85665428Y-130832942D02*
X85879714Y-130904371D01*
X86236857Y-130904371D01*
X86379714Y-130832942D01*
X86451142Y-130761514D01*
X86522571Y-130618657D01*
X86522571Y-130475800D01*
X86451142Y-130332942D01*
X86379714Y-130261514D01*
X86236857Y-130190085D01*
X85951142Y-130118657D01*
X85808285Y-130047228D01*
X85736857Y-129975800D01*
X85665428Y-129832942D01*
X85665428Y-129690085D01*
X85736857Y-129547228D01*
X85808285Y-129475800D01*
X85951142Y-129404371D01*
X86308285Y-129404371D01*
X86522571Y-129475800D01*
X143383000Y-39925000D02*
X145923000Y-39925000D01*
X145923000Y-44878000D02*
X143383000Y-44878000D01*
X145923000Y-49958000D02*
X143383000Y-49958000D01*
X143383000Y-55038000D02*
X145923000Y-55038000D01*
X120904000Y-91868000D02*
X121666000Y-91360000D01*
X120904000Y-90725000D02*
X120904000Y-91868000D01*
X121666000Y-91360000D02*
X120904000Y-90725000D01*
X60633428Y-95395142D02*
X61794571Y-95395142D01*
X61214000Y-96169238D02*
X61214000Y-94621047D01*
X53648428Y-56533142D02*
X54809571Y-56533142D01*
X54229000Y-57307238D02*
X54229000Y-55759047D01*
X53648428Y-50818142D02*
X54809571Y-50818142D01*
X54229000Y-51592238D02*
X54229000Y-50044047D01*
X61261171Y-44965257D02*
X60100028Y-44965257D01*
X60680600Y-44191161D02*
X60680600Y-45739352D01*
X58220428Y-64534142D02*
X59381571Y-64534142D01*
X58801000Y-65308238D02*
X58801000Y-63760047D01*
X58220428Y-74059142D02*
X59381571Y-74059142D01*
X58801000Y-74833238D02*
X58801000Y-73285047D01*
X58220428Y-83711142D02*
X59381571Y-83711142D01*
X58801000Y-84485238D02*
X58801000Y-82937047D01*
X131318000Y-40513000D02*
X130556000Y-41275000D01*
X129794000Y-40513000D02*
X131318000Y-40513000D01*
X130556000Y-41275000D02*
X129794000Y-40513000D01*
X86360000Y-101600000D02*
X86360000Y-99187000D01*
X90170000Y-99187000D02*
X90170000Y-101600000D01*
X82550000Y-99187000D02*
X90170000Y-99187000D01*
X82550000Y-101600000D02*
X82550000Y-99187000D01*
D14*
X84645500Y-112649000D02*
X84645500Y-110617000D01*
D11*
X97790000Y-64770000D02*
X97790000Y-66675000D01*
X118110000Y-64770000D02*
X118110000Y-66675000D01*
X118110000Y-58420000D02*
X118110000Y-57150000D01*
X97790000Y-58420000D02*
X97790000Y-57150000D01*
X101600000Y-113030000D02*
X101600000Y-111125000D01*
X121920000Y-113030000D02*
X121920000Y-111125000D01*
X121920000Y-128270000D02*
X121920000Y-129540000D01*
X101600000Y-128270000D02*
X101600000Y-129540000D01*
D15*
X84990214Y-111629371D02*
X85764309Y-111629371D01*
X85377261Y-112016419D02*
X85377261Y-111242323D01*
X86731928Y-111000419D02*
X86248119Y-111000419D01*
X86199738Y-111484228D01*
X86248119Y-111435847D01*
X86344880Y-111387466D01*
X86586785Y-111387466D01*
X86683547Y-111435847D01*
X86731928Y-111484228D01*
X86780309Y-111580990D01*
X86780309Y-111822895D01*
X86731928Y-111919657D01*
X86683547Y-111968038D01*
X86586785Y-112016419D01*
X86344880Y-112016419D01*
X86248119Y-111968038D01*
X86199738Y-111919657D01*
X87070595Y-111000419D02*
X87409261Y-112016419D01*
X87747928Y-111000419D01*
X81010880Y-112016419D02*
X81010880Y-111000419D01*
X81688214Y-111000419D02*
X81881738Y-111000419D01*
X81978500Y-111048800D01*
X82075261Y-111145561D01*
X82123642Y-111339085D01*
X82123642Y-111677752D01*
X82075261Y-111871276D01*
X81978500Y-111968038D01*
X81881738Y-112016419D01*
X81688214Y-112016419D01*
X81591452Y-111968038D01*
X81494690Y-111871276D01*
X81446309Y-111677752D01*
X81446309Y-111339085D01*
X81494690Y-111145561D01*
X81591452Y-111048800D01*
X81688214Y-111000419D01*
X83139642Y-112016419D02*
X82800976Y-111532609D01*
X82559071Y-112016419D02*
X82559071Y-111000419D01*
X82946119Y-111000419D01*
X83042880Y-111048800D01*
X83091261Y-111097180D01*
X83139642Y-111193942D01*
X83139642Y-111339085D01*
X83091261Y-111435847D01*
X83042880Y-111484228D01*
X82946119Y-111532609D01*
X82559071Y-111532609D01*
X83913738Y-111484228D02*
X83575071Y-111484228D01*
X83575071Y-112016419D02*
X83575071Y-111000419D01*
X84058880Y-111000419D01*
X83293857Y-99767571D02*
X83366428Y-99695000D01*
X83511571Y-99622428D01*
X83874428Y-99622428D01*
X84019571Y-99695000D01*
X84092142Y-99767571D01*
X84164714Y-99912714D01*
X84164714Y-100057857D01*
X84092142Y-100275571D01*
X83221285Y-101146428D01*
X84164714Y-101146428D01*
X85471000Y-100130428D02*
X85471000Y-101146428D01*
X85108142Y-99549857D02*
X84745285Y-100638428D01*
X85688714Y-100638428D01*
X87974714Y-101146428D02*
X87103857Y-101146428D01*
X87539285Y-101146428D02*
X87539285Y-99622428D01*
X87394142Y-99840142D01*
X87249000Y-99985285D01*
X87103857Y-100057857D01*
X88555285Y-99767571D02*
X88627857Y-99695000D01*
X88773000Y-99622428D01*
X89135857Y-99622428D01*
X89281000Y-99695000D01*
X89353571Y-99767571D01*
X89426142Y-99912714D01*
X89426142Y-100057857D01*
X89353571Y-100275571D01*
X88482714Y-101146428D01*
X89426142Y-101146428D01*
D11*
X61752238Y-106607428D02*
X59720238Y-106607428D01*
X60687857Y-106607428D02*
X60687857Y-105736571D01*
X61752238Y-105736571D02*
X59720238Y-105736571D01*
X60687857Y-104502857D02*
X60784619Y-104285142D01*
X60881380Y-104212571D01*
X61074904Y-104140000D01*
X61365190Y-104140000D01*
X61558714Y-104212571D01*
X61655476Y-104285142D01*
X61752238Y-104430285D01*
X61752238Y-105010857D01*
X59720238Y-105010857D01*
X59720238Y-104502857D01*
X59817000Y-104357714D01*
X59913761Y-104285142D01*
X60107285Y-104212571D01*
X60300809Y-104212571D01*
X60494333Y-104285142D01*
X60591095Y-104357714D01*
X60687857Y-104502857D01*
X60687857Y-105010857D01*
X60379428Y-108095142D02*
X61540571Y-108095142D01*
X60379428Y-102380142D02*
X61540571Y-102380142D01*
X60960000Y-103154238D02*
X60960000Y-101606047D01*
X60452000Y-119664238D02*
X60452000Y-117632238D01*
X60960000Y-119083666D01*
X61468000Y-117632238D01*
X61468000Y-119664238D01*
X60379428Y-120795142D02*
X61540571Y-120795142D01*
X60379428Y-115715142D02*
X61540571Y-115715142D01*
X60960000Y-116489238D02*
X60960000Y-114941047D01*
X60560857Y-129824238D02*
X60560857Y-127792238D01*
X61141428Y-127792238D01*
X61286571Y-127889000D01*
X61359142Y-127985761D01*
X61431714Y-128179285D01*
X61431714Y-128469571D01*
X61359142Y-128663095D01*
X61286571Y-128759857D01*
X61141428Y-128856619D01*
X60560857Y-128856619D01*
X60379428Y-130955142D02*
X61540571Y-130955142D01*
X60379428Y-125875142D02*
X61540571Y-125875142D01*
X60960000Y-126649238D02*
X60960000Y-125101047D01*
D16*
X144441333Y-64213619D02*
X145070285Y-64213619D01*
X144731619Y-64600666D01*
X144876761Y-64600666D01*
X144973523Y-64649047D01*
X145021904Y-64697428D01*
X145070285Y-64794190D01*
X145070285Y-65036095D01*
X145021904Y-65132857D01*
X144973523Y-65181238D01*
X144876761Y-65229619D01*
X144586476Y-65229619D01*
X144489714Y-65181238D01*
X144441333Y-65132857D01*
X144489714Y-66850380D02*
X144538095Y-66802000D01*
X144634857Y-66753619D01*
X144876761Y-66753619D01*
X144973523Y-66802000D01*
X145021904Y-66850380D01*
X145070285Y-66947142D01*
X145070285Y-67043904D01*
X145021904Y-67189047D01*
X144441333Y-67769619D01*
X145070285Y-67769619D01*
X145070285Y-70309619D02*
X144489714Y-70309619D01*
X144780000Y-70309619D02*
X144780000Y-69293619D01*
X144683238Y-69438761D01*
X144586476Y-69535523D01*
X144489714Y-69583904D01*
X144731619Y-71833619D02*
X144828380Y-71833619D01*
X144925142Y-71882000D01*
X144973523Y-71930380D01*
X145021904Y-72027142D01*
X145070285Y-72220666D01*
X145070285Y-72462571D01*
X145021904Y-72656095D01*
X144973523Y-72752857D01*
X144925142Y-72801238D01*
X144828380Y-72849619D01*
X144731619Y-72849619D01*
X144634857Y-72801238D01*
X144586476Y-72752857D01*
X144538095Y-72656095D01*
X144489714Y-72462571D01*
X144489714Y-72220666D01*
X144538095Y-72027142D01*
X144586476Y-71930380D01*
X144634857Y-71882000D01*
X144731619Y-71833619D01*
D11*
X150682476Y-56823428D02*
X150779238Y-56605714D01*
X150779238Y-56242857D01*
X150682476Y-56097714D01*
X150585714Y-56025142D01*
X150392190Y-55952571D01*
X150198666Y-55952571D01*
X150005142Y-56025142D01*
X149908380Y-56097714D01*
X149811619Y-56242857D01*
X149714857Y-56533142D01*
X149618095Y-56678285D01*
X149521333Y-56750857D01*
X149327809Y-56823428D01*
X149134285Y-56823428D01*
X148940761Y-56750857D01*
X148844000Y-56678285D01*
X148747238Y-56533142D01*
X148747238Y-56170285D01*
X148844000Y-55952571D01*
D14*
X147226020Y-56878220D02*
X147226020Y-55608220D01*
X144645380Y-55742840D02*
X144645380Y-57012840D01*
X145280380Y-56377840D02*
X144010380Y-56377840D01*
X133350000Y-102235000D02*
X132715000Y-101600000D01*
X133350000Y-100965000D02*
X133350000Y-102235000D01*
X132715000Y-101600000D02*
X133350000Y-100965000D01*
D11*
X79039357Y-61942738D02*
X78531357Y-60975119D01*
X78168500Y-61942738D02*
X78168500Y-59910738D01*
X78749071Y-59910738D01*
X78894214Y-60007500D01*
X78966785Y-60104261D01*
X79039357Y-60297785D01*
X79039357Y-60588071D01*
X78966785Y-60781595D01*
X78894214Y-60878357D01*
X78749071Y-60975119D01*
X78168500Y-60975119D01*
X79619928Y-61362166D02*
X80345642Y-61362166D01*
X79474785Y-61942738D02*
X79982785Y-59910738D01*
X80490785Y-61942738D01*
X80998785Y-61942738D02*
X80998785Y-59910738D01*
X81506785Y-61362166D01*
X82014785Y-59910738D01*
X82014785Y-61942738D01*
X82740500Y-61942738D02*
X82740500Y-59910738D01*
X83321071Y-59910738D01*
X83466214Y-60007500D01*
X83538785Y-60104261D01*
X83611357Y-60297785D01*
X83611357Y-60588071D01*
X83538785Y-60781595D01*
X83466214Y-60878357D01*
X83321071Y-60975119D01*
X82740500Y-60975119D01*
X84191928Y-61845976D02*
X84409642Y-61942738D01*
X84772500Y-61942738D01*
X84917642Y-61845976D01*
X84990214Y-61749214D01*
X85062785Y-61555690D01*
X85062785Y-61362166D01*
X84990214Y-61168642D01*
X84917642Y-61071880D01*
X84772500Y-60975119D01*
X84482214Y-60878357D01*
X84337071Y-60781595D01*
X84264500Y-60684833D01*
X84191928Y-60491309D01*
X84191928Y-60297785D01*
X84264500Y-60104261D01*
X84337071Y-60007500D01*
X84482214Y-59910738D01*
X84845071Y-59910738D01*
X85062785Y-60007500D01*
X85715928Y-61168642D02*
X86877071Y-61168642D01*
X88110785Y-60878357D02*
X87602785Y-60878357D01*
X87602785Y-61942738D02*
X87602785Y-59910738D01*
X88328500Y-59910738D01*
X88909071Y-61942738D02*
X88909071Y-59910738D01*
X89271928Y-59910738D01*
X89489642Y-60007500D01*
X89634785Y-60201023D01*
X89707357Y-60394547D01*
X89779928Y-60781595D01*
X89779928Y-61071880D01*
X89707357Y-61458928D01*
X89634785Y-61652452D01*
X89489642Y-61845976D01*
X89271928Y-61942738D01*
X88909071Y-61942738D01*
X91449071Y-60588071D02*
X91811928Y-61942738D01*
X92174785Y-60588071D01*
X92682785Y-60104261D02*
X92755357Y-60007500D01*
X92900500Y-59910738D01*
X93263357Y-59910738D01*
X93408500Y-60007500D01*
X93481071Y-60104261D01*
X93553642Y-60297785D01*
X93553642Y-60491309D01*
X93481071Y-60781595D01*
X92610214Y-61942738D01*
X93553642Y-61942738D01*
X94206785Y-61749214D02*
X94279357Y-61845976D01*
X94206785Y-61942738D01*
X94134214Y-61845976D01*
X94206785Y-61749214D01*
X94206785Y-61942738D01*
X94787357Y-59910738D02*
X95730785Y-59910738D01*
X95222785Y-60684833D01*
X95440500Y-60684833D01*
X95585642Y-60781595D01*
X95658214Y-60878357D01*
X95730785Y-61071880D01*
X95730785Y-61555690D01*
X95658214Y-61749214D01*
X95585642Y-61845976D01*
X95440500Y-61942738D01*
X95005071Y-61942738D01*
X94859928Y-61845976D01*
X94787357Y-61749214D01*
X98706214Y-61942738D02*
X98706214Y-59910738D01*
X98706214Y-60684833D02*
X98851357Y-60588071D01*
X99141642Y-60588071D01*
X99286785Y-60684833D01*
X99359357Y-60781595D01*
X99431928Y-60975119D01*
X99431928Y-61555690D01*
X99359357Y-61749214D01*
X99286785Y-61845976D01*
X99141642Y-61942738D01*
X98851357Y-61942738D01*
X98706214Y-61845976D01*
X100302785Y-61942738D02*
X100157642Y-61845976D01*
X100085071Y-61749214D01*
X100012500Y-61555690D01*
X100012500Y-60975119D01*
X100085071Y-60781595D01*
X100157642Y-60684833D01*
X100302785Y-60588071D01*
X100520500Y-60588071D01*
X100665642Y-60684833D01*
X100738214Y-60781595D01*
X100810785Y-60975119D01*
X100810785Y-61555690D01*
X100738214Y-61749214D01*
X100665642Y-61845976D01*
X100520500Y-61942738D01*
X100302785Y-61942738D01*
X101463928Y-61942738D02*
X101463928Y-59910738D01*
X101463928Y-60684833D02*
X101609071Y-60588071D01*
X101899357Y-60588071D01*
X102044500Y-60684833D01*
X102117071Y-60781595D01*
X102189642Y-60975119D01*
X102189642Y-61555690D01*
X102117071Y-61749214D01*
X102044500Y-61845976D01*
X101899357Y-61942738D01*
X101609071Y-61942738D01*
X101463928Y-61845976D01*
X103495928Y-61845976D02*
X103350785Y-61942738D01*
X103060500Y-61942738D01*
X102915357Y-61845976D01*
X102842785Y-61749214D01*
X102770214Y-61555690D01*
X102770214Y-60975119D01*
X102842785Y-60781595D01*
X102915357Y-60684833D01*
X103060500Y-60588071D01*
X103350785Y-60588071D01*
X103495928Y-60684833D01*
X105237642Y-59813976D02*
X103931357Y-62426547D01*
X105745642Y-61942738D02*
X105745642Y-59910738D01*
X106253642Y-61362166D01*
X106761642Y-59910738D01*
X106761642Y-61942738D01*
X107487357Y-61942738D02*
X107487357Y-59910738D01*
X108358214Y-61942738D02*
X107705071Y-60781595D01*
X108358214Y-59910738D02*
X107487357Y-61071880D01*
X110099928Y-60104261D02*
X110172500Y-60007500D01*
X110317642Y-59910738D01*
X110680500Y-59910738D01*
X110825642Y-60007500D01*
X110898214Y-60104261D01*
X110970785Y-60297785D01*
X110970785Y-60491309D01*
X110898214Y-60781595D01*
X110027357Y-61942738D01*
X110970785Y-61942738D01*
X111914214Y-59910738D02*
X112059357Y-59910738D01*
X112204500Y-60007500D01*
X112277071Y-60104261D01*
X112349642Y-60297785D01*
X112422214Y-60684833D01*
X112422214Y-61168642D01*
X112349642Y-61555690D01*
X112277071Y-61749214D01*
X112204500Y-61845976D01*
X112059357Y-61942738D01*
X111914214Y-61942738D01*
X111769071Y-61845976D01*
X111696500Y-61749214D01*
X111623928Y-61555690D01*
X111551357Y-61168642D01*
X111551357Y-60684833D01*
X111623928Y-60297785D01*
X111696500Y-60104261D01*
X111769071Y-60007500D01*
X111914214Y-59910738D01*
X113873642Y-61942738D02*
X113002785Y-61942738D01*
X113438214Y-61942738D02*
X113438214Y-59910738D01*
X113293071Y-60201023D01*
X113147928Y-60394547D01*
X113002785Y-60491309D01*
X114599357Y-61942738D02*
X114889642Y-61942738D01*
X115034785Y-61845976D01*
X115107357Y-61749214D01*
X115252500Y-61458928D01*
X115325071Y-61071880D01*
X115325071Y-60297785D01*
X115252500Y-60104261D01*
X115179928Y-60007500D01*
X115034785Y-59910738D01*
X114744500Y-59910738D01*
X114599357Y-60007500D01*
X114526785Y-60104261D01*
X114454214Y-60297785D01*
X114454214Y-60781595D01*
X114526785Y-60975119D01*
X114599357Y-61071880D01*
X114744500Y-61168642D01*
X115034785Y-61168642D01*
X115179928Y-61071880D01*
X115252500Y-60975119D01*
X115325071Y-60781595D01*
D15*
X149116051Y-124460000D02*
G75*
G03X149116051Y-124460000I-1796051J0D01*
G01*
X67836051Y-76200000D02*
G75*
G03X67836051Y-76200000I-1796051J0D01*
G01*
X66566051Y-124460000D02*
G75*
G03X66566051Y-124460000I-1796051J0D01*
G01*
D12*
X132461000Y-101600000D02*
X133477000Y-102235000D01*
X133477000Y-102235000D02*
X133477000Y-100965000D01*
X133477000Y-100965000D02*
X132461000Y-101600000D01*
D16*
X134040880Y-94521020D02*
X134040880Y-86520020D01*
X134040880Y-86520020D02*
X125039120Y-86520020D01*
X125039120Y-86520020D02*
X125039120Y-106519980D01*
X125039120Y-106519980D02*
X129540000Y-106519980D01*
X129540000Y-106519980D02*
X134040880Y-106519980D01*
X134040880Y-106519980D02*
X134040880Y-98518980D01*
D11*
X127000000Y-102870000D02*
X127000000Y-90170000D01*
X127000000Y-90170000D02*
X132080000Y-90170000D01*
X132080000Y-90170000D02*
X132080000Y-102870000D01*
X132080000Y-102870000D02*
X127000000Y-102870000D01*
D17*
X110550000Y-72323000D02*
X110550000Y-67123000D01*
X102870000Y-72323000D02*
X110550000Y-72323000D01*
X100270000Y-67123000D02*
X110550000Y-67123000D01*
X102870000Y-72323000D02*
X102870000Y-69723000D01*
X102870000Y-69723000D02*
X100270000Y-69723000D01*
X100270000Y-69723000D02*
X100270000Y-67123000D01*
X101600000Y-72323000D02*
X100270000Y-72323000D01*
X100270000Y-72323000D02*
X100270000Y-70993000D01*
X110938000Y-105223000D02*
X110938000Y-110423000D01*
X118618000Y-105223000D02*
X110938000Y-105223000D01*
X121218000Y-110423000D02*
X110938000Y-110423000D01*
X118618000Y-105223000D02*
X118618000Y-107823000D01*
X118618000Y-107823000D02*
X121218000Y-107823000D01*
X121218000Y-107823000D02*
X121218000Y-110423000D01*
X119888000Y-105223000D02*
X121218000Y-105223000D01*
X121218000Y-105223000D02*
X121218000Y-106553000D01*
X79886500Y-67243000D02*
X79886500Y-65913000D01*
X81216500Y-67243000D02*
X79886500Y-67243000D01*
X82486500Y-67243000D02*
X82486500Y-64583000D01*
X82486500Y-64583000D02*
X90166500Y-64583000D01*
X82486500Y-67243000D02*
X90166500Y-67243000D01*
X90166500Y-67243000D02*
X90166500Y-64583000D01*
X100270000Y-67243000D02*
X100270000Y-65913000D01*
X101600000Y-67243000D02*
X100270000Y-67243000D01*
X102870000Y-67243000D02*
X102870000Y-64583000D01*
X102870000Y-64583000D02*
X110550000Y-64583000D01*
X102870000Y-67243000D02*
X110550000Y-67243000D01*
X110550000Y-67243000D02*
X110550000Y-64583000D01*
X120590000Y-67306500D02*
X120590000Y-65976500D01*
X121920000Y-67306500D02*
X120590000Y-67306500D01*
X123190000Y-67306500D02*
X123190000Y-64646500D01*
X123190000Y-64646500D02*
X130870000Y-64646500D01*
X123190000Y-67306500D02*
X130870000Y-67306500D01*
X130870000Y-67306500D02*
X130870000Y-64646500D01*
X139823500Y-110303000D02*
X139823500Y-111633000D01*
X138493500Y-110303000D02*
X139823500Y-110303000D01*
X137223500Y-110303000D02*
X137223500Y-112963000D01*
X137223500Y-112963000D02*
X129543500Y-112963000D01*
X137223500Y-110303000D02*
X129543500Y-110303000D01*
X129543500Y-110303000D02*
X129543500Y-112963000D01*
X121218000Y-110303000D02*
X121218000Y-111633000D01*
X119888000Y-110303000D02*
X121218000Y-110303000D01*
X118618000Y-110303000D02*
X118618000Y-112963000D01*
X118618000Y-112963000D02*
X110938000Y-112963000D01*
X118618000Y-110303000D02*
X110938000Y-110303000D01*
X110938000Y-110303000D02*
X110938000Y-112963000D01*
X99310500Y-110303000D02*
X99310500Y-111633000D01*
X97980500Y-110303000D02*
X99310500Y-110303000D01*
X96710500Y-110303000D02*
X96710500Y-112963000D01*
X96710500Y-112963000D02*
X89030500Y-112963000D01*
X96710500Y-110303000D02*
X89030500Y-110303000D01*
X89030500Y-110303000D02*
X89030500Y-112963000D01*
X89033040Y-105217920D02*
X89033040Y-110417920D01*
X96713040Y-105217920D02*
X89033040Y-105217920D01*
X99313040Y-110417920D02*
X89033040Y-110417920D01*
X96713040Y-105217920D02*
X96713040Y-107817920D01*
X96713040Y-107817920D02*
X99313040Y-107817920D01*
X99313040Y-107817920D02*
X99313040Y-110417920D01*
X97983040Y-105217920D02*
X99313040Y-105217920D01*
X99313040Y-105217920D02*
X99313040Y-106547920D01*
X129530800Y-105223000D02*
X129530800Y-110423000D01*
X137210800Y-105223000D02*
X129530800Y-105223000D01*
X139810800Y-110423000D02*
X129530800Y-110423000D01*
X137210800Y-105223000D02*
X137210800Y-107823000D01*
X137210800Y-107823000D02*
X139810800Y-107823000D01*
X139810800Y-107823000D02*
X139810800Y-110423000D01*
X138480800Y-105223000D02*
X139810800Y-105223000D01*
X139810800Y-105223000D02*
X139810800Y-106553000D01*
X90230000Y-72323000D02*
X90230000Y-67123000D01*
X82550000Y-72323000D02*
X90230000Y-72323000D01*
X79950000Y-67123000D02*
X90230000Y-67123000D01*
X82550000Y-72323000D02*
X82550000Y-69723000D01*
X82550000Y-69723000D02*
X79950000Y-69723000D01*
X79950000Y-69723000D02*
X79950000Y-67123000D01*
X81280000Y-72323000D02*
X79950000Y-72323000D01*
X79950000Y-72323000D02*
X79950000Y-70993000D01*
X130870000Y-72323000D02*
X130870000Y-67123000D01*
X123190000Y-72323000D02*
X130870000Y-72323000D01*
X120590000Y-67123000D02*
X130870000Y-67123000D01*
X123190000Y-72323000D02*
X123190000Y-69723000D01*
X123190000Y-69723000D02*
X120590000Y-69723000D01*
X120590000Y-69723000D02*
X120590000Y-67123000D01*
X121920000Y-72323000D02*
X120590000Y-72323000D01*
X120590000Y-72323000D02*
X120590000Y-70993000D01*
X132717000Y-66240779D02*
X132717000Y-65915221D01*
X131697000Y-66240779D02*
X131697000Y-65915221D01*
X112651000Y-66202779D02*
X112651000Y-65877221D01*
X111631000Y-66202779D02*
X111631000Y-65877221D01*
X92331000Y-66202779D02*
X92331000Y-65877221D01*
X91311000Y-66202779D02*
X91311000Y-65877221D01*
D15*
X47950120Y-111460280D02*
X47950120Y-99359720D01*
X59148980Y-99359720D02*
X59148980Y-111460280D01*
X59148980Y-111460280D02*
X47150020Y-111460280D01*
X47150020Y-99359720D02*
X47150020Y-111460280D01*
X59148980Y-99359720D02*
X47150020Y-99359720D01*
X53340000Y-87630000D02*
X52578000Y-87630000D01*
X52578000Y-87630000D02*
X52578000Y-97790000D01*
X52578000Y-97790000D02*
X53340000Y-97790000D01*
X61722000Y-87630000D02*
X61722000Y-97790000D01*
X61722000Y-97790000D02*
X60706000Y-97790000D01*
X60706000Y-97790000D02*
X60706000Y-87630000D01*
X60706000Y-87630000D02*
X61722000Y-87630000D01*
X60960000Y-87630000D02*
X53340000Y-87630000D01*
X53340000Y-97790000D02*
X60960000Y-97790000D01*
D18*
X108077000Y-79248000D02*
X107950000Y-79248000D01*
X107950000Y-79248000D02*
X107950000Y-84582000D01*
X111760000Y-84582000D02*
X111760000Y-79248000D01*
X111760000Y-79248000D02*
X108077000Y-79248000D01*
X110363000Y-79248000D02*
X110363000Y-79756000D01*
X110363000Y-79756000D02*
X109347000Y-79756000D01*
X109347000Y-79756000D02*
X109347000Y-79248000D01*
X111760000Y-84582000D02*
X107950000Y-84582000D01*
D19*
X68326000Y-46101000D02*
X68326000Y-49149000D01*
X68326000Y-49149000D02*
X67564000Y-49149000D01*
X67564000Y-49149000D02*
X67564000Y-46101000D01*
X67564000Y-46101000D02*
X68326000Y-46101000D01*
X68326000Y-52451000D02*
X68326000Y-55499000D01*
X68326000Y-55499000D02*
X67564000Y-55499000D01*
X67564000Y-55499000D02*
X67564000Y-52451000D01*
X67564000Y-52451000D02*
X68326000Y-52451000D01*
X80264000Y-80899000D02*
X80264000Y-77851000D01*
X80264000Y-77851000D02*
X81026000Y-77851000D01*
X81026000Y-77851000D02*
X81026000Y-80899000D01*
X81026000Y-80899000D02*
X80264000Y-80899000D01*
D20*
X84582000Y-95885000D02*
X84328000Y-95631000D01*
X84328000Y-95631000D02*
X84328000Y-96012000D01*
X84328000Y-96012000D02*
X84328000Y-96139000D01*
X84328000Y-96139000D02*
X84582000Y-95885000D01*
D21*
X85522329Y-94665800D02*
G75*
G03X85522329Y-94665800I-305329J0D01*
G01*
X83439000Y-96507300D02*
X85471000Y-96507300D01*
X83439000Y-95262700D02*
X85458300Y-95262700D01*
X85471000Y-96227900D02*
X85471000Y-96507300D01*
X85458300Y-95542100D02*
X85458300Y-95288100D01*
X83439000Y-96227900D02*
X83439000Y-96507300D01*
X83439000Y-95262700D02*
X83439000Y-95542100D01*
D22*
X84952840Y-96184720D02*
X84952840Y-96509840D01*
X84952840Y-95562420D02*
X84952840Y-95712280D01*
X84952840Y-96057720D02*
X84952840Y-96207580D01*
X84952840Y-95686880D02*
X84952840Y-96083120D01*
X83957160Y-96184720D02*
X83957160Y-96509840D01*
X83957160Y-95260160D02*
X83957160Y-95585280D01*
X83957160Y-96057720D02*
X83957160Y-96207580D01*
X83957160Y-95562420D02*
X83957160Y-95712280D01*
X83957160Y-95686880D02*
X83957160Y-96083120D01*
X84952840Y-95285560D02*
X84952840Y-95585280D01*
D23*
X85311702Y-95410020D02*
G75*
G03X85311702Y-95410020I-71842J0D01*
G01*
D20*
X85453220Y-95537020D02*
G75*
G03X85453220Y-96232980I0J-347980D01*
G01*
X83456780Y-96232980D02*
G75*
G03X83456780Y-95537020I0J347980D01*
G01*
X64516000Y-87249000D02*
X64008000Y-87249000D01*
X63373000Y-88773000D02*
X63373000Y-88836500D01*
X65151000Y-89090500D02*
X65151000Y-88773000D01*
X63373000Y-88836500D02*
X63373000Y-89090500D01*
X65151000Y-89090500D02*
X63373000Y-89090500D01*
X64262000Y-87249000D02*
X64516000Y-86995000D01*
X64516000Y-86995000D02*
X64008000Y-86995000D01*
X64008000Y-86995000D02*
X64262000Y-87249000D01*
D21*
X65786529Y-87884000D02*
G75*
G03X65786529Y-87884000I-305329J0D01*
G01*
X63639700Y-86106000D02*
X63639700Y-88138000D01*
X64884300Y-86106000D02*
X64884300Y-88125300D01*
X63919100Y-88138000D02*
X63639700Y-88138000D01*
X64604900Y-88125300D02*
X64858900Y-88125300D01*
X63919100Y-86106000D02*
X63639700Y-86106000D01*
X64884300Y-86106000D02*
X64604900Y-86106000D01*
D22*
X63962280Y-87619840D02*
X63637160Y-87619840D01*
X64584580Y-87619840D02*
X64434720Y-87619840D01*
X64089280Y-87619840D02*
X63939420Y-87619840D01*
X64460120Y-87619840D02*
X64063880Y-87619840D01*
X63962280Y-86624160D02*
X63637160Y-86624160D01*
X64886840Y-86624160D02*
X64561720Y-86624160D01*
X64089280Y-86624160D02*
X63939420Y-86624160D01*
X64584580Y-86624160D02*
X64434720Y-86624160D01*
X64460120Y-86624160D02*
X64063880Y-86624160D01*
X64861440Y-87619840D02*
X64561720Y-87619840D01*
D23*
X64808822Y-87906860D02*
G75*
G03X64808822Y-87906860I-71842J0D01*
G01*
D20*
X64609980Y-88120220D02*
G75*
G03X63914020Y-88120220I-347980J0D01*
G01*
X63914020Y-86123780D02*
G75*
G03X64609980Y-86123780I347980J0D01*
G01*
X63881000Y-71882000D02*
X64389000Y-71882000D01*
X65024000Y-70358000D02*
X65024000Y-70294500D01*
X63246000Y-70040500D02*
X63246000Y-70358000D01*
X65024000Y-70294500D02*
X65024000Y-70040500D01*
X63246000Y-70040500D02*
X65024000Y-70040500D01*
X64135000Y-71882000D02*
X63881000Y-72136000D01*
X63881000Y-72136000D02*
X64389000Y-72136000D01*
X64389000Y-72136000D02*
X64135000Y-71882000D01*
D21*
X63221129Y-71247000D02*
G75*
G03X63221129Y-71247000I-305329J0D01*
G01*
X64757300Y-73025000D02*
X64757300Y-70993000D01*
X63512700Y-73025000D02*
X63512700Y-71005700D01*
X64477900Y-70993000D02*
X64757300Y-70993000D01*
X63792100Y-71005700D02*
X63538100Y-71005700D01*
X64477900Y-73025000D02*
X64757300Y-73025000D01*
X63512700Y-73025000D02*
X63792100Y-73025000D01*
D22*
X64434720Y-71511160D02*
X64759840Y-71511160D01*
X63812420Y-71511160D02*
X63962280Y-71511160D01*
X64307720Y-71511160D02*
X64457580Y-71511160D01*
X63936880Y-71511160D02*
X64333120Y-71511160D01*
X64434720Y-72506840D02*
X64759840Y-72506840D01*
X63510160Y-72506840D02*
X63835280Y-72506840D01*
X64307720Y-72506840D02*
X64457580Y-72506840D01*
X63812420Y-72506840D02*
X63962280Y-72506840D01*
X63936880Y-72506840D02*
X64333120Y-72506840D01*
X63535560Y-71511160D02*
X63835280Y-71511160D01*
D23*
X63731862Y-71224140D02*
G75*
G03X63731862Y-71224140I-71842J0D01*
G01*
D20*
X63787020Y-71010780D02*
G75*
G03X64482980Y-71010780I347980J0D01*
G01*
X64482980Y-73007220D02*
G75*
G03X63787020Y-73007220I-347980J0D01*
G01*
X63881000Y-81788000D02*
X64389000Y-81788000D01*
X65024000Y-80264000D02*
X65024000Y-80200500D01*
X63246000Y-79946500D02*
X63246000Y-80264000D01*
X65024000Y-80200500D02*
X65024000Y-79946500D01*
X63246000Y-79946500D02*
X65024000Y-79946500D01*
X64135000Y-81788000D02*
X63881000Y-82042000D01*
X63881000Y-82042000D02*
X64389000Y-82042000D01*
X64389000Y-82042000D02*
X64135000Y-81788000D01*
D21*
X63221129Y-81153000D02*
G75*
G03X63221129Y-81153000I-305329J0D01*
G01*
X64757300Y-82931000D02*
X64757300Y-80899000D01*
X63512700Y-82931000D02*
X63512700Y-80911700D01*
X64477900Y-80899000D02*
X64757300Y-80899000D01*
X63792100Y-80911700D02*
X63538100Y-80911700D01*
X64477900Y-82931000D02*
X64757300Y-82931000D01*
X63512700Y-82931000D02*
X63792100Y-82931000D01*
D22*
X64434720Y-81417160D02*
X64759840Y-81417160D01*
X63812420Y-81417160D02*
X63962280Y-81417160D01*
X64307720Y-81417160D02*
X64457580Y-81417160D01*
X63936880Y-81417160D02*
X64333120Y-81417160D01*
X64434720Y-82412840D02*
X64759840Y-82412840D01*
X63510160Y-82412840D02*
X63835280Y-82412840D01*
X64307720Y-82412840D02*
X64457580Y-82412840D01*
X63812420Y-82412840D02*
X63962280Y-82412840D01*
X63936880Y-82412840D02*
X64333120Y-82412840D01*
X63535560Y-81417160D02*
X63835280Y-81417160D01*
D23*
X63731862Y-81130140D02*
G75*
G03X63731862Y-81130140I-71842J0D01*
G01*
D20*
X63787020Y-80916780D02*
G75*
G03X64482980Y-80916780I347980J0D01*
G01*
X64482980Y-82913220D02*
G75*
G03X63787020Y-82913220I-347980J0D01*
G01*
X63996000Y-63123000D02*
X64504000Y-63123000D01*
X65139000Y-61599000D02*
X65139000Y-61535500D01*
X63361000Y-61281500D02*
X63361000Y-61599000D01*
X65139000Y-61535500D02*
X65139000Y-61281500D01*
X63361000Y-61281500D02*
X65139000Y-61281500D01*
X64250000Y-63123000D02*
X63996000Y-63377000D01*
X63996000Y-63377000D02*
X64504000Y-63377000D01*
X64504000Y-63377000D02*
X64250000Y-63123000D01*
D21*
X63336129Y-62488000D02*
G75*
G03X63336129Y-62488000I-305329J0D01*
G01*
X64872300Y-64266000D02*
X64872300Y-62234000D01*
X63627700Y-64266000D02*
X63627700Y-62246700D01*
X64592900Y-62234000D02*
X64872300Y-62234000D01*
X63907100Y-62246700D02*
X63653100Y-62246700D01*
X64592900Y-64266000D02*
X64872300Y-64266000D01*
X63627700Y-64266000D02*
X63907100Y-64266000D01*
D22*
X64549720Y-62752160D02*
X64874840Y-62752160D01*
X63927420Y-62752160D02*
X64077280Y-62752160D01*
X64422720Y-62752160D02*
X64572580Y-62752160D01*
X64051880Y-62752160D02*
X64448120Y-62752160D01*
X64549720Y-63747840D02*
X64874840Y-63747840D01*
X63625160Y-63747840D02*
X63950280Y-63747840D01*
X64422720Y-63747840D02*
X64572580Y-63747840D01*
X63927420Y-63747840D02*
X64077280Y-63747840D01*
X64051880Y-63747840D02*
X64448120Y-63747840D01*
X63650560Y-62752160D02*
X63950280Y-62752160D01*
D23*
X63846862Y-62465140D02*
G75*
G03X63846862Y-62465140I-71842J0D01*
G01*
D20*
X63902020Y-62251780D02*
G75*
G03X64597980Y-62251780I347980J0D01*
G01*
X64597980Y-64248220D02*
G75*
G03X63902020Y-64248220I-347980J0D01*
G01*
X63881000Y-55753000D02*
X64389000Y-55753000D01*
X65024000Y-54229000D02*
X65024000Y-54165500D01*
X63246000Y-53911500D02*
X63246000Y-54229000D01*
X65024000Y-54165500D02*
X65024000Y-53911500D01*
X63246000Y-53911500D02*
X65024000Y-53911500D01*
X64135000Y-55753000D02*
X63881000Y-56007000D01*
X63881000Y-56007000D02*
X64389000Y-56007000D01*
X64389000Y-56007000D02*
X64135000Y-55753000D01*
D21*
X63221129Y-55118000D02*
G75*
G03X63221129Y-55118000I-305329J0D01*
G01*
X64757300Y-56896000D02*
X64757300Y-54864000D01*
X63512700Y-56896000D02*
X63512700Y-54876700D01*
X64477900Y-54864000D02*
X64757300Y-54864000D01*
X63792100Y-54876700D02*
X63538100Y-54876700D01*
X64477900Y-56896000D02*
X64757300Y-56896000D01*
X63512700Y-56896000D02*
X63792100Y-56896000D01*
D22*
X64434720Y-55382160D02*
X64759840Y-55382160D01*
X63812420Y-55382160D02*
X63962280Y-55382160D01*
X64307720Y-55382160D02*
X64457580Y-55382160D01*
X63936880Y-55382160D02*
X64333120Y-55382160D01*
X64434720Y-56377840D02*
X64759840Y-56377840D01*
X63510160Y-56377840D02*
X63835280Y-56377840D01*
X64307720Y-56377840D02*
X64457580Y-56377840D01*
X63812420Y-56377840D02*
X63962280Y-56377840D01*
X63936880Y-56377840D02*
X64333120Y-56377840D01*
X63535560Y-55382160D02*
X63835280Y-55382160D01*
D23*
X63731862Y-55095140D02*
G75*
G03X63731862Y-55095140I-71842J0D01*
G01*
D20*
X63787020Y-54881780D02*
G75*
G03X64482980Y-54881780I347980J0D01*
G01*
X64482980Y-56878220D02*
G75*
G03X63787020Y-56878220I-347980J0D01*
G01*
X63881000Y-49403000D02*
X64389000Y-49403000D01*
X65024000Y-47879000D02*
X65024000Y-47815500D01*
X63246000Y-47561500D02*
X63246000Y-47879000D01*
X65024000Y-47815500D02*
X65024000Y-47561500D01*
X63246000Y-47561500D02*
X65024000Y-47561500D01*
X64135000Y-49403000D02*
X63881000Y-49657000D01*
X63881000Y-49657000D02*
X64389000Y-49657000D01*
X64389000Y-49657000D02*
X64135000Y-49403000D01*
D21*
X63221129Y-48768000D02*
G75*
G03X63221129Y-48768000I-305329J0D01*
G01*
X64757300Y-50546000D02*
X64757300Y-48514000D01*
X63512700Y-50546000D02*
X63512700Y-48526700D01*
X64477900Y-48514000D02*
X64757300Y-48514000D01*
X63792100Y-48526700D02*
X63538100Y-48526700D01*
X64477900Y-50546000D02*
X64757300Y-50546000D01*
X63512700Y-50546000D02*
X63792100Y-50546000D01*
D22*
X64434720Y-49032160D02*
X64759840Y-49032160D01*
X63812420Y-49032160D02*
X63962280Y-49032160D01*
X64307720Y-49032160D02*
X64457580Y-49032160D01*
X63936880Y-49032160D02*
X64333120Y-49032160D01*
X64434720Y-50027840D02*
X64759840Y-50027840D01*
X63510160Y-50027840D02*
X63835280Y-50027840D01*
X64307720Y-50027840D02*
X64457580Y-50027840D01*
X63812420Y-50027840D02*
X63962280Y-50027840D01*
X63936880Y-50027840D02*
X64333120Y-50027840D01*
X63535560Y-49032160D02*
X63835280Y-49032160D01*
D23*
X63731862Y-48745140D02*
G75*
G03X63731862Y-48745140I-71842J0D01*
G01*
D20*
X63787020Y-48531780D02*
G75*
G03X64482980Y-48531780I347980J0D01*
G01*
X64482980Y-50528220D02*
G75*
G03X63787020Y-50528220I-347980J0D01*
G01*
D14*
X77698900Y-103695500D02*
X72949100Y-103695500D01*
X72941100Y-103695500D02*
X72941100Y-97345500D01*
X72949100Y-97345500D02*
X77698900Y-97345500D01*
X77706900Y-97345500D02*
X77706900Y-103695500D01*
D16*
X127254000Y-131365000D02*
X127254000Y-132635000D01*
X127254000Y-132635000D02*
X119634000Y-132635000D01*
X119634000Y-132635000D02*
X119634000Y-131365000D01*
X128524000Y-137715000D02*
X128524000Y-131365000D01*
X128524000Y-131365000D02*
X118364000Y-131365000D01*
X118364000Y-131365000D02*
X118364000Y-137715000D01*
X118364000Y-137715000D02*
X128524000Y-137715000D01*
X59690000Y-45085000D02*
X58420000Y-45085000D01*
X58420000Y-45085000D02*
X58420000Y-42545000D01*
X58420000Y-42545000D02*
X59690000Y-42545000D01*
X53340000Y-46355000D02*
X59690000Y-46355000D01*
X59690000Y-46355000D02*
X59690000Y-41275000D01*
X59690000Y-41275000D02*
X53340000Y-41275000D01*
X53340000Y-41275000D02*
X53340000Y-46355000D01*
D10*
X57785000Y-46355000D02*
X55245000Y-46355000D01*
X55245000Y-41275000D02*
X57785000Y-41275000D01*
D16*
X100330000Y-131445000D02*
X100330000Y-132715000D01*
X100330000Y-132715000D02*
X92710000Y-132715000D01*
X92710000Y-132715000D02*
X92710000Y-131445000D01*
X101600000Y-137795000D02*
X101600000Y-131445000D01*
X101600000Y-131445000D02*
X91440000Y-131445000D01*
X91440000Y-131445000D02*
X91440000Y-137795000D01*
X91440000Y-137795000D02*
X101600000Y-137795000D01*
X115189000Y-131365000D02*
X115189000Y-132635000D01*
X115189000Y-132635000D02*
X107569000Y-132635000D01*
X107569000Y-132635000D02*
X107569000Y-131365000D01*
X116459000Y-137715000D02*
X116459000Y-131365000D01*
X116459000Y-131365000D02*
X106299000Y-131365000D01*
X106299000Y-131365000D02*
X106299000Y-137715000D01*
X106299000Y-137715000D02*
X116459000Y-137715000D01*
X139319000Y-131365000D02*
X139319000Y-132635000D01*
X139319000Y-132635000D02*
X131699000Y-132635000D01*
X131699000Y-132635000D02*
X131699000Y-131365000D01*
X140589000Y-137715000D02*
X140589000Y-131365000D01*
X140589000Y-131365000D02*
X130429000Y-131365000D01*
X130429000Y-131365000D02*
X130429000Y-137715000D01*
X130429000Y-137715000D02*
X140589000Y-137715000D01*
X83845400Y-46253400D02*
X83845400Y-44983400D01*
X83845400Y-44983400D02*
X91465400Y-44983400D01*
X91465400Y-44983400D02*
X91465400Y-46253400D01*
X82575400Y-39903400D02*
X82575400Y-46253400D01*
X82575400Y-46253400D02*
X92735400Y-46253400D01*
X92735400Y-46253400D02*
X92735400Y-39903400D01*
X92735400Y-39903400D02*
X82575400Y-39903400D01*
X107950000Y-46253400D02*
X107950000Y-44983400D01*
X107950000Y-44983400D02*
X115570000Y-44983400D01*
X115570000Y-44983400D02*
X115570000Y-46253400D01*
X106680000Y-39903400D02*
X106680000Y-46253400D01*
X106680000Y-46253400D02*
X116840000Y-46253400D01*
X116840000Y-46253400D02*
X116840000Y-39903400D01*
X116840000Y-39903400D02*
X106680000Y-39903400D01*
X135382000Y-88900000D02*
X134493000Y-89535000D01*
X134493000Y-89535000D02*
X134493000Y-88265000D01*
X135382000Y-88900000D02*
X134493000Y-88265000D01*
X133929120Y-91950540D02*
X133929120Y-93251020D01*
X133929120Y-102836980D02*
X133929120Y-106517440D01*
X142930880Y-102836980D02*
X142930880Y-106517440D01*
D11*
X135890000Y-102870000D02*
X135890000Y-100330000D01*
X140970000Y-100330000D02*
X140970000Y-102870000D01*
D16*
X133929120Y-97276920D02*
X133929120Y-105277920D01*
X133929120Y-106519980D02*
X142930880Y-106519980D01*
X142930880Y-103979980D02*
X142930880Y-83980020D01*
X142930880Y-83980020D02*
X138430000Y-83980020D01*
X138430000Y-83980020D02*
X133929120Y-83980020D01*
X133929120Y-83980020D02*
X133929120Y-91981020D01*
D11*
X140970000Y-87630000D02*
X140970000Y-100330000D01*
X140970000Y-102870000D02*
X135890000Y-102870000D01*
X135890000Y-100330000D02*
X135890000Y-87630000D01*
X135890000Y-87630000D02*
X140970000Y-87630000D01*
D16*
X119228000Y-46253400D02*
X119228000Y-44983400D01*
X119228000Y-44983400D02*
X126848000Y-44983400D01*
X126848000Y-44983400D02*
X126848000Y-46253400D01*
X117958000Y-39903400D02*
X117958000Y-46253400D01*
X117958000Y-46253400D02*
X128118000Y-46253400D01*
X128118000Y-46253400D02*
X128118000Y-39903400D01*
X128118000Y-39903400D02*
X117958000Y-39903400D01*
X57277000Y-66802000D02*
X57912000Y-66802000D01*
X57912000Y-66802000D02*
X57912000Y-58674000D01*
X57912000Y-58674000D02*
X56896000Y-58674000D01*
X51943000Y-66802000D02*
X50927000Y-67437000D01*
X50927000Y-62738000D02*
X50927000Y-58039000D01*
X50927000Y-58039000D02*
X51943000Y-58674000D01*
X50927000Y-62738000D02*
X50927000Y-67437000D01*
X56896000Y-58674000D02*
X51943000Y-58674000D01*
X57277000Y-66802000D02*
X51943000Y-66802000D01*
D14*
X52480000Y-62738000D02*
X52080000Y-62738000D01*
X53580000Y-59238000D02*
X53580000Y-66238000D01*
X52480000Y-59238000D02*
X52480000Y-66238000D01*
X59680000Y-59238000D02*
X52080000Y-59238000D01*
X52080000Y-66238000D02*
X59680000Y-66238000D01*
X59680000Y-66238000D02*
X59680000Y-59238000D01*
D16*
X145392000Y-58750200D02*
X146662000Y-58750200D01*
X146662000Y-58750200D02*
X146662000Y-61290200D01*
X146662000Y-61290200D02*
X145392000Y-61290200D01*
X151742000Y-57480200D02*
X145392000Y-57480200D01*
X145392000Y-57480200D02*
X145392000Y-62560200D01*
X145392000Y-62560200D02*
X151742000Y-62560200D01*
X151742000Y-62560200D02*
X151742000Y-57480200D01*
D10*
X147297000Y-57480200D02*
X149837000Y-57480200D01*
X149837000Y-62560200D02*
X147297000Y-62560200D01*
D16*
X57277000Y-85852000D02*
X57912000Y-85852000D01*
X57912000Y-85852000D02*
X57912000Y-77724000D01*
X57912000Y-77724000D02*
X56896000Y-77724000D01*
X51943000Y-85852000D02*
X50927000Y-86487000D01*
X50927000Y-81788000D02*
X50927000Y-77089000D01*
X50927000Y-77089000D02*
X51943000Y-77724000D01*
X50927000Y-81788000D02*
X50927000Y-86487000D01*
X56896000Y-77724000D02*
X51943000Y-77724000D01*
X57277000Y-85852000D02*
X51943000Y-85852000D01*
D14*
X52480000Y-81788000D02*
X52080000Y-81788000D01*
X53580000Y-78288000D02*
X53580000Y-85288000D01*
X52480000Y-78288000D02*
X52480000Y-85288000D01*
X59680000Y-78288000D02*
X52080000Y-78288000D01*
X52080000Y-85288000D02*
X59680000Y-85288000D01*
X59680000Y-85288000D02*
X59680000Y-78288000D01*
D16*
X57277000Y-76327000D02*
X57912000Y-76327000D01*
X57912000Y-76327000D02*
X57912000Y-68199000D01*
X57912000Y-68199000D02*
X56896000Y-68199000D01*
X51943000Y-76327000D02*
X50927000Y-76962000D01*
X50927000Y-72263000D02*
X50927000Y-67564000D01*
X50927000Y-67564000D02*
X51943000Y-68199000D01*
X50927000Y-72263000D02*
X50927000Y-76962000D01*
X56896000Y-68199000D02*
X51943000Y-68199000D01*
X57277000Y-76327000D02*
X51943000Y-76327000D01*
D14*
X52480000Y-72263000D02*
X52080000Y-72263000D01*
X53580000Y-68763000D02*
X53580000Y-75763000D01*
X52480000Y-68763000D02*
X52480000Y-75763000D01*
X59680000Y-68763000D02*
X52080000Y-68763000D01*
X52080000Y-75763000D02*
X59680000Y-75763000D01*
X59680000Y-75763000D02*
X59680000Y-68763000D01*
D16*
X59690000Y-56515000D02*
X58420000Y-56515000D01*
X58420000Y-56515000D02*
X58420000Y-53975000D01*
X58420000Y-53975000D02*
X59690000Y-53975000D01*
X53340000Y-57785000D02*
X59690000Y-57785000D01*
X59690000Y-57785000D02*
X59690000Y-52705000D01*
X59690000Y-52705000D02*
X53340000Y-52705000D01*
X53340000Y-52705000D02*
X53340000Y-57785000D01*
D10*
X57785000Y-57785000D02*
X55245000Y-57785000D01*
X55245000Y-52705000D02*
X57785000Y-52705000D01*
D16*
X59690000Y-50800000D02*
X58420000Y-50800000D01*
X58420000Y-50800000D02*
X58420000Y-48260000D01*
X58420000Y-48260000D02*
X59690000Y-48260000D01*
X53340000Y-52070000D02*
X59690000Y-52070000D01*
X59690000Y-52070000D02*
X59690000Y-46990000D01*
X59690000Y-46990000D02*
X53340000Y-46990000D01*
X53340000Y-46990000D02*
X53340000Y-52070000D01*
D10*
X57785000Y-52070000D02*
X55245000Y-52070000D01*
X55245000Y-46990000D02*
X57785000Y-46990000D01*
D12*
X88550000Y-84490000D02*
X89250000Y-84490000D01*
X89250000Y-85690000D02*
X88550000Y-85690000D01*
X89885000Y-88230000D02*
X89185000Y-88230000D01*
X89185000Y-87030000D02*
X89885000Y-87030000D01*
X79660000Y-86395000D02*
X80360000Y-86395000D01*
X80360000Y-87595000D02*
X79660000Y-87595000D01*
X96235000Y-86325000D02*
X95535000Y-86325000D01*
X95535000Y-85125000D02*
X96235000Y-85125000D01*
X78974000Y-100223800D02*
X78974000Y-99523800D01*
X80174000Y-99523800D02*
X80174000Y-100223800D01*
X80680000Y-99664000D02*
X80680000Y-98964000D01*
X81880000Y-98964000D02*
X81880000Y-99664000D01*
X101254000Y-99918000D02*
X101254000Y-99218000D01*
X102454000Y-99218000D02*
X102454000Y-99918000D01*
X101254000Y-96108000D02*
X101254000Y-95408000D01*
X102454000Y-95408000D02*
X102454000Y-96108000D01*
X101254000Y-92298000D02*
X101254000Y-91598000D01*
X102454000Y-91598000D02*
X102454000Y-92298000D01*
X119095000Y-79975000D02*
X118395000Y-79975000D01*
X118395000Y-78775000D02*
X119095000Y-78775000D01*
X101254000Y-88488000D02*
X101254000Y-87788000D01*
X102454000Y-87788000D02*
X102454000Y-88488000D01*
X103159000Y-88488000D02*
X103159000Y-87788000D01*
X104359000Y-87788000D02*
X104359000Y-88488000D01*
X103159000Y-92298000D02*
X103159000Y-91598000D01*
X104359000Y-91598000D02*
X104359000Y-92298000D01*
X103159000Y-99918000D02*
X103159000Y-99218000D01*
X104359000Y-99218000D02*
X104359000Y-99918000D01*
X103159000Y-96108000D02*
X103159000Y-95408000D01*
X104359000Y-95408000D02*
X104359000Y-96108000D01*
X115535000Y-80930000D02*
X115535000Y-81630000D01*
X114335000Y-81630000D02*
X114335000Y-80930000D01*
X76065000Y-50205000D02*
X75065000Y-50205000D01*
X75065000Y-48855000D02*
X76065000Y-48855000D01*
X76065000Y-52110000D02*
X75065000Y-52110000D01*
X75065000Y-50760000D02*
X76065000Y-50760000D01*
X83574000Y-79258800D02*
X84574000Y-79258800D01*
X84574000Y-80608800D02*
X83574000Y-80608800D01*
X142661000Y-108847000D02*
X142661000Y-109847000D01*
X141311000Y-109847000D02*
X141311000Y-108847000D01*
X102846500Y-110053500D02*
X102846500Y-111053500D01*
X101496500Y-111053500D02*
X101496500Y-110053500D01*
X121854600Y-110101000D02*
X121854600Y-109101000D01*
X123204600Y-109101000D02*
X123204600Y-110101000D01*
X77366500Y-69651500D02*
X77366500Y-68651500D01*
X78716500Y-68651500D02*
X78716500Y-69651500D01*
X97671000Y-65428500D02*
X98671000Y-65428500D01*
X98671000Y-66778500D02*
X97671000Y-66778500D01*
X118514500Y-69207000D02*
X118514500Y-68207000D01*
X119864500Y-68207000D02*
X119864500Y-69207000D01*
X137835000Y-80145000D02*
X137835000Y-81145000D01*
X136485000Y-81145000D02*
X136485000Y-80145000D01*
X135930000Y-80145000D02*
X135930000Y-81145000D01*
X134580000Y-81145000D02*
X134580000Y-80145000D01*
X71795000Y-96020000D02*
X71795000Y-97020000D01*
X70445000Y-97020000D02*
X70445000Y-96020000D01*
X62000000Y-76925000D02*
X61000000Y-76925000D01*
X61000000Y-75575000D02*
X62000000Y-75575000D01*
X71160000Y-85860000D02*
X71160000Y-86860000D01*
X69810000Y-86860000D02*
X69810000Y-85860000D01*
X67500000Y-66175000D02*
X66500000Y-66175000D01*
X66500000Y-64825000D02*
X67500000Y-64825000D01*
X106339000Y-99068000D02*
X106339000Y-100068000D01*
X104989000Y-100068000D02*
X104989000Y-99068000D01*
X106339000Y-95258000D02*
X106339000Y-96258000D01*
X104989000Y-96258000D02*
X104989000Y-95258000D01*
X106339000Y-91448000D02*
X106339000Y-92448000D01*
X104989000Y-92448000D02*
X104989000Y-91448000D01*
X123817000Y-107736000D02*
X122817000Y-107736000D01*
X122817000Y-106386000D02*
X123817000Y-106386000D01*
X123505600Y-110050200D02*
X123505600Y-109050200D01*
X124855600Y-109050200D02*
X124855600Y-110050200D01*
X94464500Y-72969500D02*
X94464500Y-73969500D01*
X93114500Y-73969500D02*
X93114500Y-72969500D01*
X92623000Y-71509000D02*
X92623000Y-72509000D01*
X91273000Y-72509000D02*
X91273000Y-71509000D01*
X106339000Y-87638000D02*
X106339000Y-88638000D01*
X104989000Y-88638000D02*
X104989000Y-87638000D01*
X73160000Y-88225000D02*
X74160000Y-88225000D01*
X74160000Y-89575000D02*
X73160000Y-89575000D01*
X73160000Y-79335000D02*
X74160000Y-79335000D01*
X74160000Y-80685000D02*
X73160000Y-80685000D01*
X74176000Y-63510800D02*
X75176000Y-63510800D01*
X75176000Y-64860800D02*
X74176000Y-64860800D01*
X74176000Y-71638800D02*
X75176000Y-71638800D01*
X75176000Y-72988800D02*
X74176000Y-72988800D01*
X69350000Y-49490000D02*
X70350000Y-49490000D01*
X70350000Y-50840000D02*
X69350000Y-50840000D01*
X70445000Y-54475000D02*
X70445000Y-53475000D01*
X71795000Y-53475000D02*
X71795000Y-54475000D01*
X67350000Y-56650000D02*
X67350000Y-57650000D01*
X66000000Y-57650000D02*
X66000000Y-56650000D01*
X67350000Y-50300000D02*
X67350000Y-51300000D01*
X66000000Y-51300000D02*
X66000000Y-50300000D01*
X101770000Y-80215000D02*
X103970000Y-80215000D01*
X101770000Y-83615000D02*
X103970000Y-83615000D01*
X100125000Y-94785000D02*
X100125000Y-96985000D01*
X96725000Y-94785000D02*
X96725000Y-96985000D01*
X88689000Y-89663800D02*
X90889000Y-89663800D01*
X88689000Y-93063800D02*
X90889000Y-93063800D01*
X90000000Y-83615000D02*
X87800000Y-83615000D01*
X90000000Y-80215000D02*
X87800000Y-80215000D01*
X117645000Y-81485000D02*
X119845000Y-81485000D01*
X117645000Y-84885000D02*
X119845000Y-84885000D01*
X133180000Y-83615000D02*
X130980000Y-83615000D01*
X133180000Y-80215000D02*
X130980000Y-80215000D01*
X98845000Y-84540000D02*
X98845000Y-84315000D01*
X94195000Y-84540000D02*
X94195000Y-84315000D01*
X94195000Y-79290000D02*
X94195000Y-79515000D01*
X98845000Y-79290000D02*
X98845000Y-79515000D01*
X98845000Y-84540000D02*
X94195000Y-84540000D01*
X98845000Y-79290000D02*
X94195000Y-79290000D01*
X98845000Y-84315000D02*
X100195000Y-84315000D01*
X93660000Y-93545000D02*
X98110000Y-93545000D01*
X92135000Y-86795000D02*
X98110000Y-86795000D01*
X121320000Y-79190000D02*
X127295000Y-79190000D01*
X122895000Y-84640000D02*
X127295000Y-84640000D01*
X68580000Y-76200000D02*
G75*
G03X68580000Y-76200000I-2540000J0D01*
G01*
X143510000Y-76200000D02*
G75*
G03X143510000Y-76200000I-2540000J0D01*
G01*
X149860000Y-124460000D02*
G75*
G03X149860000Y-124460000I-2540000J0D01*
G01*
X67310000Y-124460000D02*
G75*
G03X67310000Y-124460000I-2540000J0D01*
G01*
X108339000Y-86828000D02*
X109339000Y-86828000D01*
X109339000Y-88178000D02*
X108339000Y-88178000D01*
D20*
X142240000Y-59817000D02*
X142494000Y-59563000D01*
X142494000Y-59563000D02*
X142113000Y-59563000D01*
X142113000Y-59563000D02*
X141986000Y-59563000D01*
X141986000Y-59563000D02*
X142240000Y-59817000D01*
D21*
X143764529Y-60452000D02*
G75*
G03X143764529Y-60452000I-305329J0D01*
G01*
X141617700Y-58674000D02*
X141617700Y-60706000D01*
X142862300Y-58674000D02*
X142862300Y-60693300D01*
X141897100Y-60706000D02*
X141617700Y-60706000D01*
X142582900Y-60693300D02*
X142836900Y-60693300D01*
X141897100Y-58674000D02*
X141617700Y-58674000D01*
X142862300Y-58674000D02*
X142582900Y-58674000D01*
D22*
X141940280Y-60187840D02*
X141615160Y-60187840D01*
X142562580Y-60187840D02*
X142412720Y-60187840D01*
X142067280Y-60187840D02*
X141917420Y-60187840D01*
X142438120Y-60187840D02*
X142041880Y-60187840D01*
X141940280Y-59192160D02*
X141615160Y-59192160D01*
X142864840Y-59192160D02*
X142539720Y-59192160D01*
X142067280Y-59192160D02*
X141917420Y-59192160D01*
X142562580Y-59192160D02*
X142412720Y-59192160D01*
X142438120Y-59192160D02*
X142041880Y-59192160D01*
X142839440Y-60187840D02*
X142539720Y-60187840D01*
D23*
X142786822Y-60474860D02*
G75*
G03X142786822Y-60474860I-71842J0D01*
G01*
D20*
X142587980Y-60688220D02*
G75*
G03X141892020Y-60688220I-347980J0D01*
G01*
X141892020Y-58691780D02*
G75*
G03X142587980Y-58691780I347980J0D01*
G01*
D19*
X142113000Y-64312800D02*
X139065000Y-64312800D01*
X139065000Y-64312800D02*
X139065000Y-63550800D01*
X139065000Y-63550800D02*
X142113000Y-63550800D01*
X142113000Y-63550800D02*
X142113000Y-64312800D01*
D12*
X139025000Y-60825000D02*
X139025000Y-59825000D01*
X140375000Y-59825000D02*
X140375000Y-60825000D01*
D16*
X88265000Y-131445000D02*
X88265000Y-132715000D01*
X88265000Y-132715000D02*
X83185000Y-132715000D01*
X83185000Y-132715000D02*
X83185000Y-131445000D01*
X89535000Y-131445000D02*
X81915000Y-131445000D01*
X81915000Y-131445000D02*
X81915000Y-137795000D01*
X81915000Y-137795000D02*
X89535000Y-137795000D01*
X89535000Y-131445000D02*
X89535000Y-137795000D01*
D10*
X81915000Y-135890000D02*
X81915000Y-133350000D01*
D15*
X47150020Y-112039400D02*
X47150020Y-134340600D01*
X47950120Y-134340600D02*
X47950120Y-112039400D01*
X59148980Y-134340600D02*
X59148980Y-112039400D01*
X59148980Y-134340600D02*
X47150020Y-134340600D01*
X59148980Y-112039400D02*
X47150020Y-112039400D01*
D12*
X127444500Y-109347000D02*
X127444500Y-109728000D01*
X127444500Y-108331000D02*
X127444500Y-108712000D01*
X127444500Y-108712000D02*
X127825500Y-109347000D01*
X127825500Y-109347000D02*
X127063500Y-109347000D01*
X127063500Y-109347000D02*
X127444500Y-108712000D01*
X127952500Y-108712000D02*
X126936500Y-108712000D01*
X126544500Y-107029500D02*
X126544500Y-110569500D01*
X128344500Y-107029500D02*
X128344500Y-110569500D01*
D24*
X95648780Y-102471220D02*
X95648780Y-103268780D01*
X95549720Y-102870000D02*
X94950280Y-103268780D01*
X94950280Y-103268780D02*
X94950280Y-102471220D01*
X94950280Y-102471220D02*
X95549720Y-102870000D01*
X97751900Y-101069140D02*
G75*
G03X97751900Y-101069140I-101600J0D01*
G01*
X96050100Y-101569520D02*
X96050100Y-104170480D01*
X97551240Y-101569520D02*
X97551240Y-104170480D01*
X92948760Y-104170480D02*
X92948760Y-101569520D01*
X92948760Y-101569520D02*
X97551240Y-101569520D01*
X92948760Y-104170480D02*
X97551240Y-104170480D01*
X61993780Y-82694780D02*
X61196220Y-82694780D01*
X61595000Y-82595720D02*
X61196220Y-81996280D01*
X61196220Y-81996280D02*
X61993780Y-81996280D01*
X61993780Y-81996280D02*
X61595000Y-82595720D01*
X63497460Y-84696300D02*
G75*
G03X63497460Y-84696300I-101600J0D01*
G01*
X62895480Y-83096100D02*
X60294520Y-83096100D01*
X62895480Y-84597240D02*
X60294520Y-84597240D01*
X60294520Y-79994760D02*
X62895480Y-79994760D01*
X62895480Y-79994760D02*
X62895480Y-84597240D01*
X60294520Y-79994760D02*
X60294520Y-84597240D01*
X61993780Y-72788780D02*
X61196220Y-72788780D01*
X61595000Y-72689720D02*
X61196220Y-72090280D01*
X61196220Y-72090280D02*
X61993780Y-72090280D01*
X61993780Y-72090280D02*
X61595000Y-72689720D01*
X63497460Y-74790300D02*
G75*
G03X63497460Y-74790300I-101600J0D01*
G01*
X62895480Y-73190100D02*
X60294520Y-73190100D01*
X62895480Y-74691240D02*
X60294520Y-74691240D01*
X60294520Y-70088760D02*
X62895480Y-70088760D01*
X62895480Y-70088760D02*
X62895480Y-74691240D01*
X60294520Y-70088760D02*
X60294520Y-74691240D01*
X61898780Y-64398780D02*
X61101220Y-64398780D01*
X61500000Y-64299720D02*
X61101220Y-63700280D01*
X61101220Y-63700280D02*
X61898780Y-63700280D01*
X61898780Y-63700280D02*
X61500000Y-64299720D01*
X63402460Y-66400300D02*
G75*
G03X63402460Y-66400300I-101600J0D01*
G01*
X62800480Y-64800100D02*
X60199520Y-64800100D01*
X62800480Y-66301240D02*
X60199520Y-66301240D01*
X60199520Y-61698760D02*
X62800480Y-61698760D01*
X62800480Y-61698760D02*
X62800480Y-66301240D01*
X60199520Y-61698760D02*
X60199520Y-66301240D01*
X63898780Y-92774780D02*
X63101220Y-92774780D01*
X63500000Y-92675720D02*
X63101220Y-92076280D01*
X63101220Y-92076280D02*
X63898780Y-92076280D01*
X63898780Y-92076280D02*
X63500000Y-92675720D01*
X65402460Y-94776300D02*
G75*
G03X65402460Y-94776300I-101600J0D01*
G01*
X64800480Y-93176100D02*
X62199520Y-93176100D01*
X64800480Y-94677240D02*
X62199520Y-94677240D01*
X62199520Y-90074760D02*
X64800480Y-90074760D01*
X64800480Y-90074760D02*
X64800480Y-94677240D01*
X62199520Y-90074760D02*
X62199520Y-94677240D01*
X61993780Y-56278780D02*
X61196220Y-56278780D01*
X61595000Y-56179720D02*
X61196220Y-55580280D01*
X61196220Y-55580280D02*
X61993780Y-55580280D01*
X61993780Y-55580280D02*
X61595000Y-56179720D01*
X63497460Y-58280300D02*
G75*
G03X63497460Y-58280300I-101600J0D01*
G01*
X62895480Y-56680100D02*
X60294520Y-56680100D01*
X62895480Y-58181240D02*
X60294520Y-58181240D01*
X60294520Y-53578760D02*
X62895480Y-53578760D01*
X62895480Y-53578760D02*
X62895480Y-58181240D01*
X60294520Y-53578760D02*
X60294520Y-58181240D01*
X61993780Y-49928780D02*
X61196220Y-49928780D01*
X61595000Y-49829720D02*
X61196220Y-49230280D01*
X61196220Y-49230280D02*
X61993780Y-49230280D01*
X61993780Y-49230280D02*
X61595000Y-49829720D01*
X63497460Y-51930300D02*
G75*
G03X63497460Y-51930300I-101600J0D01*
G01*
X62895480Y-50330100D02*
X60294520Y-50330100D01*
X62895480Y-51831240D02*
X60294520Y-51831240D01*
X60294520Y-47228760D02*
X62895480Y-47228760D01*
X62895480Y-47228760D02*
X62895480Y-51831240D01*
X60294520Y-47228760D02*
X60294520Y-51831240D01*
D12*
X62739000Y-128498720D02*
X78739000Y-128498720D01*
X78739000Y-128498720D02*
X78739000Y-135498720D01*
X78739000Y-135498720D02*
X62739000Y-135498720D01*
X62739000Y-135498720D02*
X62739000Y-128498720D01*
D18*
X148161546Y-132252720D02*
G75*
G03X148161546Y-132252720I-1601006J0D01*
G01*
X149560280Y-135252460D02*
X149560280Y-129252980D01*
X149557740Y-129252980D02*
X143558260Y-129252980D01*
X143558260Y-129255520D02*
X143558260Y-135255000D01*
X143558260Y-135252460D02*
X149557740Y-135252460D01*
D12*
X62794000Y-112058720D02*
X62794000Y-96058720D01*
X62794000Y-96058720D02*
X69794000Y-96058720D01*
X69794000Y-96058720D02*
X69794000Y-112058720D01*
X69794000Y-112058720D02*
X62794000Y-112058720D01*
X62739000Y-113893720D02*
X78739000Y-113893720D01*
X78739000Y-113893720D02*
X78739000Y-120893720D01*
X78739000Y-120893720D02*
X62739000Y-120893720D01*
X62739000Y-120893720D02*
X62739000Y-113893720D01*
D17*
X88104000Y-120673000D02*
X88104000Y-121673000D01*
X86744000Y-121673000D02*
X86744000Y-120673000D01*
X106366000Y-108137000D02*
X109026000Y-108137000D01*
X106366000Y-105537000D02*
X106366000Y-108137000D01*
X109026000Y-105537000D02*
X109026000Y-108137000D01*
X106366000Y-105537000D02*
X109026000Y-105537000D01*
X106366000Y-104267000D02*
X106366000Y-102937000D01*
X106366000Y-102937000D02*
X107696000Y-102937000D01*
X88121800Y-110245200D02*
X88121800Y-107585200D01*
X82981800Y-110245200D02*
X88121800Y-110245200D01*
X82981800Y-107585200D02*
X88121800Y-107585200D01*
X82981800Y-110245200D02*
X82981800Y-107585200D01*
X81711800Y-110245200D02*
X80381800Y-110245200D01*
X80381800Y-110245200D02*
X80381800Y-108915200D01*
X82490000Y-101540000D02*
X82490000Y-104200000D01*
X87630000Y-101540000D02*
X82490000Y-101540000D01*
X87630000Y-104200000D02*
X82490000Y-104200000D01*
X87630000Y-101540000D02*
X87630000Y-104200000D01*
X88900000Y-101540000D02*
X90230000Y-101540000D01*
X90230000Y-101540000D02*
X90230000Y-102870000D01*
X100206500Y-105350000D02*
X100206500Y-108010000D01*
X102806500Y-105350000D02*
X100206500Y-105350000D01*
X102806500Y-108010000D02*
X100206500Y-108010000D01*
X102806500Y-105350000D02*
X102806500Y-108010000D01*
X104076500Y-105350000D02*
X105406500Y-105350000D01*
X105406500Y-105350000D02*
X105406500Y-106680000D01*
X138236000Y-65726000D02*
X135576000Y-65726000D01*
X138236000Y-68326000D02*
X138236000Y-65726000D01*
X135576000Y-68326000D02*
X135576000Y-65726000D01*
X138236000Y-68326000D02*
X135576000Y-68326000D01*
X138236000Y-69596000D02*
X138236000Y-70926000D01*
X138236000Y-70926000D02*
X136906000Y-70926000D01*
X94047000Y-47558000D02*
X96707000Y-47558000D01*
X94047000Y-42418000D02*
X94047000Y-47558000D01*
X96707000Y-42418000D02*
X96707000Y-47558000D01*
X94047000Y-42418000D02*
X96707000Y-42418000D01*
X94047000Y-41148000D02*
X94047000Y-39818000D01*
X94047000Y-39818000D02*
X95377000Y-39818000D01*
X96587000Y-47558000D02*
X99247000Y-47558000D01*
X96587000Y-42418000D02*
X96587000Y-47558000D01*
X99247000Y-42418000D02*
X99247000Y-47558000D01*
X96587000Y-42418000D02*
X99247000Y-42418000D01*
X96587000Y-41148000D02*
X96587000Y-39818000D01*
X96587000Y-39818000D02*
X97917000Y-39818000D01*
X99127000Y-47558000D02*
X101787000Y-47558000D01*
X99127000Y-42418000D02*
X99127000Y-47558000D01*
X101787000Y-42418000D02*
X101787000Y-47558000D01*
X99127000Y-42418000D02*
X101787000Y-42418000D01*
X99127000Y-41148000D02*
X99127000Y-39818000D01*
X99127000Y-39818000D02*
X100457000Y-39818000D01*
X101667000Y-47558000D02*
X104327000Y-47558000D01*
X101667000Y-42418000D02*
X101667000Y-47558000D01*
X104327000Y-42418000D02*
X104327000Y-47558000D01*
X101667000Y-42418000D02*
X104327000Y-42418000D01*
X101667000Y-41148000D02*
X101667000Y-39818000D01*
X101667000Y-39818000D02*
X102997000Y-39818000D01*
X121910800Y-103057000D02*
X124570800Y-103057000D01*
X121910800Y-90297000D02*
X121910800Y-103057000D01*
X124570800Y-90297000D02*
X124570800Y-103057000D01*
X121910800Y-90297000D02*
X124570800Y-90297000D01*
X121910800Y-89027000D02*
X121910800Y-87697000D01*
X121910800Y-87697000D02*
X123240800Y-87697000D01*
X69790000Y-40580000D02*
X69790000Y-43240000D01*
X77470000Y-40580000D02*
X69790000Y-40580000D01*
X77470000Y-43240000D02*
X69790000Y-43240000D01*
X77470000Y-40580000D02*
X77470000Y-43240000D01*
X78740000Y-40580000D02*
X80070000Y-40580000D01*
X80070000Y-40580000D02*
X80070000Y-41910000D01*
X144085000Y-136129720D02*
X144085000Y-138789720D01*
X146685000Y-136129720D02*
X144085000Y-136129720D01*
X146685000Y-138789720D02*
X144085000Y-138789720D01*
X146685000Y-136129720D02*
X146685000Y-138789720D01*
X147955000Y-136129720D02*
X149285000Y-136129720D01*
X149285000Y-136129720D02*
X149285000Y-137459720D01*
X139760000Y-44510000D02*
X139760000Y-41850000D01*
X132080000Y-44510000D02*
X139760000Y-44510000D01*
X132080000Y-41850000D02*
X139760000Y-41850000D01*
X132080000Y-44510000D02*
X132080000Y-41850000D01*
X130810000Y-44510000D02*
X129480000Y-44510000D01*
X129480000Y-44510000D02*
X129480000Y-43180000D01*
X151190000Y-74870000D02*
X148530000Y-74870000D01*
X151190000Y-118110000D02*
X151190000Y-74870000D01*
X148530000Y-118110000D02*
X148530000Y-74870000D01*
X151190000Y-118110000D02*
X148530000Y-118110000D01*
X151190000Y-119380000D02*
X151190000Y-120710000D01*
X151190000Y-120710000D02*
X149860000Y-120710000D01*
X64710000Y-43120000D02*
X64710000Y-45780000D01*
X77470000Y-43120000D02*
X64710000Y-43120000D01*
X77470000Y-45780000D02*
X64710000Y-45780000D01*
X77470000Y-43120000D02*
X77470000Y-45780000D01*
X78740000Y-43120000D02*
X80070000Y-43120000D01*
X80070000Y-43120000D02*
X80070000Y-44450000D01*
X151190000Y-63440000D02*
X145990000Y-63440000D01*
X151190000Y-71120000D02*
X151190000Y-63440000D01*
X145990000Y-73720000D02*
X145990000Y-63440000D01*
X151190000Y-71120000D02*
X148590000Y-71120000D01*
X148590000Y-71120000D02*
X148590000Y-73720000D01*
X148590000Y-73720000D02*
X145990000Y-73720000D01*
X151190000Y-72390000D02*
X151190000Y-73720000D01*
X151190000Y-73720000D02*
X149860000Y-73720000D01*
X143348400Y-55178000D02*
X146008400Y-55178000D01*
X143348400Y-42418000D02*
X143348400Y-55178000D01*
X146008400Y-42418000D02*
X146008400Y-55178000D01*
X143348400Y-42418000D02*
X146008400Y-42418000D01*
X143348400Y-41148000D02*
X143348400Y-39818000D01*
X143348400Y-39818000D02*
X144678400Y-39818000D01*
X145863000Y-55178000D02*
X151063000Y-55178000D01*
X145863000Y-42418000D02*
X145863000Y-55178000D01*
X151063000Y-39818000D02*
X151063000Y-55178000D01*
X145863000Y-42418000D02*
X148463000Y-42418000D01*
X148463000Y-42418000D02*
X148463000Y-39818000D01*
X148463000Y-39818000D02*
X151063000Y-39818000D01*
X145863000Y-41148000D02*
X145863000Y-39818000D01*
X145863000Y-39818000D02*
X147193000Y-39818000D01*
D14*
X75565000Y-62560200D02*
X75565000Y-63195200D01*
X75565000Y-63195200D02*
X65405000Y-63195200D01*
X65405000Y-63195200D02*
X65405000Y-62560200D01*
X75565000Y-58750200D02*
X75565000Y-62560200D01*
X75565000Y-62560200D02*
X65405000Y-62560200D01*
X65405000Y-62560200D02*
X65405000Y-58750200D01*
X65405000Y-58750200D02*
X75565000Y-58750200D01*
X75570100Y-84978200D02*
X75570100Y-85613200D01*
X75570100Y-85613200D02*
X65410100Y-85613200D01*
X65410100Y-85613200D02*
X65410100Y-84978200D01*
X75570100Y-81168200D02*
X75570100Y-84978200D01*
X75570100Y-84978200D02*
X65410100Y-84978200D01*
X65410100Y-84978200D02*
X65410100Y-81168200D01*
X65410100Y-81168200D02*
X75570100Y-81168200D01*
X75565000Y-70485000D02*
X75565000Y-71120000D01*
X75565000Y-71120000D02*
X65405000Y-71120000D01*
X65405000Y-71120000D02*
X65405000Y-70485000D01*
X75565000Y-66675000D02*
X75565000Y-70485000D01*
X75565000Y-70485000D02*
X65405000Y-70485000D01*
X65405000Y-70485000D02*
X65405000Y-66675000D01*
X65405000Y-66675000D02*
X75565000Y-66675000D01*
X75559900Y-93525300D02*
X75559900Y-94160300D01*
X75559900Y-94160300D02*
X65399900Y-94160300D01*
X65399900Y-94160300D02*
X65399900Y-93525300D01*
X75559900Y-89715300D02*
X75559900Y-93525300D01*
X75559900Y-93525300D02*
X65399900Y-93525300D01*
X65399900Y-93525300D02*
X65399900Y-89715300D01*
X65399900Y-89715300D02*
X75559900Y-89715300D01*
D15*
X87630000Y-93345000D02*
X87630000Y-93980000D01*
X87630000Y-93980000D02*
X78740000Y-93980000D01*
X78740000Y-93980000D02*
X78740000Y-93345000D01*
X87630000Y-89535000D02*
X87630000Y-93345000D01*
X87630000Y-93345000D02*
X78740000Y-93345000D01*
X78740000Y-93345000D02*
X78740000Y-89535000D01*
X78740000Y-89535000D02*
X87630000Y-89535000D01*
X87630000Y-85090000D02*
X87630000Y-85725000D01*
X87630000Y-85725000D02*
X78740000Y-85725000D01*
X78740000Y-85725000D02*
X78740000Y-85090000D01*
X87630000Y-81280000D02*
X87630000Y-85090000D01*
X87630000Y-85090000D02*
X78740000Y-85090000D01*
X78740000Y-85090000D02*
X78740000Y-81280000D01*
X78740000Y-81280000D02*
X87630000Y-81280000D01*
D17*
X78407800Y-106426000D02*
X78407800Y-107846000D01*
X71807800Y-105666000D02*
X71807800Y-107846000D01*
X71807800Y-112266000D02*
X71807800Y-110086000D01*
X78407800Y-111506000D02*
X78407800Y-110086000D01*
X71807800Y-105666000D02*
X77647800Y-105666000D01*
X77647800Y-105666000D02*
X78407800Y-106426000D01*
X78407800Y-111506000D02*
X77647800Y-112266000D01*
X77647800Y-112266000D02*
X71807800Y-112266000D01*
X102360000Y-116840000D02*
X102360000Y-118260000D01*
X95760000Y-116080000D02*
X95760000Y-118260000D01*
X95760000Y-122680000D02*
X95760000Y-120500000D01*
X102360000Y-121920000D02*
X102360000Y-120500000D01*
X95760000Y-116080000D02*
X101600000Y-116080000D01*
X101600000Y-116080000D02*
X102360000Y-116840000D01*
X102360000Y-121920000D02*
X101600000Y-122680000D01*
X101600000Y-122680000D02*
X95760000Y-122680000D01*
X124585000Y-116840000D02*
X124585000Y-118260000D01*
X117985000Y-116080000D02*
X117985000Y-118260000D01*
X117985000Y-122680000D02*
X117985000Y-120500000D01*
X124585000Y-121920000D02*
X124585000Y-120500000D01*
X117985000Y-116080000D02*
X123825000Y-116080000D01*
X123825000Y-116080000D02*
X124585000Y-116840000D01*
X124585000Y-121920000D02*
X123825000Y-122680000D01*
X123825000Y-122680000D02*
X117985000Y-122680000D01*
X78615000Y-57785000D02*
X78615000Y-56365000D01*
X85215000Y-58545000D02*
X85215000Y-56365000D01*
X85215000Y-51945000D02*
X85215000Y-54125000D01*
X78615000Y-52705000D02*
X78615000Y-54125000D01*
X85215000Y-58545000D02*
X79375000Y-58545000D01*
X79375000Y-58545000D02*
X78615000Y-57785000D01*
X78615000Y-52705000D02*
X79375000Y-51945000D01*
X79375000Y-51945000D02*
X85215000Y-51945000D01*
X140460000Y-116840000D02*
X140460000Y-118260000D01*
X133860000Y-116080000D02*
X133860000Y-118260000D01*
X133860000Y-122680000D02*
X133860000Y-120500000D01*
X140460000Y-121920000D02*
X140460000Y-120500000D01*
X133860000Y-116080000D02*
X139700000Y-116080000D01*
X139700000Y-116080000D02*
X140460000Y-116840000D01*
X140460000Y-121920000D02*
X139700000Y-122680000D01*
X139700000Y-122680000D02*
X133860000Y-122680000D01*
X98935000Y-57785000D02*
X98935000Y-56365000D01*
X105535000Y-58545000D02*
X105535000Y-56365000D01*
X105535000Y-51945000D02*
X105535000Y-54125000D01*
X98935000Y-52705000D02*
X98935000Y-54125000D01*
X105535000Y-58545000D02*
X99695000Y-58545000D01*
X99695000Y-58545000D02*
X98935000Y-57785000D01*
X98935000Y-52705000D02*
X99695000Y-51945000D01*
X99695000Y-51945000D02*
X105535000Y-51945000D01*
X119255000Y-57785000D02*
X119255000Y-56365000D01*
X125855000Y-58545000D02*
X125855000Y-56365000D01*
X125855000Y-51945000D02*
X125855000Y-54125000D01*
X119255000Y-52705000D02*
X119255000Y-54125000D01*
X125855000Y-58545000D02*
X120015000Y-58545000D01*
X120015000Y-58545000D02*
X119255000Y-57785000D01*
X119255000Y-52705000D02*
X120015000Y-51945000D01*
X120015000Y-51945000D02*
X125855000Y-51945000D01*
D14*
X118618000Y-66548000D02*
X119380000Y-65278000D01*
X119380000Y-65278000D02*
X120015000Y-66548000D01*
X120015000Y-66548000D02*
X118745000Y-66548000D01*
X118110000Y-49530000D02*
X138430000Y-49530000D01*
X138430000Y-49530000D02*
X138430000Y-64770000D01*
X138430000Y-64770000D02*
X118110000Y-64770000D01*
X118110000Y-64770000D02*
X118110000Y-49530000D01*
X98298000Y-66548000D02*
X99060000Y-65278000D01*
X99060000Y-65278000D02*
X99695000Y-66548000D01*
X99695000Y-66548000D02*
X98425000Y-66548000D01*
X97790000Y-49530000D02*
X118110000Y-49530000D01*
X118110000Y-49530000D02*
X118110000Y-64770000D01*
X118110000Y-64770000D02*
X97790000Y-64770000D01*
X97790000Y-64770000D02*
X97790000Y-49530000D01*
X77978000Y-66548000D02*
X78740000Y-65278000D01*
X78740000Y-65278000D02*
X79375000Y-66548000D01*
X79375000Y-66548000D02*
X78105000Y-66548000D01*
X77470000Y-49530000D02*
X97790000Y-49530000D01*
X97790000Y-49530000D02*
X97790000Y-64770000D01*
X97790000Y-64770000D02*
X77470000Y-64770000D01*
X77470000Y-64770000D02*
X77470000Y-49530000D01*
X141732000Y-111887000D02*
X140970000Y-113157000D01*
X140970000Y-113157000D02*
X140335000Y-111887000D01*
X140335000Y-111887000D02*
X141605000Y-111887000D01*
X142240000Y-128905000D02*
X121920000Y-128905000D01*
X121920000Y-128905000D02*
X121920000Y-113665000D01*
X121920000Y-113665000D02*
X142240000Y-113665000D01*
X142240000Y-113665000D02*
X142240000Y-128905000D01*
X121412000Y-111887000D02*
X120650000Y-113157000D01*
X120650000Y-113157000D02*
X120015000Y-111887000D01*
X120015000Y-111887000D02*
X121285000Y-111887000D01*
X121920000Y-128905000D02*
X101600000Y-128905000D01*
X101600000Y-128905000D02*
X101600000Y-113665000D01*
X101600000Y-113665000D02*
X121920000Y-113665000D01*
X121920000Y-113665000D02*
X121920000Y-128905000D01*
X101092000Y-111887000D02*
X100330000Y-113157000D01*
X100330000Y-113157000D02*
X99695000Y-111887000D01*
X99695000Y-111887000D02*
X100965000Y-111887000D01*
X101600000Y-128905000D02*
X81280000Y-128905000D01*
X81280000Y-128905000D02*
X81280000Y-113665000D01*
X81280000Y-113665000D02*
X101600000Y-113665000D01*
X101600000Y-113665000D02*
X101600000Y-128905000D01*
D17*
X108339000Y-116668000D02*
X109339000Y-116668000D01*
X109339000Y-118028000D02*
X108339000Y-118028000D01*
X129204000Y-116848000D02*
X129204000Y-117848000D01*
X127844000Y-117848000D02*
X127844000Y-116848000D01*
D16*
X126661333Y-85894333D02*
X127145142Y-85894333D01*
X126564571Y-86184619D02*
X126903238Y-85168619D01*
X127241904Y-86184619D01*
X127580571Y-85168619D02*
X127580571Y-85991095D01*
X127628952Y-86087857D01*
X127677333Y-86136238D01*
X127774095Y-86184619D01*
X127967619Y-86184619D01*
X128064380Y-86136238D01*
X128112761Y-86087857D01*
X128161142Y-85991095D01*
X128161142Y-85168619D01*
X128548190Y-85168619D02*
X129225523Y-86184619D01*
X129225523Y-85168619D02*
X128548190Y-86184619D01*
X129612571Y-85797571D02*
X130386666Y-85797571D01*
X130822095Y-85265380D02*
X130870476Y-85217000D01*
X130967238Y-85168619D01*
X131209142Y-85168619D01*
X131305904Y-85217000D01*
X131354285Y-85265380D01*
X131402666Y-85362142D01*
X131402666Y-85458904D01*
X131354285Y-85604047D01*
X130773714Y-86184619D01*
X131402666Y-86184619D01*
D12*
X79338880Y-67127285D02*
X78338880Y-67127285D01*
X78338880Y-66746333D01*
X78386500Y-66651095D01*
X78434119Y-66603476D01*
X78529357Y-66555857D01*
X78672214Y-66555857D01*
X78767452Y-66603476D01*
X78815071Y-66651095D01*
X78862690Y-66746333D01*
X78862690Y-67127285D01*
X79338880Y-65603476D02*
X79338880Y-66174904D01*
X79338880Y-65889190D02*
X78338880Y-65889190D01*
X78481738Y-65984428D01*
X78576976Y-66079666D01*
X78624595Y-66174904D01*
X78338880Y-64698714D02*
X78338880Y-65174904D01*
X78815071Y-65222523D01*
X78767452Y-65174904D01*
X78719833Y-65079666D01*
X78719833Y-64841571D01*
X78767452Y-64746333D01*
X78815071Y-64698714D01*
X78910309Y-64651095D01*
X79148404Y-64651095D01*
X79243642Y-64698714D01*
X79291261Y-64746333D01*
X79338880Y-64841571D01*
X79338880Y-65079666D01*
X79291261Y-65174904D01*
X79243642Y-65222523D01*
X100765420Y-108556015D02*
X99765420Y-108556015D01*
X99765420Y-108175062D01*
X99813040Y-108079824D01*
X99860659Y-108032205D01*
X99955897Y-107984586D01*
X100098754Y-107984586D01*
X100193992Y-108032205D01*
X100241611Y-108079824D01*
X100289230Y-108175062D01*
X100289230Y-108556015D01*
X99765420Y-107127443D02*
X99765420Y-107317920D01*
X99813040Y-107413158D01*
X99860659Y-107460777D01*
X100003516Y-107556015D01*
X100193992Y-107603634D01*
X100574944Y-107603634D01*
X100670182Y-107556015D01*
X100717801Y-107508396D01*
X100765420Y-107413158D01*
X100765420Y-107222681D01*
X100717801Y-107127443D01*
X100670182Y-107079824D01*
X100574944Y-107032205D01*
X100336849Y-107032205D01*
X100241611Y-107079824D01*
X100193992Y-107127443D01*
X100146373Y-107222681D01*
X100146373Y-107413158D01*
X100193992Y-107508396D01*
X100241611Y-107556015D01*
X100336849Y-107603634D01*
X79402380Y-70937285D02*
X78402380Y-70937285D01*
X78402380Y-70556333D01*
X78450000Y-70461095D01*
X78497619Y-70413476D01*
X78592857Y-70365857D01*
X78735714Y-70365857D01*
X78830952Y-70413476D01*
X78878571Y-70461095D01*
X78926190Y-70556333D01*
X78926190Y-70937285D01*
X79402380Y-69413476D02*
X79402380Y-69984904D01*
X79402380Y-69699190D02*
X78402380Y-69699190D01*
X78545238Y-69794428D01*
X78640476Y-69889666D01*
X78688095Y-69984904D01*
X78497619Y-69032523D02*
X78450000Y-68984904D01*
X78402380Y-68889666D01*
X78402380Y-68651571D01*
X78450000Y-68556333D01*
X78497619Y-68508714D01*
X78592857Y-68461095D01*
X78688095Y-68461095D01*
X78830952Y-68508714D01*
X79402380Y-69080142D01*
X79402380Y-68461095D01*
D11*
X54537428Y-108272942D02*
X53013428Y-108272942D01*
X53739142Y-108272942D02*
X53739142Y-107402085D01*
X54537428Y-107402085D02*
X53013428Y-107402085D01*
X53739142Y-106168371D02*
X53811714Y-105950657D01*
X53884285Y-105878085D01*
X54029428Y-105805514D01*
X54247142Y-105805514D01*
X54392285Y-105878085D01*
X54464857Y-105950657D01*
X54537428Y-106095800D01*
X54537428Y-106676371D01*
X53013428Y-106676371D01*
X53013428Y-106168371D01*
X53086000Y-106023228D01*
X53158571Y-105950657D01*
X53303714Y-105878085D01*
X53448857Y-105878085D01*
X53594000Y-105950657D01*
X53666571Y-106023228D01*
X53739142Y-106168371D01*
X53739142Y-106676371D01*
X54682571Y-105515228D02*
X54682571Y-104354085D01*
X54537428Y-103991228D02*
X53013428Y-103991228D01*
X54537428Y-103265514D02*
X53013428Y-103265514D01*
X54537428Y-102394657D01*
X53013428Y-102394657D01*
X60597142Y-87049428D02*
X60597142Y-85525428D01*
X60960000Y-85525428D01*
X61177714Y-85598000D01*
X61322857Y-85743142D01*
X61395428Y-85888285D01*
X61468000Y-86178571D01*
X61468000Y-86396285D01*
X61395428Y-86686571D01*
X61322857Y-86831714D01*
X61177714Y-86976857D01*
X60960000Y-87049428D01*
X60597142Y-87049428D01*
X62338857Y-86178571D02*
X62193714Y-86106000D01*
X62121142Y-86033428D01*
X62048571Y-85888285D01*
X62048571Y-85815714D01*
X62121142Y-85670571D01*
X62193714Y-85598000D01*
X62338857Y-85525428D01*
X62629142Y-85525428D01*
X62774285Y-85598000D01*
X62846857Y-85670571D01*
X62919428Y-85815714D01*
X62919428Y-85888285D01*
X62846857Y-86033428D01*
X62774285Y-86106000D01*
X62629142Y-86178571D01*
X62338857Y-86178571D01*
X62193714Y-86251142D01*
X62121142Y-86323714D01*
X62048571Y-86468857D01*
X62048571Y-86759142D01*
X62121142Y-86904285D01*
X62193714Y-86976857D01*
X62338857Y-87049428D01*
X62629142Y-87049428D01*
X62774285Y-86976857D01*
X62846857Y-86904285D01*
X62919428Y-86759142D01*
X62919428Y-86468857D01*
X62846857Y-86323714D01*
X62774285Y-86251142D01*
X62629142Y-86178571D01*
D18*
X86632142Y-96193428D02*
X86741000Y-96229714D01*
X86922428Y-96229714D01*
X86995000Y-96193428D01*
X87031285Y-96157142D01*
X87067571Y-96084571D01*
X87067571Y-96012000D01*
X87031285Y-95939428D01*
X86995000Y-95903142D01*
X86922428Y-95866857D01*
X86777285Y-95830571D01*
X86704714Y-95794285D01*
X86668428Y-95758000D01*
X86632142Y-95685428D01*
X86632142Y-95612857D01*
X86668428Y-95540285D01*
X86704714Y-95504000D01*
X86777285Y-95467714D01*
X86958714Y-95467714D01*
X87067571Y-95504000D01*
X87285285Y-95467714D02*
X87720714Y-95467714D01*
X87503000Y-96229714D02*
X87503000Y-95467714D01*
X87938428Y-96012000D02*
X88301285Y-96012000D01*
X87865857Y-96229714D02*
X88119857Y-95467714D01*
X88373857Y-96229714D01*
X88519000Y-95467714D02*
X88954428Y-95467714D01*
X88736714Y-96229714D02*
X88736714Y-95467714D01*
X89208428Y-95467714D02*
X89208428Y-96084571D01*
X89244714Y-96157142D01*
X89281000Y-96193428D01*
X89353571Y-96229714D01*
X89498714Y-96229714D01*
X89571285Y-96193428D01*
X89607571Y-96157142D01*
X89643857Y-96084571D01*
X89643857Y-95467714D01*
X89970428Y-96193428D02*
X90079285Y-96229714D01*
X90260714Y-96229714D01*
X90333285Y-96193428D01*
X90369571Y-96157142D01*
X90405857Y-96084571D01*
X90405857Y-96012000D01*
X90369571Y-95939428D01*
X90333285Y-95903142D01*
X90260714Y-95866857D01*
X90115571Y-95830571D01*
X90043000Y-95794285D01*
X90006714Y-95758000D01*
X89970428Y-95685428D01*
X89970428Y-95612857D01*
X90006714Y-95540285D01*
X90043000Y-95504000D01*
X90115571Y-95467714D01*
X90297000Y-95467714D01*
X90405857Y-95504000D01*
D16*
X123002523Y-129618619D02*
X123679857Y-129618619D01*
X123002523Y-130634619D01*
X123679857Y-130634619D01*
X124018523Y-129715380D02*
X124066904Y-129667000D01*
X124163666Y-129618619D01*
X124405571Y-129618619D01*
X124502333Y-129667000D01*
X124550714Y-129715380D01*
X124599095Y-129812142D01*
X124599095Y-129908904D01*
X124550714Y-130054047D01*
X123970142Y-130634619D01*
X124599095Y-130634619D01*
D10*
X62809380Y-45846666D02*
X62809380Y-46418095D01*
X62809380Y-46132380D02*
X61809380Y-46132380D01*
X61952238Y-46227619D01*
X62047476Y-46322857D01*
X62095095Y-46418095D01*
X61904619Y-45465714D02*
X61857000Y-45418095D01*
X61809380Y-45322857D01*
X61809380Y-45084761D01*
X61857000Y-44989523D01*
X61904619Y-44941904D01*
X61999857Y-44894285D01*
X62095095Y-44894285D01*
X62237952Y-44941904D01*
X62809380Y-45513333D01*
X62809380Y-44894285D01*
X61809380Y-44608571D02*
X62809380Y-44275238D01*
X61809380Y-43941904D01*
X62428428Y-43608571D02*
X62428428Y-42846666D01*
X62523666Y-42418095D02*
X62523666Y-41941904D01*
X62809380Y-42513333D02*
X61809380Y-42180000D01*
X62809380Y-41846666D01*
X61809380Y-41513333D02*
X62618904Y-41513333D01*
X62714142Y-41465714D01*
X62761761Y-41418095D01*
X62809380Y-41322857D01*
X62809380Y-41132380D01*
X62761761Y-41037142D01*
X62714142Y-40989523D01*
X62618904Y-40941904D01*
X61809380Y-40941904D01*
X61809380Y-40560952D02*
X62809380Y-39894285D01*
X61809380Y-39894285D02*
X62809380Y-40560952D01*
D16*
X95927333Y-129698619D02*
X96604666Y-130714619D01*
X96604666Y-129698619D02*
X95927333Y-130714619D01*
X111760000Y-130150809D02*
X111760000Y-130634619D01*
X111421333Y-129618619D02*
X111760000Y-130150809D01*
X112098666Y-129618619D01*
X134432523Y-129618619D02*
X135109857Y-129618619D01*
X134432523Y-130634619D01*
X135109857Y-130634619D01*
X136029095Y-130634619D02*
X135448523Y-130634619D01*
X135738809Y-130634619D02*
X135738809Y-129618619D01*
X135642047Y-129763761D01*
X135545285Y-129860523D01*
X135448523Y-129908904D01*
X86928476Y-47552428D02*
X87267142Y-47552428D01*
X87412285Y-48084619D02*
X86928476Y-48084619D01*
X86928476Y-47068619D01*
X87412285Y-47068619D01*
X87799333Y-47165380D02*
X87847714Y-47117000D01*
X87944476Y-47068619D01*
X88186380Y-47068619D01*
X88283142Y-47117000D01*
X88331523Y-47165380D01*
X88379904Y-47262142D01*
X88379904Y-47358904D01*
X88331523Y-47504047D01*
X87750952Y-48084619D01*
X88379904Y-48084619D01*
X111058476Y-47552428D02*
X111397142Y-47552428D01*
X111542285Y-48084619D02*
X111058476Y-48084619D01*
X111058476Y-47068619D01*
X111542285Y-47068619D01*
X112509904Y-48084619D02*
X111929333Y-48084619D01*
X112219619Y-48084619D02*
X112219619Y-47068619D01*
X112122857Y-47213761D01*
X112026095Y-47310523D01*
X111929333Y-47358904D01*
X135932333Y-83227333D02*
X136416142Y-83227333D01*
X135835571Y-83517619D02*
X136174238Y-82501619D01*
X136512904Y-83517619D01*
X136851571Y-82501619D02*
X136851571Y-83324095D01*
X136899952Y-83420857D01*
X136948333Y-83469238D01*
X137045095Y-83517619D01*
X137238619Y-83517619D01*
X137335380Y-83469238D01*
X137383761Y-83420857D01*
X137432142Y-83324095D01*
X137432142Y-82501619D01*
X137819190Y-82501619D02*
X138496523Y-83517619D01*
X138496523Y-82501619D02*
X137819190Y-83517619D01*
X138883571Y-83130571D02*
X139657666Y-83130571D01*
X140044714Y-82501619D02*
X140673666Y-82501619D01*
X140335000Y-82888666D01*
X140480142Y-82888666D01*
X140576904Y-82937047D01*
X140625285Y-82985428D01*
X140673666Y-83082190D01*
X140673666Y-83324095D01*
X140625285Y-83420857D01*
X140576904Y-83469238D01*
X140480142Y-83517619D01*
X140189857Y-83517619D01*
X140093095Y-83469238D01*
X140044714Y-83420857D01*
X122488476Y-47552428D02*
X122827142Y-47552428D01*
X122972285Y-48084619D02*
X122488476Y-48084619D01*
X122488476Y-47068619D01*
X122972285Y-47068619D01*
X123601238Y-47068619D02*
X123698000Y-47068619D01*
X123794761Y-47117000D01*
X123843142Y-47165380D01*
X123891523Y-47262142D01*
X123939904Y-47455666D01*
X123939904Y-47697571D01*
X123891523Y-47891095D01*
X123843142Y-47987857D01*
X123794761Y-48036238D01*
X123698000Y-48084619D01*
X123601238Y-48084619D01*
X123504476Y-48036238D01*
X123456095Y-47987857D01*
X123407714Y-47891095D01*
X123359333Y-47697571D01*
X123359333Y-47455666D01*
X123407714Y-47262142D01*
X123456095Y-47165380D01*
X123504476Y-47117000D01*
X123601238Y-47068619D01*
D13*
X60428571Y-60678571D02*
X60428571Y-59178571D01*
X60785714Y-59178571D01*
X61000000Y-59250000D01*
X61142857Y-59392857D01*
X61214285Y-59535714D01*
X61285714Y-59821428D01*
X61285714Y-60035714D01*
X61214285Y-60321428D01*
X61142857Y-60464285D01*
X61000000Y-60607142D01*
X60785714Y-60678571D01*
X60428571Y-60678571D01*
X62714285Y-60678571D02*
X61857142Y-60678571D01*
X62285714Y-60678571D02*
X62285714Y-59178571D01*
X62142857Y-59392857D01*
X62000000Y-59535714D01*
X61857142Y-59607142D01*
X64142857Y-60678571D02*
X63285714Y-60678571D01*
X63714285Y-60678571D02*
X63714285Y-59178571D01*
X63571428Y-59392857D01*
X63428571Y-59535714D01*
X63285714Y-59607142D01*
X60392857Y-79178571D02*
X60392857Y-77678571D01*
X60750000Y-77678571D01*
X60964285Y-77750000D01*
X61107142Y-77892857D01*
X61178571Y-78035714D01*
X61250000Y-78321428D01*
X61250000Y-78535714D01*
X61178571Y-78821428D01*
X61107142Y-78964285D01*
X60964285Y-79107142D01*
X60750000Y-79178571D01*
X60392857Y-79178571D01*
X61964285Y-79178571D02*
X62250000Y-79178571D01*
X62392857Y-79107142D01*
X62464285Y-79035714D01*
X62607142Y-78821428D01*
X62678571Y-78535714D01*
X62678571Y-77964285D01*
X62607142Y-77821428D01*
X62535714Y-77750000D01*
X62392857Y-77678571D01*
X62107142Y-77678571D01*
X61964285Y-77750000D01*
X61892857Y-77821428D01*
X61821428Y-77964285D01*
X61821428Y-78321428D01*
X61892857Y-78464285D01*
X61964285Y-78535714D01*
X62107142Y-78607142D01*
X62392857Y-78607142D01*
X62535714Y-78535714D01*
X62607142Y-78464285D01*
X62678571Y-78321428D01*
X60428571Y-69178571D02*
X60428571Y-67678571D01*
X60785714Y-67678571D01*
X61000000Y-67750000D01*
X61142857Y-67892857D01*
X61214285Y-68035714D01*
X61285714Y-68321428D01*
X61285714Y-68535714D01*
X61214285Y-68821428D01*
X61142857Y-68964285D01*
X61000000Y-69107142D01*
X60785714Y-69178571D01*
X60428571Y-69178571D01*
X62714285Y-69178571D02*
X61857142Y-69178571D01*
X62285714Y-69178571D02*
X62285714Y-67678571D01*
X62142857Y-67892857D01*
X62000000Y-68035714D01*
X61857142Y-68107142D01*
X63642857Y-67678571D02*
X63785714Y-67678571D01*
X63928571Y-67750000D01*
X64000000Y-67821428D01*
X64071428Y-67964285D01*
X64142857Y-68250000D01*
X64142857Y-68607142D01*
X64071428Y-68892857D01*
X64000000Y-69035714D01*
X63928571Y-69107142D01*
X63785714Y-69178571D01*
X63642857Y-69178571D01*
X63500000Y-69107142D01*
X63428571Y-69035714D01*
X63357142Y-68892857D01*
X63285714Y-68607142D01*
X63285714Y-68250000D01*
X63357142Y-67964285D01*
X63428571Y-67821428D01*
X63500000Y-67750000D01*
X63642857Y-67678571D01*
D10*
X63174714Y-53538380D02*
X63174714Y-52538380D01*
X63412809Y-52538380D01*
X63555666Y-52586000D01*
X63650904Y-52681238D01*
X63698523Y-52776476D01*
X63746142Y-52966952D01*
X63746142Y-53109809D01*
X63698523Y-53300285D01*
X63650904Y-53395523D01*
X63555666Y-53490761D01*
X63412809Y-53538380D01*
X63174714Y-53538380D01*
X64698523Y-53538380D02*
X64127095Y-53538380D01*
X64412809Y-53538380D02*
X64412809Y-52538380D01*
X64317571Y-52681238D01*
X64222333Y-52776476D01*
X64127095Y-52824095D01*
X65079476Y-52633619D02*
X65127095Y-52586000D01*
X65222333Y-52538380D01*
X65460428Y-52538380D01*
X65555666Y-52586000D01*
X65603285Y-52633619D01*
X65650904Y-52728857D01*
X65650904Y-52824095D01*
X65603285Y-52966952D01*
X65031857Y-53538380D01*
X65650904Y-53538380D01*
X63396904Y-47188380D02*
X63396904Y-46188380D01*
X63635000Y-46188380D01*
X63777857Y-46236000D01*
X63873095Y-46331238D01*
X63920714Y-46426476D01*
X63968333Y-46616952D01*
X63968333Y-46759809D01*
X63920714Y-46950285D01*
X63873095Y-47045523D01*
X63777857Y-47140761D01*
X63635000Y-47188380D01*
X63396904Y-47188380D01*
X64349285Y-46283619D02*
X64396904Y-46236000D01*
X64492142Y-46188380D01*
X64730238Y-46188380D01*
X64825476Y-46236000D01*
X64873095Y-46283619D01*
X64920714Y-46378857D01*
X64920714Y-46474095D01*
X64873095Y-46616952D01*
X64301666Y-47188380D01*
X64920714Y-47188380D01*
D12*
X144428571Y-62095238D02*
X144428571Y-61761904D01*
X144952380Y-61619047D02*
X144952380Y-62095238D01*
X143952380Y-62095238D01*
X143952380Y-61619047D01*
X144904761Y-61238095D02*
X144952380Y-61095238D01*
X144952380Y-60857142D01*
X144904761Y-60761904D01*
X144857142Y-60714285D01*
X144761904Y-60666666D01*
X144666666Y-60666666D01*
X144571428Y-60714285D01*
X144523809Y-60761904D01*
X144476190Y-60857142D01*
X144428571Y-61047619D01*
X144380952Y-61142857D01*
X144333333Y-61190476D01*
X144238095Y-61238095D01*
X144142857Y-61238095D01*
X144047619Y-61190476D01*
X144000000Y-61142857D01*
X143952380Y-61047619D01*
X143952380Y-60809523D01*
X144000000Y-60666666D01*
X143952380Y-60380952D02*
X143952380Y-59809523D01*
X144952380Y-60095238D02*
X143952380Y-60095238D01*
X143952380Y-59285714D02*
X143952380Y-59095238D01*
X144000000Y-59000000D01*
X144095238Y-58904761D01*
X144285714Y-58857142D01*
X144619047Y-58857142D01*
X144809523Y-58904761D01*
X144904761Y-59000000D01*
X144952380Y-59095238D01*
X144952380Y-59285714D01*
X144904761Y-59380952D01*
X144809523Y-59476190D01*
X144619047Y-59523809D01*
X144285714Y-59523809D01*
X144095238Y-59476190D01*
X144000000Y-59380952D01*
X143952380Y-59285714D01*
X144952380Y-58428571D02*
X143952380Y-58428571D01*
X143952380Y-58047619D01*
X144000000Y-57952380D01*
X144047619Y-57904761D01*
X144142857Y-57857142D01*
X144285714Y-57857142D01*
X144380952Y-57904761D01*
X144428571Y-57952380D01*
X144476190Y-58047619D01*
X144476190Y-58428571D01*
D10*
X83457142Y-138535228D02*
X83795809Y-138535228D01*
X83940952Y-139067419D02*
X83457142Y-139067419D01*
X83457142Y-138051419D01*
X83940952Y-138051419D01*
X84279619Y-138051419D02*
X84956952Y-139067419D01*
X84956952Y-138051419D02*
X84279619Y-139067419D01*
X85198857Y-138051419D02*
X85779428Y-138051419D01*
X85489142Y-139067419D02*
X85489142Y-138051419D01*
X85876190Y-139164180D02*
X86650285Y-139164180D01*
X87376000Y-138051419D02*
X86892190Y-138051419D01*
X86843809Y-138535228D01*
X86892190Y-138486847D01*
X86988952Y-138438466D01*
X87230857Y-138438466D01*
X87327619Y-138486847D01*
X87376000Y-138535228D01*
X87424380Y-138631990D01*
X87424380Y-138873895D01*
X87376000Y-138970657D01*
X87327619Y-139019038D01*
X87230857Y-139067419D01*
X86988952Y-139067419D01*
X86892190Y-139019038D01*
X86843809Y-138970657D01*
X87714666Y-138051419D02*
X88053333Y-139067419D01*
X88392000Y-138051419D01*
D11*
X54664428Y-134166428D02*
X53140428Y-134166428D01*
X53140428Y-133585857D01*
X53213000Y-133440714D01*
X53285571Y-133368142D01*
X53430714Y-133295571D01*
X53648428Y-133295571D01*
X53793571Y-133368142D01*
X53866142Y-133440714D01*
X53938714Y-133585857D01*
X53938714Y-134166428D01*
X53140428Y-132352142D02*
X53140428Y-132061857D01*
X53213000Y-131916714D01*
X53358142Y-131771571D01*
X53648428Y-131699000D01*
X54156428Y-131699000D01*
X54446714Y-131771571D01*
X54591857Y-131916714D01*
X54664428Y-132061857D01*
X54664428Y-132352142D01*
X54591857Y-132497285D01*
X54446714Y-132642428D01*
X54156428Y-132715000D01*
X53648428Y-132715000D01*
X53358142Y-132642428D01*
X53213000Y-132497285D01*
X53140428Y-132352142D01*
X53140428Y-131191000D02*
X54664428Y-130828142D01*
X53575857Y-130537857D01*
X54664428Y-130247571D01*
X53140428Y-129884714D01*
X53866142Y-129304142D02*
X53866142Y-128796142D01*
X54664428Y-128578428D02*
X54664428Y-129304142D01*
X53140428Y-129304142D01*
X53140428Y-128578428D01*
X54664428Y-127054428D02*
X53938714Y-127562428D01*
X54664428Y-127925285D02*
X53140428Y-127925285D01*
X53140428Y-127344714D01*
X53213000Y-127199571D01*
X53285571Y-127127000D01*
X53430714Y-127054428D01*
X53648428Y-127054428D01*
X53793571Y-127127000D01*
X53866142Y-127199571D01*
X53938714Y-127344714D01*
X53938714Y-127925285D01*
X54809571Y-126764142D02*
X54809571Y-125603000D01*
X54664428Y-125240142D02*
X53140428Y-125240142D01*
X54664428Y-124514428D02*
X53140428Y-124514428D01*
X54664428Y-123643571D01*
X53140428Y-123643571D01*
D12*
X69453285Y-127427291D02*
X69119952Y-127427291D01*
X69119952Y-127951100D02*
X69119952Y-126951100D01*
X69596142Y-126951100D01*
X70500904Y-127951100D02*
X69929476Y-127951100D01*
X70215190Y-127951100D02*
X70215190Y-126951100D01*
X70119952Y-127093958D01*
X70024714Y-127189196D01*
X69929476Y-127236815D01*
X71119952Y-126951100D02*
X71215190Y-126951100D01*
X71310428Y-126998720D01*
X71358047Y-127046339D01*
X71405666Y-127141577D01*
X71453285Y-127332053D01*
X71453285Y-127570148D01*
X71405666Y-127760624D01*
X71358047Y-127855862D01*
X71310428Y-127903481D01*
X71215190Y-127951100D01*
X71119952Y-127951100D01*
X71024714Y-127903481D01*
X70977095Y-127855862D01*
X70929476Y-127760624D01*
X70881857Y-127570148D01*
X70881857Y-127332053D01*
X70929476Y-127141577D01*
X70977095Y-127046339D01*
X71024714Y-126998720D01*
X71119952Y-126951100D01*
X71834238Y-127046339D02*
X71881857Y-126998720D01*
X71977095Y-126951100D01*
X72215190Y-126951100D01*
X72310428Y-126998720D01*
X72358047Y-127046339D01*
X72405666Y-127141577D01*
X72405666Y-127236815D01*
X72358047Y-127379672D01*
X71786619Y-127951100D01*
X72405666Y-127951100D01*
X67667571Y-136927291D02*
X67334238Y-136927291D01*
X67334238Y-137451100D02*
X67334238Y-136451100D01*
X67810428Y-136451100D01*
X68191380Y-136451100D02*
X68191380Y-137260624D01*
X68239000Y-137355862D01*
X68286619Y-137403481D01*
X68381857Y-137451100D01*
X68572333Y-137451100D01*
X68667571Y-137403481D01*
X68715190Y-137355862D01*
X68762809Y-137260624D01*
X68762809Y-136451100D01*
X69191380Y-137403481D02*
X69334238Y-137451100D01*
X69572333Y-137451100D01*
X69667571Y-137403481D01*
X69715190Y-137355862D01*
X69762809Y-137260624D01*
X69762809Y-137165386D01*
X69715190Y-137070148D01*
X69667571Y-137022529D01*
X69572333Y-136974910D01*
X69381857Y-136927291D01*
X69286619Y-136879672D01*
X69239000Y-136832053D01*
X69191380Y-136736815D01*
X69191380Y-136641577D01*
X69239000Y-136546339D01*
X69286619Y-136498720D01*
X69381857Y-136451100D01*
X69619952Y-136451100D01*
X69762809Y-136498720D01*
X70191380Y-136927291D02*
X70524714Y-136927291D01*
X70667571Y-137451100D02*
X70191380Y-137451100D01*
X70191380Y-136451100D01*
X70667571Y-136451100D01*
X72381857Y-137451100D02*
X71810428Y-137451100D01*
X72096142Y-137451100D02*
X72096142Y-136451100D01*
X72000904Y-136593958D01*
X71905666Y-136689196D01*
X71810428Y-136736815D01*
X73000904Y-136451100D02*
X73096142Y-136451100D01*
X73191380Y-136498720D01*
X73239000Y-136546339D01*
X73286619Y-136641577D01*
X73334238Y-136832053D01*
X73334238Y-137070148D01*
X73286619Y-137260624D01*
X73239000Y-137355862D01*
X73191380Y-137403481D01*
X73096142Y-137451100D01*
X73000904Y-137451100D01*
X72905666Y-137403481D01*
X72858047Y-137355862D01*
X72810428Y-137260624D01*
X72762809Y-137070148D01*
X72762809Y-136832053D01*
X72810428Y-136641577D01*
X72858047Y-136546339D01*
X72905666Y-136498720D01*
X73000904Y-136451100D01*
X73715190Y-137165386D02*
X74191380Y-137165386D01*
X73619952Y-137451100D02*
X73953285Y-136451100D01*
X74286619Y-137451100D01*
D16*
X144362714Y-132663958D02*
X144507857Y-132712339D01*
X144749761Y-132712339D01*
X144846523Y-132663958D01*
X144894904Y-132615577D01*
X144943285Y-132518815D01*
X144943285Y-132422053D01*
X144894904Y-132325291D01*
X144846523Y-132276910D01*
X144749761Y-132228529D01*
X144556238Y-132180148D01*
X144459476Y-132131767D01*
X144411095Y-132083386D01*
X144362714Y-131986624D01*
X144362714Y-131889862D01*
X144411095Y-131793100D01*
X144459476Y-131744720D01*
X144556238Y-131696339D01*
X144798142Y-131696339D01*
X144943285Y-131744720D01*
X145281952Y-131696339D02*
X145523857Y-132712339D01*
X145717380Y-131986624D01*
X145910904Y-132712339D01*
X146152809Y-131696339D01*
X147072047Y-132712339D02*
X146491476Y-132712339D01*
X146781761Y-132712339D02*
X146781761Y-131696339D01*
X146685000Y-131841481D01*
X146588238Y-131938243D01*
X146491476Y-131986624D01*
X147701000Y-131696339D02*
X147797761Y-131696339D01*
X147894523Y-131744720D01*
X147942904Y-131793100D01*
X147991285Y-131889862D01*
X148039666Y-132083386D01*
X148039666Y-132325291D01*
X147991285Y-132518815D01*
X147942904Y-132615577D01*
X147894523Y-132663958D01*
X147797761Y-132712339D01*
X147701000Y-132712339D01*
X147604238Y-132663958D01*
X147555857Y-132615577D01*
X147507476Y-132518815D01*
X147459095Y-132325291D01*
X147459095Y-132083386D01*
X147507476Y-131889862D01*
X147555857Y-131793100D01*
X147604238Y-131744720D01*
X147701000Y-131696339D01*
X149007285Y-132712339D02*
X148426714Y-132712339D01*
X148717000Y-132712339D02*
X148717000Y-131696339D01*
X148620238Y-131841481D01*
X148523476Y-131938243D01*
X148426714Y-131986624D01*
X145082380Y-128711839D02*
X144743714Y-128228029D01*
X144501809Y-128711839D02*
X144501809Y-127695839D01*
X144888857Y-127695839D01*
X144985619Y-127744220D01*
X145034000Y-127792600D01*
X145082380Y-127889362D01*
X145082380Y-128034505D01*
X145034000Y-128131267D01*
X144985619Y-128179648D01*
X144888857Y-128228029D01*
X144501809Y-128228029D01*
X145517809Y-128179648D02*
X145856476Y-128179648D01*
X146001619Y-128711839D02*
X145517809Y-128711839D01*
X145517809Y-127695839D01*
X146001619Y-127695839D01*
X146388666Y-128663458D02*
X146533809Y-128711839D01*
X146775714Y-128711839D01*
X146872476Y-128663458D01*
X146920857Y-128615077D01*
X146969238Y-128518315D01*
X146969238Y-128421553D01*
X146920857Y-128324791D01*
X146872476Y-128276410D01*
X146775714Y-128228029D01*
X146582190Y-128179648D01*
X146485428Y-128131267D01*
X146437047Y-128082886D01*
X146388666Y-127986124D01*
X146388666Y-127889362D01*
X146437047Y-127792600D01*
X146485428Y-127744220D01*
X146582190Y-127695839D01*
X146824095Y-127695839D01*
X146969238Y-127744220D01*
X147404666Y-128179648D02*
X147743333Y-128179648D01*
X147888476Y-128711839D02*
X147404666Y-128711839D01*
X147404666Y-127695839D01*
X147888476Y-127695839D01*
X148178761Y-127695839D02*
X148759333Y-127695839D01*
X148469047Y-128711839D02*
X148469047Y-127695839D01*
D12*
X64317571Y-105344434D02*
X64317571Y-105677767D01*
X64841380Y-105677767D02*
X63841380Y-105677767D01*
X63841380Y-105201577D01*
X64841380Y-104296815D02*
X64841380Y-104868243D01*
X64841380Y-104582529D02*
X63841380Y-104582529D01*
X63984238Y-104677767D01*
X64079476Y-104773005D01*
X64127095Y-104868243D01*
X63841380Y-103677767D02*
X63841380Y-103582529D01*
X63889000Y-103487291D01*
X63936619Y-103439672D01*
X64031857Y-103392053D01*
X64222333Y-103344434D01*
X64460428Y-103344434D01*
X64650904Y-103392053D01*
X64746142Y-103439672D01*
X64793761Y-103487291D01*
X64841380Y-103582529D01*
X64841380Y-103677767D01*
X64793761Y-103773005D01*
X64746142Y-103820624D01*
X64650904Y-103868243D01*
X64460428Y-103915862D01*
X64222333Y-103915862D01*
X64031857Y-103868243D01*
X63936619Y-103820624D01*
X63889000Y-103773005D01*
X63841380Y-103677767D01*
X64841380Y-102392053D02*
X64841380Y-102963481D01*
X64841380Y-102677767D02*
X63841380Y-102677767D01*
X63984238Y-102773005D01*
X64079476Y-102868243D01*
X64127095Y-102963481D01*
X71222571Y-107130148D02*
X71222571Y-107463481D01*
X71746380Y-107463481D02*
X70746380Y-107463481D01*
X70746380Y-106987291D01*
X70746380Y-106606339D02*
X71555904Y-106606339D01*
X71651142Y-106558720D01*
X71698761Y-106511100D01*
X71746380Y-106415862D01*
X71746380Y-106225386D01*
X71698761Y-106130148D01*
X71651142Y-106082529D01*
X71555904Y-106034910D01*
X70746380Y-106034910D01*
X71698761Y-105606339D02*
X71746380Y-105463481D01*
X71746380Y-105225386D01*
X71698761Y-105130148D01*
X71651142Y-105082529D01*
X71555904Y-105034910D01*
X71460666Y-105034910D01*
X71365428Y-105082529D01*
X71317809Y-105130148D01*
X71270190Y-105225386D01*
X71222571Y-105415862D01*
X71174952Y-105511100D01*
X71127333Y-105558720D01*
X71032095Y-105606339D01*
X70936857Y-105606339D01*
X70841619Y-105558720D01*
X70794000Y-105511100D01*
X70746380Y-105415862D01*
X70746380Y-105177767D01*
X70794000Y-105034910D01*
X71222571Y-104606339D02*
X71222571Y-104273005D01*
X71746380Y-104130148D02*
X71746380Y-104606339D01*
X70746380Y-104606339D01*
X70746380Y-104130148D01*
X71746380Y-102415862D02*
X71746380Y-102987291D01*
X71746380Y-102701577D02*
X70746380Y-102701577D01*
X70889238Y-102796815D01*
X70984476Y-102892053D01*
X71032095Y-102987291D01*
X70746380Y-101511100D02*
X70746380Y-101987291D01*
X71222571Y-102034910D01*
X71174952Y-101987291D01*
X71127333Y-101892053D01*
X71127333Y-101653958D01*
X71174952Y-101558720D01*
X71222571Y-101511100D01*
X71317809Y-101463481D01*
X71555904Y-101463481D01*
X71651142Y-101511100D01*
X71698761Y-101558720D01*
X71746380Y-101653958D01*
X71746380Y-101892053D01*
X71698761Y-101987291D01*
X71651142Y-102034910D01*
X71460666Y-101082529D02*
X71460666Y-100606339D01*
X71746380Y-101177767D02*
X70746380Y-100844434D01*
X71746380Y-100511100D01*
X69453285Y-112822291D02*
X69119952Y-112822291D01*
X69119952Y-113346100D02*
X69119952Y-112346100D01*
X69596142Y-112346100D01*
X70500904Y-113346100D02*
X69929476Y-113346100D01*
X70215190Y-113346100D02*
X70215190Y-112346100D01*
X70119952Y-112488958D01*
X70024714Y-112584196D01*
X69929476Y-112631815D01*
X71119952Y-112346100D02*
X71215190Y-112346100D01*
X71310428Y-112393720D01*
X71358047Y-112441339D01*
X71405666Y-112536577D01*
X71453285Y-112727053D01*
X71453285Y-112965148D01*
X71405666Y-113155624D01*
X71358047Y-113250862D01*
X71310428Y-113298481D01*
X71215190Y-113346100D01*
X71119952Y-113346100D01*
X71024714Y-113298481D01*
X70977095Y-113250862D01*
X70929476Y-113155624D01*
X70881857Y-112965148D01*
X70881857Y-112727053D01*
X70929476Y-112536577D01*
X70977095Y-112441339D01*
X71024714Y-112393720D01*
X71119952Y-112346100D01*
X71786619Y-112346100D02*
X72405666Y-112346100D01*
X72072333Y-112727053D01*
X72215190Y-112727053D01*
X72310428Y-112774672D01*
X72358047Y-112822291D01*
X72405666Y-112917529D01*
X72405666Y-113155624D01*
X72358047Y-113250862D01*
X72310428Y-113298481D01*
X72215190Y-113346100D01*
X71929476Y-113346100D01*
X71834238Y-113298481D01*
X71786619Y-113250862D01*
X67667571Y-122322291D02*
X67334238Y-122322291D01*
X67334238Y-122846100D02*
X67334238Y-121846100D01*
X67810428Y-121846100D01*
X68191380Y-121846100D02*
X68191380Y-122655624D01*
X68239000Y-122750862D01*
X68286619Y-122798481D01*
X68381857Y-122846100D01*
X68572333Y-122846100D01*
X68667571Y-122798481D01*
X68715190Y-122750862D01*
X68762809Y-122655624D01*
X68762809Y-121846100D01*
X69191380Y-122798481D02*
X69334238Y-122846100D01*
X69572333Y-122846100D01*
X69667571Y-122798481D01*
X69715190Y-122750862D01*
X69762809Y-122655624D01*
X69762809Y-122560386D01*
X69715190Y-122465148D01*
X69667571Y-122417529D01*
X69572333Y-122369910D01*
X69381857Y-122322291D01*
X69286619Y-122274672D01*
X69239000Y-122227053D01*
X69191380Y-122131815D01*
X69191380Y-122036577D01*
X69239000Y-121941339D01*
X69286619Y-121893720D01*
X69381857Y-121846100D01*
X69619952Y-121846100D01*
X69762809Y-121893720D01*
X70191380Y-122322291D02*
X70524714Y-122322291D01*
X70667571Y-122846100D02*
X70191380Y-122846100D01*
X70191380Y-121846100D01*
X70667571Y-121846100D01*
X72381857Y-122846100D02*
X71810428Y-122846100D01*
X72096142Y-122846100D02*
X72096142Y-121846100D01*
X72000904Y-121988958D01*
X71905666Y-122084196D01*
X71810428Y-122131815D01*
X73000904Y-121846100D02*
X73096142Y-121846100D01*
X73191380Y-121893720D01*
X73239000Y-121941339D01*
X73286619Y-122036577D01*
X73334238Y-122227053D01*
X73334238Y-122465148D01*
X73286619Y-122655624D01*
X73239000Y-122750862D01*
X73191380Y-122798481D01*
X73096142Y-122846100D01*
X73000904Y-122846100D01*
X72905666Y-122798481D01*
X72858047Y-122750862D01*
X72810428Y-122655624D01*
X72762809Y-122465148D01*
X72762809Y-122227053D01*
X72810428Y-122036577D01*
X72858047Y-121941339D01*
X72905666Y-121893720D01*
X73000904Y-121846100D01*
X73715190Y-122560386D02*
X74191380Y-122560386D01*
X73619952Y-122846100D02*
X73953285Y-121846100D01*
X74286619Y-122846100D01*
X104755380Y-101363333D02*
X105469666Y-101363333D01*
X105612523Y-101410952D01*
X105707761Y-101506190D01*
X105755380Y-101649047D01*
X105755380Y-101744285D01*
X105755380Y-100887142D02*
X104755380Y-100887142D01*
X104755380Y-100506190D01*
X104803000Y-100410952D01*
X104850619Y-100363333D01*
X104945857Y-100315714D01*
X105088714Y-100315714D01*
X105183952Y-100363333D01*
X105231571Y-100410952D01*
X105279190Y-100506190D01*
X105279190Y-100887142D01*
X105755380Y-99363333D02*
X105755380Y-99934761D01*
X105755380Y-99649047D02*
X104755380Y-99649047D01*
X104898238Y-99744285D01*
X104993476Y-99839523D01*
X105041095Y-99934761D01*
X78910085Y-101890580D02*
X78910085Y-102604866D01*
X78862466Y-102747723D01*
X78767228Y-102842961D01*
X78624371Y-102890580D01*
X78529133Y-102890580D01*
X79386276Y-102890580D02*
X79386276Y-101890580D01*
X79767228Y-101890580D01*
X79862466Y-101938200D01*
X79910085Y-101985819D01*
X79957704Y-102081057D01*
X79957704Y-102223914D01*
X79910085Y-102319152D01*
X79862466Y-102366771D01*
X79767228Y-102414390D01*
X79386276Y-102414390D01*
X80910085Y-102890580D02*
X80338657Y-102890580D01*
X80624371Y-102890580D02*
X80624371Y-101890580D01*
X80529133Y-102033438D01*
X80433895Y-102128676D01*
X80338657Y-102176295D01*
X81529133Y-101890580D02*
X81624371Y-101890580D01*
X81719609Y-101938200D01*
X81767228Y-101985819D01*
X81814847Y-102081057D01*
X81862466Y-102271533D01*
X81862466Y-102509628D01*
X81814847Y-102700104D01*
X81767228Y-102795342D01*
X81719609Y-102842961D01*
X81624371Y-102890580D01*
X81529133Y-102890580D01*
X81433895Y-102842961D01*
X81386276Y-102795342D01*
X81338657Y-102700104D01*
X81291038Y-102509628D01*
X81291038Y-102271533D01*
X81338657Y-102081057D01*
X81386276Y-101985819D01*
X81433895Y-101938200D01*
X81529133Y-101890580D01*
X82814847Y-102890580D02*
X82243419Y-102890580D01*
X82529133Y-102890580D02*
X82529133Y-101890580D01*
X82433895Y-102033438D01*
X82338657Y-102128676D01*
X82243419Y-102176295D01*
X90776380Y-102858714D02*
X91490666Y-102858714D01*
X91633523Y-102906333D01*
X91728761Y-103001571D01*
X91776380Y-103144428D01*
X91776380Y-103239666D01*
X91776380Y-102382523D02*
X90776380Y-102382523D01*
X90776380Y-102001571D01*
X90824000Y-101906333D01*
X90871619Y-101858714D01*
X90966857Y-101811095D01*
X91109714Y-101811095D01*
X91204952Y-101858714D01*
X91252571Y-101906333D01*
X91300190Y-102001571D01*
X91300190Y-102382523D01*
X91776380Y-100858714D02*
X91776380Y-101430142D01*
X91776380Y-101144428D02*
X90776380Y-101144428D01*
X90919238Y-101239666D01*
X91014476Y-101334904D01*
X91062095Y-101430142D01*
X90776380Y-100239666D02*
X90776380Y-100144428D01*
X90824000Y-100049190D01*
X90871619Y-100001571D01*
X90966857Y-99953952D01*
X91157333Y-99906333D01*
X91395428Y-99906333D01*
X91585904Y-99953952D01*
X91681142Y-100001571D01*
X91728761Y-100049190D01*
X91776380Y-100144428D01*
X91776380Y-100239666D01*
X91728761Y-100334904D01*
X91681142Y-100382523D01*
X91585904Y-100430142D01*
X91395428Y-100477761D01*
X91157333Y-100477761D01*
X90966857Y-100430142D01*
X90871619Y-100382523D01*
X90824000Y-100334904D01*
X90776380Y-100239666D01*
X90871619Y-99525380D02*
X90824000Y-99477761D01*
X90776380Y-99382523D01*
X90776380Y-99144428D01*
X90824000Y-99049190D01*
X90871619Y-99001571D01*
X90966857Y-98953952D01*
X91062095Y-98953952D01*
X91204952Y-99001571D01*
X91776380Y-99573000D01*
X91776380Y-98953952D01*
X107109785Y-108525380D02*
X107109785Y-109239666D01*
X107062166Y-109382523D01*
X106966928Y-109477761D01*
X106824071Y-109525380D01*
X106728833Y-109525380D01*
X107585976Y-109525380D02*
X107585976Y-108525380D01*
X107966928Y-108525380D01*
X108062166Y-108573000D01*
X108109785Y-108620619D01*
X108157404Y-108715857D01*
X108157404Y-108858714D01*
X108109785Y-108953952D01*
X108062166Y-109001571D01*
X107966928Y-109049190D01*
X107585976Y-109049190D01*
X108538357Y-108620619D02*
X108585976Y-108573000D01*
X108681214Y-108525380D01*
X108919309Y-108525380D01*
X109014547Y-108573000D01*
X109062166Y-108620619D01*
X109109785Y-108715857D01*
X109109785Y-108811095D01*
X109062166Y-108953952D01*
X108490738Y-109525380D01*
X109109785Y-109525380D01*
X109728833Y-108525380D02*
X109824071Y-108525380D01*
X109919309Y-108573000D01*
X109966928Y-108620619D01*
X110014547Y-108715857D01*
X110062166Y-108906333D01*
X110062166Y-109144428D01*
X110014547Y-109334904D01*
X109966928Y-109430142D01*
X109919309Y-109477761D01*
X109824071Y-109525380D01*
X109728833Y-109525380D01*
X109633595Y-109477761D01*
X109585976Y-109430142D01*
X109538357Y-109334904D01*
X109490738Y-109144428D01*
X109490738Y-108906333D01*
X109538357Y-108715857D01*
X109585976Y-108620619D01*
X109633595Y-108573000D01*
X109728833Y-108525380D01*
X111014547Y-109525380D02*
X110443119Y-109525380D01*
X110728833Y-109525380D02*
X110728833Y-108525380D01*
X110633595Y-108668238D01*
X110538357Y-108763476D01*
X110443119Y-108811095D01*
X138776380Y-70473714D02*
X139490666Y-70473714D01*
X139633523Y-70521333D01*
X139728761Y-70616571D01*
X139776380Y-70759428D01*
X139776380Y-70854666D01*
X139776380Y-69997523D02*
X138776380Y-69997523D01*
X138776380Y-69616571D01*
X138824000Y-69521333D01*
X138871619Y-69473714D01*
X138966857Y-69426095D01*
X139109714Y-69426095D01*
X139204952Y-69473714D01*
X139252571Y-69521333D01*
X139300190Y-69616571D01*
X139300190Y-69997523D01*
X139204952Y-68854666D02*
X139157333Y-68949904D01*
X139109714Y-68997523D01*
X139014476Y-69045142D01*
X138966857Y-69045142D01*
X138871619Y-68997523D01*
X138824000Y-68949904D01*
X138776380Y-68854666D01*
X138776380Y-68664190D01*
X138824000Y-68568952D01*
X138871619Y-68521333D01*
X138966857Y-68473714D01*
X139014476Y-68473714D01*
X139109714Y-68521333D01*
X139157333Y-68568952D01*
X139204952Y-68664190D01*
X139204952Y-68854666D01*
X139252571Y-68949904D01*
X139300190Y-68997523D01*
X139395428Y-69045142D01*
X139585904Y-69045142D01*
X139681142Y-68997523D01*
X139728761Y-68949904D01*
X139776380Y-68854666D01*
X139776380Y-68664190D01*
X139728761Y-68568952D01*
X139681142Y-68521333D01*
X139585904Y-68473714D01*
X139395428Y-68473714D01*
X139300190Y-68521333D01*
X139252571Y-68568952D01*
X139204952Y-68664190D01*
X138776380Y-67854666D02*
X138776380Y-67759428D01*
X138824000Y-67664190D01*
X138871619Y-67616571D01*
X138966857Y-67568952D01*
X139157333Y-67521333D01*
X139395428Y-67521333D01*
X139585904Y-67568952D01*
X139681142Y-67616571D01*
X139728761Y-67664190D01*
X139776380Y-67759428D01*
X139776380Y-67854666D01*
X139728761Y-67949904D01*
X139681142Y-67997523D01*
X139585904Y-68045142D01*
X139395428Y-68092761D01*
X139157333Y-68092761D01*
X138966857Y-68045142D01*
X138871619Y-67997523D01*
X138824000Y-67949904D01*
X138776380Y-67854666D01*
X139776380Y-66568952D02*
X139776380Y-67140380D01*
X139776380Y-66854666D02*
X138776380Y-66854666D01*
X138919238Y-66949904D01*
X139014476Y-67045142D01*
X139062095Y-67140380D01*
X93686523Y-39270380D02*
X93686523Y-38270380D01*
X94257952Y-39270380D02*
X93829380Y-38698952D01*
X94257952Y-38270380D02*
X93686523Y-38841809D01*
X94638904Y-38365619D02*
X94686523Y-38318000D01*
X94781761Y-38270380D01*
X95019857Y-38270380D01*
X95115095Y-38318000D01*
X95162714Y-38365619D01*
X95210333Y-38460857D01*
X95210333Y-38556095D01*
X95162714Y-38698952D01*
X94591285Y-39270380D01*
X95210333Y-39270380D01*
X95829380Y-38270380D02*
X95924619Y-38270380D01*
X96019857Y-38318000D01*
X96067476Y-38365619D01*
X96115095Y-38460857D01*
X96162714Y-38651333D01*
X96162714Y-38889428D01*
X96115095Y-39079904D01*
X96067476Y-39175142D01*
X96019857Y-39222761D01*
X95924619Y-39270380D01*
X95829380Y-39270380D01*
X95734142Y-39222761D01*
X95686523Y-39175142D01*
X95638904Y-39079904D01*
X95591285Y-38889428D01*
X95591285Y-38651333D01*
X95638904Y-38460857D01*
X95686523Y-38365619D01*
X95734142Y-38318000D01*
X95829380Y-38270380D01*
X97115095Y-39270380D02*
X96543666Y-39270380D01*
X96829380Y-39270380D02*
X96829380Y-38270380D01*
X96734142Y-38413238D01*
X96638904Y-38508476D01*
X96543666Y-38556095D01*
X96226523Y-39270380D02*
X96226523Y-38270380D01*
X96797952Y-39270380D02*
X96369380Y-38698952D01*
X96797952Y-38270380D02*
X96226523Y-38841809D01*
X97178904Y-38365619D02*
X97226523Y-38318000D01*
X97321761Y-38270380D01*
X97559857Y-38270380D01*
X97655095Y-38318000D01*
X97702714Y-38365619D01*
X97750333Y-38460857D01*
X97750333Y-38556095D01*
X97702714Y-38698952D01*
X97131285Y-39270380D01*
X97750333Y-39270380D01*
X98369380Y-38270380D02*
X98464619Y-38270380D01*
X98559857Y-38318000D01*
X98607476Y-38365619D01*
X98655095Y-38460857D01*
X98702714Y-38651333D01*
X98702714Y-38889428D01*
X98655095Y-39079904D01*
X98607476Y-39175142D01*
X98559857Y-39222761D01*
X98464619Y-39270380D01*
X98369380Y-39270380D01*
X98274142Y-39222761D01*
X98226523Y-39175142D01*
X98178904Y-39079904D01*
X98131285Y-38889428D01*
X98131285Y-38651333D01*
X98178904Y-38460857D01*
X98226523Y-38365619D01*
X98274142Y-38318000D01*
X98369380Y-38270380D01*
X99083666Y-38365619D02*
X99131285Y-38318000D01*
X99226523Y-38270380D01*
X99464619Y-38270380D01*
X99559857Y-38318000D01*
X99607476Y-38365619D01*
X99655095Y-38460857D01*
X99655095Y-38556095D01*
X99607476Y-38698952D01*
X99036047Y-39270380D01*
X99655095Y-39270380D01*
X98766523Y-39270380D02*
X98766523Y-38270380D01*
X99337952Y-39270380D02*
X98909380Y-38698952D01*
X99337952Y-38270380D02*
X98766523Y-38841809D01*
X99718904Y-38365619D02*
X99766523Y-38318000D01*
X99861761Y-38270380D01*
X100099857Y-38270380D01*
X100195095Y-38318000D01*
X100242714Y-38365619D01*
X100290333Y-38460857D01*
X100290333Y-38556095D01*
X100242714Y-38698952D01*
X99671285Y-39270380D01*
X100290333Y-39270380D01*
X100909380Y-38270380D02*
X101004619Y-38270380D01*
X101099857Y-38318000D01*
X101147476Y-38365619D01*
X101195095Y-38460857D01*
X101242714Y-38651333D01*
X101242714Y-38889428D01*
X101195095Y-39079904D01*
X101147476Y-39175142D01*
X101099857Y-39222761D01*
X101004619Y-39270380D01*
X100909380Y-39270380D01*
X100814142Y-39222761D01*
X100766523Y-39175142D01*
X100718904Y-39079904D01*
X100671285Y-38889428D01*
X100671285Y-38651333D01*
X100718904Y-38460857D01*
X100766523Y-38365619D01*
X100814142Y-38318000D01*
X100909380Y-38270380D01*
X101576047Y-38270380D02*
X102195095Y-38270380D01*
X101861761Y-38651333D01*
X102004619Y-38651333D01*
X102099857Y-38698952D01*
X102147476Y-38746571D01*
X102195095Y-38841809D01*
X102195095Y-39079904D01*
X102147476Y-39175142D01*
X102099857Y-39222761D01*
X102004619Y-39270380D01*
X101718904Y-39270380D01*
X101623666Y-39222761D01*
X101576047Y-39175142D01*
X101306523Y-39270380D02*
X101306523Y-38270380D01*
X101877952Y-39270380D02*
X101449380Y-38698952D01*
X101877952Y-38270380D02*
X101306523Y-38841809D01*
X102258904Y-38365619D02*
X102306523Y-38318000D01*
X102401761Y-38270380D01*
X102639857Y-38270380D01*
X102735095Y-38318000D01*
X102782714Y-38365619D01*
X102830333Y-38460857D01*
X102830333Y-38556095D01*
X102782714Y-38698952D01*
X102211285Y-39270380D01*
X102830333Y-39270380D01*
X103449380Y-38270380D02*
X103544619Y-38270380D01*
X103639857Y-38318000D01*
X103687476Y-38365619D01*
X103735095Y-38460857D01*
X103782714Y-38651333D01*
X103782714Y-38889428D01*
X103735095Y-39079904D01*
X103687476Y-39175142D01*
X103639857Y-39222761D01*
X103544619Y-39270380D01*
X103449380Y-39270380D01*
X103354142Y-39222761D01*
X103306523Y-39175142D01*
X103258904Y-39079904D01*
X103211285Y-38889428D01*
X103211285Y-38651333D01*
X103258904Y-38460857D01*
X103306523Y-38365619D01*
X103354142Y-38318000D01*
X103449380Y-38270380D01*
X104639857Y-38603714D02*
X104639857Y-39270380D01*
X104401761Y-38222761D02*
X104163666Y-38937047D01*
X104782714Y-38937047D01*
X122502704Y-87149380D02*
X122502704Y-86149380D01*
X122883657Y-86149380D01*
X122978895Y-86197000D01*
X123026514Y-86244619D01*
X123074133Y-86339857D01*
X123074133Y-86482714D01*
X123026514Y-86577952D01*
X122978895Y-86625571D01*
X122883657Y-86673190D01*
X122502704Y-86673190D01*
X124026514Y-87149380D02*
X123455085Y-87149380D01*
X123740800Y-87149380D02*
X123740800Y-86149380D01*
X123645561Y-86292238D01*
X123550323Y-86387476D01*
X123455085Y-86435095D01*
X74085904Y-36775380D02*
X74085904Y-35775380D01*
X74466857Y-35775380D01*
X74562095Y-35823000D01*
X74609714Y-35870619D01*
X74657333Y-35965857D01*
X74657333Y-36108714D01*
X74609714Y-36203952D01*
X74562095Y-36251571D01*
X74466857Y-36299190D01*
X74085904Y-36299190D01*
X75038285Y-35870619D02*
X75085904Y-35823000D01*
X75181142Y-35775380D01*
X75419238Y-35775380D01*
X75514476Y-35823000D01*
X75562095Y-35870619D01*
X75609714Y-35965857D01*
X75609714Y-36061095D01*
X75562095Y-36203952D01*
X74990666Y-36775380D01*
X75609714Y-36775380D01*
X150737380Y-139150196D02*
X149737380Y-139150196D01*
X149737380Y-138769243D01*
X149785000Y-138674005D01*
X149832619Y-138626386D01*
X149927857Y-138578767D01*
X150070714Y-138578767D01*
X150165952Y-138626386D01*
X150213571Y-138674005D01*
X150261190Y-138769243D01*
X150261190Y-139150196D01*
X150737380Y-137626386D02*
X150737380Y-138197815D01*
X150737380Y-137912100D02*
X149737380Y-137912100D01*
X149880238Y-138007339D01*
X149975476Y-138102577D01*
X150023095Y-138197815D01*
X149737380Y-137007339D02*
X149737380Y-136912100D01*
X149785000Y-136816862D01*
X149832619Y-136769243D01*
X149927857Y-136721624D01*
X150118333Y-136674005D01*
X150356428Y-136674005D01*
X150546904Y-136721624D01*
X150642142Y-136769243D01*
X150689761Y-136816862D01*
X150737380Y-136912100D01*
X150737380Y-137007339D01*
X150689761Y-137102577D01*
X150642142Y-137150196D01*
X150546904Y-137197815D01*
X150356428Y-137245434D01*
X150118333Y-137245434D01*
X149927857Y-137197815D01*
X149832619Y-137150196D01*
X149785000Y-137102577D01*
X149737380Y-137007339D01*
X149832619Y-136293053D02*
X149785000Y-136245434D01*
X149737380Y-136150196D01*
X149737380Y-135912100D01*
X149785000Y-135816862D01*
X149832619Y-135769243D01*
X149927857Y-135721624D01*
X150023095Y-135721624D01*
X150165952Y-135769243D01*
X150737380Y-136340672D01*
X150737380Y-135721624D01*
X129883523Y-46275380D02*
X129883523Y-45275380D01*
X130264476Y-45275380D01*
X130359714Y-45323000D01*
X130407333Y-45370619D01*
X130454952Y-45465857D01*
X130454952Y-45608714D01*
X130407333Y-45703952D01*
X130359714Y-45751571D01*
X130264476Y-45799190D01*
X129883523Y-45799190D01*
X130835904Y-45370619D02*
X130883523Y-45323000D01*
X130978761Y-45275380D01*
X131216857Y-45275380D01*
X131312095Y-45323000D01*
X131359714Y-45370619D01*
X131407333Y-45465857D01*
X131407333Y-45561095D01*
X131359714Y-45703952D01*
X130788285Y-46275380D01*
X131407333Y-46275380D01*
X132359714Y-46275380D02*
X131788285Y-46275380D01*
X132074000Y-46275380D02*
X132074000Y-45275380D01*
X131978761Y-45418238D01*
X131883523Y-45513476D01*
X131788285Y-45561095D01*
X133312095Y-46275380D02*
X132740666Y-46275380D01*
X133026380Y-46275380D02*
X133026380Y-45275380D01*
X132931142Y-45418238D01*
X132835904Y-45513476D01*
X132740666Y-45561095D01*
X148169523Y-122162380D02*
X148169523Y-121162380D01*
X148550476Y-121162380D01*
X148645714Y-121210000D01*
X148693333Y-121257619D01*
X148740952Y-121352857D01*
X148740952Y-121495714D01*
X148693333Y-121590952D01*
X148645714Y-121638571D01*
X148550476Y-121686190D01*
X148169523Y-121686190D01*
X149121904Y-121257619D02*
X149169523Y-121210000D01*
X149264761Y-121162380D01*
X149502857Y-121162380D01*
X149598095Y-121210000D01*
X149645714Y-121257619D01*
X149693333Y-121352857D01*
X149693333Y-121448095D01*
X149645714Y-121590952D01*
X149074285Y-122162380D01*
X149693333Y-122162380D01*
X150645714Y-122162380D02*
X150074285Y-122162380D01*
X150360000Y-122162380D02*
X150360000Y-121162380D01*
X150264761Y-121305238D01*
X150169523Y-121400476D01*
X150074285Y-121448095D01*
X150979047Y-121162380D02*
X151598095Y-121162380D01*
X151264761Y-121543333D01*
X151407619Y-121543333D01*
X151502857Y-121590952D01*
X151550476Y-121638571D01*
X151598095Y-121733809D01*
X151598095Y-121971904D01*
X151550476Y-122067142D01*
X151502857Y-122114761D01*
X151407619Y-122162380D01*
X151121904Y-122162380D01*
X151026666Y-122114761D01*
X150979047Y-122067142D01*
X72383523Y-38525380D02*
X72383523Y-37525380D01*
X72764476Y-37525380D01*
X72859714Y-37573000D01*
X72907333Y-37620619D01*
X72954952Y-37715857D01*
X72954952Y-37858714D01*
X72907333Y-37953952D01*
X72859714Y-38001571D01*
X72764476Y-38049190D01*
X72383523Y-38049190D01*
X73335904Y-37620619D02*
X73383523Y-37573000D01*
X73478761Y-37525380D01*
X73716857Y-37525380D01*
X73812095Y-37573000D01*
X73859714Y-37620619D01*
X73907333Y-37715857D01*
X73907333Y-37811095D01*
X73859714Y-37953952D01*
X73288285Y-38525380D01*
X73907333Y-38525380D01*
X74859714Y-38525380D02*
X74288285Y-38525380D01*
X74574000Y-38525380D02*
X74574000Y-37525380D01*
X74478761Y-37668238D01*
X74383523Y-37763476D01*
X74288285Y-37811095D01*
X75716857Y-37525380D02*
X75526380Y-37525380D01*
X75431142Y-37573000D01*
X75383523Y-37620619D01*
X75288285Y-37763476D01*
X75240666Y-37953952D01*
X75240666Y-38334904D01*
X75288285Y-38430142D01*
X75335904Y-38477761D01*
X75431142Y-38525380D01*
X75621619Y-38525380D01*
X75716857Y-38477761D01*
X75764476Y-38430142D01*
X75812095Y-38334904D01*
X75812095Y-38096809D01*
X75764476Y-38001571D01*
X75716857Y-37953952D01*
X75621619Y-37906333D01*
X75431142Y-37906333D01*
X75335904Y-37953952D01*
X75288285Y-38001571D01*
X75240666Y-38096809D01*
X154276380Y-70513476D02*
X153276380Y-70513476D01*
X153276380Y-70132523D01*
X153324000Y-70037285D01*
X153371619Y-69989666D01*
X153466857Y-69942047D01*
X153609714Y-69942047D01*
X153704952Y-69989666D01*
X153752571Y-70037285D01*
X153800190Y-70132523D01*
X153800190Y-70513476D01*
X153276380Y-69608714D02*
X153276380Y-68989666D01*
X153657333Y-69323000D01*
X153657333Y-69180142D01*
X153704952Y-69084904D01*
X153752571Y-69037285D01*
X153847809Y-68989666D01*
X154085904Y-68989666D01*
X154181142Y-69037285D01*
X154228761Y-69084904D01*
X154276380Y-69180142D01*
X154276380Y-69465857D01*
X154228761Y-69561095D01*
X154181142Y-69608714D01*
X153276380Y-68370619D02*
X153276380Y-68275380D01*
X153324000Y-68180142D01*
X153371619Y-68132523D01*
X153466857Y-68084904D01*
X153657333Y-68037285D01*
X153895428Y-68037285D01*
X154085904Y-68084904D01*
X154181142Y-68132523D01*
X154228761Y-68180142D01*
X154276380Y-68275380D01*
X154276380Y-68370619D01*
X154228761Y-68465857D01*
X154181142Y-68513476D01*
X154085904Y-68561095D01*
X153895428Y-68608714D01*
X153657333Y-68608714D01*
X153466857Y-68561095D01*
X153371619Y-68513476D01*
X153324000Y-68465857D01*
X153276380Y-68370619D01*
X154276380Y-67084904D02*
X154276380Y-67656333D01*
X154276380Y-67370619D02*
X153276380Y-67370619D01*
X153419238Y-67465857D01*
X153514476Y-67561095D01*
X153562095Y-67656333D01*
D16*
X69420619Y-58314771D02*
X69323857Y-58242200D01*
X69227095Y-58097057D01*
X69081952Y-57879342D01*
X68985190Y-57806771D01*
X68888428Y-57806771D01*
X68936809Y-58169628D02*
X68840047Y-58097057D01*
X68743285Y-57951914D01*
X68694904Y-57661628D01*
X68694904Y-57153628D01*
X68743285Y-56863342D01*
X68840047Y-56718200D01*
X68936809Y-56645628D01*
X69130333Y-56645628D01*
X69227095Y-56718200D01*
X69323857Y-56863342D01*
X69372238Y-57153628D01*
X69372238Y-57661628D01*
X69323857Y-57951914D01*
X69227095Y-58097057D01*
X69130333Y-58169628D01*
X68936809Y-58169628D01*
X69759285Y-56790771D02*
X69807666Y-56718200D01*
X69904428Y-56645628D01*
X70146333Y-56645628D01*
X70243095Y-56718200D01*
X70291476Y-56790771D01*
X70339857Y-56935914D01*
X70339857Y-57081057D01*
X70291476Y-57298771D01*
X69710904Y-58169628D01*
X70339857Y-58169628D01*
X70968809Y-56645628D02*
X71065571Y-56645628D01*
X71162333Y-56718200D01*
X71210714Y-56790771D01*
X71259095Y-56935914D01*
X71307476Y-57226200D01*
X71307476Y-57589057D01*
X71259095Y-57879342D01*
X71210714Y-58024485D01*
X71162333Y-58097057D01*
X71065571Y-58169628D01*
X70968809Y-58169628D01*
X70872047Y-58097057D01*
X70823666Y-58024485D01*
X70775285Y-57879342D01*
X70726904Y-57589057D01*
X70726904Y-57226200D01*
X70775285Y-56935914D01*
X70823666Y-56790771D01*
X70872047Y-56718200D01*
X70968809Y-56645628D01*
X72178333Y-56645628D02*
X71984809Y-56645628D01*
X71888047Y-56718200D01*
X71839666Y-56790771D01*
X71742904Y-57008485D01*
X71694523Y-57298771D01*
X71694523Y-57879342D01*
X71742904Y-58024485D01*
X71791285Y-58097057D01*
X71888047Y-58169628D01*
X72081571Y-58169628D01*
X72178333Y-58097057D01*
X72226714Y-58024485D01*
X72275095Y-57879342D01*
X72275095Y-57516485D01*
X72226714Y-57371342D01*
X72178333Y-57298771D01*
X72081571Y-57226200D01*
X71888047Y-57226200D01*
X71791285Y-57298771D01*
X71742904Y-57371342D01*
X71694523Y-57516485D01*
X65925095Y-61522428D02*
X65925095Y-59998428D01*
X66989476Y-61522428D02*
X66650809Y-60796714D01*
X66408904Y-61522428D02*
X66408904Y-59998428D01*
X66795952Y-59998428D01*
X66892714Y-60071000D01*
X66941095Y-60143571D01*
X66989476Y-60288714D01*
X66989476Y-60506428D01*
X66941095Y-60651571D01*
X66892714Y-60724142D01*
X66795952Y-60796714D01*
X66408904Y-60796714D01*
X67908714Y-61522428D02*
X67424904Y-61522428D01*
X67424904Y-59998428D01*
X68586047Y-60724142D02*
X68731190Y-60796714D01*
X68779571Y-60869285D01*
X68827952Y-61014428D01*
X68827952Y-61232142D01*
X68779571Y-61377285D01*
X68731190Y-61449857D01*
X68634428Y-61522428D01*
X68247380Y-61522428D01*
X68247380Y-59998428D01*
X68586047Y-59998428D01*
X68682809Y-60071000D01*
X68731190Y-60143571D01*
X68779571Y-60288714D01*
X68779571Y-60433857D01*
X68731190Y-60579000D01*
X68682809Y-60651571D01*
X68586047Y-60724142D01*
X68247380Y-60724142D01*
X69408523Y-60651571D02*
X69311761Y-60579000D01*
X69263380Y-60506428D01*
X69215000Y-60361285D01*
X69215000Y-60288714D01*
X69263380Y-60143571D01*
X69311761Y-60071000D01*
X69408523Y-59998428D01*
X69602047Y-59998428D01*
X69698809Y-60071000D01*
X69747190Y-60143571D01*
X69795571Y-60288714D01*
X69795571Y-60361285D01*
X69747190Y-60506428D01*
X69698809Y-60579000D01*
X69602047Y-60651571D01*
X69408523Y-60651571D01*
X69311761Y-60724142D01*
X69263380Y-60796714D01*
X69215000Y-60941857D01*
X69215000Y-61232142D01*
X69263380Y-61377285D01*
X69311761Y-61449857D01*
X69408523Y-61522428D01*
X69602047Y-61522428D01*
X69698809Y-61449857D01*
X69747190Y-61377285D01*
X69795571Y-61232142D01*
X69795571Y-60941857D01*
X69747190Y-60796714D01*
X69698809Y-60724142D01*
X69602047Y-60651571D01*
X70134238Y-59998428D02*
X70811571Y-59998428D01*
X70376142Y-61522428D01*
X71634047Y-60506428D02*
X71634047Y-61522428D01*
X71392142Y-59925857D02*
X71150238Y-61014428D01*
X71779190Y-61014428D01*
X72069476Y-59998428D02*
X72698428Y-59998428D01*
X72359761Y-60579000D01*
X72504904Y-60579000D01*
X72601666Y-60651571D01*
X72650047Y-60724142D01*
X72698428Y-60869285D01*
X72698428Y-61232142D01*
X72650047Y-61377285D01*
X72601666Y-61449857D01*
X72504904Y-61522428D01*
X72214619Y-61522428D01*
X72117857Y-61449857D01*
X72069476Y-61377285D01*
X73133857Y-61522428D02*
X73133857Y-59998428D01*
X73520904Y-59998428D01*
X73617666Y-60071000D01*
X73666047Y-60143571D01*
X73714428Y-60288714D01*
X73714428Y-60506428D01*
X73666047Y-60651571D01*
X73617666Y-60724142D01*
X73520904Y-60796714D01*
X73133857Y-60796714D01*
X74488523Y-60724142D02*
X74633666Y-60796714D01*
X74682047Y-60869285D01*
X74730428Y-61014428D01*
X74730428Y-61232142D01*
X74682047Y-61377285D01*
X74633666Y-61449857D01*
X74536904Y-61522428D01*
X74149857Y-61522428D01*
X74149857Y-59998428D01*
X74488523Y-59998428D01*
X74585285Y-60071000D01*
X74633666Y-60143571D01*
X74682047Y-60288714D01*
X74682047Y-60433857D01*
X74633666Y-60579000D01*
X74585285Y-60651571D01*
X74488523Y-60724142D01*
X74149857Y-60724142D01*
X75504523Y-60724142D02*
X75165857Y-60724142D01*
X75165857Y-61522428D02*
X75165857Y-59998428D01*
X75649666Y-59998428D01*
X69425719Y-80732771D02*
X69328957Y-80660200D01*
X69232195Y-80515057D01*
X69087052Y-80297342D01*
X68990290Y-80224771D01*
X68893528Y-80224771D01*
X68941909Y-80587628D02*
X68845147Y-80515057D01*
X68748385Y-80369914D01*
X68700004Y-80079628D01*
X68700004Y-79571628D01*
X68748385Y-79281342D01*
X68845147Y-79136200D01*
X68941909Y-79063628D01*
X69135433Y-79063628D01*
X69232195Y-79136200D01*
X69328957Y-79281342D01*
X69377338Y-79571628D01*
X69377338Y-80079628D01*
X69328957Y-80369914D01*
X69232195Y-80515057D01*
X69135433Y-80587628D01*
X68941909Y-80587628D01*
X69764385Y-79208771D02*
X69812766Y-79136200D01*
X69909528Y-79063628D01*
X70151433Y-79063628D01*
X70248195Y-79136200D01*
X70296576Y-79208771D01*
X70344957Y-79353914D01*
X70344957Y-79499057D01*
X70296576Y-79716771D01*
X69716004Y-80587628D01*
X70344957Y-80587628D01*
X70973909Y-79063628D02*
X71070671Y-79063628D01*
X71167433Y-79136200D01*
X71215814Y-79208771D01*
X71264195Y-79353914D01*
X71312576Y-79644200D01*
X71312576Y-80007057D01*
X71264195Y-80297342D01*
X71215814Y-80442485D01*
X71167433Y-80515057D01*
X71070671Y-80587628D01*
X70973909Y-80587628D01*
X70877147Y-80515057D01*
X70828766Y-80442485D01*
X70780385Y-80297342D01*
X70732004Y-80007057D01*
X70732004Y-79644200D01*
X70780385Y-79353914D01*
X70828766Y-79208771D01*
X70877147Y-79136200D01*
X70973909Y-79063628D01*
X71651242Y-79063628D02*
X72280195Y-79063628D01*
X71941528Y-79644200D01*
X72086671Y-79644200D01*
X72183433Y-79716771D01*
X72231814Y-79789342D01*
X72280195Y-79934485D01*
X72280195Y-80297342D01*
X72231814Y-80442485D01*
X72183433Y-80515057D01*
X72086671Y-80587628D01*
X71796385Y-80587628D01*
X71699623Y-80515057D01*
X71651242Y-80442485D01*
X65925095Y-83747428D02*
X65925095Y-82223428D01*
X66989476Y-83747428D02*
X66650809Y-83021714D01*
X66408904Y-83747428D02*
X66408904Y-82223428D01*
X66795952Y-82223428D01*
X66892714Y-82296000D01*
X66941095Y-82368571D01*
X66989476Y-82513714D01*
X66989476Y-82731428D01*
X66941095Y-82876571D01*
X66892714Y-82949142D01*
X66795952Y-83021714D01*
X66408904Y-83021714D01*
X67908714Y-83747428D02*
X67424904Y-83747428D01*
X67424904Y-82223428D01*
X68586047Y-82949142D02*
X68731190Y-83021714D01*
X68779571Y-83094285D01*
X68827952Y-83239428D01*
X68827952Y-83457142D01*
X68779571Y-83602285D01*
X68731190Y-83674857D01*
X68634428Y-83747428D01*
X68247380Y-83747428D01*
X68247380Y-82223428D01*
X68586047Y-82223428D01*
X68682809Y-82296000D01*
X68731190Y-82368571D01*
X68779571Y-82513714D01*
X68779571Y-82658857D01*
X68731190Y-82804000D01*
X68682809Y-82876571D01*
X68586047Y-82949142D01*
X68247380Y-82949142D01*
X69408523Y-82876571D02*
X69311761Y-82804000D01*
X69263380Y-82731428D01*
X69215000Y-82586285D01*
X69215000Y-82513714D01*
X69263380Y-82368571D01*
X69311761Y-82296000D01*
X69408523Y-82223428D01*
X69602047Y-82223428D01*
X69698809Y-82296000D01*
X69747190Y-82368571D01*
X69795571Y-82513714D01*
X69795571Y-82586285D01*
X69747190Y-82731428D01*
X69698809Y-82804000D01*
X69602047Y-82876571D01*
X69408523Y-82876571D01*
X69311761Y-82949142D01*
X69263380Y-83021714D01*
X69215000Y-83166857D01*
X69215000Y-83457142D01*
X69263380Y-83602285D01*
X69311761Y-83674857D01*
X69408523Y-83747428D01*
X69602047Y-83747428D01*
X69698809Y-83674857D01*
X69747190Y-83602285D01*
X69795571Y-83457142D01*
X69795571Y-83166857D01*
X69747190Y-83021714D01*
X69698809Y-82949142D01*
X69602047Y-82876571D01*
X70134238Y-82223428D02*
X70811571Y-82223428D01*
X70376142Y-83747428D01*
X71634047Y-82731428D02*
X71634047Y-83747428D01*
X71392142Y-82150857D02*
X71150238Y-83239428D01*
X71779190Y-83239428D01*
X72069476Y-82223428D02*
X72698428Y-82223428D01*
X72359761Y-82804000D01*
X72504904Y-82804000D01*
X72601666Y-82876571D01*
X72650047Y-82949142D01*
X72698428Y-83094285D01*
X72698428Y-83457142D01*
X72650047Y-83602285D01*
X72601666Y-83674857D01*
X72504904Y-83747428D01*
X72214619Y-83747428D01*
X72117857Y-83674857D01*
X72069476Y-83602285D01*
X73133857Y-83747428D02*
X73133857Y-82223428D01*
X73520904Y-82223428D01*
X73617666Y-82296000D01*
X73666047Y-82368571D01*
X73714428Y-82513714D01*
X73714428Y-82731428D01*
X73666047Y-82876571D01*
X73617666Y-82949142D01*
X73520904Y-83021714D01*
X73133857Y-83021714D01*
X74488523Y-82949142D02*
X74633666Y-83021714D01*
X74682047Y-83094285D01*
X74730428Y-83239428D01*
X74730428Y-83457142D01*
X74682047Y-83602285D01*
X74633666Y-83674857D01*
X74536904Y-83747428D01*
X74149857Y-83747428D01*
X74149857Y-82223428D01*
X74488523Y-82223428D01*
X74585285Y-82296000D01*
X74633666Y-82368571D01*
X74682047Y-82513714D01*
X74682047Y-82658857D01*
X74633666Y-82804000D01*
X74585285Y-82876571D01*
X74488523Y-82949142D01*
X74149857Y-82949142D01*
X75504523Y-82949142D02*
X75165857Y-82949142D01*
X75165857Y-83747428D02*
X75165857Y-82223428D01*
X75649666Y-82223428D01*
X69420619Y-66239571D02*
X69323857Y-66167000D01*
X69227095Y-66021857D01*
X69081952Y-65804142D01*
X68985190Y-65731571D01*
X68888428Y-65731571D01*
X68936809Y-66094428D02*
X68840047Y-66021857D01*
X68743285Y-65876714D01*
X68694904Y-65586428D01*
X68694904Y-65078428D01*
X68743285Y-64788142D01*
X68840047Y-64643000D01*
X68936809Y-64570428D01*
X69130333Y-64570428D01*
X69227095Y-64643000D01*
X69323857Y-64788142D01*
X69372238Y-65078428D01*
X69372238Y-65586428D01*
X69323857Y-65876714D01*
X69227095Y-66021857D01*
X69130333Y-66094428D01*
X68936809Y-66094428D01*
X69759285Y-64715571D02*
X69807666Y-64643000D01*
X69904428Y-64570428D01*
X70146333Y-64570428D01*
X70243095Y-64643000D01*
X70291476Y-64715571D01*
X70339857Y-64860714D01*
X70339857Y-65005857D01*
X70291476Y-65223571D01*
X69710904Y-66094428D01*
X70339857Y-66094428D01*
X70968809Y-64570428D02*
X71065571Y-64570428D01*
X71162333Y-64643000D01*
X71210714Y-64715571D01*
X71259095Y-64860714D01*
X71307476Y-65151000D01*
X71307476Y-65513857D01*
X71259095Y-65804142D01*
X71210714Y-65949285D01*
X71162333Y-66021857D01*
X71065571Y-66094428D01*
X70968809Y-66094428D01*
X70872047Y-66021857D01*
X70823666Y-65949285D01*
X70775285Y-65804142D01*
X70726904Y-65513857D01*
X70726904Y-65151000D01*
X70775285Y-64860714D01*
X70823666Y-64715571D01*
X70872047Y-64643000D01*
X70968809Y-64570428D01*
X71694523Y-64715571D02*
X71742904Y-64643000D01*
X71839666Y-64570428D01*
X72081571Y-64570428D01*
X72178333Y-64643000D01*
X72226714Y-64715571D01*
X72275095Y-64860714D01*
X72275095Y-65005857D01*
X72226714Y-65223571D01*
X71646142Y-66094428D01*
X72275095Y-66094428D01*
X69415519Y-89279871D02*
X69318757Y-89207300D01*
X69221995Y-89062157D01*
X69076852Y-88844442D01*
X68980090Y-88771871D01*
X68883328Y-88771871D01*
X68931709Y-89134728D02*
X68834947Y-89062157D01*
X68738185Y-88917014D01*
X68689804Y-88626728D01*
X68689804Y-88118728D01*
X68738185Y-87828442D01*
X68834947Y-87683300D01*
X68931709Y-87610728D01*
X69125233Y-87610728D01*
X69221995Y-87683300D01*
X69318757Y-87828442D01*
X69367138Y-88118728D01*
X69367138Y-88626728D01*
X69318757Y-88917014D01*
X69221995Y-89062157D01*
X69125233Y-89134728D01*
X68931709Y-89134728D01*
X69754185Y-87755871D02*
X69802566Y-87683300D01*
X69899328Y-87610728D01*
X70141233Y-87610728D01*
X70237995Y-87683300D01*
X70286376Y-87755871D01*
X70334757Y-87901014D01*
X70334757Y-88046157D01*
X70286376Y-88263871D01*
X69705804Y-89134728D01*
X70334757Y-89134728D01*
X70963709Y-87610728D02*
X71060471Y-87610728D01*
X71157233Y-87683300D01*
X71205614Y-87755871D01*
X71253995Y-87901014D01*
X71302376Y-88191300D01*
X71302376Y-88554157D01*
X71253995Y-88844442D01*
X71205614Y-88989585D01*
X71157233Y-89062157D01*
X71060471Y-89134728D01*
X70963709Y-89134728D01*
X70866947Y-89062157D01*
X70818566Y-88989585D01*
X70770185Y-88844442D01*
X70721804Y-88554157D01*
X70721804Y-88191300D01*
X70770185Y-87901014D01*
X70818566Y-87755871D01*
X70866947Y-87683300D01*
X70963709Y-87610728D01*
X72269995Y-89134728D02*
X71689423Y-89134728D01*
X71979709Y-89134728D02*
X71979709Y-87610728D01*
X71882947Y-87828442D01*
X71786185Y-87973585D01*
X71689423Y-88046157D01*
X65925095Y-92637428D02*
X65925095Y-91113428D01*
X66989476Y-92637428D02*
X66650809Y-91911714D01*
X66408904Y-92637428D02*
X66408904Y-91113428D01*
X66795952Y-91113428D01*
X66892714Y-91186000D01*
X66941095Y-91258571D01*
X66989476Y-91403714D01*
X66989476Y-91621428D01*
X66941095Y-91766571D01*
X66892714Y-91839142D01*
X66795952Y-91911714D01*
X66408904Y-91911714D01*
X67908714Y-92637428D02*
X67424904Y-92637428D01*
X67424904Y-91113428D01*
X68586047Y-91839142D02*
X68731190Y-91911714D01*
X68779571Y-91984285D01*
X68827952Y-92129428D01*
X68827952Y-92347142D01*
X68779571Y-92492285D01*
X68731190Y-92564857D01*
X68634428Y-92637428D01*
X68247380Y-92637428D01*
X68247380Y-91113428D01*
X68586047Y-91113428D01*
X68682809Y-91186000D01*
X68731190Y-91258571D01*
X68779571Y-91403714D01*
X68779571Y-91548857D01*
X68731190Y-91694000D01*
X68682809Y-91766571D01*
X68586047Y-91839142D01*
X68247380Y-91839142D01*
X69408523Y-91766571D02*
X69311761Y-91694000D01*
X69263380Y-91621428D01*
X69215000Y-91476285D01*
X69215000Y-91403714D01*
X69263380Y-91258571D01*
X69311761Y-91186000D01*
X69408523Y-91113428D01*
X69602047Y-91113428D01*
X69698809Y-91186000D01*
X69747190Y-91258571D01*
X69795571Y-91403714D01*
X69795571Y-91476285D01*
X69747190Y-91621428D01*
X69698809Y-91694000D01*
X69602047Y-91766571D01*
X69408523Y-91766571D01*
X69311761Y-91839142D01*
X69263380Y-91911714D01*
X69215000Y-92056857D01*
X69215000Y-92347142D01*
X69263380Y-92492285D01*
X69311761Y-92564857D01*
X69408523Y-92637428D01*
X69602047Y-92637428D01*
X69698809Y-92564857D01*
X69747190Y-92492285D01*
X69795571Y-92347142D01*
X69795571Y-92056857D01*
X69747190Y-91911714D01*
X69698809Y-91839142D01*
X69602047Y-91766571D01*
X70134238Y-91113428D02*
X70811571Y-91113428D01*
X70376142Y-92637428D01*
X71634047Y-91621428D02*
X71634047Y-92637428D01*
X71392142Y-91040857D02*
X71150238Y-92129428D01*
X71779190Y-92129428D01*
X72069476Y-91113428D02*
X72698428Y-91113428D01*
X72359761Y-91694000D01*
X72504904Y-91694000D01*
X72601666Y-91766571D01*
X72650047Y-91839142D01*
X72698428Y-91984285D01*
X72698428Y-92347142D01*
X72650047Y-92492285D01*
X72601666Y-92564857D01*
X72504904Y-92637428D01*
X72214619Y-92637428D01*
X72117857Y-92564857D01*
X72069476Y-92492285D01*
X73133857Y-92637428D02*
X73133857Y-91113428D01*
X73520904Y-91113428D01*
X73617666Y-91186000D01*
X73666047Y-91258571D01*
X73714428Y-91403714D01*
X73714428Y-91621428D01*
X73666047Y-91766571D01*
X73617666Y-91839142D01*
X73520904Y-91911714D01*
X73133857Y-91911714D01*
X74488523Y-91839142D02*
X74633666Y-91911714D01*
X74682047Y-91984285D01*
X74730428Y-92129428D01*
X74730428Y-92347142D01*
X74682047Y-92492285D01*
X74633666Y-92564857D01*
X74536904Y-92637428D01*
X74149857Y-92637428D01*
X74149857Y-91113428D01*
X74488523Y-91113428D01*
X74585285Y-91186000D01*
X74633666Y-91258571D01*
X74682047Y-91403714D01*
X74682047Y-91548857D01*
X74633666Y-91694000D01*
X74585285Y-91766571D01*
X74488523Y-91839142D01*
X74149857Y-91839142D01*
X75504523Y-91839142D02*
X75165857Y-91839142D01*
X75165857Y-92637428D02*
X75165857Y-91113428D01*
X75649666Y-91113428D01*
X78854904Y-94288428D02*
X78854904Y-95522142D01*
X78903285Y-95667285D01*
X78951666Y-95739857D01*
X79048428Y-95812428D01*
X79241952Y-95812428D01*
X79338714Y-95739857D01*
X79387095Y-95667285D01*
X79435476Y-95522142D01*
X79435476Y-94288428D01*
X79822523Y-94288428D02*
X80451476Y-94288428D01*
X80112809Y-94869000D01*
X80257952Y-94869000D01*
X80354714Y-94941571D01*
X80403095Y-95014142D01*
X80451476Y-95159285D01*
X80451476Y-95522142D01*
X80403095Y-95667285D01*
X80354714Y-95739857D01*
X80257952Y-95812428D01*
X79967666Y-95812428D01*
X79870904Y-95739857D01*
X79822523Y-95667285D01*
X78256190Y-92002428D02*
X77917523Y-91276714D01*
X77675619Y-92002428D02*
X77675619Y-90478428D01*
X78062666Y-90478428D01*
X78159428Y-90551000D01*
X78207809Y-90623571D01*
X78256190Y-90768714D01*
X78256190Y-90986428D01*
X78207809Y-91131571D01*
X78159428Y-91204142D01*
X78062666Y-91276714D01*
X77675619Y-91276714D01*
X78691619Y-91421857D02*
X79465714Y-91421857D01*
X79852761Y-90478428D02*
X80530095Y-90478428D01*
X80094666Y-92002428D01*
X81062285Y-91131571D02*
X80965523Y-91059000D01*
X80917142Y-90986428D01*
X80868761Y-90841285D01*
X80868761Y-90768714D01*
X80917142Y-90623571D01*
X80965523Y-90551000D01*
X81062285Y-90478428D01*
X81255809Y-90478428D01*
X81352571Y-90551000D01*
X81400952Y-90623571D01*
X81449333Y-90768714D01*
X81449333Y-90841285D01*
X81400952Y-90986428D01*
X81352571Y-91059000D01*
X81255809Y-91131571D01*
X81062285Y-91131571D01*
X80965523Y-91204142D01*
X80917142Y-91276714D01*
X80868761Y-91421857D01*
X80868761Y-91712142D01*
X80917142Y-91857285D01*
X80965523Y-91929857D01*
X81062285Y-92002428D01*
X81255809Y-92002428D01*
X81352571Y-91929857D01*
X81400952Y-91857285D01*
X81449333Y-91712142D01*
X81449333Y-91421857D01*
X81400952Y-91276714D01*
X81352571Y-91204142D01*
X81255809Y-91131571D01*
X81884761Y-91204142D02*
X82223428Y-91204142D01*
X82368571Y-92002428D02*
X81884761Y-92002428D01*
X81884761Y-90478428D01*
X82368571Y-90478428D01*
X83336190Y-92002428D02*
X82755619Y-92002428D01*
X83045904Y-92002428D02*
X83045904Y-90478428D01*
X82949142Y-90696142D01*
X82852380Y-90841285D01*
X82755619Y-90913857D01*
X83723238Y-90623571D02*
X83771619Y-90551000D01*
X83868380Y-90478428D01*
X84110285Y-90478428D01*
X84207047Y-90551000D01*
X84255428Y-90623571D01*
X84303809Y-90768714D01*
X84303809Y-90913857D01*
X84255428Y-91131571D01*
X83674857Y-92002428D01*
X84303809Y-92002428D01*
X84739238Y-91421857D02*
X85513333Y-91421857D01*
X86190666Y-90478428D02*
X86287428Y-90478428D01*
X86384190Y-90551000D01*
X86432571Y-90623571D01*
X86480952Y-90768714D01*
X86529333Y-91059000D01*
X86529333Y-91421857D01*
X86480952Y-91712142D01*
X86432571Y-91857285D01*
X86384190Y-91929857D01*
X86287428Y-92002428D01*
X86190666Y-92002428D01*
X86093904Y-91929857D01*
X86045523Y-91857285D01*
X85997142Y-91712142D01*
X85948761Y-91421857D01*
X85948761Y-91059000D01*
X85997142Y-90768714D01*
X86045523Y-90623571D01*
X86093904Y-90551000D01*
X86190666Y-90478428D01*
X86964761Y-91857285D02*
X87013142Y-91929857D01*
X86964761Y-92002428D01*
X86916380Y-91929857D01*
X86964761Y-91857285D01*
X86964761Y-92002428D01*
X87932380Y-90478428D02*
X87448571Y-90478428D01*
X87400190Y-91204142D01*
X87448571Y-91131571D01*
X87545333Y-91059000D01*
X87787238Y-91059000D01*
X87884000Y-91131571D01*
X87932380Y-91204142D01*
X87980761Y-91349285D01*
X87980761Y-91712142D01*
X87932380Y-91857285D01*
X87884000Y-91929857D01*
X87787238Y-92002428D01*
X87545333Y-92002428D01*
X87448571Y-91929857D01*
X87400190Y-91857285D01*
X82410904Y-86160428D02*
X82410904Y-87394142D01*
X82459285Y-87539285D01*
X82507666Y-87611857D01*
X82604428Y-87684428D01*
X82797952Y-87684428D01*
X82894714Y-87611857D01*
X82943095Y-87539285D01*
X82991476Y-87394142D01*
X82991476Y-86160428D01*
X83910714Y-86668428D02*
X83910714Y-87684428D01*
X83668809Y-86087857D02*
X83426904Y-87176428D01*
X84055857Y-87176428D01*
X78594857Y-83747428D02*
X78111047Y-83747428D01*
X78111047Y-82223428D01*
X78836761Y-82223428D02*
X79514095Y-82223428D01*
X79078666Y-83747428D01*
X80046285Y-82876571D02*
X79949523Y-82804000D01*
X79901142Y-82731428D01*
X79852761Y-82586285D01*
X79852761Y-82513714D01*
X79901142Y-82368571D01*
X79949523Y-82296000D01*
X80046285Y-82223428D01*
X80239809Y-82223428D01*
X80336571Y-82296000D01*
X80384952Y-82368571D01*
X80433333Y-82513714D01*
X80433333Y-82586285D01*
X80384952Y-82731428D01*
X80336571Y-82804000D01*
X80239809Y-82876571D01*
X80046285Y-82876571D01*
X79949523Y-82949142D01*
X79901142Y-83021714D01*
X79852761Y-83166857D01*
X79852761Y-83457142D01*
X79901142Y-83602285D01*
X79949523Y-83674857D01*
X80046285Y-83747428D01*
X80239809Y-83747428D01*
X80336571Y-83674857D01*
X80384952Y-83602285D01*
X80433333Y-83457142D01*
X80433333Y-83166857D01*
X80384952Y-83021714D01*
X80336571Y-82949142D01*
X80239809Y-82876571D01*
X81062285Y-82223428D02*
X81159047Y-82223428D01*
X81255809Y-82296000D01*
X81304190Y-82368571D01*
X81352571Y-82513714D01*
X81400952Y-82804000D01*
X81400952Y-83166857D01*
X81352571Y-83457142D01*
X81304190Y-83602285D01*
X81255809Y-83674857D01*
X81159047Y-83747428D01*
X81062285Y-83747428D01*
X80965523Y-83674857D01*
X80917142Y-83602285D01*
X80868761Y-83457142D01*
X80820380Y-83166857D01*
X80820380Y-82804000D01*
X80868761Y-82513714D01*
X80917142Y-82368571D01*
X80965523Y-82296000D01*
X81062285Y-82223428D01*
X82320190Y-82223428D02*
X81836380Y-82223428D01*
X81788000Y-82949142D01*
X81836380Y-82876571D01*
X81933142Y-82804000D01*
X82175047Y-82804000D01*
X82271809Y-82876571D01*
X82320190Y-82949142D01*
X82368571Y-83094285D01*
X82368571Y-83457142D01*
X82320190Y-83602285D01*
X82271809Y-83674857D01*
X82175047Y-83747428D01*
X81933142Y-83747428D01*
X81836380Y-83674857D01*
X81788000Y-83602285D01*
X83384571Y-83602285D02*
X83336190Y-83674857D01*
X83191047Y-83747428D01*
X83094285Y-83747428D01*
X82949142Y-83674857D01*
X82852380Y-83529714D01*
X82804000Y-83384571D01*
X82755619Y-83094285D01*
X82755619Y-82876571D01*
X82804000Y-82586285D01*
X82852380Y-82441142D01*
X82949142Y-82296000D01*
X83094285Y-82223428D01*
X83191047Y-82223428D01*
X83336190Y-82296000D01*
X83384571Y-82368571D01*
X83674857Y-82223428D02*
X84013523Y-83747428D01*
X84352190Y-82223428D01*
X84690857Y-83166857D02*
X85464952Y-83166857D01*
X85948761Y-83747428D02*
X85948761Y-82223428D01*
X86190666Y-82223428D01*
X86335809Y-82296000D01*
X86432571Y-82441142D01*
X86480952Y-82586285D01*
X86529333Y-82876571D01*
X86529333Y-83094285D01*
X86480952Y-83384571D01*
X86432571Y-83529714D01*
X86335809Y-83674857D01*
X86190666Y-83747428D01*
X85948761Y-83747428D01*
X87496952Y-82296000D02*
X87400190Y-82223428D01*
X87255047Y-82223428D01*
X87109904Y-82296000D01*
X87013142Y-82441142D01*
X86964761Y-82586285D01*
X86916380Y-82876571D01*
X86916380Y-83094285D01*
X86964761Y-83384571D01*
X87013142Y-83529714D01*
X87109904Y-83674857D01*
X87255047Y-83747428D01*
X87351809Y-83747428D01*
X87496952Y-83674857D01*
X87545333Y-83602285D01*
X87545333Y-83094285D01*
X87351809Y-83094285D01*
D12*
X73988752Y-107291142D02*
X73941133Y-107338761D01*
X73798276Y-107386380D01*
X73703038Y-107386380D01*
X73560180Y-107338761D01*
X73464942Y-107243523D01*
X73417323Y-107148285D01*
X73369704Y-106957809D01*
X73369704Y-106814952D01*
X73417323Y-106624476D01*
X73464942Y-106529238D01*
X73560180Y-106434000D01*
X73703038Y-106386380D01*
X73798276Y-106386380D01*
X73941133Y-106434000D01*
X73988752Y-106481619D01*
X74941133Y-107386380D02*
X74369704Y-107386380D01*
X74655419Y-107386380D02*
X74655419Y-106386380D01*
X74560180Y-106529238D01*
X74464942Y-106624476D01*
X74369704Y-106672095D01*
X75560180Y-106386380D02*
X75655419Y-106386380D01*
X75750657Y-106434000D01*
X75798276Y-106481619D01*
X75845895Y-106576857D01*
X75893514Y-106767333D01*
X75893514Y-107005428D01*
X75845895Y-107195904D01*
X75798276Y-107291142D01*
X75750657Y-107338761D01*
X75655419Y-107386380D01*
X75560180Y-107386380D01*
X75464942Y-107338761D01*
X75417323Y-107291142D01*
X75369704Y-107195904D01*
X75322085Y-107005428D01*
X75322085Y-106767333D01*
X75369704Y-106576857D01*
X75417323Y-106481619D01*
X75464942Y-106434000D01*
X75560180Y-106386380D01*
X76845895Y-107386380D02*
X76274466Y-107386380D01*
X76560180Y-107386380D02*
X76560180Y-106386380D01*
X76464942Y-106529238D01*
X76369704Y-106624476D01*
X76274466Y-106672095D01*
X79006847Y-106127428D02*
X79768752Y-106127428D01*
X79387800Y-106508380D02*
X79387800Y-105746476D01*
X98194952Y-117705142D02*
X98147333Y-117752761D01*
X98004476Y-117800380D01*
X97909238Y-117800380D01*
X97766380Y-117752761D01*
X97671142Y-117657523D01*
X97623523Y-117562285D01*
X97575904Y-117371809D01*
X97575904Y-117228952D01*
X97623523Y-117038476D01*
X97671142Y-116943238D01*
X97766380Y-116848000D01*
X97909238Y-116800380D01*
X98004476Y-116800380D01*
X98147333Y-116848000D01*
X98194952Y-116895619D01*
X98575904Y-116895619D02*
X98623523Y-116848000D01*
X98718761Y-116800380D01*
X98956857Y-116800380D01*
X99052095Y-116848000D01*
X99099714Y-116895619D01*
X99147333Y-116990857D01*
X99147333Y-117086095D01*
X99099714Y-117228952D01*
X98528285Y-117800380D01*
X99147333Y-117800380D01*
X99766380Y-116800380D02*
X99861619Y-116800380D01*
X99956857Y-116848000D01*
X100004476Y-116895619D01*
X100052095Y-116990857D01*
X100099714Y-117181333D01*
X100099714Y-117419428D01*
X100052095Y-117609904D01*
X100004476Y-117705142D01*
X99956857Y-117752761D01*
X99861619Y-117800380D01*
X99766380Y-117800380D01*
X99671142Y-117752761D01*
X99623523Y-117705142D01*
X99575904Y-117609904D01*
X99528285Y-117419428D01*
X99528285Y-117181333D01*
X99575904Y-116990857D01*
X99623523Y-116895619D01*
X99671142Y-116848000D01*
X99766380Y-116800380D01*
X101052095Y-117800380D02*
X100480666Y-117800380D01*
X100766380Y-117800380D02*
X100766380Y-116800380D01*
X100671142Y-116943238D01*
X100575904Y-117038476D01*
X100480666Y-117086095D01*
X102959047Y-116541428D02*
X103720952Y-116541428D01*
X103340000Y-116922380D02*
X103340000Y-116160476D01*
X118514952Y-117705142D02*
X118467333Y-117752761D01*
X118324476Y-117800380D01*
X118229238Y-117800380D01*
X118086380Y-117752761D01*
X117991142Y-117657523D01*
X117943523Y-117562285D01*
X117895904Y-117371809D01*
X117895904Y-117228952D01*
X117943523Y-117038476D01*
X117991142Y-116943238D01*
X118086380Y-116848000D01*
X118229238Y-116800380D01*
X118324476Y-116800380D01*
X118467333Y-116848000D01*
X118514952Y-116895619D01*
X118895904Y-116895619D02*
X118943523Y-116848000D01*
X119038761Y-116800380D01*
X119276857Y-116800380D01*
X119372095Y-116848000D01*
X119419714Y-116895619D01*
X119467333Y-116990857D01*
X119467333Y-117086095D01*
X119419714Y-117228952D01*
X118848285Y-117800380D01*
X119467333Y-117800380D01*
X120086380Y-116800380D02*
X120181619Y-116800380D01*
X120276857Y-116848000D01*
X120324476Y-116895619D01*
X120372095Y-116990857D01*
X120419714Y-117181333D01*
X120419714Y-117419428D01*
X120372095Y-117609904D01*
X120324476Y-117705142D01*
X120276857Y-117752761D01*
X120181619Y-117800380D01*
X120086380Y-117800380D01*
X119991142Y-117752761D01*
X119943523Y-117705142D01*
X119895904Y-117609904D01*
X119848285Y-117419428D01*
X119848285Y-117181333D01*
X119895904Y-116990857D01*
X119943523Y-116895619D01*
X119991142Y-116848000D01*
X120086380Y-116800380D01*
X120800666Y-116895619D02*
X120848285Y-116848000D01*
X120943523Y-116800380D01*
X121181619Y-116800380D01*
X121276857Y-116848000D01*
X121324476Y-116895619D01*
X121372095Y-116990857D01*
X121372095Y-117086095D01*
X121324476Y-117228952D01*
X120753047Y-117800380D01*
X121372095Y-117800380D01*
X125184047Y-116541428D02*
X125945952Y-116541428D01*
X125565000Y-116922380D02*
X125565000Y-116160476D01*
X86764952Y-58015142D02*
X86717333Y-58062761D01*
X86574476Y-58110380D01*
X86479238Y-58110380D01*
X86336380Y-58062761D01*
X86241142Y-57967523D01*
X86193523Y-57872285D01*
X86145904Y-57681809D01*
X86145904Y-57538952D01*
X86193523Y-57348476D01*
X86241142Y-57253238D01*
X86336380Y-57158000D01*
X86479238Y-57110380D01*
X86574476Y-57110380D01*
X86717333Y-57158000D01*
X86764952Y-57205619D01*
X87145904Y-57205619D02*
X87193523Y-57158000D01*
X87288761Y-57110380D01*
X87526857Y-57110380D01*
X87622095Y-57158000D01*
X87669714Y-57205619D01*
X87717333Y-57300857D01*
X87717333Y-57396095D01*
X87669714Y-57538952D01*
X87098285Y-58110380D01*
X87717333Y-58110380D01*
X88336380Y-57110380D02*
X88431619Y-57110380D01*
X88526857Y-57158000D01*
X88574476Y-57205619D01*
X88622095Y-57300857D01*
X88669714Y-57491333D01*
X88669714Y-57729428D01*
X88622095Y-57919904D01*
X88574476Y-58015142D01*
X88526857Y-58062761D01*
X88431619Y-58110380D01*
X88336380Y-58110380D01*
X88241142Y-58062761D01*
X88193523Y-58015142D01*
X88145904Y-57919904D01*
X88098285Y-57729428D01*
X88098285Y-57491333D01*
X88145904Y-57300857D01*
X88193523Y-57205619D01*
X88241142Y-57158000D01*
X88336380Y-57110380D01*
X89003047Y-57110380D02*
X89622095Y-57110380D01*
X89288761Y-57491333D01*
X89431619Y-57491333D01*
X89526857Y-57538952D01*
X89574476Y-57586571D01*
X89622095Y-57681809D01*
X89622095Y-57919904D01*
X89574476Y-58015142D01*
X89526857Y-58062761D01*
X89431619Y-58110380D01*
X89145904Y-58110380D01*
X89050666Y-58062761D01*
X89003047Y-58015142D01*
X77254047Y-58226428D02*
X78015952Y-58226428D01*
X77635000Y-58607380D02*
X77635000Y-57845476D01*
X136294952Y-117705142D02*
X136247333Y-117752761D01*
X136104476Y-117800380D01*
X136009238Y-117800380D01*
X135866380Y-117752761D01*
X135771142Y-117657523D01*
X135723523Y-117562285D01*
X135675904Y-117371809D01*
X135675904Y-117228952D01*
X135723523Y-117038476D01*
X135771142Y-116943238D01*
X135866380Y-116848000D01*
X136009238Y-116800380D01*
X136104476Y-116800380D01*
X136247333Y-116848000D01*
X136294952Y-116895619D01*
X136675904Y-116895619D02*
X136723523Y-116848000D01*
X136818761Y-116800380D01*
X137056857Y-116800380D01*
X137152095Y-116848000D01*
X137199714Y-116895619D01*
X137247333Y-116990857D01*
X137247333Y-117086095D01*
X137199714Y-117228952D01*
X136628285Y-117800380D01*
X137247333Y-117800380D01*
X137866380Y-116800380D02*
X137961619Y-116800380D01*
X138056857Y-116848000D01*
X138104476Y-116895619D01*
X138152095Y-116990857D01*
X138199714Y-117181333D01*
X138199714Y-117419428D01*
X138152095Y-117609904D01*
X138104476Y-117705142D01*
X138056857Y-117752761D01*
X137961619Y-117800380D01*
X137866380Y-117800380D01*
X137771142Y-117752761D01*
X137723523Y-117705142D01*
X137675904Y-117609904D01*
X137628285Y-117419428D01*
X137628285Y-117181333D01*
X137675904Y-116990857D01*
X137723523Y-116895619D01*
X137771142Y-116848000D01*
X137866380Y-116800380D01*
X139056857Y-117133714D02*
X139056857Y-117800380D01*
X138818761Y-116752761D02*
X138580666Y-117467047D01*
X139199714Y-117467047D01*
X141059047Y-116541428D02*
X141820952Y-116541428D01*
X141440000Y-116922380D02*
X141440000Y-116160476D01*
X106449952Y-58015142D02*
X106402333Y-58062761D01*
X106259476Y-58110380D01*
X106164238Y-58110380D01*
X106021380Y-58062761D01*
X105926142Y-57967523D01*
X105878523Y-57872285D01*
X105830904Y-57681809D01*
X105830904Y-57538952D01*
X105878523Y-57348476D01*
X105926142Y-57253238D01*
X106021380Y-57158000D01*
X106164238Y-57110380D01*
X106259476Y-57110380D01*
X106402333Y-57158000D01*
X106449952Y-57205619D01*
X106830904Y-57205619D02*
X106878523Y-57158000D01*
X106973761Y-57110380D01*
X107211857Y-57110380D01*
X107307095Y-57158000D01*
X107354714Y-57205619D01*
X107402333Y-57300857D01*
X107402333Y-57396095D01*
X107354714Y-57538952D01*
X106783285Y-58110380D01*
X107402333Y-58110380D01*
X108021380Y-57110380D02*
X108116619Y-57110380D01*
X108211857Y-57158000D01*
X108259476Y-57205619D01*
X108307095Y-57300857D01*
X108354714Y-57491333D01*
X108354714Y-57729428D01*
X108307095Y-57919904D01*
X108259476Y-58015142D01*
X108211857Y-58062761D01*
X108116619Y-58110380D01*
X108021380Y-58110380D01*
X107926142Y-58062761D01*
X107878523Y-58015142D01*
X107830904Y-57919904D01*
X107783285Y-57729428D01*
X107783285Y-57491333D01*
X107830904Y-57300857D01*
X107878523Y-57205619D01*
X107926142Y-57158000D01*
X108021380Y-57110380D01*
X109259476Y-57110380D02*
X108783285Y-57110380D01*
X108735666Y-57586571D01*
X108783285Y-57538952D01*
X108878523Y-57491333D01*
X109116619Y-57491333D01*
X109211857Y-57538952D01*
X109259476Y-57586571D01*
X109307095Y-57681809D01*
X109307095Y-57919904D01*
X109259476Y-58015142D01*
X109211857Y-58062761D01*
X109116619Y-58110380D01*
X108878523Y-58110380D01*
X108783285Y-58062761D01*
X108735666Y-58015142D01*
X97574047Y-58226428D02*
X98335952Y-58226428D01*
X97955000Y-58607380D02*
X97955000Y-57845476D01*
X122959952Y-59920142D02*
X122912333Y-59967761D01*
X122769476Y-60015380D01*
X122674238Y-60015380D01*
X122531380Y-59967761D01*
X122436142Y-59872523D01*
X122388523Y-59777285D01*
X122340904Y-59586809D01*
X122340904Y-59443952D01*
X122388523Y-59253476D01*
X122436142Y-59158238D01*
X122531380Y-59063000D01*
X122674238Y-59015380D01*
X122769476Y-59015380D01*
X122912333Y-59063000D01*
X122959952Y-59110619D01*
X123340904Y-59110619D02*
X123388523Y-59063000D01*
X123483761Y-59015380D01*
X123721857Y-59015380D01*
X123817095Y-59063000D01*
X123864714Y-59110619D01*
X123912333Y-59205857D01*
X123912333Y-59301095D01*
X123864714Y-59443952D01*
X123293285Y-60015380D01*
X123912333Y-60015380D01*
X124531380Y-59015380D02*
X124626619Y-59015380D01*
X124721857Y-59063000D01*
X124769476Y-59110619D01*
X124817095Y-59205857D01*
X124864714Y-59396333D01*
X124864714Y-59634428D01*
X124817095Y-59824904D01*
X124769476Y-59920142D01*
X124721857Y-59967761D01*
X124626619Y-60015380D01*
X124531380Y-60015380D01*
X124436142Y-59967761D01*
X124388523Y-59920142D01*
X124340904Y-59824904D01*
X124293285Y-59634428D01*
X124293285Y-59396333D01*
X124340904Y-59205857D01*
X124388523Y-59110619D01*
X124436142Y-59063000D01*
X124531380Y-59015380D01*
X125721857Y-59015380D02*
X125531380Y-59015380D01*
X125436142Y-59063000D01*
X125388523Y-59110619D01*
X125293285Y-59253476D01*
X125245666Y-59443952D01*
X125245666Y-59824904D01*
X125293285Y-59920142D01*
X125340904Y-59967761D01*
X125436142Y-60015380D01*
X125626619Y-60015380D01*
X125721857Y-59967761D01*
X125769476Y-59920142D01*
X125817095Y-59824904D01*
X125817095Y-59586809D01*
X125769476Y-59491571D01*
X125721857Y-59443952D01*
X125626619Y-59396333D01*
X125436142Y-59396333D01*
X125340904Y-59443952D01*
X125293285Y-59491571D01*
X125245666Y-59586809D01*
X117894047Y-58226428D02*
X118655952Y-58226428D01*
X118275000Y-58607380D02*
X118275000Y-57845476D01*
D11*
X131916714Y-55009142D02*
X132424714Y-55009142D01*
X132642428Y-55807428D02*
X131916714Y-55807428D01*
X131916714Y-54283428D01*
X132642428Y-54283428D01*
X133585857Y-54283428D02*
X133731000Y-54283428D01*
X133876142Y-54356000D01*
X133948714Y-54428571D01*
X134021285Y-54573714D01*
X134093857Y-54864000D01*
X134093857Y-55226857D01*
X134021285Y-55517142D01*
X133948714Y-55662285D01*
X133876142Y-55734857D01*
X133731000Y-55807428D01*
X133585857Y-55807428D01*
X133440714Y-55734857D01*
X133368142Y-55662285D01*
X133295571Y-55517142D01*
X133223000Y-55226857D01*
X133223000Y-54864000D01*
X133295571Y-54573714D01*
X133368142Y-54428571D01*
X133440714Y-54356000D01*
X133585857Y-54283428D01*
X114136714Y-55009142D02*
X114644714Y-55009142D01*
X114862428Y-55807428D02*
X114136714Y-55807428D01*
X114136714Y-54283428D01*
X114862428Y-54283428D01*
X116313857Y-55807428D02*
X115443000Y-55807428D01*
X115878428Y-55807428D02*
X115878428Y-54283428D01*
X115733285Y-54501142D01*
X115588142Y-54646285D01*
X115443000Y-54718857D01*
X91911714Y-55644142D02*
X92419714Y-55644142D01*
X92637428Y-56442428D02*
X91911714Y-56442428D01*
X91911714Y-54918428D01*
X92637428Y-54918428D01*
X93218000Y-55063571D02*
X93290571Y-54991000D01*
X93435714Y-54918428D01*
X93798571Y-54918428D01*
X93943714Y-54991000D01*
X94016285Y-55063571D01*
X94088857Y-55208714D01*
X94088857Y-55353857D01*
X94016285Y-55571571D01*
X93145428Y-56442428D01*
X94088857Y-56442428D01*
X128651000Y-119688428D02*
X129667000Y-119688428D01*
X128651000Y-121212428D01*
X129667000Y-121212428D01*
X110744000Y-121121714D02*
X110744000Y-121847428D01*
X110236000Y-120323428D02*
X110744000Y-121121714D01*
X111252000Y-120323428D01*
X90170000Y-116386428D02*
X91186000Y-117910428D01*
X91186000Y-116386428D02*
X90170000Y-117910428D01*
D12*
X108672333Y-119705380D02*
X108339000Y-119229190D01*
X108100904Y-119705380D02*
X108100904Y-118705380D01*
X108481857Y-118705380D01*
X108577095Y-118753000D01*
X108624714Y-118800619D01*
X108672333Y-118895857D01*
X108672333Y-119038714D01*
X108624714Y-119133952D01*
X108577095Y-119181571D01*
X108481857Y-119229190D01*
X108100904Y-119229190D01*
X109529476Y-118705380D02*
X109339000Y-118705380D01*
X109243761Y-118753000D01*
X109196142Y-118800619D01*
X109100904Y-118943476D01*
X109053285Y-119133952D01*
X109053285Y-119514904D01*
X109100904Y-119610142D01*
X109148523Y-119657761D01*
X109243761Y-119705380D01*
X109434238Y-119705380D01*
X109529476Y-119657761D01*
X109577095Y-119610142D01*
X109624714Y-119514904D01*
X109624714Y-119276809D01*
X109577095Y-119181571D01*
X109529476Y-119133952D01*
X109434238Y-119086333D01*
X109243761Y-119086333D01*
X109148523Y-119133952D01*
X109100904Y-119181571D01*
X109053285Y-119276809D01*
X127526380Y-117514666D02*
X127050190Y-117848000D01*
X127526380Y-118086095D02*
X126526380Y-118086095D01*
X126526380Y-117705142D01*
X126574000Y-117609904D01*
X126621619Y-117562285D01*
X126716857Y-117514666D01*
X126859714Y-117514666D01*
X126954952Y-117562285D01*
X127002571Y-117609904D01*
X127050190Y-117705142D01*
X127050190Y-118086095D01*
X126526380Y-117181333D02*
X126526380Y-116514666D01*
X127526380Y-116943238D01*
%LPC*%
D25*
X130810000Y-101600000D03*
D26*
X128270000Y-101600000D03*
X130810000Y-99060000D03*
X128270000Y-99060000D03*
X130810000Y-96520000D03*
X128270000Y-96520000D03*
X130810000Y-93980000D03*
X128270000Y-93980000D03*
X130810000Y-91440000D03*
X128270000Y-91440000D03*
D25*
X101600000Y-70993000D03*
D26*
X101600000Y-68453000D03*
D27*
X104140000Y-70993000D03*
D26*
X104140000Y-68453000D03*
X106680000Y-70993000D03*
X106680000Y-68453000D03*
X109220000Y-70993000D03*
X109220000Y-68453000D03*
D25*
X119888000Y-106553000D03*
D26*
X119888000Y-109093000D03*
X117348000Y-106553000D03*
X117348000Y-109093000D03*
X114808000Y-106553000D03*
X114808000Y-109093000D03*
X112268000Y-106553000D03*
X112268000Y-109093000D03*
D27*
X88836500Y-65913000D03*
X86296500Y-65913000D03*
X83756500Y-65913000D03*
D25*
X81216500Y-65913000D03*
D26*
X109220000Y-65913000D03*
X106680000Y-65913000D03*
X104140000Y-65913000D03*
D25*
X101600000Y-65913000D03*
D26*
X129540000Y-65976500D03*
X127000000Y-65976500D03*
X124460000Y-65976500D03*
D25*
X121920000Y-65976500D03*
D26*
X130873500Y-111633000D03*
X133413500Y-111633000D03*
X135953500Y-111633000D03*
D25*
X138493500Y-111633000D03*
D26*
X112268000Y-111633000D03*
X114808000Y-111633000D03*
X117348000Y-111633000D03*
D25*
X119888000Y-111633000D03*
D26*
X90360500Y-111633000D03*
X92900500Y-111633000D03*
X95440500Y-111633000D03*
X97980500Y-111633000D03*
D25*
X97983040Y-106547920D03*
D26*
X97983040Y-109087920D03*
X95443040Y-106547920D03*
X95443040Y-109087920D03*
X92903040Y-106547920D03*
X92903040Y-109087920D03*
X90363040Y-106547920D03*
X90363040Y-109087920D03*
D25*
X138480800Y-106553000D03*
D26*
X138480800Y-109093000D03*
X135940800Y-106553000D03*
X135940800Y-109093000D03*
D27*
X133400800Y-106553000D03*
D26*
X133400800Y-109093000D03*
D27*
X130860800Y-106553000D03*
D26*
X130860800Y-109093000D03*
D25*
X81280000Y-70993000D03*
D26*
X81280000Y-68453000D03*
X83820000Y-70993000D03*
X83820000Y-68453000D03*
X86360000Y-70993000D03*
X86360000Y-68453000D03*
X88900000Y-70993000D03*
X88900000Y-68453000D03*
D25*
X121920000Y-70993000D03*
D26*
X121920000Y-68453000D03*
X124460000Y-70993000D03*
X124460000Y-68453000D03*
X127000000Y-70993000D03*
X127000000Y-68453000D03*
X129540000Y-70993000D03*
X129540000Y-68453000D03*
D12*
G36*
X132594493Y-64654535D02*
G01*
X132625435Y-64659125D01*
X132655778Y-64666725D01*
X132685230Y-64677263D01*
X132713508Y-64690638D01*
X132740338Y-64706719D01*
X132765463Y-64725353D01*
X132788640Y-64746360D01*
X132809647Y-64769537D01*
X132828281Y-64794662D01*
X132844362Y-64821492D01*
X132857737Y-64849770D01*
X132868275Y-64879222D01*
X132875875Y-64909565D01*
X132880465Y-64940507D01*
X132882000Y-64971750D01*
X132882000Y-65609250D01*
X132880465Y-65640493D01*
X132875875Y-65671435D01*
X132868275Y-65701778D01*
X132857737Y-65731230D01*
X132844362Y-65759508D01*
X132828281Y-65786338D01*
X132809647Y-65811463D01*
X132788640Y-65834640D01*
X132765463Y-65855647D01*
X132740338Y-65874281D01*
X132713508Y-65890362D01*
X132685230Y-65903737D01*
X132655778Y-65914275D01*
X132625435Y-65921875D01*
X132594493Y-65926465D01*
X132563250Y-65928000D01*
X131850750Y-65928000D01*
X131819507Y-65926465D01*
X131788565Y-65921875D01*
X131758222Y-65914275D01*
X131728770Y-65903737D01*
X131700492Y-65890362D01*
X131673662Y-65874281D01*
X131648537Y-65855647D01*
X131625360Y-65834640D01*
X131604353Y-65811463D01*
X131585719Y-65786338D01*
X131569638Y-65759508D01*
X131556263Y-65731230D01*
X131545725Y-65701778D01*
X131538125Y-65671435D01*
X131533535Y-65640493D01*
X131532000Y-65609250D01*
X131532000Y-64971750D01*
X131533535Y-64940507D01*
X131538125Y-64909565D01*
X131545725Y-64879222D01*
X131556263Y-64849770D01*
X131569638Y-64821492D01*
X131585719Y-64794662D01*
X131604353Y-64769537D01*
X131625360Y-64746360D01*
X131648537Y-64725353D01*
X131673662Y-64706719D01*
X131700492Y-64690638D01*
X131728770Y-64677263D01*
X131758222Y-64666725D01*
X131788565Y-64659125D01*
X131819507Y-64654535D01*
X131850750Y-64653000D01*
X132563250Y-64653000D01*
X132594493Y-64654535D01*
X132594493Y-64654535D01*
G37*
D28*
X132207000Y-65290500D03*
D12*
G36*
X132594493Y-66229535D02*
G01*
X132625435Y-66234125D01*
X132655778Y-66241725D01*
X132685230Y-66252263D01*
X132713508Y-66265638D01*
X132740338Y-66281719D01*
X132765463Y-66300353D01*
X132788640Y-66321360D01*
X132809647Y-66344537D01*
X132828281Y-66369662D01*
X132844362Y-66396492D01*
X132857737Y-66424770D01*
X132868275Y-66454222D01*
X132875875Y-66484565D01*
X132880465Y-66515507D01*
X132882000Y-66546750D01*
X132882000Y-67184250D01*
X132880465Y-67215493D01*
X132875875Y-67246435D01*
X132868275Y-67276778D01*
X132857737Y-67306230D01*
X132844362Y-67334508D01*
X132828281Y-67361338D01*
X132809647Y-67386463D01*
X132788640Y-67409640D01*
X132765463Y-67430647D01*
X132740338Y-67449281D01*
X132713508Y-67465362D01*
X132685230Y-67478737D01*
X132655778Y-67489275D01*
X132625435Y-67496875D01*
X132594493Y-67501465D01*
X132563250Y-67503000D01*
X131850750Y-67503000D01*
X131819507Y-67501465D01*
X131788565Y-67496875D01*
X131758222Y-67489275D01*
X131728770Y-67478737D01*
X131700492Y-67465362D01*
X131673662Y-67449281D01*
X131648537Y-67430647D01*
X131625360Y-67409640D01*
X131604353Y-67386463D01*
X131585719Y-67361338D01*
X131569638Y-67334508D01*
X131556263Y-67306230D01*
X131545725Y-67276778D01*
X131538125Y-67246435D01*
X131533535Y-67215493D01*
X131532000Y-67184250D01*
X131532000Y-66546750D01*
X131533535Y-66515507D01*
X131538125Y-66484565D01*
X131545725Y-66454222D01*
X131556263Y-66424770D01*
X131569638Y-66396492D01*
X131585719Y-66369662D01*
X131604353Y-66344537D01*
X131625360Y-66321360D01*
X131648537Y-66300353D01*
X131673662Y-66281719D01*
X131700492Y-66265638D01*
X131728770Y-66252263D01*
X131758222Y-66241725D01*
X131788565Y-66234125D01*
X131819507Y-66229535D01*
X131850750Y-66228000D01*
X132563250Y-66228000D01*
X132594493Y-66229535D01*
X132594493Y-66229535D01*
G37*
D28*
X132207000Y-66865500D03*
D12*
G36*
X112528493Y-64616535D02*
G01*
X112559435Y-64621125D01*
X112589778Y-64628725D01*
X112619230Y-64639263D01*
X112647508Y-64652638D01*
X112674338Y-64668719D01*
X112699463Y-64687353D01*
X112722640Y-64708360D01*
X112743647Y-64731537D01*
X112762281Y-64756662D01*
X112778362Y-64783492D01*
X112791737Y-64811770D01*
X112802275Y-64841222D01*
X112809875Y-64871565D01*
X112814465Y-64902507D01*
X112816000Y-64933750D01*
X112816000Y-65571250D01*
X112814465Y-65602493D01*
X112809875Y-65633435D01*
X112802275Y-65663778D01*
X112791737Y-65693230D01*
X112778362Y-65721508D01*
X112762281Y-65748338D01*
X112743647Y-65773463D01*
X112722640Y-65796640D01*
X112699463Y-65817647D01*
X112674338Y-65836281D01*
X112647508Y-65852362D01*
X112619230Y-65865737D01*
X112589778Y-65876275D01*
X112559435Y-65883875D01*
X112528493Y-65888465D01*
X112497250Y-65890000D01*
X111784750Y-65890000D01*
X111753507Y-65888465D01*
X111722565Y-65883875D01*
X111692222Y-65876275D01*
X111662770Y-65865737D01*
X111634492Y-65852362D01*
X111607662Y-65836281D01*
X111582537Y-65817647D01*
X111559360Y-65796640D01*
X111538353Y-65773463D01*
X111519719Y-65748338D01*
X111503638Y-65721508D01*
X111490263Y-65693230D01*
X111479725Y-65663778D01*
X111472125Y-65633435D01*
X111467535Y-65602493D01*
X111466000Y-65571250D01*
X111466000Y-64933750D01*
X111467535Y-64902507D01*
X111472125Y-64871565D01*
X111479725Y-64841222D01*
X111490263Y-64811770D01*
X111503638Y-64783492D01*
X111519719Y-64756662D01*
X111538353Y-64731537D01*
X111559360Y-64708360D01*
X111582537Y-64687353D01*
X111607662Y-64668719D01*
X111634492Y-64652638D01*
X111662770Y-64639263D01*
X111692222Y-64628725D01*
X111722565Y-64621125D01*
X111753507Y-64616535D01*
X111784750Y-64615000D01*
X112497250Y-64615000D01*
X112528493Y-64616535D01*
X112528493Y-64616535D01*
G37*
D28*
X112141000Y-65252500D03*
D12*
G36*
X112528493Y-66191535D02*
G01*
X112559435Y-66196125D01*
X112589778Y-66203725D01*
X112619230Y-66214263D01*
X112647508Y-66227638D01*
X112674338Y-66243719D01*
X112699463Y-66262353D01*
X112722640Y-66283360D01*
X112743647Y-66306537D01*
X112762281Y-66331662D01*
X112778362Y-66358492D01*
X112791737Y-66386770D01*
X112802275Y-66416222D01*
X112809875Y-66446565D01*
X112814465Y-66477507D01*
X112816000Y-66508750D01*
X112816000Y-67146250D01*
X112814465Y-67177493D01*
X112809875Y-67208435D01*
X112802275Y-67238778D01*
X112791737Y-67268230D01*
X112778362Y-67296508D01*
X112762281Y-67323338D01*
X112743647Y-67348463D01*
X112722640Y-67371640D01*
X112699463Y-67392647D01*
X112674338Y-67411281D01*
X112647508Y-67427362D01*
X112619230Y-67440737D01*
X112589778Y-67451275D01*
X112559435Y-67458875D01*
X112528493Y-67463465D01*
X112497250Y-67465000D01*
X111784750Y-67465000D01*
X111753507Y-67463465D01*
X111722565Y-67458875D01*
X111692222Y-67451275D01*
X111662770Y-67440737D01*
X111634492Y-67427362D01*
X111607662Y-67411281D01*
X111582537Y-67392647D01*
X111559360Y-67371640D01*
X111538353Y-67348463D01*
X111519719Y-67323338D01*
X111503638Y-67296508D01*
X111490263Y-67268230D01*
X111479725Y-67238778D01*
X111472125Y-67208435D01*
X111467535Y-67177493D01*
X111466000Y-67146250D01*
X111466000Y-66508750D01*
X111467535Y-66477507D01*
X111472125Y-66446565D01*
X111479725Y-66416222D01*
X111490263Y-66386770D01*
X111503638Y-66358492D01*
X111519719Y-66331662D01*
X111538353Y-66306537D01*
X111559360Y-66283360D01*
X111582537Y-66262353D01*
X111607662Y-66243719D01*
X111634492Y-66227638D01*
X111662770Y-66214263D01*
X111692222Y-66203725D01*
X111722565Y-66196125D01*
X111753507Y-66191535D01*
X111784750Y-66190000D01*
X112497250Y-66190000D01*
X112528493Y-66191535D01*
X112528493Y-66191535D01*
G37*
D28*
X112141000Y-66827500D03*
D12*
G36*
X92208493Y-64616535D02*
G01*
X92239435Y-64621125D01*
X92269778Y-64628725D01*
X92299230Y-64639263D01*
X92327508Y-64652638D01*
X92354338Y-64668719D01*
X92379463Y-64687353D01*
X92402640Y-64708360D01*
X92423647Y-64731537D01*
X92442281Y-64756662D01*
X92458362Y-64783492D01*
X92471737Y-64811770D01*
X92482275Y-64841222D01*
X92489875Y-64871565D01*
X92494465Y-64902507D01*
X92496000Y-64933750D01*
X92496000Y-65571250D01*
X92494465Y-65602493D01*
X92489875Y-65633435D01*
X92482275Y-65663778D01*
X92471737Y-65693230D01*
X92458362Y-65721508D01*
X92442281Y-65748338D01*
X92423647Y-65773463D01*
X92402640Y-65796640D01*
X92379463Y-65817647D01*
X92354338Y-65836281D01*
X92327508Y-65852362D01*
X92299230Y-65865737D01*
X92269778Y-65876275D01*
X92239435Y-65883875D01*
X92208493Y-65888465D01*
X92177250Y-65890000D01*
X91464750Y-65890000D01*
X91433507Y-65888465D01*
X91402565Y-65883875D01*
X91372222Y-65876275D01*
X91342770Y-65865737D01*
X91314492Y-65852362D01*
X91287662Y-65836281D01*
X91262537Y-65817647D01*
X91239360Y-65796640D01*
X91218353Y-65773463D01*
X91199719Y-65748338D01*
X91183638Y-65721508D01*
X91170263Y-65693230D01*
X91159725Y-65663778D01*
X91152125Y-65633435D01*
X91147535Y-65602493D01*
X91146000Y-65571250D01*
X91146000Y-64933750D01*
X91147535Y-64902507D01*
X91152125Y-64871565D01*
X91159725Y-64841222D01*
X91170263Y-64811770D01*
X91183638Y-64783492D01*
X91199719Y-64756662D01*
X91218353Y-64731537D01*
X91239360Y-64708360D01*
X91262537Y-64687353D01*
X91287662Y-64668719D01*
X91314492Y-64652638D01*
X91342770Y-64639263D01*
X91372222Y-64628725D01*
X91402565Y-64621125D01*
X91433507Y-64616535D01*
X91464750Y-64615000D01*
X92177250Y-64615000D01*
X92208493Y-64616535D01*
X92208493Y-64616535D01*
G37*
D28*
X91821000Y-65252500D03*
D12*
G36*
X92208493Y-66191535D02*
G01*
X92239435Y-66196125D01*
X92269778Y-66203725D01*
X92299230Y-66214263D01*
X92327508Y-66227638D01*
X92354338Y-66243719D01*
X92379463Y-66262353D01*
X92402640Y-66283360D01*
X92423647Y-66306537D01*
X92442281Y-66331662D01*
X92458362Y-66358492D01*
X92471737Y-66386770D01*
X92482275Y-66416222D01*
X92489875Y-66446565D01*
X92494465Y-66477507D01*
X92496000Y-66508750D01*
X92496000Y-67146250D01*
X92494465Y-67177493D01*
X92489875Y-67208435D01*
X92482275Y-67238778D01*
X92471737Y-67268230D01*
X92458362Y-67296508D01*
X92442281Y-67323338D01*
X92423647Y-67348463D01*
X92402640Y-67371640D01*
X92379463Y-67392647D01*
X92354338Y-67411281D01*
X92327508Y-67427362D01*
X92299230Y-67440737D01*
X92269778Y-67451275D01*
X92239435Y-67458875D01*
X92208493Y-67463465D01*
X92177250Y-67465000D01*
X91464750Y-67465000D01*
X91433507Y-67463465D01*
X91402565Y-67458875D01*
X91372222Y-67451275D01*
X91342770Y-67440737D01*
X91314492Y-67427362D01*
X91287662Y-67411281D01*
X91262537Y-67392647D01*
X91239360Y-67371640D01*
X91218353Y-67348463D01*
X91199719Y-67323338D01*
X91183638Y-67296508D01*
X91170263Y-67268230D01*
X91159725Y-67238778D01*
X91152125Y-67208435D01*
X91147535Y-67177493D01*
X91146000Y-67146250D01*
X91146000Y-66508750D01*
X91147535Y-66477507D01*
X91152125Y-66446565D01*
X91159725Y-66416222D01*
X91170263Y-66386770D01*
X91183638Y-66358492D01*
X91199719Y-66331662D01*
X91218353Y-66306537D01*
X91239360Y-66283360D01*
X91262537Y-66262353D01*
X91287662Y-66243719D01*
X91314492Y-66227638D01*
X91342770Y-66214263D01*
X91372222Y-66203725D01*
X91402565Y-66196125D01*
X91433507Y-66191535D01*
X91464750Y-66190000D01*
X92177250Y-66190000D01*
X92208493Y-66191535D01*
X92208493Y-66191535D01*
G37*
D28*
X91821000Y-66827500D03*
D29*
X57150000Y-107950000D03*
D30*
X57150000Y-102870000D03*
D29*
X57150000Y-95250000D03*
D30*
X57150000Y-90170000D03*
D31*
X112522000Y-80010000D03*
X107188000Y-80010000D03*
X112522000Y-81280000D03*
X112522000Y-82550000D03*
X112522000Y-83820000D03*
X107188000Y-81280000D03*
X107188000Y-82550000D03*
X107188000Y-83820000D03*
D32*
X68961000Y-46736000D03*
X68961000Y-48514000D03*
X66929000Y-47625000D03*
X68961000Y-53086000D03*
X68961000Y-54864000D03*
X66929000Y-53975000D03*
X79629000Y-80264000D03*
X79629000Y-78486000D03*
X81661000Y-79375000D03*
D33*
X83405980Y-95885000D03*
X85504020Y-95885000D03*
X64262000Y-86072980D03*
X64262000Y-88171020D03*
X64135000Y-73058020D03*
X64135000Y-70959980D03*
X64135000Y-82964020D03*
X64135000Y-80865980D03*
X64250000Y-64299020D03*
X64250000Y-62200980D03*
X64135000Y-56929020D03*
X64135000Y-54830980D03*
X64135000Y-50579020D03*
X64135000Y-48480980D03*
D34*
X74285140Y-97769680D03*
X76362860Y-97769680D03*
D35*
X75324000Y-102021640D03*
D25*
X127254000Y-134540000D03*
D26*
X124714000Y-134540000D03*
X122174000Y-134540000D03*
X119634000Y-134540000D03*
D25*
X56515000Y-45085000D03*
D26*
X56515000Y-42545000D03*
D25*
X100330000Y-134620000D03*
D26*
X97790000Y-134620000D03*
X95250000Y-134620000D03*
X92710000Y-134620000D03*
D25*
X115189000Y-134540000D03*
D26*
X112649000Y-134540000D03*
X110109000Y-134540000D03*
X107569000Y-134540000D03*
D25*
X139319000Y-134540000D03*
D26*
X136779000Y-134540000D03*
X134239000Y-134540000D03*
X131699000Y-134540000D03*
D25*
X83845400Y-43078400D03*
D26*
X86385400Y-43078400D03*
X88925400Y-43078400D03*
X91465400Y-43078400D03*
D25*
X107950000Y-43078400D03*
D26*
X110490000Y-43078400D03*
X113030000Y-43078400D03*
X115570000Y-43078400D03*
D25*
X137160000Y-88900000D03*
D26*
X139700000Y-88900000D03*
X137160000Y-91440000D03*
X139700000Y-91440000D03*
X137160000Y-93980000D03*
X139700000Y-93980000D03*
X137160000Y-96520000D03*
X139700000Y-96520000D03*
X137160000Y-99060000D03*
X139700000Y-99060000D03*
X137160000Y-101600000D03*
X139700000Y-101600000D03*
D25*
X119228000Y-43078400D03*
D26*
X121768000Y-43078400D03*
X124308000Y-43078400D03*
X126848000Y-43078400D03*
D36*
X56580000Y-60988000D03*
D37*
X56580000Y-64488000D03*
D25*
X148567000Y-58750200D03*
D26*
X148567000Y-61290200D03*
D36*
X56580000Y-80038000D03*
D37*
X56580000Y-83538000D03*
D36*
X56580000Y-70513000D03*
D37*
X56580000Y-74013000D03*
D25*
X56515000Y-56515000D03*
D26*
X56515000Y-53975000D03*
D25*
X56515000Y-50800000D03*
D26*
X56515000Y-48260000D03*
D38*
X88150000Y-85090000D03*
X89650000Y-85090000D03*
X90285000Y-87630000D03*
X88785000Y-87630000D03*
X79260000Y-86995000D03*
X80760000Y-86995000D03*
X96635000Y-85725000D03*
X95135000Y-85725000D03*
D39*
X79574000Y-100623800D03*
X79574000Y-99123800D03*
X81280000Y-100064000D03*
X81280000Y-98564000D03*
X101854000Y-100318000D03*
X101854000Y-98818000D03*
X101854000Y-96508000D03*
X101854000Y-95008000D03*
X101854000Y-92698000D03*
X101854000Y-91198000D03*
D38*
X119495000Y-79375000D03*
X117995000Y-79375000D03*
D39*
X101854000Y-88888000D03*
X101854000Y-87388000D03*
X103759000Y-88888000D03*
X103759000Y-87388000D03*
X103759000Y-92698000D03*
X103759000Y-91198000D03*
X103759000Y-100318000D03*
X103759000Y-98818000D03*
X103759000Y-96508000D03*
X103759000Y-95008000D03*
X114935000Y-80530000D03*
X114935000Y-82030000D03*
D40*
X74815000Y-49530000D03*
X76315000Y-49530000D03*
X74815000Y-51435000D03*
X76315000Y-51435000D03*
X84824000Y-79933800D03*
X83324000Y-79933800D03*
D41*
X141986000Y-110097000D03*
X141986000Y-108597000D03*
X102171500Y-111303500D03*
X102171500Y-109803500D03*
X122529600Y-108851000D03*
X122529600Y-110351000D03*
X78041500Y-68401500D03*
X78041500Y-69901500D03*
D40*
X98921000Y-66103500D03*
X97421000Y-66103500D03*
D41*
X119189500Y-67957000D03*
X119189500Y-69457000D03*
X137160000Y-81395000D03*
X137160000Y-79895000D03*
X135255000Y-81395000D03*
X135255000Y-79895000D03*
X71120000Y-97270000D03*
X71120000Y-95770000D03*
D40*
X60750000Y-76250000D03*
X62250000Y-76250000D03*
D41*
X70485000Y-87110000D03*
X70485000Y-85610000D03*
D40*
X66250000Y-65500000D03*
X67750000Y-65500000D03*
D41*
X105664000Y-100318000D03*
X105664000Y-98818000D03*
X105664000Y-96508000D03*
X105664000Y-95008000D03*
X105664000Y-92698000D03*
X105664000Y-91198000D03*
D40*
X122567000Y-107061000D03*
X124067000Y-107061000D03*
D41*
X124180600Y-108800200D03*
X124180600Y-110300200D03*
X93789500Y-74219500D03*
X93789500Y-72719500D03*
X91948000Y-72759000D03*
X91948000Y-71259000D03*
X105664000Y-88888000D03*
X105664000Y-87388000D03*
D40*
X74410000Y-88900000D03*
X72910000Y-88900000D03*
X74410000Y-80010000D03*
X72910000Y-80010000D03*
X75426000Y-64185800D03*
X73926000Y-64185800D03*
X75426000Y-72313800D03*
X73926000Y-72313800D03*
X70600000Y-50165000D03*
X69100000Y-50165000D03*
D41*
X71120000Y-53225000D03*
X71120000Y-54725000D03*
X66675000Y-57900000D03*
X66675000Y-56400000D03*
X66675000Y-51550000D03*
X66675000Y-50050000D03*
D42*
X103632000Y-82313780D03*
X102108000Y-82313780D03*
X103632000Y-81516220D03*
X102108000Y-81516220D03*
X103632000Y-83113880D03*
X103632000Y-80716120D03*
X102108000Y-80716120D03*
X102108000Y-83113880D03*
D43*
X98026220Y-96647000D03*
X98026220Y-95123000D03*
X98823780Y-96647000D03*
X98823780Y-95123000D03*
X97226120Y-96647000D03*
X99623880Y-96647000D03*
X99623880Y-95123000D03*
X97226120Y-95123000D03*
D42*
X90551000Y-91762580D03*
X89027000Y-91762580D03*
X90551000Y-90965020D03*
X89027000Y-90965020D03*
X90551000Y-92562680D03*
X90551000Y-90164920D03*
X89027000Y-90164920D03*
X89027000Y-92562680D03*
X88138000Y-81516220D03*
X89662000Y-81516220D03*
X88138000Y-82313780D03*
X89662000Y-82313780D03*
X88138000Y-80716120D03*
X88138000Y-83113880D03*
X89662000Y-83113880D03*
X89662000Y-80716120D03*
X119507000Y-83583780D03*
X117983000Y-83583780D03*
X119507000Y-82786220D03*
X117983000Y-82786220D03*
X119507000Y-84383880D03*
X119507000Y-81986120D03*
X117983000Y-81986120D03*
X117983000Y-84383880D03*
X131318000Y-81516220D03*
X132842000Y-81516220D03*
X131318000Y-82313780D03*
X132842000Y-82313780D03*
X131318000Y-80716120D03*
X131318000Y-83113880D03*
X132842000Y-83113880D03*
X132842000Y-80716120D03*
D44*
X99470000Y-83865000D03*
X99470000Y-83215000D03*
X99470000Y-82565000D03*
X99470000Y-81915000D03*
X99470000Y-81265000D03*
X99470000Y-80615000D03*
X99470000Y-79965000D03*
X93570000Y-79965000D03*
X93570000Y-80615000D03*
X93570000Y-81265000D03*
X93570000Y-81915000D03*
X93570000Y-82565000D03*
X93570000Y-83215000D03*
X93570000Y-83865000D03*
X92935000Y-87245000D03*
X92935000Y-87895000D03*
X92935000Y-88545000D03*
X92935000Y-89195000D03*
X92935000Y-89845000D03*
X92935000Y-90495000D03*
X92935000Y-91145000D03*
X92935000Y-91795000D03*
X92935000Y-92445000D03*
X92935000Y-93095000D03*
X98835000Y-93095000D03*
X98835000Y-92445000D03*
X98835000Y-91795000D03*
X98835000Y-91145000D03*
X98835000Y-90495000D03*
X98835000Y-89845000D03*
X98835000Y-89195000D03*
X98835000Y-88545000D03*
X98835000Y-87895000D03*
X98835000Y-87245000D03*
D45*
X128045000Y-79640000D03*
X128045000Y-80290000D03*
X128045000Y-80940000D03*
X128045000Y-81590000D03*
X128045000Y-82240000D03*
X128045000Y-82890000D03*
X128045000Y-83540000D03*
X128045000Y-84190000D03*
X122145000Y-84190000D03*
X122145000Y-83540000D03*
X122145000Y-82890000D03*
X122145000Y-82240000D03*
X122145000Y-81590000D03*
X122145000Y-80940000D03*
X122145000Y-80290000D03*
X122145000Y-79640000D03*
D26*
X116967000Y-96520000D03*
X116967000Y-99060000D03*
X116967000Y-101600000D03*
X114427000Y-101600000D03*
X114427000Y-99060000D03*
X114427000Y-96520000D03*
D46*
X78740000Y-124460000D03*
X81280000Y-124460000D03*
X69596000Y-76200000D03*
X72136000Y-76200000D03*
D26*
X147320000Y-119380000D03*
X144780000Y-119380000D03*
X147320000Y-116840000D03*
X144780000Y-116840000D03*
X147320000Y-114300000D03*
X144780000Y-114300000D03*
X147320000Y-111760000D03*
X144780000Y-111760000D03*
X147320000Y-109220000D03*
X144780000Y-109220000D03*
X147320000Y-106680000D03*
X144780000Y-106680000D03*
X147320000Y-104140000D03*
X144780000Y-104140000D03*
X147320000Y-101600000D03*
X144780000Y-101600000D03*
X147320000Y-99060000D03*
X144780000Y-99060000D03*
X147320000Y-96520000D03*
X144780000Y-96520000D03*
X147320000Y-93980000D03*
X144780000Y-93980000D03*
X147320000Y-91440000D03*
X144780000Y-91440000D03*
X144780000Y-88900000D03*
X147320000Y-88900000D03*
X147320000Y-76200000D03*
X144780000Y-76200000D03*
X147320000Y-86360000D03*
X144780000Y-86360000D03*
X147320000Y-83820000D03*
X144780000Y-83820000D03*
X147320000Y-81280000D03*
X144780000Y-81280000D03*
X147320000Y-78740000D03*
X144780000Y-78740000D03*
D47*
X64770000Y-124460000D03*
X66040000Y-76200000D03*
D48*
X140970000Y-76200000D03*
D47*
X147320000Y-124460000D03*
D46*
X88900000Y-124460000D03*
X74676000Y-76200000D03*
X77216000Y-76200000D03*
X79756000Y-76200000D03*
X82296000Y-76200000D03*
X84836000Y-76200000D03*
X87376000Y-76200000D03*
X89916000Y-76200000D03*
X92456000Y-76200000D03*
X96520000Y-76200000D03*
X99060000Y-76200000D03*
X101600000Y-76200000D03*
X104140000Y-76200000D03*
X106680000Y-76200000D03*
X109220000Y-76200000D03*
X111760000Y-76200000D03*
X114300000Y-76200000D03*
X83820000Y-124460000D03*
X86360000Y-124460000D03*
X91440000Y-124460000D03*
X93980000Y-124460000D03*
X96520000Y-124460000D03*
X106680000Y-124460000D03*
X104140000Y-124460000D03*
X101600000Y-124460000D03*
X109220000Y-124460000D03*
X111760000Y-124460000D03*
X114300000Y-124460000D03*
X132080000Y-124460000D03*
X129540000Y-124460000D03*
X127000000Y-124460000D03*
X116840000Y-124460000D03*
X119380000Y-124460000D03*
X124460000Y-124460000D03*
X134620000Y-124460000D03*
X137160000Y-124460000D03*
X139700000Y-124460000D03*
X142240000Y-124460000D03*
X137160000Y-76200000D03*
X134620000Y-76200000D03*
X132080000Y-76200000D03*
X129540000Y-76200000D03*
X127000000Y-76200000D03*
X124460000Y-76200000D03*
X121920000Y-76200000D03*
X119380000Y-76200000D03*
D40*
X109589000Y-87503000D03*
X108089000Y-87503000D03*
D49*
X57324000Y-137573000D03*
X137324000Y-46573000D03*
X141808200Y-137515600D03*
D33*
X142240000Y-58640980D03*
X142240000Y-60739020D03*
D32*
X141478000Y-64947800D03*
X139700000Y-64947800D03*
X140589000Y-62915800D03*
D41*
X139700000Y-59575000D03*
X139700000Y-61075000D03*
D25*
X88265000Y-134620000D03*
D26*
X85725000Y-134620000D03*
X83185000Y-134620000D03*
D29*
X57150000Y-130810000D03*
D30*
X57150000Y-125730000D03*
X57150000Y-115570000D03*
X57150000Y-120650000D03*
D50*
X127444500Y-107394500D03*
X127444500Y-110664500D03*
D51*
X93284040Y-102870000D03*
X97248980Y-102870000D03*
D52*
X61595000Y-80330040D03*
X61595000Y-84294980D03*
X61595000Y-70424040D03*
X61595000Y-74388980D03*
X61500000Y-62034040D03*
X61500000Y-65998980D03*
X63500000Y-90410040D03*
X63500000Y-94374980D03*
X61595000Y-53914040D03*
X61595000Y-57878980D03*
X61595000Y-47564040D03*
X61595000Y-51528980D03*
D53*
X65864000Y-130298720D03*
X65864000Y-133698720D03*
X75614000Y-130298720D03*
X75614000Y-133698720D03*
D54*
X142308000Y-134502720D03*
X142308000Y-130002720D03*
X150808000Y-134502720D03*
X150808000Y-130002720D03*
D53*
X64594000Y-108933720D03*
X67994000Y-108933720D03*
X64594000Y-99183720D03*
X67994000Y-99183720D03*
X65864000Y-115693720D03*
X65864000Y-119093720D03*
X75614000Y-115693720D03*
X75614000Y-119093720D03*
D41*
X87424000Y-121923000D03*
X87424000Y-120423000D03*
D55*
X107696000Y-104267000D03*
D56*
X107696000Y-106807000D03*
D55*
X81711800Y-108915200D03*
D56*
X84251800Y-108915200D03*
X86791800Y-108915200D03*
D55*
X88900000Y-102870000D03*
D56*
X86360000Y-102870000D03*
X83820000Y-102870000D03*
D55*
X104076500Y-106680000D03*
D56*
X101536500Y-106680000D03*
D55*
X136906000Y-69596000D03*
D56*
X136906000Y-67056000D03*
D55*
X95377000Y-41148000D03*
D56*
X95377000Y-43688000D03*
X95377000Y-46228000D03*
D55*
X97917000Y-41148000D03*
D56*
X97917000Y-43688000D03*
X97917000Y-46228000D03*
D55*
X100457000Y-41148000D03*
D56*
X100457000Y-43688000D03*
X100457000Y-46228000D03*
D55*
X102997000Y-41148000D03*
D56*
X102997000Y-43688000D03*
X102997000Y-46228000D03*
D55*
X123240800Y-89027000D03*
D26*
X123240800Y-91567000D03*
X123240800Y-94107000D03*
X123240800Y-96647000D03*
X123240800Y-99187000D03*
X123240800Y-101727000D03*
D55*
X78740000Y-41910000D03*
D56*
X76200000Y-41910000D03*
X73660000Y-41910000D03*
X71120000Y-41910000D03*
D55*
X147955000Y-137459720D03*
D56*
X145415000Y-137459720D03*
D55*
X130810000Y-43180000D03*
D56*
X133350000Y-43180000D03*
X135890000Y-43180000D03*
X138430000Y-43180000D03*
D55*
X149860000Y-119380000D03*
D56*
X149860000Y-116840000D03*
X149860000Y-114300000D03*
X149860000Y-111760000D03*
X149860000Y-109220000D03*
X149860000Y-106680000D03*
X149860000Y-104140000D03*
X149860000Y-101600000D03*
X149860000Y-99060000D03*
X149860000Y-96520000D03*
X149860000Y-93980000D03*
X149860000Y-91440000D03*
X149860000Y-88900000D03*
X149860000Y-86360000D03*
X149860000Y-83820000D03*
X149860000Y-81280000D03*
X149860000Y-78740000D03*
X149860000Y-76200000D03*
D55*
X78740000Y-44450000D03*
D56*
X76200000Y-44450000D03*
X73660000Y-44450000D03*
X71120000Y-44450000D03*
X68580000Y-44450000D03*
X66040000Y-44450000D03*
D55*
X149860000Y-72390000D03*
D56*
X147320000Y-72390000D03*
X149860000Y-69850000D03*
X147320000Y-69850000D03*
X149860000Y-67310000D03*
X147320000Y-67310000D03*
X149860000Y-64770000D03*
X147320000Y-64770000D03*
D55*
X144678400Y-41148000D03*
D56*
X144678400Y-43688000D03*
X144678400Y-46228000D03*
X144678400Y-48768000D03*
X144678400Y-51308000D03*
X144678400Y-53848000D03*
D55*
X147193000Y-41148000D03*
D56*
X149733000Y-41148000D03*
X147193000Y-43688000D03*
X149733000Y-43688000D03*
X147193000Y-46228000D03*
X149733000Y-46228000D03*
X147193000Y-48768000D03*
X149733000Y-48768000D03*
X147193000Y-51308000D03*
X149733000Y-51308000D03*
X147193000Y-53848000D03*
X149733000Y-53848000D03*
D57*
X70485000Y-60655200D03*
X67945000Y-60655200D03*
D58*
X73025000Y-60655200D03*
D57*
X70490100Y-83073200D03*
X67950100Y-83073200D03*
D58*
X73030100Y-83073200D03*
D57*
X70485000Y-68580000D03*
X67945000Y-68580000D03*
D58*
X73025000Y-68580000D03*
D57*
X70479900Y-91620300D03*
X67939900Y-91620300D03*
D58*
X73019900Y-91620300D03*
D57*
X85725000Y-91440000D03*
D58*
X83185000Y-91440000D03*
D57*
X80645000Y-91440000D03*
X85725000Y-83185000D03*
D58*
X83185000Y-83185000D03*
D57*
X80645000Y-83185000D03*
D59*
X77807800Y-108966000D03*
X72407800Y-108966000D03*
X101760000Y-119380000D03*
X96360000Y-119380000D03*
X123985000Y-119380000D03*
X118585000Y-119380000D03*
X79215000Y-55245000D03*
X84615000Y-55245000D03*
X139860000Y-119380000D03*
X134460000Y-119380000D03*
X99535000Y-55245000D03*
X104935000Y-55245000D03*
X119855000Y-55245000D03*
X125255000Y-55245000D03*
D26*
X119380000Y-63500000D03*
X121920000Y-63500000D03*
X124460000Y-63500000D03*
X127000000Y-63500000D03*
X129540000Y-63500000D03*
X132080000Y-63500000D03*
X134620000Y-63500000D03*
X137160000Y-63500000D03*
X137160000Y-50800000D03*
X134620000Y-50800000D03*
X132080000Y-50800000D03*
X129540000Y-50800000D03*
X127000000Y-50800000D03*
X124460000Y-50800000D03*
X121920000Y-50800000D03*
X119380000Y-50800000D03*
X99060000Y-63500000D03*
X101600000Y-63500000D03*
X104140000Y-63500000D03*
X106680000Y-63500000D03*
X109220000Y-63500000D03*
X111760000Y-63500000D03*
X114300000Y-63500000D03*
X116840000Y-63500000D03*
X116840000Y-50800000D03*
X114300000Y-50800000D03*
X111760000Y-50800000D03*
X109220000Y-50800000D03*
X106680000Y-50800000D03*
X104140000Y-50800000D03*
X101600000Y-50800000D03*
X99060000Y-50800000D03*
X78740000Y-63500000D03*
X81280000Y-63500000D03*
X83820000Y-63500000D03*
X86360000Y-63500000D03*
X88900000Y-63500000D03*
X91440000Y-63500000D03*
X93980000Y-63500000D03*
X96520000Y-63500000D03*
X96520000Y-50800000D03*
X93980000Y-50800000D03*
X91440000Y-50800000D03*
X88900000Y-50800000D03*
X86360000Y-50800000D03*
X83820000Y-50800000D03*
X81280000Y-50800000D03*
X78740000Y-50800000D03*
X140970000Y-114935000D03*
X138430000Y-114935000D03*
X135890000Y-114935000D03*
X133350000Y-114935000D03*
X130810000Y-114935000D03*
X128270000Y-114935000D03*
X125730000Y-114935000D03*
X123190000Y-114935000D03*
X123190000Y-127635000D03*
X125730000Y-127635000D03*
X128270000Y-127635000D03*
X130810000Y-127635000D03*
X133350000Y-127635000D03*
X135890000Y-127635000D03*
X138430000Y-127635000D03*
X140970000Y-127635000D03*
X120650000Y-114935000D03*
X118110000Y-114935000D03*
X115570000Y-114935000D03*
X113030000Y-114935000D03*
X110490000Y-114935000D03*
X107950000Y-114935000D03*
X105410000Y-114935000D03*
X102870000Y-114935000D03*
X102870000Y-127635000D03*
X105410000Y-127635000D03*
X107950000Y-127635000D03*
X110490000Y-127635000D03*
X113030000Y-127635000D03*
X115570000Y-127635000D03*
X118110000Y-127635000D03*
X120650000Y-127635000D03*
X100330000Y-114935000D03*
X97790000Y-114935000D03*
X95250000Y-114935000D03*
X92710000Y-114935000D03*
X90170000Y-114935000D03*
X87630000Y-114935000D03*
X85090000Y-114935000D03*
X82550000Y-114935000D03*
X82550000Y-127635000D03*
X85090000Y-127635000D03*
X87630000Y-127635000D03*
X90170000Y-127635000D03*
X92710000Y-127635000D03*
X95250000Y-127635000D03*
X97790000Y-127635000D03*
X100330000Y-127635000D03*
D40*
X109589000Y-117348000D03*
X108089000Y-117348000D03*
D41*
X128524000Y-118098000D03*
X128524000Y-116598000D03*
M02*
